  0
SECTION
  2
HEADER
  9
$ACADVER
  1
AC1009
  9
$INSBASE
 10
0.0
 20
0.0
 30
0.0
  9
$EXTMIN
 10
2276.6843744804627931
 20
1394.2289667962900239
 30
20.9999999999998188
  9
$EXTMAX
 10
2279.9997590958491855
 20
1397.5443514116759616
 30
26.0000000000003411
  9
$LIMMIN
 10
0.0
 20
0.0
  9
$LIMMAX
 10
420.0
 20
297.0
  9
$ORTHOMODE
 70
     0
  9
$REGENMODE
 70
     1
  9
$FILLMODE
 70
     1
  9
$QTEXTMODE
 70
     0
  9
$MIRRTEXT
 70
     0
  9
$DRAGMODE
 70
     2
  9
$LTSCALE
 40
1.0
  9
$OSMODE
 70
    37
  9
$ATTMODE
 70
     1
  9
$TEXTSIZE
 40
2.5
  9
$TRACEWID
 40
1.0
  9
$TEXTSTYLE
  7
STANDARD
  9
$CLAYER
  8
0
  9
$CELTYPE
  6
BYLAYER
  9
$CECOLOR
 62
   256
  9
$DIMSCALE
 40
1.0
  9
$DIMASZ
 40
2.5
  9
$DIMEXO
 40
0.625
  9
$DIMDLI
 40
3.75
  9
$DIMRND
 40
0.0
  9
$DIMDLE
 40
0.0
  9
$DIMEXE
 40
1.25
  9
$DIMTP
 40
0.0
  9
$DIMTM
 40
0.0
  9
$DIMTXT
 40
2.5
  9
$DIMCEN
 40
2.5
  9
$DIMTSZ
 40
0.0
  9
$DIMTOL
 70
     0
  9
$DIMLIM
 70
     0
  9
$DIMTIH
 70
     0
  9
$DIMTOH
 70
     0
  9
$DIMSE1
 70
     0
  9
$DIMSE2
 70
     0
  9
$DIMTAD
 70
     1
  9
$DIMZIN
 70
     8
  9
$DIMBLK
  1

  9
$DIMASO
 70
     1
  9
$DIMSHO
 70
     1
  9
$DIMPOST
  1

  9
$DIMAPOST
  1

  9
$DIMALT
 70
     0
  9
$DIMALTD
 70
     3
  9
$DIMALTF
 40
0.03937007874016
  9
$DIMLFAC
 40
1.0
  9
$DIMTOFL
 70
     1
  9
$DIMTVP
 40
0.0
  9
$DIMTIX
 70
     0
  9
$DIMSOXD
 70
     0
  9
$DIMSAH
 70
     0
  9
$DIMBLK1
  1

  9
$DIMBLK2
  1

  9
$DIMSTYLE
  2
ISO-25
  9
$DIMCLRD
 70
     0
  9
$DIMCLRE
 70
     0
  9
$DIMCLRT
 70
     0
  9
$DIMTFAC
 40
1.0
  9
$DIMGAP
 40
0.625
  9
$LUNITS
 70
     2
  9
$LUPREC
 70
     4
  9
$SKETCHINC
 40
1.0
  9
$FILLETRAD
 40
0.0
  9
$AUNITS
 70
     0
  9
$AUPREC
 70
     0
  9
$MENU
  1
.
  9
$ELEVATION
 40
0.0
  9
$PELEVATION
 40
0.0
  9
$THICKNESS
 40
0.0
  9
$LIMCHECK
 70
     0
  9
$BLIPMODE
 70
     0
  9
$CHAMFERA
 40
0.0
  9
$CHAMFERB
 40
0.0
  9
$SKPOLY
 70
     0
  9
$TDCREATE
 40
2460644.5659027779474854
  9
$TDUPDATE
 40
2460734.5042939819395542
  9
$TDINDWG
 40
0.1788888889
  9
$TDUSRTIMER
 40
0.1788888889
  9
$USRTIMER
 70
     1
  9
$ANGBASE
 50
0.0
  9
$ANGDIR
 70
     0
  9
$PDMODE
 70
     0
  9
$PDSIZE
 40
0.0
  9
$PLINEWID
 40
0.0
  9
$COORDS
 70
     1
  9
$SPLFRAME
 70
     0
  9
$SPLINETYPE
 70
     6
  9
$SPLINESEGS
 70
     8
  9
$ATTDIA
 70
     1
  9
$ATTREQ
 70
     1
  9
$HANDLING
 70
     1
  9
$HANDSEED
  5
132C
  9
$SURFTAB1
 70
     6
  9
$SURFTAB2
 70
     6
  9
$SURFTYPE
 70
     6
  9
$SURFU
 70
     6
  9
$SURFV
 70
     6
  9
$UCSNAME
  2

  9
$UCSORG
 10
2278.3420667881550798
 20
1395.8866591039820833
 30
20.9999999999999005
  9
$UCSXDIR
 10
1.0
 20
0.0
 30
0.0
  9
$UCSYDIR
 10
0.0
 20
1.0
 30
0.0
  9
$PUCSNAME
  2

  9
$PUCSORG
 10
0.0
 20
0.0
 30
0.0
  9
$PUCSXDIR
 10
1.0
 20
0.0
 30
0.0
  9
$PUCSYDIR
 10
0.0
 20
1.0
 30
0.0
  9
$USERI1
 70
     0
  9
$USERI2
 70
     0
  9
$USERI3
 70
     0
  9
$USERI4
 70
     0
  9
$USERI5
 70
     0
  9
$USERR1
 40
0.0
  9
$USERR2
 40
0.0
  9
$USERR3
 40
0.0
  9
$USERR4
 40
0.0
  9
$USERR5
 40
0.0
  9
$WORLDVIEW
 70
     1
  9
$SHADEDGE
 70
     3
  9
$SHADEDIF
 70
    70
  9
$TILEMODE
 70
     1
  9
$MAXACTVP
 70
    64
  9
$PLIMCHECK
 70
     0
  9
$PEXTMIN
 10
0.0
 20
0.0
 30
0.0
  9
$PEXTMAX
 10
0.0
 20
0.0
 30
0.0
  9
$PLIMMIN
 10
0.0
 20
0.0
  9
$PLIMMAX
 10
12.0
 20
9.0
  9
$UNITMODE
 70
     0
  9
$VISRETAIN
 70
     1
  9
$PLINEGEN
 70
     0
  9
$PSLTSCALE
 70
     1
  0
ENDSEC
  0
SECTION
  2
TABLES
  0
TABLE
  2
VPORT
 70
     1
  0
VPORT
  2
*ACTIVE
 70
     0
 10
0.0
 20
0.0
 11
1.0
 21
1.0
 12
0.0
 22
0.1795307487756186
 13
0.0
 23
0.0
 14
10.0
 24
10.0
 15
10.0
 25
10.0
 16
1.6455896950483291
 26
-14.9256000658267602
 36
15.3655618738511208
 17
2279.3767221869647983
 27
1396.1285217776890022
 37
23.6241300052661209
 40
6.5774085122122301
 41
2.555259653794939
 42
50.0
 43
0.0
 44
0.0
 50
0.0
 51
0.0000000000000006
 71
     0
 72
  1000
 73
     1
 74
     3
 75
     0
 76
     1
 77
     0
 78
     0
  0
ENDTAB
  0
TABLE
  2
LTYPE
 70
     1
  0
LTYPE
  2
CONTINUOUS
 70
     0
  3
Solid line
 72
    65
 73
     0
 40
0.0
  0
ENDTAB
  0
TABLE
  2
LAYER
 70
    18
  0
LAYER
  2
0
 70
     0
 62
     7
  6
CONTINUOUS
  0
LAYER
  2
PÉS_-_MONTANTES
 70
     0
 62
   110
  6
CONTINUOUS
  0
LAYER
  2
PÉS_-_DIAGONAIS_VERTICAIS
 70
     0
 62
    94
  6
CONTINUOUS
  0
LAYER
  2
PÉS_-_DIAGONAIS_HORIZONTAI
 70
     0
 62
    64
  6
CONTINUOUS
  0
LAYER
  2
EXTENSÃO_-_DIAGONAIS_HORIZ
 70
     0
 62
    42
  6
CONTINUOUS
  0
LAYER
  2
EXTENSÃO_-_DIAGONAIS_VERTI
 70
     0
 62
    30
  6
CONTINUOUS
  0
LAYER
  2
EXTENSÃO_-_MONTANTES
 70
     0
 62
    41
  6
CONTINUOUS
  0
LAYER
  2
TRONCO_-_DIAGONAIS_HORIZON
 70
     0
 62
   190
  6
CONTINUOUS
  0
LAYER
  2
TRONCO_-_DIAGONAIS_VERTICA
 70
     0
 62
   222
  6
CONTINUOUS
  0
LAYER
  2
TRONCO_-_MONTANTES
 70
     0
 62
   191
  6
CONTINUOUS
  0
LAYER
  2
CABEÇA_-_MONTANTES
 70
     0
 62
    11
  6
CONTINUOUS
  0
LAYER
  2
CABEÇA_-_DIAGONAIS_HORIZON
 70
     0
 62
    12
  6
CONTINUOUS
  0
LAYER
  2
CABEÇA_-_DIAGONAIS_VERTICA
 70
     0
 62
    10
  6
CONTINUOUS
  0
LAYER
  2
BRAÇO_-_MONTANTES
 70
     0
 62
   121
  6
CONTINUOUS
  0
LAYER
  2
BRAÇO_-_DIAGONAIS_VERTICAI
 70
     0
 62
   135
  6
CONTINUOUS
  0
LAYER
  2
BRAÇO_-_DIAGONAIS_HORIZONT
 70
     0
 62
   103
  6
CONTINUOUS
  0
LAYER
  2
PARA_RAIOS_-_MONTANTES
 70
     0
 62
    61
  6
CONTINUOUS
  0
LAYER
  2
PARA_RAIOS_-_DIAGONAIS_VER
 70
     0
 62
    62
  6
CONTINUOUS
  0
ENDTAB
  0
TABLE
  2
STYLE
 70
     2
  0
STYLE
  2
STANDARD
 70
     0
 40
0.0
 41
1.0
 50
0.0
 71
     0
 42
2.5
  3
txt
  4

  0
STYLE
  2
ANNOTATIVE
 70
     0
 40
0.0
 41
1.0
 50
0.0
 71
     0
 42
2.5
  3
txt
  4

  0
ENDTAB
  0
TABLE
  2
VIEW
 70
     0
  0
ENDTAB
  0
TABLE
  2
UCS
 70
     0
  0
ENDTAB
  0
TABLE
  2
APPID
 70
    12
  0
APPID
  2
ACAD
 70
     0
  0
APPID
  2
ACAD_PSEXT
 70
     0
  0
APPID
  2
ACADANNOPO
 70
     0
  0
APPID
  2
ACADANNOTATIVE
 70
     0
  0
APPID
  2
ACAD_DSTYLE_DIMJAG
 70
     0
  0
APPID
  2
ACAD_DSTYLE_DIMTALN
 70
     0
  0
APPID
  2
ACAD_MLEADERVER
 70
     0
  0
APPID
  2
ACAD_NAV_VCDISPLAY
 70
     0
  0
APPID
  2
ACAECLAYERSTANDARD
 70
     0
  0
APPID
  2
ACCMTRANSPARENCY
 70
     0
  0
APPID
  2
ACAD_EXEMPT_FROM_CAD_STANDARDS
 70
     0
  0
APPID
  2
ACAD_TC
 70
     0
  0
ENDTAB
  0
TABLE
  2
DIMSTYLE
 70
     3
  0
DIMSTYLE
  2
STANDARD
 70
     0
  3

  4

  5

  6

  7

 40
1.0
 41
0.18
 42
0.0625
 43
0.38
 44
0.18
 45
0.0
 46
0.0
 47
0.0
 48
0.0
140
0.18
141
0.09
142
0.0
143
25.3999999999999986
144
1.0
145
0.0
146
1.0
147
0.09
 71
     0
 72
     0
 73
     1
 74
     1
 75
     0
 76
     0
 77
     0
 78
     0
170
     0
171
     2
172
     0
173
     0
174
     0
175
     0
176
     0
177
     0
178
     0
  0
DIMSTYLE
  2
ANNOTATIVE
 70
     0
  3

  4

  5

  6

  7

 40
0.0
 41
2.5
 42
0.625
 43
3.75
 44
1.25
 45
0.0
 46
0.0
 47
0.0
 48
0.0
140
2.5
141
2.5
142
0.0
143
0.03937007874016
144
1.0
145
0.0
146
1.0
147
0.625
 71
     0
 72
     0
 73
     0
 74
     0
 75
     0
 76
     0
 77
     1
 78
     8
170
     0
171
     3
172
     1
173
     0
174
     0
175
     0
176
     0
177
     0
178
     0
  0
DIMSTYLE
  2
ISO-25
 70
     0
  3

  4

  5

  6

  7

 40
1.0
 41
2.5
 42
0.625
 43
3.75
 44
1.25
 45
0.0
 46
0.0
 47
0.0
 48
0.0
140
2.5
141
2.5
142
0.0
143
0.03937007874016
144
1.0
145
0.0
146
1.0
147
0.625
 71
     0
 72
     0
 73
     0
 74
     0
 75
     0
 76
     0
 77
     1
 78
     8
170
     0
171
     3
172
     1
173
     0
174
     0
175
     0
176
     0
177
     0
178
     0
  0
ENDTAB
  0
ENDSEC
  0
SECTION
  2
BLOCKS
  0
BLOCK
  8
0
  2
$MODEL_SPACE
 70
     0
 10
0.0
 20
0.0
 30
0.0
  3
$MODEL_SPACE
  1

  0
ENDBLK
  5
21
  8
0
  0
BLOCK
 67
     1
  8
0
  2
$PAPER_SPACE
 70
     0
 10
0.0
 20
0.0
 30
0.0
  3
$PAPER_SPACE
  1

  0
ENDBLK
  5
D5
 67
     1
  8
0
  0
ENDSEC
  0
SECTION
  2
ENTITIES
  0
LINE
  5
FD9
  8
TRONCO_-_MONTANTES
 10
2279.4420667881549889
 20
1394.7866591039819468
 30
25.9999999999997797
 11
2279.5124069342900839
 21
1394.7163189578470792
 31
25.3693642070711292
  0
LINE
  5
FDA
  8
TRONCO_-_MONTANTES
 10
2277.2420667881560803
 20
1394.7866591039819468
 30
25.9999999999998117
 11
2277.1717266420218948
 21
1394.7163189578470792
 31
25.3693642070710617
  0
LINE
  5
FDB
  8
TRONCO_-_MONTANTES
 10
2279.4420667881549889
 20
1396.9866591039819923
 30
25.9999999999999183
 11
2279.5124069342900839
 21
1397.0569992501159504
 31
25.3693642070714809
  0
LINE
  5
FDC
  8
TRONCO_-_MONTANTES
 10
2277.2420667881560803
 20
1396.9866591039819923
 30
26.0000000000003411
 11
2277.1717266420218948
 21
1397.0569992501159504
 31
25.3693642070705891
  0
LINE
  5
FEB
  8
TRONCO_-_MONTANTES
 10
2279.4420667881549889
 20
1394.7866591039819468
 30
25.9999999999999005
 11
2279.4420667881558984
 21
1395.8866591039829927
 31
25.9999999999998614
210
1.0
220
0.0000000000000008
230
-0.0000000000000008
  0
LINE
  5
FEC
  8
TRONCO_-_MONTANTES
 10
2277.2420667881560803
 20
1394.7866591039819468
 30
25.9999999999999183
 11
2277.2420667881560803
 21
1395.8866591039829927
 31
25.9999999999999183
210
1.0
220
0.0000000000000008
230
-0.0000000000000008
  0
LINE
  5
FED
  8
TRONCO_-_MONTANTES
 10
2277.2420667881560803
 20
1394.7866591039819468
 30
25.9999999999999183
 11
2277.7920667881558074
 21
1394.7866591039819468
 31
25.9999999999994813
210
0.0000000000000005
220
-1.0
230
-0.0000000000000002
  0
LINE
  5
FEE
  8
TRONCO_-_MONTANTES
 10
2277.2420667881560803
 20
1396.9866591039819923
 30
25.9999999999999112
 11
2277.7920667881548979
 21
1396.9866591039819923
 31
26.0000000000001492
210
0.0000000000000005
220
-1.0
230
-0.0000000000000002
  0
LINE
  5
FEF
  8
TRONCO_-_DIAGONAIS_HORIZON
 10
2277.2420667881560803
 20
1396.9866591039819923
 30
25.9999999999999112
 11
2278.3420667881559893
 21
1395.8866591039809464
 31
25.9999999999997584
  0
LINE
  5
FF0
  8
TRONCO_-_DIAGONAIS_HORIZON
 10
2277.2420667881560803
 20
1394.7866591039819468
 30
25.9999999999999183
 11
2278.3420667881550798
 21
1395.8866591039820833
 31
25.9999999999997016
  0
LINE
  5
FF1
  8
TRONCO_-_DIAGONAIS_VERTICA
 10
2278.3420667881550798
 20
1394.2289667962900239
 30
20.9999999999999787
 11
2279.1709129420009958
 21
1394.3257554282929505
 31
21.8677601489997784
  0
LINE
  5
FF2
  8
TRONCO_-_DIAGONAIS_VERTICA
 10
2279.8264231612029107
 20
1394.402302730934025
 30
22.5540463106064415
 11
2279.0029080926051392
 21
1394.4997139012050411
 31
23.4273878371727697
  0
LINE
  5
FF3
  8
TRONCO_-_DIAGONAIS_VERTICA
 10
2277.1717266420209853
 20
1394.7163189578470792
 30
25.3693642070708911
 11
2277.7920667881548979
 21
1394.7866591039819468
 31
25.9999999999999112
  0
LINE
  5
FF4
  8
TRONCO_-_DIAGONAIS_VERTICA
 10
2277.7920667881548979
 20
1394.7866591039819468
 30
25.9999999999999005
 11
2278.3420667881550798
 21
1394.7242948017280924
 31
25.4408717728938285
  0
LINE
  5
FF5
  8
TRONCO_-_DIAGONAIS_VERTICA
 10
2279.6530872265589096
 20
1394.5756386655789356
 30
24.1080926212129008
 11
2276.6843744804627931
 21
1394.2289667962900239
 31
20.9999999999999716
  0
LINE
  5
FF6
  8
TRONCO_-_DIAGONAIS_VERTICA
 10
2278.3420667881550798
 20
1394.2289667962900239
 30
20.9999999999999787
 11
2277.5132206343091639
 21
1394.3257554282929505
 31
21.867760149000059
  0
LINE
  5
FF7
  8
TRONCO_-_DIAGONAIS_VERTICA
 10
2276.8577104151081585
 20
1394.402302730934025
 30
22.5540463106064415
 11
2277.6812254837059299
 21
1394.4997139012050411
 31
23.4273878371727804
  0
LINE
  5
FF8
  8
TRONCO_-_DIAGONAIS_VERTICA
 10
2279.5124069342900839
 20
1394.7163189578470792
 30
25.3693642070708911
 11
2278.892066788154807
 21
1394.7866591039819468
 31
25.9999999999999112
  0
LINE
  5
FF9
  8
TRONCO_-_DIAGONAIS_VERTICA
 10
2278.892066788154807
 20
1394.7866591039819468
 30
25.9999999999999112
 11
2278.3420667881550798
 21
1394.7242948017280924
 31
25.4408717728935798
  0
LINE
  5
FFA
  8
TRONCO_-_DIAGONAIS_VERTICA
 10
2277.0310463497521596
 20
1394.5756386655789356
 30
24.1080926212128901
 11
2277.6812254837059299
 21
1394.4997139012050411
 31
23.4273878371727484
  0
LINE
  5
FFB
  8
TRONCO_-_DIAGONAIS_VERTICA
 10
2279.6530872265589096
 20
1394.5756386655789356
 30
24.1080926212128794
 11
2279.0029080926051392
 21
1394.4997139012050411
 31
23.4273878371729687
  0
LINE
  5
1182
  8
TRONCO_-_DIAGONAIS_VERTICA
 10
2279.4420667881549889
 20
1395.8866591039820833
 30
25.9999999999999005
 11
2279.5059852493541257
 21
1396.4503654614429706
 31
25.4269379340800796
  0
LINE
  5
1183
  8
TRONCO_-_DIAGONAIS_VERTICA
 10
2279.5827470804251789
 20
1397.1273393962510454
 30
24.7387284141418711
 11
2279.6513988800911648
 21
1396.5430134964169611
 31
24.1232295205801215
  0
LINE
  5
1184
  8
TRONCO_-_DIAGONAIS_VERTICA
 10
2279.9130911285260481
 20
1394.3156347636120245
 30
21.777023155303219
 11
2279.9997590958478213
 21
1395.0578129501359399
 31
20.9999999999999183
  0
LINE
  5
1185
  8
TRONCO_-_DIAGONAIS_VERTICA
 10
2279.9997590958478213
 20
1395.0578129501359399
 30
20.9999999999999183
 11
2279.9029704638442126
 21
1395.8866591039820833
 31
21.8677601489996505
  0
LINE
  5
1186
  8
TRONCO_-_DIAGONAIS_VERTICA
 10
2279.7397551938811375
 20
1397.2843475097070041
 30
23.3310694659096711
 11
2279.6513988800911648
 21
1396.5430134964169611
 31
24.1232295205801996
  0
LINE
  5
1187
  8
TRONCO_-_DIAGONAIS_VERTICA
 10
2279.4420667881549889
 20
1395.8866591039820833
 30
25.9999999999999005
 11
2279.5827470804251789
 21
1394.6459788117128937
 31
24.7387284141418711
  0
LINE
  5
1188
  8
TRONCO_-_DIAGONAIS_VERTICA
 10
2279.5827470804251789
 20
1394.6459788117128937
 30
24.7387284141418711
 11
2279.6513988800911648
 21
1395.2303047115460686
 31
24.1232295205801215
  0
LINE
  5
1189
  8
TRONCO_-_DIAGONAIS_VERTICA
 10
2279.9130911285260481
 20
1397.4576834443519147
 30
21.7770231553032083
 11
2279.9997590958478213
 21
1396.7155052578279992
 31
20.9999999999999503
  0
LINE
  5
118A
  8
TRONCO_-_DIAGONAIS_VERTICA
 10
2279.9997590958478213
 20
1396.7155052578279992
 30
20.9999999999999503
 11
2279.9029704638442126
 21
1395.8866591039820833
 31
21.8677601490001798
  0
LINE
  5
118B
  8
TRONCO_-_DIAGONAIS_VERTICA
 10
2279.7397551938811375
 20
1394.4889706982560256
 30
23.3310694659096605
 11
2279.6513988800911648
 21
1395.2303047115460686
 31
24.1232295205802494
  0
LINE
  5
11E1
  8
TRONCO_-_DIAGONAIS_HORIZON
 10
2278.3420667881550798
 20
1395.8866591039820833
 30
25.9999999999997016
 11
2279.4420667881549889
 21
1396.9866591039819923
 31
25.9999999999999005
  0
LINE
  5
11E3
  8
TRONCO_-_DIAGONAIS_HORIZON
 10
2278.3420667881559893
 20
1395.8866591039809464
 30
25.9999999999997584
 11
2279.4420667881549889
 21
1394.7866591039819468
 31
26.0000000000000107
  0
LINE
  5
11E4
  8
TRONCO_-_MONTANTES
 10
2277.7920667881558074
 20
1394.7866591039819468
 30
25.9999999999994813
 11
2278.8920667881561712
 21
1394.7866591039830837
 31
25.9999999999994102
210
0.0000000000000005
220
-1.0
230
-0.0000000000000002
  0
LINE
  5
11E5
  8
TRONCO_-_MONTANTES
 10
2278.8920667881561712
 20
1394.7866591039830837
 30
25.9999999999994102
 11
2279.4420667881549889
 21
1394.7866591039819468
 31
26.0000000000000107
210
0.0000000000000005
220
-1.0
230
-0.0000000000000002
  0
LINE
  5
11E6
  8
TRONCO_-_MONTANTES
 10
2277.7920667881548979
 20
1396.9866591039819923
 30
26.0000000000001492
 11
2278.892066788154807
 21
1396.9866591039819923
 31
26.0000000000002593
210
0.0000000000000005
220
-1.0
230
-0.0000000000000002
  0
LINE
  5
11E7
  8
TRONCO_-_MONTANTES
 10
2278.892066788154807
 20
1396.9866591039819923
 30
26.0000000000002593
 11
2279.4420667881549889
 21
1396.9866591039819923
 31
25.9999999999999289
210
0.0000000000000005
220
-1.0
230
-0.0000000000000002
  0
LINE
  5
11E8
  8
TRONCO_-_MONTANTES
 10
2279.4420667881558984
 20
1395.8866591039829927
 30
25.9999999999998614
 11
2279.4420667881549889
 21
1396.9866591039819923
 31
25.9999999999999005
210
1.0
220
0.0000000000000008
230
-0.0000000000000008
  0
LINE
  5
11E9
  8
TRONCO_-_MONTANTES
 10
2277.2420667881560803
 20
1395.8866591039829927
 30
25.9999999999999183
 11
2277.2420667881560803
 21
1396.9866591039819923
 31
25.9999999999999112
210
1.0
220
0.0000000000000008
230
-0.0000000000000008
  0
LINE
  5
11EA
  8
TRONCO_-_MONTANTES
 10
2277.1717266420218948
 20
1394.7163189578470792
 30
25.3693642070710617
 11
2277.1013864958881641
 21
1394.6459788117140306
 31
24.7387284141419492
  0
LINE
  5
11EB
  8
TRONCO_-_MONTANTES
 10
2277.1013864958881641
 20
1394.6459788117140306
 30
24.7387284141419492
 11
2277.0310463497530691
 21
1394.5756386655800725
 31
24.1080926212139488
  0
LINE
  5
11EC
  8
TRONCO_-_MONTANTES
 10
2277.0310463497530691
 20
1394.5756386655800725
 30
24.1080926212139488
 11
2276.9443783824308412
 21
1394.4889706982569351
 31
23.3310694659094509
  0
LINE
  5
11ED
  8
TRONCO_-_MONTANTES
 10
2276.9443783824308412
 20
1394.4889706982569351
 30
23.3310694659094509
 11
2276.857710415109068
 21
1394.4023027309360714
 31
22.554046310607081
  0
LINE
  5
11EE
  8
TRONCO_-_MONTANTES
 10
2276.857710415109068
 20
1394.4023027309360714
 30
22.554046310607081
 11
2276.7710424477868401
 21
1394.315634763612934
 31
21.7770231553041214
  0
LINE
  5
11EF
  8
TRONCO_-_MONTANTES
 10
2276.7710424477868401
 20
1394.315634763612934
 30
21.7770231553041214
 11
2276.6843744804627931
 21
1394.2289667962900239
 31
20.9999999999999609
  0
LINE
  5
11F0
  8
TRONCO_-_MONTANTES
 10
2279.5124069342900839
 20
1394.7163189578470792
 30
25.3693642070711292
 11
2279.5827470804238146
 21
1394.6459788117128937
 31
24.7387284141420913
  0
LINE
  5
11F1
  8
TRONCO_-_MONTANTES
 10
2279.5827470804238146
 20
1394.6459788117128937
 30
24.7387284141420913
 11
2279.6530872265580001
 21
1394.5756386655780261
 31
24.1080926212129896
  0
LINE
  5
11F2
  8
TRONCO_-_MONTANTES
 10
2279.6530872265580001
 20
1394.5756386655780261
 30
24.1080926212129896
 11
2279.7397551938797733
 21
1394.4889706982560256
 31
23.3310694659097102
  0
LINE
  5
11F3
  8
TRONCO_-_MONTANTES
 10
2279.7397551938797733
 20
1394.4889706982560256
 30
23.3310694659097102
 11
2279.8264231612020012
 21
1394.402302730934025
 31
22.5540463106072409
  0
LINE
  5
11F4
  8
TRONCO_-_MONTANTES
 10
2279.8264231612020012
 20
1394.402302730934025
 30
22.5540463106072409
 11
2279.9130911285251386
 21
1394.3156347636120245
 31
21.7770231553032296
  0
LINE
  5
11F5
  8
TRONCO_-_MONTANTES
 10
2279.9130911285251386
 20
1394.3156347636120245
 30
21.7770231553032296
 11
2279.9997590958478213
 21
1394.2289667962900239
 31
20.9999999999998685
  0
LINE
  5
11F6
  8
TRONCO_-_MONTANTES
 10
2279.5124069342900839
 20
1397.0569992501159504
 30
25.3693642070714809
 11
2279.5827470804251789
 21
1397.1273393962510454
 31
24.7387284141421695
  0
LINE
  5
11F7
  8
TRONCO_-_MONTANTES
 10
2279.5827470804251789
 20
1397.1273393962510454
 30
24.7387284141421695
 11
2279.6530872265589096
 21
1397.1976795423850035
 31
24.1080926212135509
  0
LINE
  5
11F8
  8
TRONCO_-_MONTANTES
 10
2279.6530872265589096
 20
1397.1976795423850035
 30
24.1080926212135509
 11
2279.7397551938811375
 21
1397.2843475097079136
 31
23.3310694659096995
  0
LINE
  5
11F9
  8
TRONCO_-_MONTANTES
 10
2279.7397551938811375
 20
1397.2843475097079136
 30
23.3310694659096995
 11
2279.8264231612029107
 21
1397.3710154770299141
 31
22.5540463106071698
  0
LINE
  5
11FA
  8
TRONCO_-_MONTANTES
 10
2279.8264231612029107
 20
1397.3710154770299141
 30
22.5540463106071698
 11
2279.9130911285251386
 21
1397.4576834443519147
 31
21.7770231553033291
  0
LINE
  5
11FB
  8
TRONCO_-_MONTANTES
 10
2279.9130911285251386
 20
1397.4576834443519147
 30
21.7770231553033291
 11
2279.9997590958478213
 21
1397.5443514116739152
 31
20.9999999999998188
  0
LINE
  5
11FC
  8
TRONCO_-_MONTANTES
 10
2277.1717266420218948
 20
1397.0569992501159504
 30
25.3693642070705891
 11
2277.1013864958867998
 21
1397.1273393962499085
 31
24.7387284141416792
  0
LINE
  5
11FD
  8
TRONCO_-_MONTANTES
 10
2277.1013864958867998
 20
1397.1273393962499085
 30
24.7387284141416792
 11
2277.0310463497530691
 21
1397.1976795423850035
 31
24.1080926212135793
  0
LINE
  5
11FE
  8
TRONCO_-_MONTANTES
 10
2277.0310463497530691
 20
1397.1976795423850035
 30
24.1080926212135793
 11
2276.9443783824308412
 21
1397.2843475097070041
 31
23.3310694659097493
  0
LINE
  5
11FF
  8
TRONCO_-_MONTANTES
 10
2276.9443783824308412
 20
1397.2843475097070041
 30
23.3310694659097493
 11
2276.857710415109068
 21
1397.3710154770290046
 31
22.5540463106069211
  0
LINE
  5
1200
  8
TRONCO_-_MONTANTES
 10
2276.857710415109068
 20
1397.3710154770290046
 30
22.5540463106069211
 11
2276.7710424477868401
 21
1397.4576834443519147
 31
21.7770231553034108
  0
LINE
  5
1201
  8
TRONCO_-_MONTANTES
 10
2276.7710424477868401
 20
1397.4576834443519147
 30
21.7770231553034108
 11
2276.6843744804627931
 21
1397.5443514116739152
 31
20.9999999999998792
  0
LINE
  5
1202
  8
TRONCO_-_DIAGONAIS_VERTICA
 10
2279.9029704638442126
 20
1395.8866591039820833
 30
21.8677601490001798
 11
2279.8160076076260339
 21
1395.141955646444103
 31
22.6474271357799388
  0
LINE
  5
1203
  8
TRONCO_-_DIAGONAIS_VERTICA
 10
2279.9029704638442126
 20
1395.8866591039820833
 30
21.8677601489996505
 11
2279.8160076076269434
 21
1396.6313625615200635
 31
22.6474271357797683
  0
LINE
  5
1204
  8
TRONCO_-_DIAGONAIS_VERTICA
 10
2279.7285132271917973
 20
1395.8866591039820833
 30
23.4318595120901811
 11
2279.8160076076269434
 21
1396.6313625615200635
 31
22.6474271357791892
  0
LINE
  5
1205
  8
TRONCO_-_DIAGONAIS_VERTICA
 10
2279.7285132271908878
 20
1395.8866591039820833
 30
23.4318595120904796
 11
2279.8160076076260339
 21
1395.141955646444103
 31
22.6474271357799886
  0
LINE
  5
1206
  8
TRONCO_-_DIAGONAIS_VERTICA
 10
2279.8160076076269434
 20
1396.6313625615200635
 30
22.6474271357797683
 11
2279.7397551938811375
 21
1397.2843475097070041
 31
23.3310694659096711
  0
LINE
  5
1207
  8
TRONCO_-_DIAGONAIS_VERTICA
 10
2279.8160076076269434
 20
1396.6313625615200635
 30
22.6474271357791892
 11
2279.9130911285260481
 21
1397.4576834443519147
 31
21.7770231553032083
  0
LINE
  5
1208
  8
TRONCO_-_DIAGONAIS_VERTICA
 10
2279.6513988800911648
 20
1396.5430134964169611
 30
24.1232295205801215
 11
2279.7285132271908878
 21
1395.8866591039820833
 31
23.4318595120904796
  0
LINE
  5
1209
  8
TRONCO_-_DIAGONAIS_VERTICA
 10
2279.6513988800911648
 20
1395.2303047115460686
 30
24.1232295205801215
 11
2279.7285132271917973
 21
1395.8866591039820833
 31
23.4318595120901811
  0
LINE
  5
120A
  8
TRONCO_-_DIAGONAIS_VERTICA
 10
2279.5731709104898073
 20
1395.8866591039820833
 30
24.8245837307930408
 11
2279.5059852493541257
 21
1396.4503654614429706
 31
25.4269379340800583
  0
LINE
  5
120B
  8
TRONCO_-_DIAGONAIS_VERTICA
 10
2279.6513988800911648
 20
1395.2303047115460686
 30
24.1232295205802494
 11
2279.5731709104898073
 21
1395.8866591039820833
 31
24.8245837307930408
  0
LINE
  5
120C
  8
TRONCO_-_DIAGONAIS_VERTICA
 10
2279.5059852493541257
 20
1396.4503654614429706
 30
25.4269379340800583
 11
2279.4420667881549889
 21
1396.9866591039819923
 31
25.9999999999999005
  0
LINE
  5
120D
  8
TRONCO_-_DIAGONAIS_VERTICA
 10
2279.5059852493541257
 20
1396.4503654614429706
 30
25.4269379340800796
 11
2279.5827470804251789
 21
1397.1273393962510454
 31
24.7387284141418711
  0
LINE
  5
120E
  8
TRONCO_-_DIAGONAIS_VERTICA
 10
2279.5059852493541257
 20
1395.322952746520059
 30
25.4269379340799695
 11
2279.4420667881549889
 21
1394.7866591039819468
 31
25.9999999999998899
  0
LINE
  5
120F
  8
TRONCO_-_DIAGONAIS_VERTICA
 10
2279.5731709104898073
 20
1395.8866591039820833
 30
24.8245837307931403
 11
2279.5059852493541257
 21
1395.322952746520059
 31
25.4269379340799695
  0
LINE
  5
1210
  8
TRONCO_-_DIAGONAIS_VERTICA
 10
2279.6513988800911648
 20
1396.5430134964169611
 30
24.1232295205801996
 11
2279.5731709104898073
 21
1395.8866591039820833
 31
24.8245837307931403
  0
LINE
  5
1211
  8
TRONCO_-_DIAGONAIS_VERTICA
 10
2279.8160076076260339
 20
1395.141955646444103
 30
22.6474271357799388
 11
2279.7397551938811375
 21
1394.4889706982560256
 31
23.3310694659096605
  0
LINE
  5
1212
  8
TRONCO_-_DIAGONAIS_VERTICA
 10
2279.8160076076260339
 20
1395.141955646444103
 30
22.6474271357799886
 11
2279.9130911285260481
 21
1394.3156347636120245
 31
21.777023155303219
  0
LINE
  5
1213
  8
TRONCO_-_DIAGONAIS_VERTICA
 10
2279.1709129420009958
 20
1394.3257554282929505
 30
21.8677601489997784
 11
2279.8264231612029107
 21
1394.402302730934025
 31
22.5540463106064415
  0
LINE
  5
1214
  8
TRONCO_-_DIAGONAIS_VERTICA
 10
2277.5132206343091639
 20
1394.3257554282929505
 30
21.8677601489998708
 11
2276.6843744804627931
 21
1394.2289667962900239
 31
20.9999999999999787
  0
LINE
  5
1215
  8
TRONCO_-_DIAGONAIS_VERTICA
 10
2278.3420667881550798
 20
1394.4225440602970139
 30
22.7355202980000186
 11
2277.5132206343091639
 21
1394.3257554282929505
 31
21.8677601489998708
  0
LINE
  5
1216
  8
TRONCO_-_DIAGONAIS_VERTICA
 10
2279.0029080926051392
 20
1394.4997139012050411
 30
23.4273878371729687
 11
2278.3420667881550798
 21
1394.4225440602970139
 31
22.7355202980000186
  0
LINE
  5
1217
  8
TRONCO_-_DIAGONAIS_VERTICA
 10
2277.6812254837059299
 20
1394.4997139012050411
 30
23.4273878371727804
 11
2278.3420667881550798
 21
1394.5778828713719122
 31
24.1282130869504989
  0
LINE
  5
1218
  8
TRONCO_-_DIAGONAIS_VERTICA
 10
2278.3420667881550798
 20
1394.5778828713719122
 30
24.1282130869504989
 11
2278.9740333808817923
 21
1394.6526363369939645
 31
24.7984165718363307
  0
LINE
  5
1219
  8
TRONCO_-_DIAGONAIS_VERTICA
 10
2278.9740333808817923
 20
1394.6526363369939645
 30
24.7984165718363307
 11
2279.5124069342900839
 21
1394.7163189578470792
 31
25.3693642070708911
  0
LINE
  5
121A
  8
TRONCO_-_DIAGONAIS_VERTICA
 10
2277.7101001954288222
 20
1394.6526363369939645
 30
24.7984165718363592
 11
2277.0310463497521596
 21
1394.5756386655789356
 31
24.1080926212128901
  0
LINE
  5
121B
  8
TRONCO_-_DIAGONAIS_VERTICA
 10
2278.3420667881550798
 20
1394.7242948017280924
 30
25.4408717728935798
 11
2277.7101001954288222
 21
1394.6526363369939645
 31
24.7984165718363592
  0
LINE
  5
121C
  8
TRONCO_-_DIAGONAIS_VERTICA
 10
2279.1709129420009958
 20
1394.3257554282929505
 30
21.8677601490000306
 11
2279.9997590958478213
 21
1394.2289667962900239
 31
20.9999999999999787
  0
LINE
  5
121D
  8
TRONCO_-_DIAGONAIS_VERTICA
 10
2278.3420667881550798
 20
1394.4225440602970139
 30
22.7355202979998197
 11
2279.1709129420009958
 21
1394.3257554282929505
 31
21.8677601490000306
  0
LINE
  5
121E
  8
TRONCO_-_DIAGONAIS_VERTICA
 10
2277.6812254837059299
 20
1394.4997139012050411
 30
23.4273878371727484
 11
2278.3420667881550798
 21
1394.4225440602970139
 31
22.7355202979998197
  0
LINE
  5
121F
  8
TRONCO_-_DIAGONAIS_VERTICA
 10
2279.0029080926051392
 20
1394.4997139012050411
 30
23.4273878371727697
 11
2278.3420667881550798
 21
1394.5778828713719122
 31
24.1282130869504208
  0
LINE
  5
1220
  8
TRONCO_-_DIAGONAIS_VERTICA
 10
2278.3420667881550798
 20
1394.5778828713719122
 30
24.1282130869504208
 11
2277.7101001954288222
 21
1394.6526363369939645
 31
24.7984165718364693
  0
LINE
  5
1221
  8
TRONCO_-_DIAGONAIS_VERTICA
 10
2277.7101001954288222
 20
1394.6526363369939645
 30
24.7984165718364693
 11
2277.1717266420209853
 21
1394.7163189578470792
 31
25.3693642070708911
  0
LINE
  5
1222
  8
TRONCO_-_DIAGONAIS_VERTICA
 10
2278.9740333808817923
 20
1394.6526363369939645
 30
24.7984165718363307
 11
2279.6530872265589096
 21
1394.5756386655789356
 31
24.1080926212129008
  0
LINE
  5
1223
  8
TRONCO_-_DIAGONAIS_VERTICA
 10
2278.3420667881550798
 20
1394.7242948017280924
 30
25.4408717728938285
 11
2278.9740333808817923
 21
1394.6526363369939645
 31
24.7984165718363307
  0
LINE
  5
1224
  8
TRONCO_-_DIAGONAIS_VERTICA
 10
2277.5132206343091639
 20
1394.3257554282929505
 30
21.867760149000059
 11
2276.8577104151081585
 21
1394.402302730934025
 31
22.5540463106064415
  0
LINE
  5
122C
  8
TRONCO_-_DIAGONAIS_VERTICA
 10
2278.3420667881568988
 20
1397.5443514116750521
 30
20.9999999999999787
 11
2279.1709129420028148
 21
1397.4475627796709887
 31
21.8677601489997784
  0
LINE
  5
122D
  8
TRONCO_-_DIAGONAIS_VERTICA
 10
2279.1709129420028148
 20
1397.4475627796709887
 30
21.8677601489997784
 11
2279.8264231612051844
 21
1397.3710154770299141
 31
22.5540463106064415
  0
LINE
  5
122E
  8
TRONCO_-_DIAGONAIS_VERTICA
 10
2279.8264231612051844
 20
1397.3710154770299141
 30
22.5540463106064415
 11
2279.0029080926060487
 21
1397.2736043067600349
 31
23.4273878371727697
  0
LINE
  5
122F
  8
TRONCO_-_DIAGONAIS_VERTICA
 10
2279.0029080926060487
 20
1397.2736043067600349
 30
23.4273878371727697
 11
2278.3420667881559893
 21
1397.1954353365920269
 31
24.1282130869504208
  0
LINE
  5
1230
  8
TRONCO_-_DIAGONAIS_VERTICA
 10
2278.3420667881559893
 20
1397.1954353365920269
 30
24.1282130869504208
 11
2277.7101001954288222
 21
1397.1206818709711115
 31
24.7984165718364693
  0
LINE
  5
1231
  8
TRONCO_-_DIAGONAIS_VERTICA
 10
2277.7101001954288222
 20
1397.1206818709711115
 30
24.7984165718364693
 11
2277.1717266420218948
 21
1397.0569992501179968
 31
25.3693642070708911
  0
LINE
  5
1232
  8
TRONCO_-_DIAGONAIS_VERTICA
 10
2277.1717266420218948
 20
1397.0569992501179968
 30
25.3693642070708911
 11
2277.7920667881558074
 21
1396.9866591039829018
 31
25.9999999999999112
  0
LINE
  5
1233
  8
TRONCO_-_DIAGONAIS_VERTICA
 10
2277.7920667881558074
 20
1396.9866591039829018
 30
25.9999999999999005
 11
2278.3420667881550798
 21
1397.0490234062369836
 31
25.4408717728938285
  0
LINE
  5
1234
  8
TRONCO_-_DIAGONAIS_VERTICA
 10
2278.3420667881550798
 20
1397.0490234062369836
 30
25.4408717728938285
 11
2278.9740333808817923
 21
1397.1206818709699746
 31
24.7984165718363307
  0
LINE
  5
1235
  8
TRONCO_-_DIAGONAIS_VERTICA
 10
2278.9740333808817923
 20
1397.1206818709699746
 30
24.7984165718363307
 11
2279.6530872265589096
 21
1397.1976795423850035
 31
24.1080926212129008
  0
LINE
  5
1236
  8
TRONCO_-_DIAGONAIS_VERTICA
 10
2279.6530872265589096
 20
1397.1976795423850035
 30
24.1080926212129008
 11
2276.6843744804641574
 21
1397.5443514116759616
 31
20.9999999999999716
  0
LINE
  5
1237
  8
TRONCO_-_DIAGONAIS_VERTICA
 10
2278.3420667881568988
 20
1397.5443514116750521
 30
20.9999999999999787
 11
2277.5132206343100734
 21
1397.4475627796718982
 31
21.867760149000059
  0
LINE
  5
1238
  8
TRONCO_-_DIAGONAIS_VERTICA
 10
2277.5132206343100734
 20
1397.4475627796718982
 30
21.867760149000059
 11
2276.857710415109068
 21
1397.3710154770319605
 31
22.5540463106064415
  0
LINE
  5
1239
  8
TRONCO_-_DIAGONAIS_VERTICA
 10
2276.857710415109068
 20
1397.3710154770319605
 30
22.5540463106064415
 11
2277.6812254837068394
 21
1397.2736043067600349
 31
23.4273878371727804
  0
LINE
  5
123A
  8
TRONCO_-_DIAGONAIS_VERTICA
 10
2277.6812254837068394
 20
1397.2736043067600349
 30
23.4273878371727804
 11
2278.3420667881559893
 21
1397.1954353365920269
 31
24.1282130869504989
  0
LINE
  5
123B
  8
TRONCO_-_DIAGONAIS_VERTICA
 10
2278.3420667881559893
 20
1397.1954353365920269
 30
24.1282130869504989
 11
2278.9740333808817923
 21
1397.1206818709699746
 31
24.7984165718363307
  0
LINE
  5
123C
  8
TRONCO_-_DIAGONAIS_VERTICA
 10
2278.9740333808817923
 20
1397.1206818709699746
 30
24.7984165718363307
 11
2279.5124069342900839
 21
1397.0569992501170873
 31
25.3693642070708911
  0
LINE
  5
123D
  8
TRONCO_-_DIAGONAIS_VERTICA
 10
2279.5124069342900839
 20
1397.0569992501170873
 30
25.3693642070708911
 11
2278.8920667881561712
 21
1396.9866591039829018
 31
25.9999999999999112
  0
LINE
  5
123E
  8
TRONCO_-_DIAGONAIS_VERTICA
 10
2278.8920667881561712
 20
1396.9866591039829018
 30
25.9999999999999112
 11
2278.3420667881550798
 21
1397.0490234062369836
 31
25.4408717728935798
  0
LINE
  5
123F
  8
TRONCO_-_DIAGONAIS_VERTICA
 10
2278.3420667881550798
 20
1397.0490234062369836
 30
25.4408717728935798
 11
2277.7101001954288222
 21
1397.1206818709711115
 31
24.7984165718363592
  0
LINE
  5
1240
  8
TRONCO_-_DIAGONAIS_VERTICA
 10
2277.7101001954288222
 20
1397.1206818709711115
 30
24.7984165718363592
 11
2277.0310463497530691
 21
1397.1976795423870499
 31
24.1080926212128901
  0
LINE
  5
1241
  8
TRONCO_-_DIAGONAIS_VERTICA
 10
2277.0310463497530691
 20
1397.1976795423870499
 30
24.1080926212128901
 11
2277.6812254837068394
 21
1397.2736043067600349
 31
23.4273878371727484
  0
LINE
  5
1242
  8
TRONCO_-_DIAGONAIS_VERTICA
 10
2277.6812254837068394
 20
1397.2736043067600349
 30
23.4273878371727484
 11
2278.3420667881568988
 21
1397.3507741476680621
 31
22.7355202979998197
  0
LINE
  5
1243
  8
TRONCO_-_DIAGONAIS_VERTICA
 10
2278.3420667881568988
 20
1397.3507741476680621
 30
22.7355202979998197
 11
2279.1709129420028148
 21
1397.4475627796709887
 31
21.8677601490000306
  0
LINE
  5
1244
  8
TRONCO_-_DIAGONAIS_VERTICA
 10
2279.1709129420028148
 20
1397.4475627796709887
 30
21.8677601490000306
 11
2279.9997590958491855
 21
1397.5443514116739152
 31
20.9999999999999787
  0
LINE
  5
1245
  8
TRONCO_-_DIAGONAIS_VERTICA
 10
2279.6530872265589096
 20
1397.1976795423850035
 30
24.1080926212128794
 11
2279.0029080926060487
 21
1397.273604306758898
 31
23.4273878371729687
  0
LINE
  5
1246
  8
TRONCO_-_DIAGONAIS_VERTICA
 10
2279.0029080926060487
 20
1397.273604306758898
 30
23.4273878371729687
 11
2278.3420667881568988
 21
1397.3507741476680621
 31
22.7355202980000186
  0
LINE
  5
1247
  8
TRONCO_-_DIAGONAIS_VERTICA
 10
2278.3420667881568988
 20
1397.3507741476680621
 30
22.7355202980000186
 11
2277.5132206343100734
 21
1397.4475627796718982
 31
21.8677601489998708
  0
LINE
  5
1248
  8
TRONCO_-_DIAGONAIS_VERTICA
 10
2277.5132206343100734
 20
1397.4475627796718982
 30
21.8677601489998708
 11
2276.6843744804641574
 21
1397.5443514116759616
 31
20.9999999999999787
  0
LINE
  5
1249
  8
TRONCO_-_DIAGONAIS_VERTICA
 10
2277.2420667881551708
 20
1395.8866591039820833
 30
25.9999999999999005
 11
2277.178148326956034
 21
1396.4503654614429706
 31
25.4269379340800796
  0
LINE
  5
124A
  8
TRONCO_-_DIAGONAIS_VERTICA
 10
2277.178148326956034
 20
1396.4503654614429706
 30
25.4269379340800796
 11
2277.1013864958858903
 21
1397.1273393962499085
 31
24.7387284141418711
  0
LINE
  5
124B
  8
TRONCO_-_DIAGONAIS_VERTICA
 10
2277.1013864958858903
 20
1397.1273393962499085
 30
24.7387284141418711
 11
2277.0327346962199044
 21
1396.5430134964160516
 31
24.1232295205801215
  0
LINE
  5
124C
  8
TRONCO_-_DIAGONAIS_VERTICA
 10
2277.0327346962199044
 20
1396.5430134964160516
 30
24.1232295205801215
 11
2276.9556203491188171
 21
1395.8866591039809464
 31
23.4318595120904796
  0
LINE
  5
124D
  8
TRONCO_-_DIAGONAIS_VERTICA
 10
2276.9556203491188171
 20
1395.8866591039809464
 30
23.4318595120904796
 11
2276.8681259686850353
 21
1395.141955646444103
 31
22.6474271357799886
  0
LINE
  5
124E
  8
TRONCO_-_DIAGONAIS_VERTICA
 10
2276.8681259686850353
 20
1395.141955646444103
 30
22.6474271357799886
 11
2276.7710424477850211
 21
1394.3156347636108876
 31
21.777023155303219
  0
LINE
  5
124F
  8
TRONCO_-_DIAGONAIS_VERTICA
 10
2276.7710424477850211
 20
1394.3156347636108876
 30
21.777023155303219
 11
2276.6843744804627931
 21
1395.0578129501350304
 31
20.9999999999999183
  0
LINE
  5
1250
  8
TRONCO_-_DIAGONAIS_VERTICA
 10
2276.6843744804627931
 20
1395.0578129501350304
 30
20.9999999999999183
 11
2276.7811631124668565
 21
1395.8866591039809464
 31
21.8677601489996505
  0
LINE
  5
1251
  8
TRONCO_-_DIAGONAIS_VERTICA
 10
2276.7811631124668565
 20
1395.8866591039809464
 30
21.8677601489996505
 11
2276.8681259686832163
 21
1396.6313625615189267
 31
22.6474271357797683
  0
LINE
  5
1252
  8
TRONCO_-_DIAGONAIS_VERTICA
 10
2276.8681259686832163
 20
1396.6313625615189267
 30
22.6474271357797683
 11
2276.9443783824290222
 21
1397.2843475097070041
 31
23.3310694659096711
  0
LINE
  5
1253
  8
TRONCO_-_DIAGONAIS_VERTICA
 10
2276.9443783824290222
 20
1397.2843475097070041
 30
23.3310694659096711
 11
2277.0327346962189949
 21
1396.5430134964160516
 31
24.1232295205801996
  0
LINE
  5
1254
  8
TRONCO_-_DIAGONAIS_VERTICA
 10
2277.0327346962189949
 20
1396.5430134964160516
 30
24.1232295205801996
 11
2277.1109626658208072
 21
1395.8866591039809464
 31
24.8245837307931403
  0
LINE
  5
1255
  8
TRONCO_-_DIAGONAIS_VERTICA
 10
2277.1109626658208072
 20
1395.8866591039809464
 30
24.8245837307931403
 11
2277.1781483269569435
 21
1395.322952746520059
 31
25.4269379340799695
  0
LINE
  5
1256
  8
TRONCO_-_DIAGONAIS_VERTICA
 10
2277.1781483269569435
 20
1395.322952746520059
 30
25.4269379340799695
 11
2277.2420667881560803
 21
1394.7866591039819468
 31
25.9999999999998899
  0
LINE
  5
1257
  8
TRONCO_-_DIAGONAIS_VERTICA
 10
2277.2420667881551708
 20
1395.8866591039820833
 30
25.9999999999999005
 11
2277.1013864958867998
 21
1394.6459788117119842
 31
24.7387284141418711
  0
LINE
  5
1258
  8
TRONCO_-_DIAGONAIS_VERTICA
 10
2277.1013864958867998
 20
1394.6459788117119842
 30
24.7387284141418711
 11
2277.0327346962199044
 21
1395.2303047115460686
 31
24.1232295205801215
  0
LINE
  5
1259
  8
TRONCO_-_DIAGONAIS_VERTICA
 10
2277.0327346962199044
 20
1395.2303047115460686
 30
24.1232295205801215
 11
2276.9556203491188171
 21
1395.8866591039809464
 31
23.4318595120901811
  0
LINE
  5
125A
  8
TRONCO_-_DIAGONAIS_VERTICA
 10
2276.9556203491188171
 20
1395.8866591039809464
 30
23.4318595120901811
 11
2276.8681259686832163
 21
1396.6313625615200635
 31
22.6474271357791892
  0
LINE
  5
125B
  8
TRONCO_-_DIAGONAIS_VERTICA
 10
2276.8681259686832163
 20
1396.6313625615200635
 30
22.6474271357791892
 11
2276.7710424477850211
 21
1397.4576834443510052
 31
21.7770231553032083
  0
LINE
  5
125C
  8
TRONCO_-_DIAGONAIS_VERTICA
 10
2276.7710424477850211
 20
1397.4576834443510052
 30
21.7770231553032083
 11
2276.6843744804627931
 21
1396.7155052578270897
 31
20.9999999999999503
  0
LINE
  5
125D
  8
TRONCO_-_DIAGONAIS_VERTICA
 10
2276.6843744804627931
 20
1396.7155052578270897
 30
20.9999999999999503
 11
2276.7811631124668565
 21
1395.8866591039809464
 31
21.8677601490001798
  0
LINE
  5
125E
  8
TRONCO_-_DIAGONAIS_VERTICA
 10
2276.7811631124668565
 20
1395.8866591039809464
 30
21.8677601490001798
 11
2276.8681259686850353
 21
1395.141955646444103
 31
22.6474271357799388
  0
LINE
  5
125F
  8
TRONCO_-_DIAGONAIS_VERTICA
 10
2276.8681259686850353
 20
1395.141955646444103
 30
22.6474271357799388
 11
2276.9443783824299317
 21
1394.4889706982560256
 31
23.3310694659096605
  0
LINE
  5
1260
  8
TRONCO_-_DIAGONAIS_VERTICA
 10
2276.9443783824299317
 20
1394.4889706982560256
 30
23.3310694659096605
 11
2277.0327346962199044
 21
1395.2303047115460686
 31
24.1232295205802494
  0
LINE
  5
1261
  8
TRONCO_-_DIAGONAIS_VERTICA
 10
2277.0327346962199044
 20
1395.2303047115460686
 30
24.1232295205802494
 11
2277.1109626658208072
 21
1395.8866591039809464
 31
24.8245837307930408
  0
LINE
  5
1262
  8
TRONCO_-_DIAGONAIS_VERTICA
 10
2277.1109626658208072
 20
1395.8866591039809464
 30
24.8245837307930408
 11
2277.178148326956034
 21
1396.4503654614429706
 31
25.4269379340800583
  0
LINE
  5
1263
  8
TRONCO_-_DIAGONAIS_VERTICA
 10
2277.178148326956034
 20
1396.4503654614429706
 30
25.4269379340800583
 11
2277.2420667881551708
 21
1396.9866591039810828
 31
25.9999999999999005
  0
ENDSEC
  0
EOF
