  0
SECTION
  2
HEADER
  9
$ACADVER
  1
AC1009
  9
$INSBASE
 10
0.0
 20
0.0
 30
0.0
  9
$EXTMIN
 10
2307.1890723511819488
 20
1378.2706797367920899
 30
29.9999999999996909
  9
$EXTMAX
 10
2311.8429185050390515
 20
1382.9245258906389608
 30
36.0000000000001208
  9
$LIMMIN
 10
0.0
 20
0.0
  9
$LIMMAX
 10
420.0
 20
297.0
  9
$ORTHOMODE
 70
     0
  9
$REGENMODE
 70
     1
  9
$FILLMODE
 70
     1
  9
$QTEXTMODE
 70
     0
  9
$MIRRTEXT
 70
     0
  9
$DRAGMODE
 70
     2
  9
$LTSCALE
 40
1.0
  9
$OSMODE
 70
    37
  9
$ATTMODE
 70
     1
  9
$TEXTSIZE
 40
2.5
  9
$TRACEWID
 40
1.0
  9
$TEXTSTYLE
  7
STANDARD
  9
$CLAYER
  8
0
  9
$CELTYPE
  6
BYLAYER
  9
$CECOLOR
 62
   256
  9
$DIMSCALE
 40
1.0
  9
$DIMASZ
 40
2.5
  9
$DIMEXO
 40
0.625
  9
$DIMDLI
 40
3.75
  9
$DIMRND
 40
0.0
  9
$DIMDLE
 40
0.0
  9
$DIMEXE
 40
1.25
  9
$DIMTP
 40
0.0
  9
$DIMTM
 40
0.0
  9
$DIMTXT
 40
2.5
  9
$DIMCEN
 40
2.5
  9
$DIMTSZ
 40
0.0
  9
$DIMTOL
 70
     0
  9
$DIMLIM
 70
     0
  9
$DIMTIH
 70
     0
  9
$DIMTOH
 70
     0
  9
$DIMSE1
 70
     0
  9
$DIMSE2
 70
     0
  9
$DIMTAD
 70
     1
  9
$DIMZIN
 70
     8
  9
$DIMBLK
  1

  9
$DIMASO
 70
     1
  9
$DIMSHO
 70
     1
  9
$DIMPOST
  1

  9
$DIMAPOST
  1

  9
$DIMALT
 70
     0
  9
$DIMALTD
 70
     3
  9
$DIMALTF
 40
0.03937007874016
  9
$DIMLFAC
 40
1.0
  9
$DIMTOFL
 70
     1
  9
$DIMTVP
 40
0.0
  9
$DIMTIX
 70
     0
  9
$DIMSOXD
 70
     0
  9
$DIMSAH
 70
     0
  9
$DIMBLK1
  1

  9
$DIMBLK2
  1

  9
$DIMSTYLE
  2
ISO-25
  9
$DIMCLRD
 70
     0
  9
$DIMCLRE
 70
     0
  9
$DIMCLRT
 70
     0
  9
$DIMTFAC
 40
1.0
  9
$DIMGAP
 40
0.625
  9
$LUNITS
 70
     2
  9
$LUPREC
 70
     4
  9
$SKETCHINC
 40
1.0
  9
$FILLETRAD
 40
0.0
  9
$AUNITS
 70
     0
  9
$AUPREC
 70
     0
  9
$MENU
  1
.
  9
$ELEVATION
 40
0.0
  9
$PELEVATION
 40
0.0
  9
$THICKNESS
 40
0.0
  9
$LIMCHECK
 70
     0
  9
$BLIPMODE
 70
     0
  9
$CHAMFERA
 40
0.0
  9
$CHAMFERB
 40
0.0
  9
$SKPOLY
 70
     0
  9
$TDCREATE
 40
2460644.5659027779474854
  9
$TDUPDATE
 40
2460734.4995601861737669
  9
$TDINDWG
 40
0.2101967593
  9
$TDUSRTIMER
 40
0.2101967593
  9
$USRTIMER
 70
     1
  9
$ANGBASE
 50
0.0
  9
$ANGDIR
 70
     0
  9
$PDMODE
 70
     0
  9
$PDSIZE
 40
0.0
  9
$PLINEWID
 40
0.0
  9
$COORDS
 70
     1
  9
$SPLFRAME
 70
     0
  9
$SPLINETYPE
 70
     6
  9
$SPLINESEGS
 70
     8
  9
$ATTDIA
 70
     1
  9
$ATTREQ
 70
     1
  9
$HANDLING
 70
     1
  9
$HANDSEED
  5
1553
  9
$SURFTAB1
 70
     6
  9
$SURFTAB2
 70
     6
  9
$SURFTYPE
 70
     6
  9
$SURFU
 70
     6
  9
$SURFV
 70
     6
  9
$UCSNAME
  2

  9
$UCSORG
 10
2309.5159954281161845
 20
1380.5976028137149569
 30
30.0000000000000213
  9
$UCSXDIR
 10
1.0
 20
0.0
 30
0.0
  9
$UCSYDIR
 10
0.0
 20
1.0
 30
0.0
  9
$PUCSNAME
  2

  9
$PUCSORG
 10
0.0
 20
0.0
 30
0.0
  9
$PUCSXDIR
 10
1.0
 20
0.0
 30
0.0
  9
$PUCSYDIR
 10
0.0
 20
1.0
 30
0.0
  9
$USERI1
 70
     0
  9
$USERI2
 70
     0
  9
$USERI3
 70
     0
  9
$USERI4
 70
     0
  9
$USERI5
 70
     0
  9
$USERR1
 40
0.0
  9
$USERR2
 40
0.0
  9
$USERR3
 40
0.0
  9
$USERR4
 40
0.0
  9
$USERR5
 40
0.0
  9
$WORLDVIEW
 70
     1
  9
$SHADEDGE
 70
     3
  9
$SHADEDIF
 70
    70
  9
$TILEMODE
 70
     1
  9
$MAXACTVP
 70
    64
  9
$PLIMCHECK
 70
     0
  9
$PEXTMIN
 10
0.0
 20
0.0
 30
0.0
  9
$PEXTMAX
 10
0.0
 20
0.0
 30
0.0
  9
$PLIMMIN
 10
0.0
 20
0.0
  9
$PLIMMAX
 10
12.0
 20
9.0
  9
$UNITMODE
 70
     0
  9
$VISRETAIN
 70
     1
  9
$PLINEGEN
 70
     0
  9
$PSLTSCALE
 70
     1
  0
ENDSEC
  0
SECTION
  2
TABLES
  0
TABLE
  2
VPORT
 70
     1
  0
VPORT
  2
*ACTIVE
 70
     0
 10
0.0
 20
0.0
 11
1.0
 21
1.0
 12
0.896556978847654
 22
0.0
 13
0.0
 23
0.0
 14
10.0
 24
10.0
 15
10.0
 25
10.0
 16
0.0
 26
0.0
 36
27.4790399068678894
 17
2309.5159954281111823
 27
1380.5976028137149569
 37
32.9999999999999005
 40
8.9059849566149047
 41
2.555259653794939
 42
50.0
 43
0.0
 44
0.0
 50
0.0
 51
0.0
 71
     0
 72
  1000
 73
     1
 74
     3
 75
     0
 76
     1
 77
     0
 78
     0
  0
ENDTAB
  0
TABLE
  2
LTYPE
 70
     1
  0
LTYPE
  2
CONTINUOUS
 70
     0
  3
Solid line
 72
    65
 73
     0
 40
0.0
  0
ENDTAB
  0
TABLE
  2
LAYER
 70
    18
  0
LAYER
  2
0
 70
     0
 62
     7
  6
CONTINUOUS
  0
LAYER
  2
PÉS_-_MONTANTES
 70
     0
 62
   110
  6
CONTINUOUS
  0
LAYER
  2
PÉS_-_DIAGONAIS_VERTICAIS
 70
     0
 62
    94
  6
CONTINUOUS
  0
LAYER
  2
PÉS_-_DIAGONAIS_HORIZONTAI
 70
     0
 62
    64
  6
CONTINUOUS
  0
LAYER
  2
EXTENSÃO_-_DIAGONAIS_HORIZ
 70
     0
 62
    42
  6
CONTINUOUS
  0
LAYER
  2
EXTENSÃO_-_DIAGONAIS_VERTI
 70
     0
 62
    30
  6
CONTINUOUS
  0
LAYER
  2
EXTENSÃO_-_MONTANTES
 70
     0
 62
    41
  6
CONTINUOUS
  0
LAYER
  2
TRONCO_-_DIAGONAIS_HORIZON
 70
     0
 62
   190
  6
CONTINUOUS
  0
LAYER
  2
TRONCO_-_DIAGONAIS_VERTICA
 70
     0
 62
   222
  6
CONTINUOUS
  0
LAYER
  2
TRONCO_-_MONTANTES
 70
     0
 62
   191
  6
CONTINUOUS
  0
LAYER
  2
CABEÇA_-_MONTANTES
 70
     0
 62
    11
  6
CONTINUOUS
  0
LAYER
  2
CABEÇA_-_DIAGONAIS_HORIZON
 70
     0
 62
    12
  6
CONTINUOUS
  0
LAYER
  2
CABEÇA_-_DIAGONAIS_VERTICA
 70
     0
 62
    10
  6
CONTINUOUS
  0
LAYER
  2
BRAÇO_-_MONTANTES
 70
     0
 62
   121
  6
CONTINUOUS
  0
LAYER
  2
BRAÇO_-_DIAGONAIS_VERTICAI
 70
     0
 62
   135
  6
CONTINUOUS
  0
LAYER
  2
BRAÇO_-_DIAGONAIS_HORIZONT
 70
     0
 62
   103
  6
CONTINUOUS
  0
LAYER
  2
PARA_RAIOS_-_MONTANTES
 70
     0
 62
    61
  6
CONTINUOUS
  0
LAYER
  2
PARA_RAIOS_-_DIAGONAIS_VER
 70
     0
 62
    62
  6
CONTINUOUS
  0
ENDTAB
  0
TABLE
  2
STYLE
 70
     2
  0
STYLE
  2
STANDARD
 70
     0
 40
0.0
 41
1.0
 50
0.0
 71
     0
 42
2.5
  3
txt
  4

  0
STYLE
  2
ANNOTATIVE
 70
     0
 40
0.0
 41
1.0
 50
0.0
 71
     0
 42
2.5
  3
txt
  4

  0
ENDTAB
  0
TABLE
  2
VIEW
 70
     0
  0
ENDTAB
  0
TABLE
  2
UCS
 70
     0
  0
ENDTAB
  0
TABLE
  2
APPID
 70
    12
  0
APPID
  2
ACAD
 70
     0
  0
APPID
  2
ACAD_PSEXT
 70
     0
  0
APPID
  2
ACADANNOPO
 70
     0
  0
APPID
  2
ACADANNOTATIVE
 70
     0
  0
APPID
  2
ACAD_DSTYLE_DIMJAG
 70
     0
  0
APPID
  2
ACAD_DSTYLE_DIMTALN
 70
     0
  0
APPID
  2
ACAD_MLEADERVER
 70
     0
  0
APPID
  2
ACAD_NAV_VCDISPLAY
 70
     0
  0
APPID
  2
ACAECLAYERSTANDARD
 70
     0
  0
APPID
  2
ACCMTRANSPARENCY
 70
     0
  0
APPID
  2
ACAD_EXEMPT_FROM_CAD_STANDARDS
 70
     0
  0
APPID
  2
ACAD_TC
 70
     0
  0
ENDTAB
  0
TABLE
  2
DIMSTYLE
 70
     3
  0
DIMSTYLE
  2
STANDARD
 70
     0
  3

  4

  5

  6

  7

 40
1.0
 41
0.18
 42
0.0625
 43
0.38
 44
0.18
 45
0.0
 46
0.0
 47
0.0
 48
0.0
140
0.18
141
0.09
142
0.0
143
25.3999999999999986
144
1.0
145
0.0
146
1.0
147
0.09
 71
     0
 72
     0
 73
     1
 74
     1
 75
     0
 76
     0
 77
     0
 78
     0
170
     0
171
     2
172
     0
173
     0
174
     0
175
     0
176
     0
177
     0
178
     0
  0
DIMSTYLE
  2
ANNOTATIVE
 70
     0
  3

  4

  5

  6

  7

 40
0.0
 41
2.5
 42
0.625
 43
3.75
 44
1.25
 45
0.0
 46
0.0
 47
0.0
 48
0.0
140
2.5
141
2.5
142
0.0
143
0.03937007874016
144
1.0
145
0.0
146
1.0
147
0.625
 71
     0
 72
     0
 73
     0
 74
     0
 75
     0
 76
     0
 77
     1
 78
     8
170
     0
171
     3
172
     1
173
     0
174
     0
175
     0
176
     0
177
     0
178
     0
  0
DIMSTYLE
  2
ISO-25
 70
     0
  3

  4

  5

  6

  7

 40
1.0
 41
2.5
 42
0.625
 43
3.75
 44
1.25
 45
0.0
 46
0.0
 47
0.0
 48
0.0
140
2.5
141
2.5
142
0.0
143
0.03937007874016
144
1.0
145
0.0
146
1.0
147
0.625
 71
     0
 72
     0
 73
     0
 74
     0
 75
     0
 76
     0
 77
     1
 78
     8
170
     0
171
     3
172
     1
173
     0
174
     0
175
     0
176
     0
177
     0
178
     0
  0
ENDTAB
  0
ENDSEC
  0
SECTION
  2
BLOCKS
  0
BLOCK
  8
0
  2
$MODEL_SPACE
 70
     0
 10
0.0
 20
0.0
 30
0.0
  3
$MODEL_SPACE
  1

  0
ENDBLK
  5
21
  8
0
  0
BLOCK
 67
     1
  8
0
  2
$PAPER_SPACE
 70
     0
 10
0.0
 20
0.0
 30
0.0
  3
$PAPER_SPACE
  1

  0
ENDBLK
  5
D5
 67
     1
  8
0
  0
ENDSEC
  0
SECTION
  2
ENTITIES
  0
LINE
  5
1331
  8
EXTENSÃO_-_MONTANTES
 10
2311.1736877358080164
 20
1378.9399105060228976
 30
36.0
 11
2311.3283761131237952
 21
1378.7852221287068915
 31
34.613138686131613
  0
LINE
  5
1332
  8
EXTENSÃO_-_MONTANTES
 10
2307.8583031204220788
 20
1378.9399105060228976
 30
36.0000000000000995
 11
2307.7036147431072095
 21
1378.785222128705982
 31
34.6131386861315633
  0
LINE
  5
1333
  8
EXTENSÃO_-_MONTANTES
 10
2311.1736877358080164
 20
1382.2552951214079258
 30
35.9999999999999574
 11
2311.3283761131237952
 21
1382.4099834987239319
 31
34.613138686131542
  0
LINE
  5
1335
  8
EXTENSÃO_-_MONTANTES
 10
2307.8583031204220788
 20
1378.9399105060228976
 30
36.0000000000001066
 11
2309.5159954281161845
 21
1378.9399105060240345
 31
35.9999999999999716
210
0.0000000000000005
220
-1.0
230
-0.0000000000000002
  0
LINE
  5
1337
  8
EXTENSÃO_-_MONTANTES
 10
2311.1736877358080164
 20
1378.9399105060228976
 30
36.0000000000000071
 11
2311.1736877358080164
 21
1380.5976028137160938
 31
35.999999999999801
210
1.0
220
0.0000000000000008
230
-0.0000000000000008
  0
LINE
  5
1339
  8
EXTENSÃO_-_MONTANTES
 10
2311.842918505038142
 20
1378.2706797367920899
 30
30.0000000000000213
 11
2311.8429185050390515
 21
1379.0414622756441076
 31
29.9999999999997691
  0
LINE
  5
133B
  8
EXTENSÃO_-_MONTANTES
 10
2311.842918505038142
 20
1378.2706797367920899
 30
30.0000000000000213
 11
2311.072135966182941
 21
1378.2706797367929994
 31
30.0000000000006288
  0
LINE
  5
133C
  8
EXTENSÃO_-_DIAGONAIS_VERTI
 10
2311.6756108127310654
 20
1378.437987429100076
 30
31.50000000000027
 11
2311.6756108127310654
 21
1379.3476028137160938
 31
31.5000000000002096
  0
LINE
  5
133D
  8
EXTENSÃO_-_DIAGONAIS_VERTI
 10
2311.6756108127310654
 20
1378.437987429100076
 30
31.50000000000027
 11
2310.7659954281161845
 21
1378.4379874290989392
 31
31.50000000000027
  0
LINE
  5
133F
  8
EXTENSÃO_-_DIAGONAIS_VERTI
 10
2311.6756108127310654
 20
1380.5976028137149569
 30
31.4999999999999503
 11
2311.842918505038142
 21
1381.2245258906389154
 31
29.9999999999996909
  0
LINE
  5
1340
  8
EXTENSÃO_-_DIAGONAIS_VERTI
 10
2311.6756108127310654
 20
1381.8476028137160938
 30
31.4999999999996696
 11
2311.842918505038142
 21
1381.2245258906389154
 31
29.9999999999996909
  0
LINE
  5
1341
  8
EXTENSÃO_-_DIAGONAIS_VERTI
 10
2311.6756108127310654
 20
1381.8476028137160938
 30
31.4999999999996696
 11
2311.7592646588850585
 21
1382.3860643521770726
 31
30.7499999999997087
  0
LINE
  5
1342
  8
EXTENSÃO_-_DIAGONAIS_VERTI
 10
2311.759264658884149
 20
1382.3860643521770726
 30
30.7499999999998188
 11
2311.6756108127310654
 21
1382.7572181983309747
 31
31.4999999999999893
  0
LINE
  5
1343
  8
EXTENSÃO_-_DIAGONAIS_VERTI
 10
2311.6756108127301559
 20
1381.8476028137149569
 30
31.5000000000000604
 11
2311.5793376515848649
 21
1382.2061373448771064
 31
32.363138686131478
  0
LINE
  5
1344
  8
EXTENSÃO_-_DIAGONAIS_VERTI
 10
2311.4830644904400287
 20
1382.5646718760399381
 30
33.22627737226302
 11
2311.3283761131237952
 21
1381.5811373448780159
 31
34.6131386861316415
  0
LINE
  5
1345
  8
EXTENSÃO_-_DIAGONAIS_VERTI
 10
2311.3283761131237952
 20
1381.5811373448780159
 30
34.6131386861315207
 11
2311.3283761131237952
 21
1382.4099834987239319
 31
34.6131386861315278
  0
LINE
  5
1346
  8
EXTENSÃO_-_DIAGONAIS_VERTI
 10
2311.3283761131237952
 20
1381.5811373448780159
 30
34.6131386861315207
 11
2311.1736877358080164
 21
1382.2552951214079258
 31
36.0000000000000711
  0
LINE
  5
1347
  8
EXTENSÃO_-_DIAGONAIS_VERTI
 10
2311.5793376515848649
 20
1382.2061373448771064
 30
32.363138686131478
 11
2311.6756108127310654
 21
1382.7572181983309747
 31
31.4999999999999893
  0
LINE
  5
1348
  8
EXTENSÃO_-_DIAGONAIS_VERTI
 10
2311.6756108127310654
 20
1380.5976028137149569
 30
31.4999999999999503
 11
2311.842918505038142
 21
1379.970679736791908
 31
29.9999999999996909
  0
LINE
  5
1349
  8
EXTENSÃO_-_DIAGONAIS_VERTI
 10
2311.6756108127310654
 20
1379.3476028137149569
 30
31.4999999999996696
 11
2311.842918505038142
 21
1379.970679736791908
 31
29.9999999999996909
  0
LINE
  5
134A
  8
EXTENSÃO_-_DIAGONAIS_VERTI
 10
2311.6756108127310654
 20
1379.3476028137149569
 30
31.4999999999996696
 11
2311.7592646588850585
 21
1378.8091412752539782
 31
30.7499999999997087
  0
LINE
  5
134B
  8
EXTENSÃO_-_DIAGONAIS_VERTI
 10
2311.759264658884149
 20
1378.8091412752539782
 30
30.7499999999998188
 11
2311.6756108127310654
 21
1378.437987429100076
 31
31.4999999999999893
  0
LINE
  5
134C
  8
EXTENSÃO_-_DIAGONAIS_VERTI
 10
2311.6756108127301559
 20
1379.3476028137160938
 30
31.5000000000000604
 11
2311.5793376515848649
 21
1378.9890682825530348
 31
32.363138686131478
  0
LINE
  5
134D
  8
EXTENSÃO_-_DIAGONAIS_VERTI
 10
2311.4830644904400287
 20
1378.6305337513911127
 30
33.22627737226302
 11
2311.3283761131237952
 21
1379.6140682825530348
 31
34.6131386861315704
  0
LINE
  5
134E
  8
EXTENSÃO_-_DIAGONAIS_VERTI
 10
2311.3283761131237952
 20
1379.6140682825530348
 30
34.6131386861315207
 11
2311.3283761131237952
 21
1378.7852221287068915
 31
34.6131386861315278
  0
LINE
  5
134F
  8
EXTENSÃO_-_DIAGONAIS_VERTI
 10
2311.3283761131237952
 20
1379.6140682825530348
 30
34.6131386861315207
 11
2311.1736877358080164
 21
1378.9399105060228976
 31
36.0000000000000711
  0
LINE
  5
1350
  8
EXTENSÃO_-_DIAGONAIS_VERTI
 10
2311.5793376515848649
 20
1378.9890682825530348
 30
32.363138686131478
 11
2311.6756108127310654
 21
1378.437987429100076
 31
31.4999999999999893
  0
LINE
  5
1363
  8
EXTENSÃO_-_DIAGONAIS_VERTI
 10
2309.5159954281148202
 20
1378.437987429100076
 30
31.4999999999999503
 11
2310.1429185050387787
 21
1378.2706797367920899
 31
29.9999999999996909
  0
LINE
  5
1364
  8
EXTENSÃO_-_DIAGONAIS_VERTI
 10
2310.7659954281148202
 20
1378.437987429100076
 30
31.4999999999996696
 11
2310.1429185050387787
 21
1378.2706797367920899
 31
29.9999999999996909
  0
LINE
  5
1365
  8
EXTENSÃO_-_DIAGONAIS_VERTI
 10
2310.7659954281148202
 20
1378.437987429100076
 30
31.4999999999996696
 11
2311.3044569665771633
 21
1378.354333582946083
 31
30.7499999999998188
  0
LINE
  5
1366
  8
EXTENSÃO_-_DIAGONAIS_VERTI
 10
2311.3044569665771633
 20
1378.354333582946083
 30
30.7499999999998188
 11
2311.6756108127310654
 21
1378.437987429100076
 31
31.4999999999999893
  0
LINE
  5
1367
  8
EXTENSÃO_-_DIAGONAIS_VERTI
 10
2310.7659954281148202
 20
1378.437987429100076
 30
31.5000000000000604
 11
2311.1245299592769697
 21
1378.5342605902449122
 31
32.3631386861312222
  0
LINE
  5
1368
  8
EXTENSÃO_-_DIAGONAIS_VERTI
 10
2311.4830644904400287
 20
1378.6305337513911127
 30
33.22627737226302
 11
2310.4995299592769697
 21
1378.7852221287068915
 31
34.6131386861316273
  0
LINE
  5
1369
  8
EXTENSÃO_-_DIAGONAIS_VERTI
 10
2310.4995299592778792
 20
1378.7852221287068915
 30
34.6131386861315207
 11
2311.3283761131237952
 21
1378.7852221287068915
 31
34.6131386861315278
  0
LINE
  5
136A
  8
EXTENSÃO_-_DIAGONAIS_VERTI
 10
2310.4995299592778792
 20
1378.7852221287068915
 30
34.6131386861315207
 11
2311.1736877358080164
 21
1378.9399105060228976
 31
36.0000000000000711
  0
LINE
  5
136B
  8
EXTENSÃO_-_DIAGONAIS_VERTI
 10
2311.1245299592769697
 20
1378.5342605902449122
 30
32.363138686131478
 11
2311.6756108127310654
 21
1378.437987429100076
 31
31.4999999999999893
  0
LINE
  5
136C
  8
EXTENSÃO_-_DIAGONAIS_VERTI
 10
2309.5159954281161845
 20
1378.437987429100076
 30
31.4999999999999503
 11
2308.8890723511922261
 21
1378.2706797367920899
 31
29.9999999999996909
  0
LINE
  5
136D
  8
EXTENSÃO_-_DIAGONAIS_VERTI
 10
2308.2659954281148202
 20
1378.437987429100076
 30
31.4999999999996696
 11
2308.8890723511922261
 21
1378.2706797367920899
 31
29.9999999999996909
  0
LINE
  5
136E
  8
EXTENSÃO_-_DIAGONAIS_VERTI
 10
2308.2659954281148202
 20
1378.437987429100076
 30
31.4999999999996696
 11
2307.7275338896538415
 21
1378.354333582946083
 31
30.7499999999998188
  0
LINE
  5
136F
  8
EXTENSÃO_-_DIAGONAIS_VERTI
 10
2307.7275338896538415
 20
1378.354333582946083
 30
30.7499999999998188
 11
2307.3563800434999393
 21
1378.437987429100076
 31
31.4999999999999893
  0
LINE
  5
1370
  8
EXTENSÃO_-_DIAGONAIS_VERTI
 10
2308.2659954281148202
 20
1378.437987429100076
 30
31.5000000000000604
 11
2307.9074608969531255
 21
1378.5342605902449122
 31
32.3631386861317409
  0
LINE
  5
1371
  8
EXTENSÃO_-_DIAGONAIS_VERTI
 10
2307.548926365790976
 20
1378.6305337513911127
 30
33.22627737226302
 11
2308.5324608969531255
 21
1378.7852221287068915
 31
34.6131386861315207
  0
LINE
  5
1372
  8
EXTENSÃO_-_DIAGONAIS_VERTI
 10
2308.5324608969531255
 20
1378.7852221287068915
 30
34.6131386861315207
 11
2307.7036147431072095
 21
1378.7852221287068915
 31
34.6131386861315278
  0
LINE
  5
1373
  8
EXTENSÃO_-_DIAGONAIS_VERTI
 10
2308.5324608969531255
 20
1378.7852221287068915
 30
34.6131386861315207
 11
2307.8583031204220788
 21
1378.9399105060228976
 31
36.0000000000000711
  0
LINE
  5
1374
  8
EXTENSÃO_-_DIAGONAIS_VERTI
 10
2307.9074608969531255
 20
1378.5342605902449122
 30
32.363138686131478
 11
2307.3563800434999393
 21
1378.437987429100076
 31
31.4999999999999893
  0
LINE
  5
1389
  8
EXTENSÃO_-_DIAGONAIS_HORIZ
 10
2310.8045837274421501
 20
1378.5706797367920444
 30
29.9999999999999609
 11
2309.515995428107999
 21
1378.5706797367920444
 31
29.9999999999999609
  0
LINE
  5
138A
  8
EXTENSÃO_-_DIAGONAIS_HORIZ
 10
2311.5429185050311389
 20
1379.3090145143789869
 30
29.9999999999999609
 11
2311.5429185050311389
 21
1380.5976028137120011
 31
29.9999999999999609
  0
LINE
  5
138B
  8
EXTENSÃO_-_DIAGONAIS_HORIZ
 10
2309.515995428107999
 20
1378.5706797367920444
 30
29.9999999999999609
 11
2310.142918505031048
 21
1378.2706797367920899
 31
29.9999999999999609
  0
LINE
  5
138C
  8
EXTENSÃO_-_DIAGONAIS_HORIZ
 10
2309.515995428107999
 20
1378.5706797367920444
 30
29.9999999999999609
 11
2308.8890723511849501
 21
1378.2706797367920899
 31
29.9999999999999609
  0
LINE
  5
138D
  8
EXTENSÃO_-_DIAGONAIS_HORIZ
 10
2311.5429185050329579
 20
1380.5976028137149569
 30
29.9999999999999609
 11
2311.8429185050317756
 21
1379.970679736791908
 31
29.9999999999999609
  0
LINE
  5
138E
  8
EXTENSÃO_-_DIAGONAIS_HORIZ
 10
2311.5429185050329579
 20
1380.5976028137149569
 30
29.9999999999999609
 11
2311.8429185050331398
 21
1381.2245258906389154
 31
29.9999999999999609
  0
LINE
  5
138F
  8
EXTENSÃO_-_DIAGONAIS_HORIZ
 10
2311.8429185050308661
 20
1378.2706797367920899
 30
29.9999999999999503
 11
2311.3188078330940698
 21
1378.7947904087291136
 31
29.9999999999999609
  0
LINE
  5
1390
  8
EXTENSÃO_-_DIAGONAIS_HORIZ
 10
2311.8429185050308661
 20
1378.2706797367920899
 30
29.9999999999999503
 11
2311.3125884191408659
 21
1378.8010098226820901
 31
29.9999999999999609
  0
LINE
  5
1391
  8
EXTENSÃO_-_DIAGONAIS_HORIZ
 10
2311.072135966182941
 20
1378.2706797367920899
 30
29.9999999999999609
 11
2311.3125884191408659
 21
1378.8010098226820901
 31
29.9999999999999609
  0
LINE
  5
1392
  8
EXTENSÃO_-_DIAGONAIS_HORIZ
 10
2311.8429185050308661
 20
1379.0414622756400149
 30
29.9999999999999609
 11
2311.3125884191408659
 21
1378.8010098226820901
 31
29.9999999999999609
  0
LINE
  5
1393
  8
EXTENSÃO_-_DIAGONAIS_HORIZ
 10
2310.8045837274421501
 20
1378.5706797367920444
 30
29.9999999999999609
 11
2311.072135966182941
 21
1378.2706797367920899
 31
29.9999999999999609
  0
LINE
  5
1394
  8
EXTENSÃO_-_DIAGONAIS_HORIZ
 10
2311.5429185050311389
 20
1379.3090145143789869
 30
29.9999999999999609
 11
2311.8429185050308661
 21
1379.0414622756400149
 31
29.9999999999999609
  0
LINE
  5
1395
  8
EXTENSÃO_-_DIAGONAIS_HORIZ
 10
2307.189072351185132
 20
1378.2706797367920899
 30
29.9999999999999503
 11
2307.7131830231210188
 21
1378.7947904087291136
 31
29.9999999999999609
  0
LINE
  5
1396
  8
EXTENSÃO_-_DIAGONAIS_HORIZ
 10
2307.189072351185132
 20
1378.2706797367920899
 30
29.9999999999999503
 11
2307.7194024370742227
 21
1378.8010098226820901
 31
29.9999999999999609
  0
LINE
  5
1397
  8
EXTENSÃO_-_DIAGONAIS_HORIZ
 10
2307.9598548900321475
 20
1378.2706797367920899
 30
29.9999999999999609
 11
2307.7194024370742227
 21
1378.8010098226820901
 31
29.9999999999999609
  0
LINE
  5
1398
  8
EXTENSÃO_-_DIAGONAIS_HORIZ
 10
2307.1890723511842225
 20
1379.0414622756400149
 30
29.9999999999999609
 11
2307.7194024370742227
 21
1378.8010098226820901
 31
29.9999999999999609
  0
LINE
  5
1399
  8
EXTENSÃO_-_DIAGONAIS_HORIZ
 10
2308.2274071287729384
 20
1378.5706797367920444
 30
29.9999999999999609
 11
2307.9598548900321475
 21
1378.2706797367920899
 31
29.9999999999999609
  0
LINE
  5
139A
  8
EXTENSÃO_-_DIAGONAIS_HORIZ
 10
2307.4890723511848591
 20
1379.3090145143789869
 30
29.9999999999999609
 11
2307.189072351185132
 21
1379.0414622756400149
 31
29.9999999999999609
  0
LINE
  5
139B
  8
EXTENSÃO_-_DIAGONAIS_HORIZ
 10
2310.8045837274430596
 20
1382.6245258906319577
 30
29.9999999999999609
 11
2309.5159954281089085
 21
1382.6245258906319577
 31
29.9999999999999609
  0
LINE
  5
139C
  8
EXTENSÃO_-_DIAGONAIS_HORIZ
 10
2309.515995428107999
 20
1382.6245258906319577
 30
29.9999999999999609
 11
2310.142918505031048
 21
1382.9245258906310028
 31
29.9999999999999609
  0
LINE
  5
139D
  8
EXTENSÃO_-_DIAGONAIS_HORIZ
 10
2309.515995428107999
 20
1382.6245258906319577
 30
29.9999999999999609
 11
2308.8890723511849501
 21
1382.9245258906319123
 31
29.9999999999999609
  0
LINE
  5
139E
  8
EXTENSÃO_-_DIAGONAIS_HORIZ
 10
2307.189072351185132
 20
1382.9245258906319123
 30
29.9999999999999503
 11
2307.7131830231219283
 21
1382.4004152186948886
 31
29.9999999999999609
  0
LINE
  5
139F
  8
EXTENSÃO_-_DIAGONAIS_HORIZ
 10
2307.189072351185132
 20
1382.9245258906319123
 30
29.9999999999999503
 11
2307.7194024370751322
 21
1382.3941958047419121
 31
29.9999999999999609
  0
LINE
  5
13A0
  8
EXTENSÃO_-_DIAGONAIS_HORIZ
 10
2307.959854890033057
 20
1382.9245258906319123
 30
29.9999999999999609
 11
2307.7194024370751322
 21
1382.3941958047419121
 31
29.9999999999999609
  0
LINE
  5
13A1
  8
EXTENSÃO_-_DIAGONAIS_HORIZ
 10
2307.1890723511842225
 20
1382.1537433517839872
 30
29.9999999999999609
 11
2307.7194024370751322
 21
1382.3941958047419121
 31
29.9999999999999609
  0
LINE
  5
13A2
  8
EXTENSÃO_-_DIAGONAIS_HORIZ
 10
2308.2274071287729384
 20
1382.6245258906319577
 30
29.9999999999999609
 11
2307.959854890033057
 21
1382.9245258906319123
 31
29.9999999999999609
  0
LINE
  5
13A3
  8
EXTENSÃO_-_DIAGONAIS_HORIZ
 10
2307.4890723511848591
 20
1381.8861911130450153
 30
29.9999999999999609
 11
2307.189072351185132
 21
1382.1537433517839872
 31
29.9999999999999609
  0
LINE
  5
13A4
  8
EXTENSÃO_-_DIAGONAIS_HORIZ
 10
2311.8429185050308661
 20
1382.9245258906310028
 30
29.9999999999999503
 11
2311.3188078330949793
 21
1382.4004152186939791
 31
29.9999999999999609
  0
LINE
  5
13A5
  8
EXTENSÃO_-_DIAGONAIS_HORIZ
 10
2311.8429185050308661
 20
1382.9245258906310028
 30
29.9999999999999503
 11
2311.3125884191408659
 21
1382.3941958047419121
 31
29.9999999999999609
  0
LINE
  5
13A6
  8
EXTENSÃO_-_DIAGONAIS_HORIZ
 10
2311.072135966182941
 20
1382.9245258906310028
 30
29.9999999999999609
 11
2311.3125884191417754
 21
1382.3941958047410026
 31
29.9999999999999609
  0
LINE
  5
13A7
  8
EXTENSÃO_-_DIAGONAIS_HORIZ
 10
2311.8429185050308661
 20
1382.1537433517839872
 30
29.9999999999999609
 11
2311.3125884191417754
 21
1382.3941958047410026
 31
29.9999999999999609
  0
LINE
  5
13A8
  8
EXTENSÃO_-_DIAGONAIS_HORIZ
 10
2310.8045837274430596
 20
1382.6245258906319577
 30
29.9999999999999609
 11
2311.072135966182941
 21
1382.9245258906310028
 31
29.9999999999999609
  0
LINE
  5
13A9
  8
EXTENSÃO_-_DIAGONAIS_HORIZ
 10
2311.5429185050311389
 20
1381.8861911130441058
 30
29.9999999999999609
 11
2311.8429185050308661
 21
1382.1537433517839872
 31
29.9999999999999609
  0
LINE
  5
13AA
  8
EXTENSÃO_-_DIAGONAIS_HORIZ
 10
2307.4890723511848591
 20
1379.3090145143789869
 30
29.9999999999999609
 11
2307.4890723511848591
 21
1380.5976028137110916
 31
29.9999999999999609
  0
LINE
  5
13AB
  8
EXTENSÃO_-_DIAGONAIS_HORIZ
 10
2307.4890723511830402
 20
1380.5976028137149569
 30
29.9999999999999609
 11
2307.1890723511828583
 21
1379.970679736791908
 31
29.9999999999999609
  0
LINE
  5
13AC
  8
EXTENSÃO_-_DIAGONAIS_HORIZ
 10
2307.4890723511830402
 20
1380.5976028137149569
 30
29.9999999999999609
 11
2307.1890723511819488
 21
1381.2245258906389154
 31
29.9999999999999609
  0
LINE
  5
13AD
  8
EXTENSÃO_-_DIAGONAIS_HORIZ
 10
2309.5159954281148202
 20
1378.9399105060228976
 30
35.9999999999999432
 11
2310.3448415819621005
 21
1379.768756659869041
 31
35.9999999999998934
  0
LINE
  5
13AE
  8
EXTENSÃO_-_DIAGONAIS_HORIZ
 10
2311.1736877358080164
 20
1380.5976028137149569
 30
35.9999999999998366
 11
2310.3448415819621005
 21
1381.4264489675611003
 31
35.9999999999998579
  0
LINE
  5
13AF
  8
EXTENSÃO_-_DIAGONAIS_HORIZ
 10
2309.5159954281148202
 20
1382.2552951214079258
 30
35.9999999999998721
 11
2308.6871492742679948
 21
1381.4264489675611003
 31
35.9999999999998934
  0
LINE
  5
13B0
  8
EXTENSÃO_-_DIAGONAIS_HORIZ
 10
2307.8583031204220788
 20
1380.5976028137149569
 30
35.9999999999998934
 11
2308.6871492742689043
 21
1379.768756659869041
 31
35.9999999999999218
  0
LINE
  5
13B1
  8
EXTENSÃO_-_DIAGONAIS_HORIZ
 10
2308.6871492742689043
 20
1379.768756659869041
 30
35.9999999999999218
 11
2307.8583031204220788
 21
1378.9399105060228976
 31
35.9999999999999289
  0
LINE
  5
13B2
  8
EXTENSÃO_-_DIAGONAIS_HORIZ
 10
2308.6871492742689043
 20
1379.768756659869041
 30
35.9999999999999218
 11
2310.3448415819621005
 21
1379.768756659869041
 31
35.9999999999998934
  0
LINE
  5
13B3
  8
EXTENSÃO_-_DIAGONAIS_HORIZ
 10
2310.3448415819621005
 20
1379.768756659869041
 30
35.9999999999998934
 11
2311.1736877358080164
 21
1378.9399105060228976
 31
35.9999999999998366
  0
LINE
  5
13B4
  8
EXTENSÃO_-_DIAGONAIS_HORIZ
 10
2307.8583031204220788
 20
1382.2552951214079258
 30
35.9999999999998579
 11
2308.6871492742689043
 21
1381.4264489675620098
 31
35.9999999999998934
  0
LINE
  5
13B5
  8
EXTENSÃO_-_DIAGONAIS_HORIZ
 10
2308.6871492742689043
 20
1381.4264489675620098
 30
35.9999999999998934
 11
2310.3448415819621005
 21
1381.4264489675620098
 31
35.9999999999998579
  0
LINE
  5
13B6
  8
EXTENSÃO_-_DIAGONAIS_HORIZ
 10
2310.3448415819621005
 20
1381.4264489675620098
 30
35.9999999999998579
 11
2311.1736877358080164
 21
1382.2552951214079258
 31
35.999999999999801
  0
LINE
  5
13D5
  8
EXTENSÃO_-_DIAGONAIS_HORIZ
 10
2308.6871492742679948
 20
1381.4264489675611003
 30
35.9999999999998934
 11
2307.8583031204220788
 21
1380.5976028137149569
 31
35.9999999999998934
  0
LINE
  5
13D7
  8
EXTENSÃO_-_DIAGONAIS_HORIZ
 10
2310.3448415819621005
 20
1381.4264489675611003
 30
35.9999999999998579
 11
2309.5159954281148202
 21
1382.2552951214079258
 31
35.9999999999998721
  0
LINE
  5
13D8
  8
EXTENSÃO_-_DIAGONAIS_HORIZ
 10
2310.3448415819621005
 20
1379.768756659869041
 30
35.9999999999998934
 11
2311.1736877358080164
 21
1380.5976028137149569
 31
35.9999999999998366
  0
LINE
  5
13D9
  8
EXTENSÃO_-_DIAGONAIS_HORIZ
 10
2308.6871492742689043
 20
1379.768756659869041
 30
35.9999999999999218
 11
2309.5159954281148202
 21
1378.9399105060228976
 31
35.9999999999999432
  0
LINE
  5
13DA
  8
EXTENSÃO_-_DIAGONAIS_HORIZ
 10
2309.515995428107999
 20
1378.5706797367920444
 30
29.9999999999999609
 11
2308.2274071287729384
 21
1378.5706797367920444
 31
29.9999999999999609
  0
LINE
  5
13DB
  8
EXTENSÃO_-_DIAGONAIS_HORIZ
 10
2310.8045837274421501
 20
1378.5706797367920444
 30
29.9999999999999609
 11
2310.1429185050278647
 21
1378.2706797367939089
 31
29.9999999999999609
  0
LINE
  5
13DC
  8
EXTENSÃO_-_DIAGONAIS_HORIZ
 10
2311.3125884191408659
 20
1378.8010098226820901
 30
29.9999999999999609
 11
2311.5429185050311389
 21
1379.3090145143789869
 31
29.9999999999999609
  0
LINE
  5
13DD
  8
EXTENSÃO_-_DIAGONAIS_HORIZ
 10
2311.5429185050311389
 20
1379.3090145143789869
 30
29.9999999999999609
 11
2311.8429185050308661
 21
1379.9706797367950912
 31
29.9999999999999609
  0
LINE
  5
13DE
  8
EXTENSÃO_-_DIAGONAIS_HORIZ
 10
2308.2274071287729384
 20
1378.5706797367920444
 30
29.9999999999999609
 11
2308.8890723511872238
 21
1378.2706797367939089
 31
29.9999999999999609
  0
LINE
  5
13DF
  8
EXTENSÃO_-_DIAGONAIS_HORIZ
 10
2307.7194024370742227
 20
1378.8010098226820901
 30
29.9999999999999609
 11
2308.2274071287729384
 21
1378.5706797367920444
 31
29.9999999999999609
  0
LINE
  5
13E0
  8
EXTENSÃO_-_DIAGONAIS_HORIZ
 10
2307.7194024370742227
 20
1378.8010098226820901
 30
29.9999999999999609
 11
2307.4890723511848591
 21
1379.3090145143789869
 31
29.9999999999999609
  0
LINE
  5
13E1
  8
EXTENSÃO_-_DIAGONAIS_HORIZ
 10
2307.4890723511848591
 20
1380.5976028137110916
 30
29.9999999999999609
 11
2307.4890723511848591
 21
1381.8861911130441058
 31
29.9999999999999609
  0
LINE
  5
13E2
  8
EXTENSÃO_-_DIAGONAIS_HORIZ
 10
2307.7194024370751322
 20
1382.3941958047419121
 30
29.9999999999999609
 11
2307.4890723511848591
 21
1381.8861911130459248
 31
29.9999999999999609
  0
LINE
  5
13E3
  8
EXTENSÃO_-_DIAGONAIS_HORIZ
 10
2307.4890723511848591
 20
1381.8861911130459248
 30
29.9999999999999609
 11
2307.189072351185132
 21
1381.2245258906300478
 31
29.9999999999999609
  0
LINE
  5
13E4
  8
EXTENSÃO_-_DIAGONAIS_HORIZ
 10
2307.7194024370751322
 20
1382.3941958047419121
 30
29.9999999999999609
 11
2308.2274071287729384
 21
1382.6245258906319577
 31
29.9999999999999609
  0
LINE
  5
13E5
  8
EXTENSÃO_-_DIAGONAIS_HORIZ
 10
2308.2274071287729384
 20
1382.6245258906319577
 30
29.9999999999999609
 11
2308.8890723511881333
 21
1382.9245258906300933
 31
29.9999999999999609
  0
LINE
  5
13E6
  8
EXTENSÃO_-_DIAGONAIS_HORIZ
 10
2309.5159954281089085
 20
1382.6245258906319577
 30
29.9999999999999609
 11
2308.2274071287729384
 21
1382.6245258906319577
 31
29.9999999999999609
  0
LINE
  5
13E7
  8
EXTENSÃO_-_DIAGONAIS_HORIZ
 10
2310.8045837274421501
 20
1382.6245258906319577
 30
29.9999999999999609
 11
2310.1429185050278647
 21
1382.9245258906300933
 31
29.9999999999999609
  0
LINE
  5
13E8
  8
EXTENSÃO_-_DIAGONAIS_HORIZ
 10
2311.3125884191417754
 20
1382.3941958047410026
 30
29.9999999999999609
 11
2310.8045837274421501
 21
1382.6245258906319577
 31
29.9999999999999609
  0
LINE
  5
13E9
  8
EXTENSÃO_-_DIAGONAIS_HORIZ
 10
2311.3125884191417754
 20
1382.3941958047410026
 30
29.9999999999999609
 11
2311.5429185050311389
 21
1381.8861911130450153
 31
29.9999999999999609
  0
LINE
  5
13EA
  8
EXTENSÃO_-_DIAGONAIS_HORIZ
 10
2311.5429185050311389
 20
1381.8861911130450153
 30
29.9999999999999609
 11
2311.8429185050308661
 21
1381.2245258906289109
 31
29.9999999999999609
  0
LINE
  5
13EB
  8
EXTENSÃO_-_DIAGONAIS_HORIZ
 10
2311.5429185050311389
 20
1380.5976028137120011
 30
29.9999999999999609
 11
2311.5429185050311389
 21
1381.8861911130441058
 31
29.9999999999999609
  0
LINE
  5
13EC
  8
EXTENSÃO_-_DIAGONAIS_HORIZ
 10
2311.3125884191408659
 20
1378.8010098226820901
 30
29.9999999999999609
 11
2310.8045837274421501
 21
1378.5706797367920444
 31
29.9999999999999609
  0
LINE
  5
13ED
  8
EXTENSÃO_-_DIAGONAIS_HORIZ
 10
2307.4890723511848591
 20
1379.3090145143789869
 30
29.9999999999999609
 11
2307.189072351185132
 21
1379.9706797367950912
 31
29.9999999999999609
  0
LINE
  5
13F8
  8
EXTENSÃO_-_MONTANTES
 10
2307.9598548900321475
 20
1378.2706797367929994
 30
30.0000000000005613
 11
2307.1890723511919532
 21
1378.2706797367920899
 31
30.0000000000000284
  0
LINE
  5
13F9
  8
EXTENSÃO_-_MONTANTES
 10
2308.8890723511858596
 20
1378.2706797367929994
 30
30.0000000000007283
 11
2307.9598548900321475
 21
1378.2706797367929994
 31
30.0000000000005613
  0
LINE
  5
13FA
  8
EXTENSÃO_-_MONTANTES
 10
2310.1429185050260458
 20
1378.2706797367929994
 30
30.0000000000007496
 11
2308.8890723511858596
 21
1378.2706797367929994
 31
30.0000000000007283
  0
LINE
  5
13FB
  8
EXTENSÃO_-_MONTANTES
 10
2311.072135966182941
 20
1378.2706797367929994
 30
30.0000000000006288
 11
2310.1429185050260458
 21
1378.2706797367929994
 31
30.0000000000007496
  0
LINE
  5
1404
  8
EXTENSÃO_-_MONTANTES
 10
2311.8429185050390515
 20
1382.1537433517830777
 30
29.9999999999999289
 11
2311.842918505038142
 21
1382.9245258906389608
 31
30.0000000000000284
  0
LINE
  5
1405
  8
EXTENSÃO_-_MONTANTES
 10
2311.8429185050390515
 20
1381.2245258906500567
 30
29.9999999999998295
 11
2311.8429185050390515
 21
1382.1537433517830777
 31
29.9999999999999289
  0
LINE
  5
1406
  8
EXTENSÃO_-_MONTANTES
 10
2311.8429185050390515
 20
1379.9706797368119169
 30
29.9999999999997797
 11
2311.8429185050390515
 21
1381.2245258906500567
 31
29.9999999999998295
  0
LINE
  5
1407
  8
EXTENSÃO_-_MONTANTES
 10
2311.8429185050390515
 20
1379.0414622756441076
 30
29.9999999999997691
 11
2311.8429185050390515
 21
1379.9706797368119169
 31
29.9999999999997797
  0
LINE
  5
1408
  8
EXTENSÃO_-_MONTANTES
 10
2311.1736877358080164
 20
1380.5976028137160938
 30
35.999999999999801
 11
2311.1736877358080164
 21
1382.2552951214079258
 31
36.0000000000000071
210
1.0
220
0.0000000000000008
230
-0.0000000000000008
  0
LINE
  5
1409
  8
EXTENSÃO_-_MONTANTES
 10
2309.5159954281161845
 20
1378.9399105060240345
 30
35.9999999999999716
 11
2311.1736877358080164
 21
1378.9399105060228976
 31
36.0000000000001208
210
0.0000000000000005
220
-1.0
230
-0.0000000000000002
  0
LINE
  5
1413
  8
EXTENSÃO_-_DIAGONAIS_VERTI
 10
2309.5159954281161845
 20
1378.437987429100076
 30
31.50000000000027
 11
2308.2659954281148202
 21
1378.4379874290989392
 31
31.50000000000027
  0
LINE
  5
1414
  8
EXTENSÃO_-_DIAGONAIS_VERTI
 10
2310.7659954281161845
 20
1378.4379874290989392
 30
31.50000000000027
 11
2309.5159954281161845
 21
1378.437987429100076
 31
31.50000000000027
  0
LINE
  5
1415
  8
EXTENSÃO_-_DIAGONAIS_VERTI
 10
2311.3044569665771633
 20
1378.354333582946083
 30
30.7499999999998188
 11
2311.842918505038142
 21
1378.2706797367920899
 31
29.9999999999999787
  0
LINE
  5
1416
  8
EXTENSÃO_-_DIAGONAIS_VERTI
 10
2308.2659954281148202
 20
1378.4379874290989392
 30
31.50000000000027
 11
2307.3563800434999393
 21
1378.437987429100076
 31
31.50000000000027
  0
LINE
  5
1417
  8
EXTENSÃO_-_DIAGONAIS_VERTI
 10
2307.7275338896538415
 20
1378.354333582946083
 30
30.7499999999998188
 11
2307.1890723511919532
 21
1378.2706797367920899
 31
29.9999999999999787
  0
LINE
  5
1418
  8
EXTENSÃO_-_MONTANTES
 10
2307.3563800434999393
 20
1378.437987429100076
 30
31.4999999999997087
 11
2307.1890723511919532
 21
1378.2706797367920899
 31
30.0000000000000497
  0
LINE
  5
1419
  8
EXTENSÃO_-_MONTANTES
 10
2307.548926365790976
 20
1378.6305337513899758
 30
33.2262773722627784
 11
2307.3563800434999393
 21
1378.437987429100076
 31
31.4999999999997087
  0
LINE
  5
141A
  8
EXTENSÃO_-_MONTANTES
 10
2307.7036147431072095
 20
1378.785222128705982
 30
34.6131386861315633
 11
2307.548926365790976
 21
1378.6305337513899758
 31
33.2262773722627784
  0
LINE
  5
141B
  8
EXTENSÃO_-_DIAGONAIS_VERTI
 10
2307.9074608969531255
 20
1378.5342605902449122
 30
32.3631386861317409
 11
2307.548926365790976
 21
1378.6305337513911127
 31
33.2262773722628992
  0
LINE
  5
141C
  8
EXTENSÃO_-_DIAGONAIS_VERTI
 10
2311.1245299592769697
 20
1378.5342605902449122
 30
32.3631386861312222
 11
2311.4830644904400287
 21
1378.6305337513911127
 31
33.2262773722628992
  0
LINE
  5
141D
  8
EXTENSÃO_-_DIAGONAIS_VERTI
 10
2308.5324608969531255
 20
1378.7852221287068915
 30
34.6131386861315207
 11
2309.5159954281148202
 21
1378.9399105060228976
 31
36.0000000000000071
  0
LINE
  5
141E
  8
EXTENSÃO_-_DIAGONAIS_VERTI
 10
2310.4995299592769697
 20
1378.7852221287068915
 30
34.6131386861316273
 11
2309.5159954281148202
 21
1378.9399105060228976
 31
36.0000000000000071
  0
LINE
  5
141F
  8
EXTENSÃO_-_MONTANTES
 10
2311.6756108127310654
 20
1382.7572181983309747
 30
31.4999999999999005
 11
2311.842918505038142
 21
1382.9245258906389608
 31
29.9999999999999787
  0
LINE
  5
1420
  8
EXTENSÃO_-_MONTANTES
 10
2311.4830644904400287
 20
1382.5646718760399381
 30
33.2262773722627927
 11
2311.6756108127310654
 21
1382.7572181983309747
 31
31.4999999999999005
  0
LINE
  5
1421
  8
EXTENSÃO_-_MONTANTES
 10
2311.3283761131237952
 20
1382.4099834987239319
 30
34.613138686131542
 11
2311.4830644904400287
 21
1382.5646718760399381
 31
33.2262773722627927
  0
LINE
  5
1422
  8
EXTENSÃO_-_DIAGONAIS_VERTI
 10
2311.7592646588850585
 20
1382.3860643521770726
 30
30.7499999999997087
 11
2311.842918505038142
 21
1382.9245258906389608
 31
29.9999999999999787
  0
LINE
  5
1423
  8
EXTENSÃO_-_DIAGONAIS_VERTI
 10
2311.6756108127310654
 20
1380.5976028137149569
 30
31.5000000000001315
 11
2311.6756108127310654
 21
1381.8476028137160938
 31
31.5000000000000604
  0
LINE
  5
1424
  8
EXTENSÃO_-_DIAGONAIS_VERTI
 10
2311.6756108127310654
 20
1381.8476028137160938
 30
31.5000000000000604
 11
2311.6756108127310654
 21
1382.7572181983309747
 31
31.5
  0
LINE
  5
1425
  8
EXTENSÃO_-_DIAGONAIS_VERTI
 10
2311.6756108127310654
 20
1379.3476028137160938
 30
31.5000000000002096
 11
2311.6756108127310654
 21
1380.5976028137149569
 31
31.5000000000001315
  0
LINE
  5
1426
  8
EXTENSÃO_-_DIAGONAIS_VERTI
 10
2311.7592646588850585
 20
1378.8091412752539782
 30
30.7499999999997087
 11
2311.842918505038142
 21
1378.2706797367920899
 31
29.9999999999999787
  0
LINE
  5
1427
  8
EXTENSÃO_-_DIAGONAIS_VERTI
 10
2311.5793376515848649
 20
1382.2061373448771064
 30
32.363138686131478
 11
2311.4830644904400287
 21
1382.5646718760399381
 31
33.2262773722628992
  0
LINE
  5
1428
  8
EXTENSÃO_-_DIAGONAIS_VERTI
 10
2311.5793376515848649
 20
1378.9890682825530348
 30
32.363138686131478
 11
2311.4830644904400287
 21
1378.6305337513911127
 31
33.2262773722628992
  0
LINE
  5
1429
  8
EXTENSÃO_-_DIAGONAIS_VERTI
 10
2311.3283761131237952
 20
1379.6140682825530348
 30
34.6131386861315704
 11
2311.1736877358080164
 21
1380.5976028137149569
 31
36.0000000000000071
  0
LINE
  5
142A
  8
EXTENSÃO_-_DIAGONAIS_VERTI
 10
2311.3283761131237952
 20
1381.5811373448780159
 30
34.6131386861316415
 11
2311.1736877358080164
 21
1380.5976028137149569
 31
36.0000000000000071
  0
LINE
  5
142B
  8
EXTENSÃO_-_MONTANTES
 10
2311.3283761131237952
 20
1378.7852221287068915
 30
34.613138686131613
 11
2311.4830644904400287
 21
1378.6305337513911127
 31
33.2262773722633824
  0
LINE
  5
142C
  8
EXTENSÃO_-_MONTANTES
 10
2311.4830644904400287
 20
1378.6305337513911127
 30
33.2262773722633824
 11
2311.6756108127310654
 21
1378.4379874291009855
 31
31.5000000000007816
  0
LINE
  5
142D
  8
EXTENSÃO_-_MONTANTES
 10
2311.6756108127310654
 20
1378.4379874291009855
 30
31.5000000000007816
 11
2311.842918505038142
 21
1378.2706797367920899
 31
30.0000000000000213
  0
LINE
  5
1435
  8
EXTENSÃO_-_MONTANTES
 10
2311.1736877358080164
 20
1382.2552951214079258
 30
36.0
 11
2311.3283761131237952
 21
1382.4099834987239319
 31
34.613138686131613
  0
LINE
  5
1436
  8
EXTENSÃO_-_MONTANTES
 10
2311.3283761131237952
 20
1382.4099834987239319
 30
34.613138686131613
 11
2311.4830644904400287
 21
1382.5646718760399381
 31
33.2262773722633824
  0
LINE
  5
1437
  8
EXTENSÃO_-_MONTANTES
 10
2311.4830644904400287
 20
1382.5646718760399381
 30
33.2262773722633824
 11
2311.6756108127310654
 21
1382.7572181983309747
 31
31.5000000000007816
  0
LINE
  5
1438
  8
EXTENSÃO_-_MONTANTES
 10
2311.6756108127310654
 20
1382.7572181983309747
 30
31.5000000000007816
 11
2311.842918505038142
 21
1382.9245258906389608
 31
30.0000000000000213
  0
LINE
  5
1439
  8
EXTENSÃO_-_MONTANTES
 10
2307.8583031204220788
 20
1382.2552951214079258
 30
36.0000000000000995
 11
2307.7036147431072095
 21
1382.4099834987250688
 31
34.6131386861315633
  0
LINE
  5
143A
  8
EXTENSÃO_-_MONTANTES
 10
2307.7036147431072095
 20
1382.4099834987250688
 30
34.6131386861315633
 11
2307.548926365790976
 21
1382.5646718760410749
 31
33.2262773722627784
  0
LINE
  5
143B
  8
EXTENSÃO_-_MONTANTES
 10
2307.548926365790976
 20
1382.5646718760410749
 30
33.2262773722627784
 11
2307.3563800434999393
 21
1382.7572181983321116
 31
31.4999999999997087
  0
LINE
  5
143C
  8
EXTENSÃO_-_MONTANTES
 10
2307.3563800434999393
 20
1382.7572181983321116
 30
31.4999999999997087
 11
2307.1890723511919532
 21
1382.9245258906389608
 31
30.0000000000000497
  0
LINE
  5
143D
  8
EXTENSÃO_-_MONTANTES
 10
2307.8583031204220788
 20
1382.2552951214079258
 30
36.0000000000001066
 11
2309.5159954281161845
 21
1382.2552951214079258
 31
35.9999999999999716
210
0.0000000000000005
220
1.0
230
-0.0000000000000002
  0
LINE
  5
143E
  8
EXTENSÃO_-_MONTANTES
 10
2309.5159954281161845
 20
1382.2552951214079258
 30
35.9999999999999716
 11
2311.1736877358080164
 21
1382.2552951214079258
 31
36.0000000000001208
210
0.0000000000000005
220
1.0
230
-0.0000000000000002
  0
LINE
  5
143F
  8
EXTENSÃO_-_MONTANTES
 10
2311.842918505038142
 20
1382.9245258906389608
 30
30.0000000000000213
 11
2311.072135966182941
 21
1382.9245258906380514
 31
30.0000000000006288
  0
LINE
  5
1440
  8
EXTENSÃO_-_MONTANTES
 10
2311.072135966182941
 20
1382.9245258906380514
 30
30.0000000000006288
 11
2310.1429185050260458
 21
1382.9245258906380514
 31
30.0000000000007496
  0
LINE
  5
1441
  8
EXTENSÃO_-_MONTANTES
 10
2310.1429185050260458
 20
1382.9245258906380514
 30
30.0000000000007496
 11
2308.8890723511858596
 21
1382.9245258906389608
 31
30.0000000000007283
  0
LINE
  5
1442
  8
EXTENSÃO_-_MONTANTES
 10
2308.8890723511858596
 20
1382.9245258906389608
 30
30.0000000000007283
 11
2307.9598548900321475
 21
1382.9245258906389608
 31
30.0000000000005613
  0
LINE
  5
1443
  8
EXTENSÃO_-_MONTANTES
 10
2307.9598548900321475
 20
1382.9245258906389608
 30
30.0000000000005613
 11
2307.1890723511919532
 21
1382.9245258906389608
 31
30.0000000000000284
  0
LINE
  5
1444
  8
EXTENSÃO_-_DIAGONAIS_VERTI
 10
2311.6756108127310654
 20
1382.7572181983309747
 30
31.50000000000027
 11
2310.7659954281161845
 21
1382.7572181983321116
 31
31.50000000000027
  0
LINE
  5
1445
  8
EXTENSÃO_-_DIAGONAIS_VERTI
 10
2310.7659954281161845
 20
1382.7572181983321116
 30
31.50000000000027
 11
2309.5159954281161845
 21
1382.7572181983321116
 31
31.50000000000027
  0
LINE
  5
1446
  8
EXTENSÃO_-_DIAGONAIS_VERTI
 10
2309.5159954281161845
 20
1382.7572181983321116
 30
31.50000000000027
 11
2308.2659954281148202
 21
1382.7572181983321116
 31
31.50000000000027
  0
LINE
  5
1447
  8
EXTENSÃO_-_DIAGONAIS_VERTI
 10
2308.2659954281148202
 20
1382.7572181983321116
 30
31.50000000000027
 11
2307.3563800434999393
 21
1382.7572181983309747
 31
31.50000000000027
  0
LINE
  5
1448
  8
EXTENSÃO_-_DIAGONAIS_VERTI
 10
2309.5159954281148202
 20
1382.7572181983309747
 30
31.4999999999999503
 11
2310.1429185050387787
 21
1382.9245258906389608
 31
29.9999999999996909
  0
LINE
  5
1449
  8
EXTENSÃO_-_DIAGONAIS_VERTI
 10
2310.7659954281148202
 20
1382.7572181983309747
 30
31.4999999999996696
 11
2310.1429185050387787
 21
1382.9245258906389608
 31
29.9999999999996909
  0
LINE
  5
144A
  8
EXTENSÃO_-_DIAGONAIS_VERTI
 10
2310.7659954281148202
 20
1382.7572181983309747
 30
31.4999999999996696
 11
2311.3044569665771633
 21
1382.8408720444861046
 31
30.7499999999998188
  0
LINE
  5
144B
  8
EXTENSÃO_-_DIAGONAIS_VERTI
 10
2311.3044569665771633
 20
1382.8408720444861046
 30
30.7499999999998188
 11
2311.842918505038142
 21
1382.9245258906389608
 31
29.9999999999999787
  0
LINE
  5
144C
  8
EXTENSÃO_-_DIAGONAIS_VERTI
 10
2311.3044569665771633
 20
1382.8408720444849678
 30
30.7499999999998188
 11
2311.6756108127310654
 21
1382.7572181983309747
 31
31.4999999999999893
  0
LINE
  5
144D
  8
EXTENSÃO_-_DIAGONAIS_VERTI
 10
2310.7659954281148202
 20
1382.7572181983309747
 30
31.5000000000000604
 11
2311.1245299592769697
 21
1382.6609450371859111
 31
32.3631386861312222
  0
LINE
  5
144E
  8
EXTENSÃO_-_DIAGONAIS_VERTI
 10
2311.1245299592769697
 20
1382.6609450371859111
 30
32.3631386861312222
 11
2311.4830644904400287
 21
1382.5646718760399381
 31
33.2262773722628992
  0
LINE
  5
144F
  8
EXTENSÃO_-_DIAGONAIS_VERTI
 10
2311.4830644904400287
 20
1382.5646718760399381
 30
33.22627737226302
 11
2310.4995299592769697
 21
1382.4099834987250688
 31
34.6131386861316273
  0
LINE
  5
1450
  8
EXTENSÃO_-_DIAGONAIS_VERTI
 10
2310.4995299592769697
 20
1382.4099834987250688
 30
34.6131386861316273
 11
2309.5159954281148202
 21
1382.2552951214079258
 31
36.0000000000000071
  0
LINE
  5
1451
  8
EXTENSÃO_-_DIAGONAIS_VERTI
 10
2310.4995299592778792
 20
1382.4099834987239319
 30
34.6131386861315207
 11
2311.3283761131237952
 21
1382.4099834987239319
 31
34.6131386861315278
  0
LINE
  5
1452
  8
EXTENSÃO_-_DIAGONAIS_VERTI
 10
2310.4995299592778792
 20
1382.4099834987239319
 30
34.6131386861315207
 11
2311.1736877358080164
 21
1382.2552951214079258
 31
36.0000000000000711
  0
LINE
  5
1453
  8
EXTENSÃO_-_DIAGONAIS_VERTI
 10
2311.1245299592769697
 20
1382.6609450371859111
 30
32.363138686131478
 11
2311.6756108127310654
 21
1382.7572181983309747
 31
31.4999999999999893
  0
LINE
  5
1454
  8
EXTENSÃO_-_DIAGONAIS_VERTI
 10
2309.5159954281161845
 20
1382.7572181983309747
 30
31.4999999999999503
 11
2308.8890723511922261
 21
1382.9245258906389608
 31
29.9999999999996909
  0
LINE
  5
1455
  8
EXTENSÃO_-_DIAGONAIS_VERTI
 10
2308.2659954281148202
 20
1382.7572181983309747
 30
31.4999999999996696
 11
2308.8890723511922261
 21
1382.9245258906389608
 31
29.9999999999996909
  0
LINE
  5
1456
  8
EXTENSÃO_-_DIAGONAIS_VERTI
 10
2308.2659954281148202
 20
1382.7572181983309747
 30
31.4999999999996696
 11
2307.7275338896538415
 21
1382.8408720444861046
 31
30.7499999999998188
  0
LINE
  5
1457
  8
EXTENSÃO_-_DIAGONAIS_VERTI
 10
2307.7275338896538415
 20
1382.8408720444861046
 30
30.7499999999998188
 11
2307.1890723511919532
 21
1382.9245258906389608
 31
29.9999999999999787
  0
LINE
  5
1458
  8
EXTENSÃO_-_DIAGONAIS_VERTI
 10
2307.7275338896538415
 20
1382.8408720444849678
 30
30.7499999999998188
 11
2307.3563800434999393
 21
1382.7572181983309747
 31
31.4999999999999893
  0
LINE
  5
1459
  8
EXTENSÃO_-_DIAGONAIS_VERTI
 10
2308.2659954281148202
 20
1382.7572181983309747
 30
31.5000000000000604
 11
2307.9074608969531255
 21
1382.6609450371859111
 31
32.3631386861317409
  0
LINE
  5
145A
  8
EXTENSÃO_-_DIAGONAIS_VERTI
 10
2307.9074608969531255
 20
1382.6609450371859111
 30
32.3631386861317409
 11
2307.548926365790976
 21
1382.5646718760399381
 31
33.2262773722628992
  0
LINE
  5
145B
  8
EXTENSÃO_-_DIAGONAIS_VERTI
 10
2307.548926365790976
 20
1382.5646718760399381
 30
33.22627737226302
 11
2308.5324608969531255
 21
1382.4099834987250688
 31
34.6131386861315207
  0
LINE
  5
145C
  8
EXTENSÃO_-_DIAGONAIS_VERTI
 10
2308.5324608969531255
 20
1382.4099834987250688
 30
34.6131386861315207
 11
2309.5159954281148202
 21
1382.2552951214079258
 31
36.0000000000000071
  0
LINE
  5
145D
  8
EXTENSÃO_-_DIAGONAIS_VERTI
 10
2308.5324608969531255
 20
1382.4099834987239319
 30
34.6131386861315207
 11
2307.7036147431072095
 21
1382.4099834987239319
 31
34.6131386861315278
  0
LINE
  5
145E
  8
EXTENSÃO_-_DIAGONAIS_VERTI
 10
2308.5324608969531255
 20
1382.4099834987239319
 30
34.6131386861315207
 11
2307.8583031204220788
 21
1382.2552951214079258
 31
36.0000000000000711
  0
LINE
  5
145F
  8
EXTENSÃO_-_DIAGONAIS_VERTI
 10
2307.9074608969531255
 20
1382.6609450371859111
 30
32.363138686131478
 11
2307.3563800434999393
 21
1382.7572181983309747
 31
31.4999999999999893
  0
LINE
  5
1460
  8
EXTENSÃO_-_MONTANTES
 10
2307.8583031204238978
 20
1378.9399105060228976
 30
36.0000000000000071
 11
2307.8583031204220788
 21
1380.5976028137160938
 31
35.999999999999801
210
-1.0
220
0.0000000000000008
230
-0.0000000000000008
  0
LINE
  5
1461
  8
EXTENSÃO_-_MONTANTES
 10
2307.8583031204220788
 20
1380.5976028137160938
 30
35.999999999999801
 11
2307.8583031204238978
 21
1382.2552951214079258
 31
36.0000000000000071
210
-1.0
220
0.0000000000000008
230
-0.0000000000000008
  0
LINE
  5
1462
  8
EXTENSÃO_-_MONTANTES
 10
2307.1890723511919532
 20
1378.2706797367920899
 30
30.0000000000000213
 11
2307.1890723511910437
 21
1379.0414622756441076
 31
29.9999999999997691
  0
LINE
  5
1463
  8
EXTENSÃO_-_MONTANTES
 10
2307.1890723511910437
 20
1379.0414622756441076
 30
29.9999999999997691
 11
2307.1890723511910437
 21
1379.9706797368119169
 31
29.9999999999997797
  0
LINE
  5
1464
  8
EXTENSÃO_-_MONTANTES
 10
2307.1890723511910437
 20
1379.9706797368119169
 30
29.9999999999997797
 11
2307.1890723511919532
 21
1381.2245258906500567
 31
29.9999999999998295
  0
LINE
  5
1465
  8
EXTENSÃO_-_MONTANTES
 10
2307.1890723511919532
 20
1381.2245258906500567
 30
29.9999999999998295
 11
2307.1890723511919532
 21
1382.1537433517830777
 31
29.9999999999999289
  0
LINE
  5
1466
  8
EXTENSÃO_-_MONTANTES
 10
2307.1890723511919532
 20
1382.1537433517830777
 30
29.9999999999999289
 11
2307.1890723511919532
 21
1382.9245258906389608
 31
30.0000000000000284
  0
LINE
  5
1467
  8
EXTENSÃO_-_DIAGONAIS_VERTI
 10
2307.3563800434999393
 20
1378.437987429100076
 30
31.50000000000027
 11
2307.3563800434999393
 21
1379.3476028137160938
 31
31.5000000000002096
  0
LINE
  5
1468
  8
EXTENSÃO_-_DIAGONAIS_VERTI
 10
2307.3563800434999393
 20
1379.3476028137160938
 30
31.5000000000002096
 11
2307.3563800434999393
 21
1380.5976028137149569
 31
31.5000000000001315
  0
LINE
  5
1469
  8
EXTENSÃO_-_DIAGONAIS_VERTI
 10
2307.3563800434999393
 20
1380.5976028137149569
 30
31.5000000000001315
 11
2307.3563800434999393
 21
1381.8476028137160938
 31
31.5000000000000604
  0
LINE
  5
146A
  8
EXTENSÃO_-_DIAGONAIS_VERTI
 10
2307.3563800434999393
 20
1381.8476028137160938
 30
31.5000000000000604
 11
2307.3563800434999393
 21
1382.7572181983309747
 31
31.5
  0
LINE
  5
146B
  8
EXTENSÃO_-_DIAGONAIS_VERTI
 10
2307.3563800434999393
 20
1380.5976028137149569
 30
31.4999999999999503
 11
2307.1890723511919532
 21
1381.2245258906389154
 31
29.9999999999996909
  0
LINE
  5
146C
  8
EXTENSÃO_-_DIAGONAIS_VERTI
 10
2307.3563800434999393
 20
1381.8476028137160938
 30
31.4999999999996696
 11
2307.1890723511919532
 21
1381.2245258906389154
 31
29.9999999999996909
  0
LINE
  5
146D
  8
EXTENSÃO_-_DIAGONAIS_VERTI
 10
2307.3563800434999393
 20
1381.8476028137160938
 30
31.4999999999996696
 11
2307.2727261973459463
 21
1382.3860643521770726
 31
30.7499999999997087
  0
LINE
  5
146E
  8
EXTENSÃO_-_DIAGONAIS_VERTI
 10
2307.2727261973459463
 20
1382.3860643521770726
 30
30.7499999999997087
 11
2307.1890723511919532
 21
1382.9245258906389608
 31
29.9999999999999787
  0
LINE
  5
146F
  8
EXTENSÃO_-_DIAGONAIS_VERTI
 10
2307.2727261973459463
 20
1382.3860643521770726
 30
30.7499999999998188
 11
2307.3563800434999393
 21
1382.7572181983309747
 31
31.4999999999999893
  0
LINE
  5
1470
  8
EXTENSÃO_-_DIAGONAIS_VERTI
 10
2307.3563800435008488
 20
1381.8476028137149569
 30
31.5000000000000604
 11
2307.4526532046461398
 21
1382.2061373448771064
 31
32.363138686131478
  0
LINE
  5
1471
  8
EXTENSÃO_-_DIAGONAIS_VERTI
 10
2307.4526532046461398
 20
1382.2061373448771064
 30
32.363138686131478
 11
2307.548926365790976
 21
1382.5646718760399381
 31
33.2262773722628992
  0
LINE
  5
1472
  8
EXTENSÃO_-_DIAGONAIS_VERTI
 10
2307.548926365790976
 20
1382.5646718760399381
 30
33.22627737226302
 11
2307.703614743108119
 21
1381.5811373448780159
 31
34.6131386861316415
  0
LINE
  5
1473
  8
EXTENSÃO_-_DIAGONAIS_VERTI
 10
2307.703614743108119
 20
1381.5811373448780159
 30
34.6131386861316415
 11
2307.8583031204229883
 21
1380.5976028137149569
 31
36.0000000000000071
  0
LINE
  5
1474
  8
EXTENSÃO_-_DIAGONAIS_VERTI
 10
2307.703614743108119
 20
1381.5811373448780159
 30
34.6131386861315207
 11
2307.703614743108119
 21
1382.4099834987239319
 31
34.6131386861315278
  0
LINE
  5
1475
  8
EXTENSÃO_-_DIAGONAIS_VERTI
 10
2307.703614743108119
 20
1381.5811373448780159
 30
34.6131386861315207
 11
2307.8583031204229883
 21
1382.2552951214079258
 31
36.0000000000000711
  0
LINE
  5
1476
  8
EXTENSÃO_-_DIAGONAIS_VERTI
 10
2307.4526532046461398
 20
1382.2061373448771064
 30
32.363138686131478
 11
2307.3563800434999393
 21
1382.7572181983309747
 31
31.4999999999999893
  0
LINE
  5
1477
  8
EXTENSÃO_-_DIAGONAIS_VERTI
 10
2307.3563800434999393
 20
1380.5976028137149569
 30
31.4999999999999503
 11
2307.1890723511919532
 21
1379.970679736791908
 31
29.9999999999996909
  0
LINE
  5
1478
  8
EXTENSÃO_-_DIAGONAIS_VERTI
 10
2307.3563800434999393
 20
1379.3476028137149569
 30
31.4999999999996696
 11
2307.1890723511919532
 21
1379.970679736791908
 31
29.9999999999996909
  0
LINE
  5
1479
  8
EXTENSÃO_-_DIAGONAIS_VERTI
 10
2307.3563800434999393
 20
1379.3476028137149569
 30
31.4999999999996696
 11
2307.2727261973459463
 21
1378.8091412752539782
 31
30.7499999999997087
  0
LINE
  5
147A
  8
EXTENSÃO_-_DIAGONAIS_VERTI
 10
2307.2727261973459463
 20
1378.8091412752539782
 30
30.7499999999997087
 11
2307.1890723511919532
 21
1378.2706797367920899
 31
29.9999999999999787
  0
LINE
  5
147B
  8
EXTENSÃO_-_DIAGONAIS_VERTI
 10
2307.2727261973459463
 20
1378.8091412752539782
 30
30.7499999999998188
 11
2307.3563800434999393
 21
1378.437987429100076
 31
31.4999999999999893
  0
LINE
  5
147C
  8
EXTENSÃO_-_DIAGONAIS_VERTI
 10
2307.3563800435008488
 20
1379.3476028137160938
 30
31.5000000000000604
 11
2307.4526532046461398
 21
1378.9890682825530348
 31
32.363138686131478
  0
LINE
  5
147D
  8
EXTENSÃO_-_DIAGONAIS_VERTI
 10
2307.4526532046461398
 20
1378.9890682825530348
 30
32.363138686131478
 11
2307.548926365790976
 21
1378.6305337513911127
 31
33.2262773722628992
  0
LINE
  5
147E
  8
EXTENSÃO_-_DIAGONAIS_VERTI
 10
2307.548926365790976
 20
1378.6305337513911127
 30
33.22627737226302
 11
2307.703614743108119
 21
1379.6140682825530348
 31
34.6131386861315704
  0
LINE
  5
147F
  8
EXTENSÃO_-_DIAGONAIS_VERTI
 10
2307.703614743108119
 20
1379.6140682825530348
 30
34.6131386861315704
 11
2307.8583031204229883
 21
1380.5976028137149569
 31
36.0000000000000071
  0
LINE
  5
1480
  8
EXTENSÃO_-_DIAGONAIS_VERTI
 10
2307.703614743108119
 20
1379.6140682825530348
 30
34.6131386861315207
 11
2307.703614743108119
 21
1378.7852221287068915
 31
34.6131386861315278
  0
LINE
  5
1481
  8
EXTENSÃO_-_DIAGONAIS_VERTI
 10
2307.703614743108119
 20
1379.6140682825530348
 30
34.6131386861315207
 11
2307.8583031204229883
 21
1378.9399105060228976
 31
36.0000000000000711
  0
LINE
  5
1482
  8
EXTENSÃO_-_DIAGONAIS_VERTI
 10
2307.4526532046461398
 20
1378.9890682825530348
 30
32.363138686131478
 11
2307.3563800434999393
 21
1378.437987429100076
 31
31.4999999999999893
  0
ENDSEC
  0
EOF
