  0
SECTION
  2
HEADER
  9
$ACADVER
  1
AC1009
  9
$INSBASE
 10
0.0
 20
0.0
 30
0.0
  9
$EXTMIN
 10
2275.3459129419998135
 20
1392.8905052578270443
 30
8.9999999999993765
  9
$EXTMAX
 10
2281.3382206343098915
 20
1398.8828129501368949
 30
21.0000000000007994
  9
$LIMMIN
 10
0.0
 20
0.0
  9
$LIMMAX
 10
420.0
 20
297.0
  9
$ORTHOMODE
 70
     0
  9
$REGENMODE
 70
     1
  9
$FILLMODE
 70
     1
  9
$QTEXTMODE
 70
     0
  9
$MIRRTEXT
 70
     0
  9
$DRAGMODE
 70
     2
  9
$LTSCALE
 40
1.0
  9
$OSMODE
 70
    37
  9
$ATTMODE
 70
     1
  9
$TEXTSIZE
 40
2.5
  9
$TRACEWID
 40
1.0
  9
$TEXTSTYLE
  7
STANDARD
  9
$CLAYER
  8
0
  9
$CELTYPE
  6
BYLAYER
  9
$CECOLOR
 62
   256
  9
$DIMSCALE
 40
1.0
  9
$DIMASZ
 40
2.5
  9
$DIMEXO
 40
0.625
  9
$DIMDLI
 40
3.75
  9
$DIMRND
 40
0.0
  9
$DIMDLE
 40
0.0
  9
$DIMEXE
 40
1.25
  9
$DIMTP
 40
0.0
  9
$DIMTM
 40
0.0
  9
$DIMTXT
 40
2.5
  9
$DIMCEN
 40
2.5
  9
$DIMTSZ
 40
0.0
  9
$DIMTOL
 70
     0
  9
$DIMLIM
 70
     0
  9
$DIMTIH
 70
     0
  9
$DIMTOH
 70
     0
  9
$DIMSE1
 70
     0
  9
$DIMSE2
 70
     0
  9
$DIMTAD
 70
     1
  9
$DIMZIN
 70
     8
  9
$DIMBLK
  1

  9
$DIMASO
 70
     1
  9
$DIMSHO
 70
     1
  9
$DIMPOST
  1

  9
$DIMAPOST
  1

  9
$DIMALT
 70
     0
  9
$DIMALTD
 70
     3
  9
$DIMALTF
 40
0.03937007874016
  9
$DIMLFAC
 40
1.0
  9
$DIMTOFL
 70
     1
  9
$DIMTVP
 40
0.0
  9
$DIMTIX
 70
     0
  9
$DIMSOXD
 70
     0
  9
$DIMSAH
 70
     0
  9
$DIMBLK1
  1

  9
$DIMBLK2
  1

  9
$DIMSTYLE
  2
ISO-25
  9
$DIMCLRD
 70
     0
  9
$DIMCLRE
 70
     0
  9
$DIMCLRT
 70
     0
  9
$DIMTFAC
 40
1.0
  9
$DIMGAP
 40
0.625
  9
$LUNITS
 70
     2
  9
$LUPREC
 70
     4
  9
$SKETCHINC
 40
1.0
  9
$FILLETRAD
 40
0.0
  9
$AUNITS
 70
     0
  9
$AUPREC
 70
     0
  9
$MENU
  1
.
  9
$ELEVATION
 40
0.0
  9
$PELEVATION
 40
0.0
  9
$THICKNESS
 40
0.0
  9
$LIMCHECK
 70
     0
  9
$BLIPMODE
 70
     0
  9
$CHAMFERA
 40
0.0
  9
$CHAMFERB
 40
0.0
  9
$SKPOLY
 70
     0
  9
$TDCREATE
 40
2460644.5659027779474854
  9
$TDUPDATE
 40
2460734.4997453698888421
  9
$TDINDWG
 40
0.1534606481
  9
$TDUSRTIMER
 40
0.1534606481
  9
$USRTIMER
 70
     1
  9
$ANGBASE
 50
0.0
  9
$ANGDIR
 70
     0
  9
$PDMODE
 70
     0
  9
$PDSIZE
 40
0.0
  9
$PLINEWID
 40
0.0
  9
$COORDS
 70
     1
  9
$SPLFRAME
 70
     0
  9
$SPLINETYPE
 70
     6
  9
$SPLINESEGS
 70
     8
  9
$ATTDIA
 70
     1
  9
$ATTREQ
 70
     1
  9
$HANDLING
 70
     1
  9
$HANDSEED
  5
136F
  9
$SURFTAB1
 70
     6
  9
$SURFTAB2
 70
     6
  9
$SURFTYPE
 70
     6
  9
$SURFU
 70
     6
  9
$SURFV
 70
     6
  9
$UCSNAME
  2

  9
$UCSORG
 10
2278.3420667881550798
 20
1395.8866591039820833
 30
9.0000000000000071
  9
$UCSXDIR
 10
1.0
 20
0.0
 30
0.0
  9
$UCSYDIR
 10
0.0
 20
1.0
 30
0.0
  9
$PUCSNAME
  2

  9
$PUCSORG
 10
0.0
 20
0.0
 30
0.0
  9
$PUCSXDIR
 10
1.0
 20
0.0
 30
0.0
  9
$PUCSYDIR
 10
0.0
 20
1.0
 30
0.0
  9
$USERI1
 70
     0
  9
$USERI2
 70
     0
  9
$USERI3
 70
     0
  9
$USERI4
 70
     0
  9
$USERI5
 70
     0
  9
$USERR1
 40
0.0
  9
$USERR2
 40
0.0
  9
$USERR3
 40
0.0
  9
$USERR4
 40
0.0
  9
$USERR5
 40
0.0
  9
$WORLDVIEW
 70
     1
  9
$SHADEDGE
 70
     3
  9
$SHADEDIF
 70
    70
  9
$TILEMODE
 70
     1
  9
$MAXACTVP
 70
    64
  9
$PLIMCHECK
 70
     0
  9
$PEXTMIN
 10
0.0
 20
0.0
 30
0.0
  9
$PEXTMAX
 10
0.0
 20
0.0
 30
0.0
  9
$PLIMMIN
 10
0.0
 20
0.0
  9
$PLIMMAX
 10
12.0
 20
9.0
  9
$UNITMODE
 70
     0
  9
$VISRETAIN
 70
     1
  9
$PLINEGEN
 70
     0
  9
$PSLTSCALE
 70
     1
  0
ENDSEC
  0
SECTION
  2
TABLES
  0
TABLE
  2
VPORT
 70
     1
  0
VPORT
  2
*ACTIVE
 70
     0
 10
0.0
 20
0.0
 11
1.0
 21
1.0
 12
1.4788947172900171
 22
0.0
 13
0.0
 23
0.0
 14
10.0
 24
10.0
 15
10.0
 25
10.0
 16
0.0
 26
0.0
 36
45.3274113227041227
 17
2278.3420667881550798
 27
1395.8866591039820833
 37
15.0000000000000906
 40
14.6906603989976094
 41
2.555259653794939
 42
50.0
 43
0.0
 44
0.0
 50
0.0
 51
0.0
 71
     0
 72
  1000
 73
     1
 74
     3
 75
     0
 76
     1
 77
     0
 78
     0
  0
ENDTAB
  0
TABLE
  2
LTYPE
 70
     1
  0
LTYPE
  2
CONTINUOUS
 70
     0
  3
Solid line
 72
    65
 73
     0
 40
0.0
  0
ENDTAB
  0
TABLE
  2
LAYER
 70
    18
  0
LAYER
  2
0
 70
     0
 62
     7
  6
CONTINUOUS
  0
LAYER
  2
PÉS_-_MONTANTES
 70
     0
 62
   110
  6
CONTINUOUS
  0
LAYER
  2
PÉS_-_DIAGONAIS_VERTICAIS
 70
     0
 62
    94
  6
CONTINUOUS
  0
LAYER
  2
PÉS_-_DIAGONAIS_HORIZONTAI
 70
     0
 62
    64
  6
CONTINUOUS
  0
LAYER
  2
EXTENSÃO_-_DIAGONAIS_HORIZ
 70
     0
 62
    42
  6
CONTINUOUS
  0
LAYER
  2
EXTENSÃO_-_DIAGONAIS_VERTI
 70
     0
 62
    30
  6
CONTINUOUS
  0
LAYER
  2
EXTENSÃO_-_MONTANTES
 70
     0
 62
    41
  6
CONTINUOUS
  0
LAYER
  2
TRONCO_-_DIAGONAIS_HORIZON
 70
     0
 62
   190
  6
CONTINUOUS
  0
LAYER
  2
TRONCO_-_DIAGONAIS_VERTICA
 70
     0
 62
   222
  6
CONTINUOUS
  0
LAYER
  2
TRONCO_-_MONTANTES
 70
     0
 62
   191
  6
CONTINUOUS
  0
LAYER
  2
CABEÇA_-_MONTANTES
 70
     0
 62
    11
  6
CONTINUOUS
  0
LAYER
  2
CABEÇA_-_DIAGONAIS_HORIZON
 70
     0
 62
    12
  6
CONTINUOUS
  0
LAYER
  2
CABEÇA_-_DIAGONAIS_VERTICA
 70
     0
 62
    10
  6
CONTINUOUS
  0
LAYER
  2
BRAÇO_-_MONTANTES
 70
     0
 62
   121
  6
CONTINUOUS
  0
LAYER
  2
BRAÇO_-_DIAGONAIS_VERTICAI
 70
     0
 62
   135
  6
CONTINUOUS
  0
LAYER
  2
BRAÇO_-_DIAGONAIS_HORIZONT
 70
     0
 62
   103
  6
CONTINUOUS
  0
LAYER
  2
PARA_RAIOS_-_MONTANTES
 70
     0
 62
    61
  6
CONTINUOUS
  0
LAYER
  2
PARA_RAIOS_-_DIAGONAIS_VER
 70
     0
 62
    62
  6
CONTINUOUS
  0
ENDTAB
  0
TABLE
  2
STYLE
 70
     2
  0
STYLE
  2
STANDARD
 70
     0
 40
0.0
 41
1.0
 50
0.0
 71
     0
 42
2.5
  3
txt
  4

  0
STYLE
  2
ANNOTATIVE
 70
     0
 40
0.0
 41
1.0
 50
0.0
 71
     0
 42
2.5
  3
txt
  4

  0
ENDTAB
  0
TABLE
  2
VIEW
 70
     0
  0
ENDTAB
  0
TABLE
  2
UCS
 70
     0
  0
ENDTAB
  0
TABLE
  2
APPID
 70
    12
  0
APPID
  2
ACAD
 70
     0
  0
APPID
  2
ACAD_PSEXT
 70
     0
  0
APPID
  2
ACADANNOPO
 70
     0
  0
APPID
  2
ACADANNOTATIVE
 70
     0
  0
APPID
  2
ACAD_DSTYLE_DIMJAG
 70
     0
  0
APPID
  2
ACAD_DSTYLE_DIMTALN
 70
     0
  0
APPID
  2
ACAD_MLEADERVER
 70
     0
  0
APPID
  2
ACAD_NAV_VCDISPLAY
 70
     0
  0
APPID
  2
ACAECLAYERSTANDARD
 70
     0
  0
APPID
  2
ACCMTRANSPARENCY
 70
     0
  0
APPID
  2
ACAD_EXEMPT_FROM_CAD_STANDARDS
 70
     0
  0
APPID
  2
ACAD_TC
 70
     0
  0
ENDTAB
  0
TABLE
  2
DIMSTYLE
 70
     3
  0
DIMSTYLE
  2
STANDARD
 70
     0
  3

  4

  5

  6

  7

 40
1.0
 41
0.18
 42
0.0625
 43
0.38
 44
0.18
 45
0.0
 46
0.0
 47
0.0
 48
0.0
140
0.18
141
0.09
142
0.0
143
25.3999999999999986
144
1.0
145
0.0
146
1.0
147
0.09
 71
     0
 72
     0
 73
     1
 74
     1
 75
     0
 76
     0
 77
     0
 78
     0
170
     0
171
     2
172
     0
173
     0
174
     0
175
     0
176
     0
177
     0
178
     0
  0
DIMSTYLE
  2
ANNOTATIVE
 70
     0
  3

  4

  5

  6

  7

 40
0.0
 41
2.5
 42
0.625
 43
3.75
 44
1.25
 45
0.0
 46
0.0
 47
0.0
 48
0.0
140
2.5
141
2.5
142
0.0
143
0.03937007874016
144
1.0
145
0.0
146
1.0
147
0.625
 71
     0
 72
     0
 73
     0
 74
     0
 75
     0
 76
     0
 77
     1
 78
     8
170
     0
171
     3
172
     1
173
     0
174
     0
175
     0
176
     0
177
     0
178
     0
  0
DIMSTYLE
  2
ISO-25
 70
     0
  3

  4

  5

  6

  7

 40
1.0
 41
2.5
 42
0.625
 43
3.75
 44
1.25
 45
0.0
 46
0.0
 47
0.0
 48
0.0
140
2.5
141
2.5
142
0.0
143
0.03937007874016
144
1.0
145
0.0
146
1.0
147
0.625
 71
     0
 72
     0
 73
     0
 74
     0
 75
     0
 76
     0
 77
     1
 78
     8
170
     0
171
     3
172
     1
173
     0
174
     0
175
     0
176
     0
177
     0
178
     0
  0
ENDTAB
  0
ENDSEC
  0
SECTION
  2
BLOCKS
  0
BLOCK
  8
0
  2
$MODEL_SPACE
 70
     0
 10
0.0
 20
0.0
 30
0.0
  3
$MODEL_SPACE
  1

  0
ENDBLK
  5
21
  8
0
  0
BLOCK
 67
     1
  8
0
  2
$PAPER_SPACE
 70
     0
 10
0.0
 20
0.0
 30
0.0
  3
$PAPER_SPACE
  1

  0
ENDBLK
  5
D5
 67
     1
  8
0
  0
ENDSEC
  0
SECTION
  2
ENTITIES
  0
LINE
  5
B65
  8
EXTENSÃO_-_MONTANTES
 10
2281.338220634308982
 20
1392.8905052578279538
 30
9.0000000000000373
 11
2281.3382206343098915
 21
1394.5905052578279992
 31
8.9999999999996874
210
1.0
220
0.0000000000000008
230
-0.0000000000000008
  0
LINE
  5
B68
  8
EXTENSÃO_-_MONTANTES
 10
2275.3459129420020872
 20
1398.8828129501359854
 30
9.0000000000000018
 11
2277.0459129420028148
 21
1398.8828129501368949
 31
9.0000000000007798
210
0.0000000000000005
220
-1.0
230
-0.0000000000000002
  0
LINE
  5
B6A
  8
EXTENSÃO_-_MONTANTES
 10
2279.9997590958478213
 20
1394.2289667962900239
 30
20.9999999999999893
 11
2280.1709239002070717
 21
1394.0578019919300914
 31
19.4654189954013184
  0
LINE
  5
B70
  8
EXTENSÃO_-_MONTANTES
 10
2279.9997590958478213
 20
1397.5443514116739152
 30
20.9999999999999396
 11
2280.1709239002079812
 21
1397.7155162160329382
 31
19.4654189954018193
  0
LINE
  5
B73
  8
EXTENSÃO_-_MONTANTES
 10
2276.6843744804627931
 20
1397.5443514116739152
 30
21.0
 11
2276.5132096761039975
 21
1397.7155162160329382
 31
19.4654189954012189
  0
LINE
  5
B7D
  8
EXTENSÃO_-_DIAGONAIS_HORIZ
 10
2279.6382206343091639
 20
1392.8905052578279538
 30
9.0
 11
2280.4882206343090729
 21
1393.7405052578280902
 31
9.0000000000000142
  0
LINE
  5
B7E
  8
EXTENSÃO_-_DIAGONAIS_HORIZ
 10
2281.338220634308982
 20
1392.8905052578279538
 30
9.0000000000000373
 11
2280.4882206343090729
 21
1393.7405052578280902
 31
9.0000000000000195
  0
LINE
  5
B7F
  8
EXTENSÃO_-_DIAGONAIS_HORIZ
 10
2281.338220634308982
 20
1397.1828129501359399
 30
9.0000000000000018
 11
2280.4882206343090729
 21
1398.0328129501360763
 31
9.0000000000000071
  0
LINE
  5
B80
  8
EXTENSÃO_-_DIAGONAIS_HORIZ
 10
2277.0459129420019053
 20
1398.8828129501359854
 30
9.0000000000000178
 11
2276.1959129420019963
 21
1398.0328129501360763
 31
9.0000000000000107
  0
LINE
  5
B81
  8
EXTENSÃO_-_DIAGONAIS_HORIZ
 10
2275.3459129420020872
 20
1394.5905052578279992
 30
9.0
 11
2276.1959129420019963
 21
1393.7405052578280902
 31
8.9999999999999964
  0
LINE
  5
B82
  8
EXTENSÃO_-_DIAGONAIS_HORIZ
 10
2276.1959129420019963
 20
1398.0328129501360763
 30
9.0000000000000107
 11
2275.3459129420020872
 21
1398.8828129501359854
 31
9.0000000000001243
  0
LINE
  5
B83
  8
EXTENSÃO_-_DIAGONAIS_HORIZ
 10
2281.338220634308982
 20
1398.8828129501359854
 30
8.9999999999999893
 11
2280.4882206343090729
 21
1398.0328129501360763
 31
9.0000000000000018
  0
LINE
  5
B84
  8
EXTENSÃO_-_DIAGONAIS_HORIZ
 10
2275.3459129420020872
 20
1392.8905052578279538
 30
9.0
 11
2276.1959129420019963
 21
1393.7405052578280902
 31
8.9999999999999947
  0
LINE
  5
B85
  8
EXTENSÃO_-_DIAGONAIS_HORIZ
 10
2280.4882206343090729
 20
1393.7405052578280902
 30
9.0000000000000142
 11
2280.9132206343088001
 21
1394.8135821809059962
 31
9.0000000000000142
  0
LINE
  5
B86
  8
EXTENSÃO_-_DIAGONAIS_HORIZ
 10
2281.338220634308982
 20
1395.8866591039820833
 30
9.0000000000000142
 11
2280.9132206343088001
 21
1396.9597360270590798
 31
9.0000000000000071
  0
LINE
  5
B87
  8
EXTENSÃO_-_DIAGONAIS_HORIZ
 10
2280.4882206343090729
 20
1398.0328129501360763
 30
9.0000000000000018
 11
2279.415143711231849
 21
1398.4578129501360308
 31
9.0000000000000249
  0
LINE
  5
B88
  8
EXTENSÃO_-_DIAGONAIS_HORIZ
 10
2278.3420667881550798
 20
1398.8828129501359854
 30
9.0000000000000497
 11
2277.2689898650792202
 21
1398.4578129501360308
 31
9.0000000000000302
  0
LINE
  5
B89
  8
EXTENSÃO_-_DIAGONAIS_HORIZ
 10
2276.1959129420019963
 20
1398.0328129501360763
 30
9.0000000000000107
 11
2275.7709129420018144
 21
1396.9597360270590798
 31
9.0000000000000053
  0
LINE
  5
B8A
  8
EXTENSÃO_-_DIAGONAIS_HORIZ
 10
2275.3459129420020872
 20
1395.8866591039820833
 30
9.0
 11
2275.7709129420018144
 21
1394.8135821809050867
 31
8.9999999999999964
  0
LINE
  5
B8B
  8
EXTENSÃO_-_DIAGONAIS_HORIZ
 10
2276.1959129420019963
 20
1393.7405052578280902
 30
8.9999999999999947
 11
2277.2689898650792202
 21
1393.3155052578279083
 31
9.0000000000000071
  0
LINE
  5
B8C
  8
EXTENSÃO_-_DIAGONAIS_HORIZ
 10
2278.3420667881550798
 20
1392.8905052578279538
 30
9.0000000000000178
 11
2279.415143711231849
 21
1393.3155052578279083
 31
9.0000000000000178
  0
LINE
  5
B8D
  8
EXTENSÃO_-_DIAGONAIS_HORIZ
 10
2279.6382206343091639
 20
1392.8905052578279538
 30
9.0000000000000266
 11
2279.415143711231849
 21
1393.3155052578279083
 31
9.0000000000000178
  0
LINE
  5
B8E
  8
EXTENSÃO_-_DIAGONAIS_HORIZ
 10
2279.415143711231849
 20
1393.3155052578279083
 30
9.0000000000000178
 11
2277.2689898650778559
 21
1393.3155052578279083
 31
9.0000000000000071
  0
LINE
  5
B8F
  8
EXTENSÃO_-_DIAGONAIS_HORIZ
 10
2277.2689898650778559
 20
1393.3155052578279083
 30
9.0000000000000071
 11
2277.0459129420019053
 21
1392.8905052578279538
 31
8.9999999999999911
  0
LINE
  5
B90
  8
EXTENSÃO_-_DIAGONAIS_HORIZ
 10
2281.338220634308982
 20
1394.5905052578279992
 30
9.0000000000000249
 11
2280.9132206343088001
 21
1394.8135821809050867
 31
9.0000000000000142
  0
LINE
  5
B91
  8
EXTENSÃO_-_DIAGONAIS_HORIZ
 10
2280.9132206343088001
 20
1394.8135821809050867
 30
9.0000000000000142
 11
2280.9132206343088001
 21
1396.9597360270590798
 31
9.0000000000000071
  0
LINE
  5
B92
  8
EXTENSÃO_-_DIAGONAIS_HORIZ
 10
2280.9132206343088001
 20
1396.9597360270590798
 30
9.0000000000000071
 11
2281.338220634308982
 21
1397.1828129501359399
 31
9.0000000000000018
  0
LINE
  5
B93
  8
EXTENSÃO_-_DIAGONAIS_HORIZ
 10
2279.6382206343091639
 20
1398.8828129501359854
 30
9.0000000000000107
 11
2279.415143711231849
 21
1398.4578129501360308
 31
9.0000000000000249
  0
LINE
  5
B94
  8
EXTENSÃO_-_DIAGONAIS_HORIZ
 10
2279.415143711231849
 20
1398.4578129501360308
 30
9.0000000000000249
 11
2277.2689898650778559
 21
1398.4578129501360308
 31
9.0000000000000302
  0
LINE
  5
B95
  8
EXTENSÃO_-_DIAGONAIS_HORIZ
 10
2277.2689898650778559
 20
1398.4578129501360308
 30
9.0000000000000302
 11
2277.0459129420019053
 21
1398.8828129501359854
 31
9.0000000000000178
  0
LINE
  5
B96
  8
EXTENSÃO_-_DIAGONAIS_HORIZ
 10
2275.3459129420020872
 20
1397.1828129501359399
 30
9.0000000000000018
 11
2275.7709129420018144
 21
1396.9597360270590798
 31
9.0000000000000053
  0
LINE
  5
B97
  8
EXTENSÃO_-_DIAGONAIS_HORIZ
 10
2275.7709129420018144
 20
1396.9597360270590798
 30
9.0000000000000053
 11
2275.7709129420018144
 21
1394.8135821809050867
 31
8.9999999999999964
  0
LINE
  5
B98
  8
EXTENSÃO_-_DIAGONAIS_HORIZ
 10
2275.7709129420018144
 20
1394.8135821809050867
 30
8.9999999999999964
 11
2275.3459129420020872
 21
1394.5905052578279992
 31
9.0000000000000444
  0
LINE
  5
C3D
  8
EXTENSÃO_-_MONTANTES
 10
2276.6843744804627931
 20
1394.2289667962900239
 30
21.0000000000000888
 11
2278.3420667881550798
 21
1394.2289667962900239
 31
21.0000000000004086
210
0.0000000000000005
220
-1.0
230
-0.0000000000000002
  0
LINE
  5
C3E
  8
EXTENSÃO_-_MONTANTES
 10
2276.6843744804627931
 20
1397.5443514116739152
 30
21.0000000000000213
 11
2278.3420667881550798
 21
1397.5443514116739152
 31
21.0000000000000497
210
0.0000000000000005
220
-1.0
230
-0.0000000000000002
  0
LINE
  5
C3F
  8
EXTENSÃO_-_MONTANTES
 10
2279.9997590958469118
 20
1394.2289667962900239
 30
21.0
 11
2279.9997590958478213
 21
1395.8866591039820833
 31
21.0000000000007994
210
1.0
220
0.0000000000000008
230
-0.0000000000000008
  0
LINE
  5
C40
  8
EXTENSÃO_-_MONTANTES
 10
2276.6843744804627931
 20
1394.2289667962900239
 30
21.0000000000000888
 11
2276.6843744804627931
 21
1395.8866591039820833
 31
21.0000000000003304
210
1.0
220
0.0000000000000008
230
-0.0000000000000008
  0
LINE
  5
C42
  8
EXTENSÃO_-_DIAGONAIS_VERTI
 10
2275.5132206343091639
 20
1398.7155052578279992
 30
10.5000000000000302
 11
2276.4420667881558984
 21
1398.7155052578279992
 31
10.5000000000000302
210
0.0000000000000005
220
-1.0
230
-0.0000000000000002
  0
LINE
  5
C43
  8
EXTENSÃO_-_MONTANTES
 10
2276.0709129420010868
 20
1398.1578129501360763
 30
15.5000000000000497
 11
2278.3420667881550798
 21
1398.1578129501360763
 31
15.5000000000000693
210
0.0000000000000005
220
-1.0
230
-0.0000000000000002
  0
LINE
  5
C45
  8
EXTENSÃO_-_DIAGONAIS_VERTI
 10
2281.1709129420019053
 20
1393.0578129501359399
 30
10.5000000000000302
 11
2281.1709129420019053
 21
1393.9866591039819923
 31
10.5000000000000195
210
1.0
220
0.0000000000000008
230
-0.0000000000000008
  0
LINE
  5
C47
  8
EXTENSÃO_-_MONTANTES
 10
2280.6132206343090729
 20
1393.6155052578280902
 30
15.5000000000000195
 11
2280.6132206343090729
 21
1395.8866591039820833
 31
15.5000000000000195
210
1.0
220
0.0000000000000008
230
-0.0000000000000008
  0
LINE
  5
C49
  8
EXTENSÃO_-_DIAGONAIS_VERTI
 10
2281.338220634308982
 20
1392.8905052578279538
 30
9.0000000000000533
 11
2281.2545667881549889
 21
1393.4385821809050867
 31
9.7500000000000497
  0
LINE
  5
C4A
  8
EXTENSÃO_-_DIAGONAIS_VERTI
 10
2281.1709129420019053
 20
1393.9866591039819923
 30
10.5000000000000409
 11
2281.338220634308982
 21
1394.5905052578279992
 31
9.0000000000000249
  0
LINE
  5
C4B
  8
EXTENSÃO_-_DIAGONAIS_VERTI
 10
2281.338220634308982
 20
1394.5905052578279992
 30
9.0000000000000249
 11
2281.1709129420019053
 21
1395.8866591039820833
 31
10.5000000000000497
  0
LINE
  5
C4C
  8
EXTENSÃO_-_DIAGONAIS_VERTI
 10
2281.1709129420019053
 20
1395.8866591039820833
 30
10.5000000000000497
 11
2281.338220634308982
 21
1397.1828129501359399
 31
9.0000000000000018
  0
LINE
  5
C4D
  8
EXTENSÃO_-_DIAGONAIS_VERTI
 10
2281.338220634308982
 20
1397.1828129501359399
 30
9.0000000000000018
 11
2281.1709129420019053
 21
1397.7866591039819468
 31
10.5
  0
LINE
  5
C4E
  8
EXTENSÃO_-_DIAGONAIS_VERTI
 10
2281.1709129420019053
 20
1397.7866591039819468
 30
10.5000000000000409
 11
2281.2545667881549889
 21
1398.3347360270590798
 31
9.7500000000000746
  0
LINE
  5
C4F
  8
EXTENSÃO_-_DIAGONAIS_VERTI
 10
2281.2545667881558984
 20
1393.4385821809050867
 30
9.7500000000000462
 11
2281.1709129420019053
 21
1393.0578129501359399
 31
10.5000000000000302
  0
LINE
  5
C50
  8
EXTENSÃO_-_DIAGONAIS_VERTI
 10
2281.2545667881558984
 20
1398.3347360270590798
 30
9.7500000000000746
 11
2281.1709129420019053
 21
1398.7155052578279992
 31
10.5000000000000799
  0
LINE
  5
C61
  8
EXTENSÃO_-_DIAGONAIS_VERTI
 10
2281.338220634308982
 20
1398.8828129501359854
 30
9.0000000000000373
 11
2280.790143711231849
 21
1398.7991591039819923
 31
9.7499999999998082
  0
LINE
  5
C62
  8
EXTENSÃO_-_DIAGONAIS_VERTI
 10
2280.2420667881551708
 20
1398.7155052578279992
 30
10.5000000000000302
 11
2279.6382206343091639
 21
1398.8828129501359854
 31
9.0
  0
LINE
  5
C63
  8
EXTENSÃO_-_DIAGONAIS_VERTI
 10
2279.6382206343091639
 20
1398.8828129501359854
 30
9.0
 11
2278.3420667881550798
 21
1398.7155052578279992
 31
10.5000000000000195
  0
LINE
  5
C64
  8
EXTENSÃO_-_DIAGONAIS_VERTI
 10
2278.3420667881550798
 20
1398.7155052578279992
 30
10.5000000000000195
 11
2277.0459129420019053
 21
1398.8828129501359854
 31
8.9999999999999893
  0
LINE
  5
C65
  8
EXTENSÃO_-_DIAGONAIS_VERTI
 10
2277.0459129420019053
 20
1398.8828129501359854
 30
8.9999999999999893
 11
2276.4420667881558984
 21
1398.7155052578279992
 31
10.5000000000000195
  0
LINE
  5
C66
  8
EXTENSÃO_-_DIAGONAIS_VERTI
 10
2276.4420667881558984
 20
1398.7155052578279992
 30
10.5000000000000195
 11
2275.8939898650778559
 21
1398.7991591039819923
 31
9.7499999999997868
  0
LINE
  5
C67
  8
EXTENSÃO_-_DIAGONAIS_VERTI
 10
2275.5132206343091639
 20
1398.7155052578279992
 30
10.5000000000000302
 11
2275.8939898650778559
 21
1398.7991591039819923
 31
9.7500000000000266
  0
LINE
  5
C68
  8
EXTENSÃO_-_DIAGONAIS_VERTI
 10
2281.1709129420019053
 20
1398.7155052578279992
 30
10.5000000000000302
 11
2280.790143711231849
 21
1398.7991591039819923
 31
9.7500000000000391
  0
LINE
  5
C69
  8
EXTENSÃO_-_DIAGONAIS_VERTI
 10
2280.9693927041339521
 20
1398.5139850199609555
 30
12.3067331670823705
 11
2280.7913066692221946
 21
1397.2003220619710646
 31
13.9033665835411693
  0
LINE
  5
C6A
  8
EXTENSÃO_-_DIAGONAIS_VERTI
 10
2280.7913066692221946
 20
1397.2003220619710646
 30
13.9033665835411604
 11
2280.7913066692221946
 21
1398.3358989850480611
 31
13.9033665835411604
  0
LINE
  5
C6B
  8
EXTENSÃO_-_DIAGONAIS_VERTI
 10
2280.7913066692221946
 20
1397.2003220619710646
 30
13.9033665835411604
 11
2280.6132206343090729
 21
1398.1578129501360763
 31
15.5000000000000995
  0
LINE
  5
C6C
  8
EXTENSÃO_-_DIAGONAIS_VERTI
 10
2281.0701528230679287
 20
1398.6147451388949321
 30
11.4033665835411604
 11
2281.0701528230679287
 21
1398.1503220619720196
 31
11.4033665835411604
  0
LINE
  5
C6D
  8
EXTENSÃO_-_DIAGONAIS_VERTI
 10
2281.0701528230679287
 20
1398.1503220619720196
 30
11.4033665835411604
 11
2281.1709129420019053
 21
1398.7155052578279992
 31
10.5000000000000799
  0
LINE
  5
C6E
  8
EXTENSÃO_-_DIAGONAIS_VERTI
 10
2280.9693927041339521
 20
1393.2593331880029837
 30
12.3067331670822799
 11
2280.7913066692221946
 21
1394.572996145991965
 31
13.9033665835411497
  0
LINE
  5
C6F
  8
EXTENSÃO_-_DIAGONAIS_VERTI
 10
2280.7913066692221946
 20
1397.2003220619710646
 30
13.9033665835411604
 11
2280.7913066692221946
 21
1394.572996145991965
 31
13.9033665835411604
  0
LINE
  5
C70
  8
EXTENSÃO_-_DIAGONAIS_VERTI
 10
2280.7913066692221946
 20
1394.572996145991965
 30
13.9033665835411604
 11
2280.6132206343090729
 21
1393.6155052578280902
 31
15.5000000000000195
  0
LINE
  5
C71
  8
EXTENSÃO_-_DIAGONAIS_VERTI
 10
2281.0701528230679287
 20
1393.6229961459919195
 30
11.4033665835411604
 11
2281.1709129420019053
 21
1393.0578129501359399
 31
10.5000000000000107
  0
LINE
  5
C72
  8
EXTENSÃO_-_DIAGONAIS_VERTI
 10
2281.0701528230679287
 20
1393.6229961459919195
 30
11.4033665835411604
 11
2281.0701528230679287
 21
1393.158573069069007
 31
11.4033665835411604
  0
LINE
  5
C7F
  8
EXTENSÃO_-_DIAGONAIS_VERTI
 10
2281.1709129420019053
 20
1393.9866591039819923
 30
10.5000000000000195
 11
2281.0701528230679287
 21
1393.6229961459919195
 31
11.4033665835411604
  0
LINE
  5
C80
  8
EXTENSÃO_-_DIAGONAIS_VERTI
 10
2281.1709129420019053
 20
1397.7866591039819468
 30
10.5000000000000409
 11
2281.0701528230679287
 21
1398.1503220619720196
 31
11.4033665835411693
  0
LINE
  5
C81
  8
EXTENSÃO_-_DIAGONAIS_VERTI
 10
2280.9693927041362258
 20
1398.5139850199609555
 30
12.3067331670822195
 11
2279.6557297461458802
 21
1398.3358989850480611
 31
13.9033665835412297
  0
LINE
  5
C82
  8
EXTENSÃO_-_DIAGONAIS_VERTI
 10
2278.3420667881559893
 20
1398.1578129501360763
 30
15.5000000000000302
 11
2277.0284038301660985
 21
1398.3358989850501075
 31
13.9033665835410094
  0
LINE
  5
C83
  8
EXTENSÃO_-_DIAGONAIS_VERTI
 10
2277.028403830167008
 20
1398.3358989850501075
 30
13.9033665835411195
 11
2275.8928269070888746
 21
1398.3358989850501075
 31
13.9033665835411195
  0
LINE
  5
C84
  8
EXTENSÃO_-_DIAGONAIS_VERTI
 10
2277.028403830167008
 20
1398.3358989850501075
 30
13.9033665835411195
 11
2276.0709129420019963
 21
1398.1578129501369858
 31
15.5000000000000302
  0
LINE
  5
C85
  8
EXTENSÃO_-_DIAGONAIS_VERTI
 10
2275.5132206343100734
 20
1398.7155052578289087
 30
10.5000000000000302
 11
2276.0784038301658256
 21
1398.614745138896069
 31
11.4033665835411302
  0
LINE
  5
C86
  8
EXTENSÃO_-_DIAGONAIS_VERTI
 10
2276.0784038301658256
 20
1398.614745138896069
 30
11.4033665835411302
 11
2275.6139807532431405
 21
1398.614745138896069
 31
11.4033665835411195
  0
LINE
  5
C87
  8
EXTENSÃO_-_DIAGONAIS_VERTI
 10
2281.1709129420019053
 20
1398.7155052578270897
 30
10.5000000000000906
 11
2280.605729746146153
 21
1398.6147451388949321
 31
11.4033665835411195
  0
LINE
  5
C88
  8
EXTENSÃO_-_DIAGONAIS_VERTI
 10
2280.605729746146153
 20
1398.6147451388949321
 30
11.4033665835411195
 11
2281.0701528230688382
 21
1398.6147451388940226
 31
11.4033665835411195
  0
LINE
  5
C89
  8
EXTENSÃO_-_DIAGONAIS_VERTI
 10
2277.028403830167008
 20
1398.3358989850501075
 30
13.9033665835411195
 11
2279.6557297461458802
 21
1398.3358989850489706
 31
13.9033665835411195
  0
LINE
  5
C8A
  8
EXTENSÃO_-_DIAGONAIS_VERTI
 10
2279.6557297461458802
 20
1398.3358989850480611
 30
13.9033665835411107
 11
2280.6132206343099824
 21
1398.1578129501360763
 31
15.5000000000000409
  0
LINE
  5
C8B
  8
EXTENSÃO_-_DIAGONAIS_VERTI
 10
2276.4420667881558984
 20
1398.7155052578289087
 30
10.5000000000000302
 11
2276.0784038301658256
 21
1398.614745138896069
 31
11.4033665835411302
  0
LINE
  5
C8C
  8
EXTENSÃO_-_DIAGONAIS_VERTI
 10
2280.2420667881560803
 20
1398.7155052578279992
 30
10.5000000000000302
 11
2280.605729746146153
 21
1398.6147451388949321
 31
11.4033665835411195
  0
LINE
  5
C99
  8
EXTENSÃO_-_DIAGONAIS_VERTI
 10
2280.6132206343090729
 20
1395.8866591039820833
 30
15.5000000000000195
 11
2280.4776546694379249
 21
1396.8866700621870223
 31
16.7154189954013184
  0
LINE
  5
C9A
  8
EXTENSÃO_-_DIAGONAIS_VERTI
 10
2280.3420887045658674
 20
1397.8866810203919613
 30
17.9308379908024911
 11
2280.1709239002070717
 21
1396.8866700621870223
 31
19.4654189954012082
  0
LINE
  5
C9B
  8
EXTENSÃO_-_DIAGONAIS_VERTI
 10
2279.9997590958469118
 20
1395.8866591039820833
 30
21.0000000000000604
 11
2280.1709239002070717
 21
1394.8866481457769169
 31
19.4654189954013113
  0
LINE
  5
C9C
  8
EXTENSÃO_-_DIAGONAIS_VERTI
 10
2280.3420887045658674
 20
1393.8866371875710684
 30
17.9308379908024804
 11
2280.4776546694379249
 21
1394.8866481457769169
 31
16.7154189954011585
  0
LINE
  5
C9D
  8
EXTENSÃO_-_DIAGONAIS_VERTI
 10
2280.6132206343090729
 20
1393.6155052578280902
 30
15.5000000000000409
 11
2280.4776546694379249
 21
1394.8866481457769169
 31
16.7154189954012615
  0
LINE
  5
C9E
  8
EXTENSÃO_-_DIAGONAIS_VERTI
 10
2280.4776546694379249
 20
1394.8866481457769169
 30
16.7154189954012509
 11
2280.4776546694379249
 21
1393.7510712226999203
 31
16.7154189954012509
  0
LINE
  5
C9F
  8
EXTENSÃO_-_DIAGONAIS_VERTI
 10
2280.6132206343090729
 20
1398.1578129501360763
 30
15.5000000000000995
 11
2280.4776546694379249
 21
1396.8866700621870223
 31
16.7154189954012686
  0
LINE
  5
CA0
  8
EXTENSÃO_-_DIAGONAIS_VERTI
 10
2280.4776546694379249
 20
1396.8866700621870223
 30
16.7154189954012686
 11
2280.4776546694379249
 21
1398.0222469852640188
 31
16.7154189954012686
  0
LINE
  5
CA1
  8
EXTENSÃO_-_DIAGONAIS_VERTI
 10
2280.1709239002070717
 20
1396.8866700621870223
 30
19.4654189954012509
 11
2280.1709239002070717
 21
1397.7155162160329382
 31
19.4654189954012509
  0
LINE
  5
CA2
  8
EXTENSÃO_-_DIAGONAIS_VERTI
 10
2280.1709239002070717
 20
1394.8866481457769169
 30
19.4654189954012509
 11
2280.1709239002070717
 21
1394.0578019919300914
 31
19.4654189954012509
  0
LINE
  5
CA3
  8
EXTENSÃO_-_DIAGONAIS_VERTI
 10
2280.1709239002070717
 20
1396.8866700621870223
 30
19.4654189954012509
 11
2279.9997590958469118
 21
1397.5443514116739152
 31
21.0000000000000497
  0
LINE
  5
CA4
  8
EXTENSÃO_-_DIAGONAIS_VERTI
 10
2280.1709239002070717
 20
1394.8866481457769169
 30
19.4654189954012509
 11
2279.9997590958469118
 21
1394.2289667962900239
 31
21.0000000000000995
  0
LINE
  5
CBD
  8
EXTENSÃO_-_DIAGONAIS_VERTI
 10
2280.3420887045658674
 20
1397.8866810203919613
 30
17.9308379908024804
 11
2279.3420777463611557
 21
1397.7155162160329382
 31
19.4654189954012899
  0
LINE
  5
CBE
  8
EXTENSÃO_-_DIAGONAIS_VERTI
 10
2278.3420667881550798
 20
1397.5443514116739152
 30
21.0000000000000995
 11
2277.3420558299499135
 21
1397.7155162160329382
 31
19.4654189954010413
  0
LINE
  5
CBF
  8
EXTENSÃO_-_DIAGONAIS_VERTI
 10
2280.3420887045658674
 20
1397.8866810203919613
 30
17.9308379908024698
 11
2279.3420777463597915
 21
1398.0222469852640188
 31
16.7154189954011407
  0
LINE
  5
CC0
  8
EXTENSÃO_-_DIAGONAIS_VERTI
 10
2278.3420667881550798
 20
1398.1578129501360763
 30
15.5000000000000195
 11
2277.3420558299499135
 21
1398.0222469852640188
 31
16.7154189954011017
  0
LINE
  5
CC1
  8
EXTENSÃO_-_DIAGONAIS_VERTI
 10
2280.4776546694379249
 20
1398.0222469852640188
 30
16.7154189954012509
 11
2279.3420777463611557
 21
1398.0222469852640188
 31
16.7154189954012402
  0
LINE
  5
CC2
  8
EXTENSÃO_-_DIAGONAIS_VERTI
 10
2279.3420777463611557
 20
1398.0222469852640188
 30
16.7154189954012402
 11
2280.6132206343090729
 21
1398.1578129501360763
 31
15.5000000000000409
  0
LINE
  5
CC3
  8
EXTENSÃO_-_DIAGONAIS_VERTI
 10
2276.2064789068731443
 20
1398.0222469852640188
 30
16.7154189954012509
 11
2277.3420558299499135
 21
1398.0222469852640188
 31
16.7154189954011017
  0
LINE
  5
CC4
  8
EXTENSÃO_-_DIAGONAIS_VERTI
 10
2277.3420558299499135
 20
1398.0222469852640188
 30
16.7154189954011017
 11
2276.0709129420010868
 21
1398.1578129501360763
 31
15.5000000000000195
  0
LINE
  5
CC5
  8
EXTENSÃO_-_DIAGONAIS_VERTI
 10
2280.1709239002070717
 20
1397.7155162160329382
 30
19.4654189954012509
 11
2279.3420777463611557
 21
1397.7155162160329382
 31
19.4654189954012899
  0
LINE
  5
CC6
  8
EXTENSÃO_-_DIAGONAIS_VERTI
 10
2279.3420777463611557
 20
1397.7155162160329382
 30
19.4654189954012899
 11
2279.9997590958469118
 21
1397.5443514116739152
 31
21.0
  0
LINE
  5
CC7
  8
EXTENSÃO_-_DIAGONAIS_VERTI
 10
2276.5132096761039975
 20
1397.7155162160329382
 30
19.4654189954012509
 11
2277.3420558299499135
 21
1397.7155162160329382
 31
19.4654189954011407
  0
LINE
  5
CC8
  8
EXTENSÃO_-_DIAGONAIS_VERTI
 10
2277.3420558299499135
 20
1397.7155162160329382
 30
19.4654189954011407
 11
2276.6843744804627931
 21
1397.5443514116739152
 31
21.0000000000003517
  0
LINE
  5
CC9
  8
EXTENSÃO_-_DIAGONAIS_HORIZ
 10
2278.3420667881550798
 20
1394.2289667962900239
 30
21.0000000000000995
 11
2279.1709129420009958
 21
1395.0578129501359399
 31
21.0000000000000391
  0
LINE
  5
CCA
  8
EXTENSÃO_-_DIAGONAIS_HORIZ
 10
2279.9997590958469118
 20
1395.8866591039820833
 30
21.0
 11
2279.1709129420009958
 21
1396.7155052578279992
 31
21.0000000000000107
  0
LINE
  5
CCB
  8
EXTENSÃO_-_DIAGONAIS_HORIZ
 10
2278.3420667881550798
 20
1397.5443514116739152
 30
21.0000000000000284
 11
2277.5132206343091639
 21
1396.7155052578279992
 31
21.0000000000000391
  0
LINE
  5
CCC
  8
EXTENSÃO_-_DIAGONAIS_HORIZ
 10
2276.6843744804627931
 20
1395.8866591039820833
 30
21.0000000000000497
 11
2277.5132206343091639
 21
1395.0578129501359399
 31
21.0000000000000817
  0
LINE
  5
CCD
  8
EXTENSÃO_-_DIAGONAIS_HORIZ
 10
2277.5132206343091639
 20
1395.0578129501359399
 30
21.0000000000000817
 11
2276.6843744804627931
 21
1394.2289667962900239
 31
21.0000000000000888
  0
LINE
  5
CCE
  8
EXTENSÃO_-_DIAGONAIS_HORIZ
 10
2277.5132206343091639
 20
1395.0578129501359399
 30
21.0000000000000817
 11
2279.1709129420009958
 21
1395.0578129501359399
 31
21.0000000000000391
  0
LINE
  5
CCF
  8
EXTENSÃO_-_DIAGONAIS_HORIZ
 10
2279.1709129420009958
 20
1395.0578129501359399
 30
21.0000000000000391
 11
2279.9997590958469118
 21
1394.2289667962900239
 31
21.0
  0
LINE
  5
CD0
  8
EXTENSÃO_-_DIAGONAIS_HORIZ
 10
2276.6843744804627931
 20
1397.5443514116739152
 30
21.0000000000000213
 11
2277.5132206343091639
 21
1396.7155052578279992
 31
21.0000000000000391
  0
LINE
  5
CD1
  8
EXTENSÃO_-_DIAGONAIS_HORIZ
 10
2277.5132206343091639
 20
1396.7155052578279992
 30
21.0000000000000391
 11
2279.1709129420009958
 21
1396.7155052578279992
 31
21.0000000000000107
  0
LINE
  5
CD2
  8
EXTENSÃO_-_DIAGONAIS_HORIZ
 10
2279.1709129420009958
 20
1396.7155052578279992
 30
21.0000000000000107
 11
2279.9997590958478213
 21
1397.5443514116739152
 31
20.9999999999999609
  0
LINE
  5
11D5
  8
EXTENSÃO_-_DIAGONAIS_HORIZ
 10
2277.5132206343091639
 20
1396.7155052578279992
 30
21.0000000000000391
 11
2276.6843744804627931
 21
1395.8866591039820833
 31
21.0000000000000497
  0
LINE
  5
11D7
  8
EXTENSÃO_-_DIAGONAIS_HORIZ
 10
2279.1709129420009958
 20
1396.7155052578279992
 30
21.0000000000000107
 11
2278.3420667881550798
 21
1397.5443514116739152
 31
21.0000000000000284
  0
LINE
  5
11D8
  8
EXTENSÃO_-_DIAGONAIS_HORIZ
 10
2279.1709129420009958
 20
1395.0578129501359399
 30
21.0000000000000391
 11
2279.9997590958469118
 21
1395.8866591039820833
 31
21.0
  0
LINE
  5
11D9
  8
EXTENSÃO_-_DIAGONAIS_HORIZ
 10
2277.5132206343091639
 20
1395.0578129501359399
 30
21.0000000000000817
 11
2278.3420667881550798
 21
1394.2289667962900239
 31
21.0000000000000995
  0
LINE
  5
11DA
  8
EXTENSÃO_-_DIAGONAIS_HORIZ
 10
2279.415143711231849
 20
1398.4578129501360308
 30
9.0000000000000249
 11
2278.3420667881550798
 21
1398.8828129501359854
 31
9.0000000000000497
  0
LINE
  5
11DB
  8
EXTENSÃO_-_DIAGONAIS_HORIZ
 10
2277.2689898650792202
 20
1398.4578129501360308
 30
9.0000000000000302
 11
2276.1959129420019963
 21
1398.0328129501360763
 31
9.0000000000000107
  0
LINE
  5
11DC
  8
EXTENSÃO_-_DIAGONAIS_HORIZ
 10
2276.1959129420019963
 20
1398.0328129501360763
 30
9.0000000000000107
 11
2275.3459129420020872
 21
1397.1828129501359399
 31
9.0000000000000018
  0
LINE
  5
11DD
  8
EXTENSÃO_-_DIAGONAIS_HORIZ
 10
2275.7709129420018144
 20
1396.9597360270590798
 30
9.0000000000000053
 11
2275.3459129420020872
 21
1395.8866591039820833
 31
9.0
  0
LINE
  5
11DE
  8
EXTENSÃO_-_DIAGONAIS_HORIZ
 10
2280.4882206343090729
 20
1398.0328129501360763
 30
9.0000000000000071
 11
2279.6382206343091639
 21
1398.8828129501359854
 31
9.0000000000000107
  0
LINE
  5
11DF
  8
EXTENSÃO_-_DIAGONAIS_HORIZ
 10
2280.9132206343088001
 20
1396.9597360270590798
 30
9.0000000000000071
 11
2280.4882206343090729
 21
1398.0328129501360763
 31
9.0000000000000018
  0
LINE
  5
11E0
  8
EXTENSÃO_-_DIAGONAIS_HORIZ
 10
2280.9132206343088001
 20
1394.8135821809059962
 30
9.0000000000000142
 11
2281.338220634308982
 21
1395.8866591039820833
 31
9.0000000000000142
  0
LINE
  5
11E1
  8
EXTENSÃO_-_DIAGONAIS_HORIZ
 10
2280.4882206343090729
 20
1393.7405052578280902
 30
9.0000000000000142
 11
2281.338220634308982
 21
1394.5905052578279992
 31
9.0000000000000302
  0
LINE
  5
11E2
  8
EXTENSÃO_-_DIAGONAIS_HORIZ
 10
2279.415143711231849
 20
1393.3155052578279083
 30
9.0000000000000178
 11
2280.4882206343090729
 21
1393.7405052578280902
 31
9.0000000000000142
  0
LINE
  5
11E3
  8
EXTENSÃO_-_DIAGONAIS_HORIZ
 10
2277.2689898650792202
 20
1393.3155052578279083
 30
9.0000000000000071
 11
2278.3420667881550798
 21
1392.8905052578279538
 31
9.0000000000000178
  0
LINE
  5
11E4
  8
EXTENSÃO_-_DIAGONAIS_HORIZ
 10
2275.7709129420018144
 20
1394.8135821809050867
 30
8.9999999999999964
 11
2276.1959129420019963
 21
1393.7405052578280902
 31
8.9999999999999947
  0
LINE
  5
11E5
  8
EXTENSÃO_-_DIAGONAIS_HORIZ
 10
2276.1959129420019963
 20
1393.7405052578280902
 30
8.9999999999999964
 11
2277.0459129420019053
 21
1392.8905052578279538
 31
8.9999999999999911
  0
LINE
  5
11F4
  8
EXTENSÃO_-_MONTANTES
 10
2278.3420667881550798
 20
1397.5443514116739152
 30
21.0000000000000497
 11
2279.9997590958469118
 21
1397.5443514116739152
 31
21.0000000000000497
210
0.0000000000000005
220
-1.0
230
-0.0000000000000002
  0
LINE
  5
11F5
  8
EXTENSÃO_-_MONTANTES
 10
2279.9997590958478213
 20
1395.8866591039820833
 30
21.0000000000007994
 11
2279.9997590958469118
 21
1397.5443514116739152
 31
21.0
210
1.0
220
0.0000000000000008
230
-0.0000000000000008
  0
LINE
  5
11F6
  8
EXTENSÃO_-_MONTANTES
 10
2278.3420667881550798
 20
1394.2289667962900239
 30
21.0000000000004086
 11
2279.9997590958469118
 21
1394.2289667962900239
 31
21.0000000000000995
210
0.0000000000000005
220
-1.0
230
-0.0000000000000002
  0
LINE
  5
11F7
  8
EXTENSÃO_-_MONTANTES
 10
2276.6843744804627931
 20
1395.8866591039820833
 30
21.0000000000003304
 11
2276.6843744804627931
 21
1397.5443514116739152
 31
21.0000000000000213
210
1.0
220
0.0000000000000008
230
-0.0000000000000008
  0
LINE
  5
11FE
  8
EXTENSÃO_-_MONTANTES
 10
2281.3382206343098915
 20
1394.5905052578279992
 30
8.9999999999996874
 11
2281.3382206343098915
 21
1395.8866591039839022
 31
8.9999999999994706
210
1.0
220
0.0000000000000008
230
-0.0000000000000008
  0
LINE
  5
11FF
  8
EXTENSÃO_-_MONTANTES
 10
2281.3382206343098915
 20
1395.8866591039839022
 30
8.9999999999994706
 11
2281.3382206343098915
 21
1397.1828129501359399
 31
8.9999999999993765
210
1.0
220
0.0000000000000008
230
-0.0000000000000008
  0
LINE
  5
1200
  8
EXTENSÃO_-_MONTANTES
 10
2281.3382206343098915
 20
1397.1828129501359399
 30
8.9999999999993765
 11
2281.338220634308982
 21
1398.8828129501359854
 31
8.9999999999999893
210
1.0
220
0.0000000000000008
230
-0.0000000000000008
  0
LINE
  5
1201
  8
EXTENSÃO_-_MONTANTES
 10
2279.6382206343100734
 20
1398.8828129501359854
 30
9.0000000000003801
 11
2281.338220634308982
 21
1398.8828129501359854
 31
9.0000000000000995
210
0.0000000000000005
220
-1.0
230
-0.0000000000000002
  0
LINE
  5
1202
  8
EXTENSÃO_-_MONTANTES
 10
2278.3420667881568988
 20
1398.8828129501368949
 30
9.0000000000006128
 11
2279.6382206343100734
 21
1398.8828129501359854
 31
9.0000000000003801
210
0.0000000000000005
220
-1.0
230
-0.0000000000000002
  0
LINE
  5
1203
  8
EXTENSÃO_-_MONTANTES
 10
2277.0459129420028148
 20
1398.8828129501368949
 30
9.0000000000007798
 11
2278.3420667881568988
 21
1398.8828129501368949
 31
9.0000000000006128
210
0.0000000000000005
220
-1.0
230
-0.0000000000000002
  0
LINE
  5
120B
  8
EXTENSÃO_-_DIAGONAIS_VERTI
 10
2281.1709129420019053
 20
1393.9866591039819923
 30
10.5000000000000195
 11
2281.1709129420019053
 21
1395.8866591039820833
 31
10.5000000000000107
210
1.0
220
0.0000000000000008
230
-0.0000000000000008
  0
LINE
  5
120C
  8
EXTENSÃO_-_DIAGONAIS_VERTI
 10
2281.1709129420019053
 20
1395.8866591039820833
 30
10.5000000000000107
 11
2281.1709129420019053
 21
1397.7866591039819468
 31
10.5
210
1.0
220
0.0000000000000008
230
-0.0000000000000008
  0
LINE
  5
120D
  8
EXTENSÃO_-_DIAGONAIS_VERTI
 10
2281.1709129420019053
 20
1397.7866591039819468
 30
10.5
 11
2281.1709129420019053
 21
1398.7155052578279992
 31
10.4999999999999893
210
1.0
220
0.0000000000000008
230
-0.0000000000000008
  0
LINE
  5
120E
  8
EXTENSÃO_-_DIAGONAIS_VERTI
 10
2281.2545667881549889
 20
1398.3347360270590798
 30
9.7500000000000746
 11
2281.338220634308982
 21
1398.8828129501359854
 31
9.0000000000001013
  0
LINE
  5
120F
  8
EXTENSÃO_-_DIAGONAIS_VERTI
 10
2281.2545667881549889
 20
1393.4385821809050867
 30
9.7500000000000497
 11
2281.1709129420019053
 21
1393.9866591039819923
 31
10.5000000000000409
  0
LINE
  5
1210
  8
EXTENSÃO_-_DIAGONAIS_VERTI
 10
2281.0701528230679287
 20
1393.6229961459919195
 30
11.4033665835411604
 11
2280.9693927041339521
 21
1393.2593331880029837
 31
12.3067331670823297
  0
LINE
  5
1211
  8
EXTENSÃO_-_DIAGONAIS_VERTI
 10
2281.0701528230679287
 20
1398.1503220619720196
 30
11.4033665835411693
 11
2280.9693927041339521
 21
1398.5139850199609555
 31
12.3067331670823705
  0
LINE
  5
1212
  8
EXTENSÃO_-_DIAGONAIS_VERTI
 10
2280.7913066692221946
 20
1397.2003220619710646
 30
13.9033665835411693
 11
2280.6132206343090729
 21
1395.8866591039820833
 31
15.5000000000000107
  0
LINE
  5
1213
  8
EXTENSÃO_-_DIAGONAIS_VERTI
 10
2280.7913066692221946
 20
1394.572996145991965
 30
13.9033665835411497
 11
2280.6132206343090729
 21
1395.8866591039820833
 31
15.5000000000000107
  0
LINE
  5
1214
  8
EXTENSÃO_-_MONTANTES
 10
2280.6132206343090729
 20
1395.8866591039820833
 30
15.5000000000000195
 11
2280.6132206343090729
 21
1398.1578129501360763
 31
15.5000000000000195
210
1.0
220
0.0000000000000008
230
-0.0000000000000008
  0
LINE
  5
1215
  8
EXTENSÃO_-_DIAGONAIS_VERTI
 10
2280.4776546694379249
 20
1396.8866700621870223
 30
16.7154189954013184
 11
2280.3420887045658674
 21
1397.8866810203919613
 31
17.9308379908024911
  0
LINE
  5
1216
  8
EXTENSÃO_-_DIAGONAIS_VERTI
 10
2280.4776546694379249
 20
1394.8866481457769169
 30
16.7154189954011585
 11
2280.6132206343090729
 21
1395.8866591039820833
 31
15.5000000000000302
  0
LINE
  5
1217
  8
EXTENSÃO_-_DIAGONAIS_VERTI
 10
2280.1709239002070717
 20
1394.8866481457769169
 30
19.4654189954013113
 11
2280.3420887045658674
 21
1393.8866371875710684
 31
17.9308379908024804
  0
LINE
  5
1218
  8
EXTENSÃO_-_DIAGONAIS_VERTI
 10
2280.1709239002070717
 20
1396.8866700621870223
 30
19.4654189954012082
 11
2279.9997590958469118
 21
1395.8866591039820833
 31
21.0000000000000604
  0
LINE
  5
1219
  8
EXTENSÃO_-_DIAGONAIS_VERTI
 10
2278.3420667881550798
 20
1398.7155052578279992
 30
10.5000000000000497
 11
2280.2420667881551708
 21
1398.7155052578279992
 31
10.5000000000000693
210
0.0000000000000005
220
-1.0
230
-0.0000000000000002
  0
LINE
  5
121A
  8
EXTENSÃO_-_DIAGONAIS_VERTI
 10
2276.4420667881558984
 20
1398.7155052578279992
 30
10.5000000000000302
 11
2278.3420667881550798
 21
1398.7155052578279992
 31
10.5000000000000497
210
0.0000000000000005
220
-1.0
230
-0.0000000000000002
  0
LINE
  5
121B
  8
EXTENSÃO_-_DIAGONAIS_VERTI
 10
2275.8939898650778559
 20
1398.7991591039819923
 30
9.7499999999997868
 11
2275.3459129420020872
 21
1398.8828129501359854
 31
8.9999999999999964
  0
LINE
  5
121C
  8
EXTENSÃO_-_DIAGONAIS_VERTI
 10
2280.790143711231849
 20
1398.7991591039819923
 30
9.7499999999998082
 11
2280.2420667881551708
 21
1398.7155052578279992
 31
10.5000000000000302
  0
LINE
  5
121D
  8
EXTENSÃO_-_DIAGONAIS_VERTI
 10
2280.605729746146153
 20
1398.6147451388949321
 30
11.4033665835411195
 11
2280.9693927041362258
 21
1398.5139850199609555
 31
12.3067331670822107
  0
LINE
  5
121E
  8
EXTENSÃO_-_DIAGONAIS_VERTI
 10
2276.0784038301658256
 20
1398.614745138896069
 30
11.4033665835411302
 11
2275.7147408721771171
 21
1398.5139850199630018
 31
12.3067331670822195
  0
LINE
  5
121F
  8
EXTENSÃO_-_DIAGONAIS_VERTI
 10
2279.6557297461458802
 20
1398.3358989850489706
 30
13.9033665835411195
 11
2280.7913066692231041
 21
1398.3358989850480611
 31
13.9033665835411195
  0
LINE
  5
1220
  8
EXTENSÃO_-_DIAGONAIS_VERTI
 10
2279.6557297461458802
 20
1398.3358989850480611
 30
13.9033665835412297
 11
2278.3420667881559893
 21
1398.1578129501360763
 31
15.5
  0
LINE
  5
1221
  8
EXTENSÃO_-_DIAGONAIS_VERTI
 10
2277.0284038301660985
 20
1398.3358989850501075
 30
13.9033665835410094
 11
2275.7147408721771171
 21
1398.5139850199630018
 31
12.3067331670822195
  0
LINE
  5
1222
  8
EXTENSÃO_-_MONTANTES
 10
2278.3420667881550798
 20
1398.1578129501360763
 30
15.5000000000000693
 11
2280.6132206343090729
 21
1398.1578129501360763
 31
15.5000000000000995
210
0.0000000000000005
220
-1.0
230
-0.0000000000000002
  0
LINE
  5
1223
  8
EXTENSÃO_-_DIAGONAIS_VERTI
 10
2277.3420558299499135
 20
1398.0222469852640188
 30
16.7154189954011017
 11
2276.3420448717452018
 21
1397.8866810203919613
 31
17.9308379908021784
  0
LINE
  5
1224
  8
EXTENSÃO_-_DIAGONAIS_VERTI
 10
2279.3420777463597915
 20
1398.0222469852640188
 30
16.7154189954011407
 11
2278.3420667881550798
 21
1398.1578129501360763
 31
15.5000000000000195
  0
LINE
  5
1225
  8
EXTENSÃO_-_DIAGONAIS_VERTI
 10
2279.3420777463611557
 20
1397.7155162160329382
 30
19.4654189954012899
 11
2278.3420667881550798
 21
1397.5443514116739152
 31
21.0000000000000995
  0
LINE
  5
1226
  8
EXTENSÃO_-_DIAGONAIS_VERTI
 10
2277.3420558299499135
 20
1397.7155162160329382
 30
19.4654189954010413
 11
2276.3420448717452018
 21
1397.8866810203919613
 31
17.9308379908021784
  0
LINE
  5
1227
  8
EXTENSÃO_-_DIAGONAIS_VERTI
 10
2280.7913066692221946
 20
1394.572996145991965
 30
13.9033665835411604
 11
2280.7913066692221946
 21
1393.4374192229149685
 31
13.9033665835411604
  0
LINE
  5
1228
  8
EXTENSÃO_-_DIAGONAIS_VERTI
 10
2280.2420667881551708
 20
1398.7155052578279992
 30
10.5000000000000693
 11
2281.1709129420019053
 21
1398.7155052578279992
 31
10.5000000000000799
210
0.0000000000000005
220
-1.0
230
-0.0000000000000002
  0
LINE
  5
1229
  8
EXTENSÃO_-_MONTANTES
 10
2281.1709129420019053
 20
1398.7155052578279992
 30
10.50000000000189
 11
2281.338220634308982
 21
1398.8828129501359854
 31
8.9999999999999822
  0
LINE
  5
122A
  8
EXTENSÃO_-_MONTANTES
 10
2281.0701528230688382
 20
1398.6147451388949321
 30
11.4033665835409401
 11
2281.1709129420019053
 21
1398.7155052578279992
 31
10.50000000000189
  0
LINE
  5
122B
  8
EXTENSÃO_-_MONTANTES
 10
2280.9693927041362258
 20
1398.5139850199609555
 30
12.3067331670829407
 11
2281.0701528230688382
 21
1398.6147451388949321
 31
11.4033665835409401
  0
LINE
  5
122C
  8
EXTENSÃO_-_MONTANTES
 10
2280.7913066692240136
 20
1398.3358989850480611
 30
13.9033665835412901
 11
2280.9693927041362258
 21
1398.5139850199609555
 31
12.3067331670829407
  0
LINE
  5
122D
  8
EXTENSÃO_-_MONTANTES
 10
2280.6132206343108919
 20
1398.1578129501360763
 30
15.4999999999986695
 11
2280.7913066692240136
 21
1398.3358989850480611
 31
13.9033665835412901
  0
LINE
  5
122E
  8
EXTENSÃO_-_MONTANTES
 10
2280.4776546694388344
 20
1398.0222469852640188
 30
16.7154189954010484
 11
2280.6132206343108919
 21
1398.1578129501360763
 31
15.4999999999986695
  0
LINE
  5
122F
  8
EXTENSÃO_-_MONTANTES
 10
2280.3420887045667769
 20
1397.8866810203919613
 30
17.9308379908037097
 11
2280.4776546694388344
 21
1398.0222469852640188
 31
16.7154189954010484
  0
LINE
  5
1230
  8
EXTENSÃO_-_MONTANTES
 10
2280.1709239002079812
 20
1397.7155162160329382
 30
19.4654189954018193
 11
2280.3420887045667769
 21
1397.8866810203919613
 31
17.9308379908037097
  0
LINE
  5
1231
  8
EXTENSÃO_-_MONTANTES
 10
2281.1709129420019053
 20
1393.0578129501359399
 30
10.4999999999996199
 11
2281.338220634308982
 21
1392.8905052578279538
 31
9.0000000000000302
  0
LINE
  5
1232
  8
EXTENSÃO_-_MONTANTES
 10
2281.0701528230688382
 20
1393.158573069069007
 30
11.4033665835409899
 11
2281.1709129420019053
 21
1393.0578129501359399
 31
10.4999999999996199
  0
LINE
  5
1233
  8
EXTENSÃO_-_MONTANTES
 10
2280.9693927041362258
 20
1393.2593331880020742
 30
12.3067331670805
 11
2281.0701528230688382
 21
1393.158573069069007
 31
11.4033665835409899
  0
LINE
  5
1234
  8
EXTENSÃO_-_MONTANTES
 10
2280.7913066692231041
 20
1393.4374192229149685
 30
13.9033665835411409
 11
2280.9693927041362258
 21
1393.2593331880020742
 31
12.3067331670805
  0
LINE
  5
1235
  8
EXTENSÃO_-_MONTANTES
 10
2280.6132206343099824
 20
1393.6155052578280902
 30
15.5
 11
2280.7913066692231041
 21
1393.4374192229149685
 31
13.9033665835411409
  0
LINE
  5
1236
  8
EXTENSÃO_-_MONTANTES
 10
2280.4776546694379249
 20
1393.7510712226990108
 30
16.7154189954007215
 11
2280.6132206343099824
 21
1393.6155052578280902
 31
15.5
  0
LINE
  5
1237
  8
EXTENSÃO_-_MONTANTES
 10
2280.3420887045667769
 20
1393.8866371875710684
 30
17.9308379908017983
 11
2280.4776546694379249
 21
1393.7510712226990108
 31
16.7154189954007215
  0
LINE
  5
1238
  8
EXTENSÃO_-_MONTANTES
 10
2280.1709239002070717
 20
1394.0578019919300914
 30
19.4654189954013184
 11
2280.3420887045667769
 21
1393.8866371875710684
 31
17.9308379908017983
  0
LINE
  5
1239
  8
EXTENSÃO_-_MONTANTES
 10
2276.5132096761039975
 20
1397.7155162160329382
 30
19.4654189954012189
 11
2276.3420448717452018
 21
1397.8866810203919613
 31
17.9308379908019084
  0
LINE
  5
123A
  8
EXTENSÃO_-_MONTANTES
 10
2276.3420448717452018
 20
1397.8866810203919613
 30
17.9308379908019084
 11
2276.2064789068740538
 21
1398.0222469852640188
 31
16.7154189954008885
  0
LINE
  5
123B
  8
EXTENSÃO_-_MONTANTES
 10
2276.2064789068740538
 20
1398.0222469852640188
 30
16.7154189954008885
 11
2276.0709129420029058
 21
1398.1578129501349395
 31
15.4999999999998597
  0
LINE
  5
123C
  8
EXTENSÃO_-_MONTANTES
 10
2276.0709129420029058
 20
1398.1578129501349395
 30
15.4999999999998597
 11
2275.8928269070897841
 21
1398.3358989850480611
 31
13.9033665835397198
  0
LINE
  5
123D
  8
EXTENSÃO_-_MONTANTES
 10
2275.8928269070897841
 20
1398.3358989850480611
 30
13.9033665835397198
 11
2275.7147408721771171
 21
1398.5139850199609555
 31
12.3067331670813207
  0
LINE
  5
123E
  8
EXTENSÃO_-_MONTANTES
 10
2275.7147408721771171
 20
1398.5139850199609555
 30
12.3067331670813207
 11
2275.6139807532431405
 21
1398.6147451388949321
 31
11.4033665835398992
  0
LINE
  5
123F
  8
EXTENSÃO_-_MONTANTES
 10
2275.6139807532431405
 20
1398.6147451388949321
 30
11.4033665835398992
 11
2275.5132206343100734
 21
1398.7155052578279992
 31
10.4999999999993694
  0
LINE
  5
1240
  8
EXTENSÃO_-_MONTANTES
 10
2275.5132206343100734
 20
1398.7155052578279992
 30
10.4999999999993694
 11
2275.3459129420020872
 21
1398.8828129501359854
 31
8.9999999999999964
  0
LINE
  5
1248
  8
EXTENSÃO_-_MONTANTES
 10
2275.3459129420011777
 20
1392.8905052578279538
 30
9.0000000000000373
 11
2275.3459129420011777
 21
1394.5905052578279992
 31
8.9999999999996874
210
-1.0
220
0.0000000000000008
230
-0.0000000000000008
  0
LINE
  5
1249
  8
EXTENSÃO_-_MONTANTES
 10
2275.3459129420011777
 20
1394.5905052578279992
 30
8.9999999999996874
 11
2275.3459129419998135
 21
1395.8866591039839022
 31
8.9999999999994706
210
-1.0
220
0.0000000000000008
230
-0.0000000000000008
  0
LINE
  5
124A
  8
EXTENSÃO_-_MONTANTES
 10
2275.3459129419998135
 20
1395.8866591039839022
 30
8.9999999999994706
 11
2275.3459129419998135
 21
1397.1828129501359399
 31
8.9999999999993765
210
-1.0
220
0.0000000000000008
230
-0.0000000000000008
  0
LINE
  5
124B
  8
EXTENSÃO_-_MONTANTES
 10
2275.3459129419998135
 20
1397.1828129501359399
 30
8.9999999999993765
 11
2275.3459129420011777
 21
1398.8828129501359854
 31
8.9999999999999893
210
-1.0
220
0.0000000000000008
230
-0.0000000000000008
  0
LINE
  5
124C
  8
EXTENSÃO_-_MONTANTES
 10
2276.6843744804627931
 20
1394.2289667962900239
 30
20.9999999999999893
 11
2276.513209676103088
 21
1394.0578019919300914
 31
19.4654189954013184
  0
LINE
  5
124D
  8
EXTENSÃO_-_MONTANTES
 10
2276.513209676103088
 20
1394.0578019919300914
 30
19.4654189954013184
 11
2276.3420448717429281
 21
1393.8866371875710684
 31
17.9308379908017983
  0
LINE
  5
124E
  8
EXTENSÃO_-_MONTANTES
 10
2276.3420448717429281
 20
1393.8866371875710684
 30
17.9308379908017983
 11
2276.2064789068717801
 21
1393.7510712226990108
 31
16.7154189954007215
  0
LINE
  5
124F
  8
EXTENSÃO_-_MONTANTES
 10
2276.2064789068717801
 20
1393.7510712226990108
 30
16.7154189954007215
 11
2276.0709129420001773
 21
1393.6155052578280902
 31
15.5
  0
LINE
  5
1250
  8
EXTENSÃO_-_MONTANTES
 10
2276.0709129420001773
 20
1393.6155052578280902
 30
15.5
 11
2275.8928269070870556
 21
1393.4374192229149685
 31
13.9033665835411409
  0
LINE
  5
1251
  8
EXTENSÃO_-_MONTANTES
 10
2275.8928269070870556
 20
1393.4374192229149685
 30
13.9033665835411409
 11
2275.7147408721739339
 21
1393.2593331880020742
 31
12.3067331670805
  0
LINE
  5
1252
  8
EXTENSÃO_-_MONTANTES
 10
2275.7147408721739339
 20
1393.2593331880020742
 30
12.3067331670805
 11
2275.6139807532417763
 21
1393.158573069069007
 31
11.4033665835409899
  0
LINE
  5
1253
  8
EXTENSÃO_-_MONTANTES
 10
2275.6139807532417763
 20
1393.158573069069007
 30
11.4033665835409899
 11
2275.5132206343091639
 21
1393.0578129501359399
 31
10.4999999999996199
  0
LINE
  5
1254
  8
EXTENSÃO_-_MONTANTES
 10
2275.5132206343091639
 20
1393.0578129501359399
 30
10.4999999999996199
 11
2275.3459129420011777
 21
1392.8905052578279538
 31
9.0000000000000302
  0
LINE
  5
1255
  8
EXTENSÃO_-_DIAGONAIS_VERTI
 10
2275.5132206343091639
 20
1393.0578129501359399
 30
10.5000000000000302
 11
2275.5132206343091639
 21
1393.9866591039819923
 31
10.5000000000000195
210
-1.0
220
0.0000000000000008
230
-0.0000000000000008
  0
LINE
  5
1256
  8
EXTENSÃO_-_DIAGONAIS_VERTI
 10
2275.5132206343091639
 20
1393.9866591039819923
 30
10.5000000000000195
 11
2275.5132206343091639
 21
1395.8866591039820833
 31
10.5000000000000107
210
-1.0
220
0.0000000000000008
230
-0.0000000000000008
  0
LINE
  5
1257
  8
EXTENSÃO_-_DIAGONAIS_VERTI
 10
2275.5132206343091639
 20
1395.8866591039820833
 30
10.5000000000000107
 11
2275.5132206343091639
 21
1397.7866591039819468
 31
10.5
210
-1.0
220
0.0000000000000008
230
-0.0000000000000008
  0
LINE
  5
1258
  8
EXTENSÃO_-_DIAGONAIS_VERTI
 10
2275.5132206343091639
 20
1397.7866591039819468
 30
10.5
 11
2275.5132206343091639
 21
1398.7155052578279992
 31
10.4999999999999893
210
-1.0
220
0.0000000000000008
230
-0.0000000000000008
  0
LINE
  5
1259
  8
EXTENSÃO_-_MONTANTES
 10
2276.0709129420010868
 20
1393.6155052578280902
 30
15.5000000000000195
 11
2276.0709129420010868
 21
1395.8866591039820833
 31
15.5000000000000195
210
-1.0
220
0.0000000000000008
230
-0.0000000000000008
  0
LINE
  5
125A
  8
EXTENSÃO_-_MONTANTES
 10
2276.0709129420010868
 20
1395.8866591039820833
 30
15.5000000000000195
 11
2276.0709129420010868
 21
1398.1578129501360763
 31
15.5000000000000195
210
-1.0
220
0.0000000000000008
230
-0.0000000000000008
  0
LINE
  5
125B
  8
EXTENSÃO_-_DIAGONAIS_VERTI
 10
2275.3459129420011777
 20
1392.8905052578279538
 30
9.0000000000000533
 11
2275.4295667881551708
 21
1393.4385821809050867
 31
9.7500000000000497
  0
LINE
  5
125C
  8
EXTENSÃO_-_DIAGONAIS_VERTI
 10
2275.4295667881551708
 20
1393.4385821809050867
 30
9.7500000000000497
 11
2275.5132206343091639
 21
1393.9866591039819923
 31
10.5000000000000409
  0
LINE
  5
125D
  8
EXTENSÃO_-_DIAGONAIS_VERTI
 10
2275.5132206343091639
 20
1393.9866591039819923
 30
10.5000000000000409
 11
2275.3459129420011777
 21
1394.5905052578279992
 31
9.0000000000000249
  0
LINE
  5
125E
  8
EXTENSÃO_-_DIAGONAIS_VERTI
 10
2275.3459129420011777
 20
1394.5905052578279992
 30
9.0000000000000249
 11
2275.5132206343091639
 21
1395.8866591039820833
 31
10.5000000000000497
  0
LINE
  5
125F
  8
EXTENSÃO_-_DIAGONAIS_VERTI
 10
2275.5132206343091639
 20
1395.8866591039820833
 30
10.5000000000000497
 11
2275.3459129420011777
 21
1397.1828129501359399
 31
9.0000000000000018
  0
LINE
  5
1260
  8
EXTENSÃO_-_DIAGONAIS_VERTI
 10
2275.3459129420011777
 20
1397.1828129501359399
 30
9.0000000000000018
 11
2275.5132206343091639
 21
1397.7866591039819468
 31
10.5
  0
LINE
  5
1261
  8
EXTENSÃO_-_DIAGONAIS_VERTI
 10
2275.5132206343091639
 20
1397.7866591039819468
 30
10.5000000000000409
 11
2275.4295667881551708
 21
1398.3347360270590798
 31
9.7500000000000746
  0
LINE
  5
1262
  8
EXTENSÃO_-_DIAGONAIS_VERTI
 10
2275.4295667881551708
 20
1398.3347360270590798
 30
9.7500000000000746
 11
2275.3459129420011777
 21
1398.8828129501359854
 31
9.0000000000001013
  0
LINE
  5
1263
  8
EXTENSÃO_-_DIAGONAIS_VERTI
 10
2275.4295667881551708
 20
1393.4385821809050867
 30
9.7500000000000462
 11
2275.5132206343091639
 21
1393.0578129501359399
 31
10.5000000000000302
  0
LINE
  5
1264
  8
EXTENSÃO_-_DIAGONAIS_VERTI
 10
2275.4295667881551708
 20
1398.3347360270590798
 30
9.7500000000000746
 11
2275.5132206343091639
 21
1398.7155052578279992
 31
10.5000000000000799
  0
LINE
  5
1265
  8
EXTENSÃO_-_DIAGONAIS_VERTI
 10
2275.7147408721762076
 20
1398.5139850199609555
 30
12.3067331670823705
 11
2275.8928269070888746
 21
1397.2003220619710646
 31
13.9033665835411693
  0
LINE
  5
1266
  8
EXTENSÃO_-_DIAGONAIS_VERTI
 10
2275.8928269070888746
 20
1397.2003220619710646
 30
13.9033665835411693
 11
2276.0709129420010868
 21
1395.8866591039820833
 31
15.5000000000000107
  0
LINE
  5
1267
  8
EXTENSÃO_-_DIAGONAIS_VERTI
 10
2275.8928269070888746
 20
1397.2003220619710646
 30
13.9033665835411604
 11
2275.8928269070888746
 21
1398.3358989850480611
 31
13.9033665835411604
  0
LINE
  5
1268
  8
EXTENSÃO_-_DIAGONAIS_VERTI
 10
2275.8928269070888746
 20
1397.2003220619710646
 30
13.9033665835411604
 11
2276.0709129420010868
 21
1398.1578129501360763
 31
15.5000000000000995
  0
LINE
  5
1269
  8
EXTENSÃO_-_DIAGONAIS_VERTI
 10
2275.6139807532417763
 20
1398.6147451388949321
 30
11.4033665835411604
 11
2275.6139807532417763
 21
1398.1503220619720196
 31
11.4033665835411604
  0
LINE
  5
126A
  8
EXTENSÃO_-_DIAGONAIS_VERTI
 10
2275.6139807532417763
 20
1398.1503220619720196
 30
11.4033665835411604
 11
2275.5132206343091639
 21
1398.7155052578279992
 31
10.5000000000000799
  0
LINE
  5
126B
  8
EXTENSÃO_-_DIAGONAIS_VERTI
 10
2275.7147408721762076
 20
1393.2593331880029837
 30
12.3067331670822799
 11
2275.8928269070888746
 21
1394.572996145991965
 31
13.9033665835411497
  0
LINE
  5
126C
  8
EXTENSÃO_-_DIAGONAIS_VERTI
 10
2275.8928269070888746
 20
1394.572996145991965
 30
13.9033665835411497
 11
2276.0709129420010868
 21
1395.8866591039820833
 31
15.5000000000000107
  0
LINE
  5
126D
  8
EXTENSÃO_-_DIAGONAIS_VERTI
 10
2275.8928269070888746
 20
1397.2003220619710646
 30
13.9033665835411604
 11
2275.8928269070888746
 21
1394.572996145991965
 31
13.9033665835411604
  0
LINE
  5
126E
  8
EXTENSÃO_-_DIAGONAIS_VERTI
 10
2275.8928269070888746
 20
1394.572996145991965
 30
13.9033665835411604
 11
2275.8928269070888746
 21
1393.4374192229149685
 31
13.9033665835411604
  0
LINE
  5
126F
  8
EXTENSÃO_-_DIAGONAIS_VERTI
 10
2275.8928269070888746
 20
1394.572996145991965
 30
13.9033665835411604
 11
2276.0709129420010868
 21
1393.6155052578280902
 31
15.5000000000000195
  0
LINE
  5
1270
  8
EXTENSÃO_-_DIAGONAIS_VERTI
 10
2275.6139807532417763
 20
1393.6229961459919195
 30
11.4033665835411604
 11
2275.5132206343091639
 21
1393.0578129501359399
 31
10.5000000000000107
  0
LINE
  5
1271
  8
EXTENSÃO_-_DIAGONAIS_VERTI
 10
2275.6139807532417763
 20
1393.6229961459919195
 30
11.4033665835411604
 11
2275.6139807532417763
 21
1393.158573069069007
 31
11.4033665835411604
  0
LINE
  5
1272
  8
EXTENSÃO_-_DIAGONAIS_VERTI
 10
2275.5132206343091639
 20
1393.9866591039819923
 30
10.5000000000000195
 11
2275.6139807532417763
 21
1393.6229961459919195
 31
11.4033665835411604
  0
LINE
  5
1273
  8
EXTENSÃO_-_DIAGONAIS_VERTI
 10
2275.6139807532417763
 20
1393.6229961459919195
 30
11.4033665835411604
 11
2275.7147408721762076
 21
1393.2593331880029837
 31
12.3067331670823297
  0
LINE
  5
1274
  8
EXTENSÃO_-_DIAGONAIS_VERTI
 10
2275.5132206343091639
 20
1397.7866591039819468
 30
10.5000000000000409
 11
2275.6139807532417763
 21
1398.1503220619720196
 31
11.4033665835411693
  0
LINE
  5
1275
  8
EXTENSÃO_-_DIAGONAIS_VERTI
 10
2275.6139807532417763
 20
1398.1503220619720196
 30
11.4033665835411693
 11
2275.7147408721762076
 21
1398.5139850199609555
 31
12.3067331670823705
  0
LINE
  5
1276
  8
EXTENSÃO_-_DIAGONAIS_VERTI
 10
2276.0709129420010868
 20
1395.8866591039820833
 30
15.5000000000000195
 11
2276.2064789068731443
 21
1396.8866700621870223
 31
16.7154189954013184
  0
LINE
  5
1277
  8
EXTENSÃO_-_DIAGONAIS_VERTI
 10
2276.2064789068731443
 20
1396.8866700621870223
 30
16.7154189954013184
 11
2276.3420448717452018
 21
1397.8866810203919613
 31
17.9308379908024911
  0
LINE
  5
1278
  8
EXTENSÃO_-_DIAGONAIS_VERTI
 10
2276.3420448717452018
 20
1397.8866810203919613
 30
17.9308379908024911
 11
2276.5132096761039975
 21
1396.8866700621870223
 31
19.4654189954012082
  0
LINE
  5
1279
  8
EXTENSÃO_-_DIAGONAIS_VERTI
 10
2276.5132096761039975
 20
1396.8866700621870223
 30
19.4654189954012082
 11
2276.6843744804627931
 21
1395.8866591039820833
 31
21.0000000000000604
  0
LINE
  5
127A
  8
EXTENSÃO_-_DIAGONAIS_VERTI
 10
2276.6843744804627931
 20
1395.8866591039820833
 30
21.0000000000000604
 11
2276.5132096761039975
 21
1394.8866481457769169
 31
19.4654189954013113
  0
LINE
  5
127B
  8
EXTENSÃO_-_DIAGONAIS_VERTI
 10
2276.5132096761039975
 20
1394.8866481457769169
 30
19.4654189954013113
 11
2276.3420448717452018
 21
1393.8866371875710684
 31
17.9308379908024804
  0
LINE
  5
127C
  8
EXTENSÃO_-_DIAGONAIS_VERTI
 10
2276.3420448717452018
 20
1393.8866371875710684
 30
17.9308379908024804
 11
2276.2064789068731443
 21
1394.8866481457769169
 31
16.7154189954011585
  0
LINE
  5
127D
  8
EXTENSÃO_-_DIAGONAIS_VERTI
 10
2276.2064789068731443
 20
1394.8866481457769169
 30
16.7154189954011585
 11
2276.0709129420010868
 21
1395.8866591039820833
 31
15.5000000000000302
  0
LINE
  5
127E
  8
EXTENSÃO_-_DIAGONAIS_VERTI
 10
2276.0709129420010868
 20
1393.6155052578280902
 30
15.5000000000000409
 11
2276.2064789068731443
 21
1394.8866481457769169
 31
16.7154189954012615
  0
LINE
  5
127F
  8
EXTENSÃO_-_DIAGONAIS_VERTI
 10
2276.2064789068731443
 20
1394.8866481457769169
 30
16.7154189954012509
 11
2276.2064789068731443
 21
1393.7510712226999203
 31
16.7154189954012509
  0
LINE
  5
1280
  8
EXTENSÃO_-_DIAGONAIS_VERTI
 10
2276.0709129420010868
 20
1398.1578129501360763
 30
15.5000000000000995
 11
2276.2064789068731443
 21
1396.8866700621870223
 31
16.7154189954012686
  0
LINE
  5
1281
  8
EXTENSÃO_-_DIAGONAIS_VERTI
 10
2276.2064789068731443
 20
1396.8866700621870223
 30
16.7154189954012686
 11
2276.2064789068731443
 21
1398.0222469852640188
 31
16.7154189954012686
  0
LINE
  5
1282
  8
EXTENSÃO_-_DIAGONAIS_VERTI
 10
2276.5132096761039975
 20
1396.8866700621870223
 30
19.4654189954012509
 11
2276.5132096761039975
 21
1397.7155162160329382
 31
19.4654189954012509
  0
LINE
  5
1283
  8
EXTENSÃO_-_DIAGONAIS_VERTI
 10
2276.5132096761039975
 20
1394.8866481457769169
 30
19.4654189954012509
 11
2276.5132096761039975
 21
1394.0578019919300914
 31
19.4654189954012509
  0
LINE
  5
1284
  8
EXTENSÃO_-_DIAGONAIS_VERTI
 10
2276.5132096761039975
 20
1396.8866700621870223
 30
19.4654189954012509
 11
2276.6843744804627931
 21
1397.5443514116739152
 31
21.0000000000000497
  0
LINE
  5
1285
  8
EXTENSÃO_-_DIAGONAIS_VERTI
 10
2276.5132096761039975
 20
1394.8866481457769169
 30
19.4654189954012509
 11
2276.6843744804627931
 21
1394.2289667962900239
 31
21.0000000000000995
  0
LINE
  5
1286
  8
EXTENSÃO_-_MONTANTES
 10
2275.3459129420020872
 20
1392.8905052578279538
 30
9.0000000000000018
 11
2277.0459129420028148
 21
1392.8905052578270443
 31
9.0000000000007798
210
0.0000000000000005
220
1.0
230
-0.0000000000000002
  0
LINE
  5
1287
  8
EXTENSÃO_-_MONTANTES
 10
2277.0459129420028148
 20
1392.8905052578270443
 30
9.0000000000007798
 11
2278.3420667881568988
 21
1392.8905052578270443
 31
9.0000000000006128
210
0.0000000000000005
220
1.0
230
-0.0000000000000002
  0
LINE
  5
1288
  8
EXTENSÃO_-_MONTANTES
 10
2278.3420667881568988
 20
1392.8905052578270443
 30
9.0000000000006128
 11
2279.6382206343100734
 21
1392.8905052578270443
 31
9.0000000000003801
210
0.0000000000000005
220
1.0
230
-0.0000000000000002
  0
LINE
  5
1289
  8
EXTENSÃO_-_MONTANTES
 10
2279.6382206343100734
 20
1392.8905052578270443
 30
9.0000000000003801
 11
2281.338220634308982
 21
1392.8905052578279538
 31
9.0000000000000995
210
0.0000000000000005
220
1.0
230
-0.0000000000000002
  0
LINE
  5
128A
  8
EXTENSÃO_-_DIAGONAIS_VERTI
 10
2275.5132206343091639
 20
1393.0578129501350304
 30
10.5000000000000302
 11
2276.4420667881558984
 21
1393.0578129501350304
 31
10.5000000000000302
210
0.0000000000000005
220
1.0
230
-0.0000000000000002
  0
LINE
  5
128B
  8
EXTENSÃO_-_DIAGONAIS_VERTI
 10
2276.4420667881558984
 20
1393.0578129501350304
 30
10.5000000000000302
 11
2278.3420667881550798
 21
1393.0578129501350304
 31
10.5000000000000497
210
0.0000000000000005
220
1.0
230
-0.0000000000000002
  0
LINE
  5
128C
  8
EXTENSÃO_-_DIAGONAIS_VERTI
 10
2278.3420667881550798
 20
1393.0578129501350304
 30
10.5000000000000497
 11
2280.2420667881551708
 21
1393.0578129501350304
 31
10.5000000000000693
210
0.0000000000000005
220
1.0
230
-0.0000000000000002
  0
LINE
  5
128D
  8
EXTENSÃO_-_DIAGONAIS_VERTI
 10
2280.2420667881551708
 20
1393.0578129501350304
 30
10.5000000000000693
 11
2281.1709129420019053
 21
1393.0578129501350304
 31
10.5000000000000799
210
0.0000000000000005
220
1.0
230
-0.0000000000000002
  0
LINE
  5
128E
  8
EXTENSÃO_-_MONTANTES
 10
2276.0709129420010868
 20
1393.6155052578280902
 30
15.5000000000000497
 11
2278.3420667881550798
 21
1393.6155052578280902
 31
15.5000000000000693
210
0.0000000000000005
220
1.0
230
-0.0000000000000002
  0
LINE
  5
128F
  8
EXTENSÃO_-_MONTANTES
 10
2278.3420667881550798
 20
1393.6155052578280902
 30
15.5000000000000693
 11
2280.6132206343090729
 21
1393.6155052578280902
 31
15.5000000000000995
210
0.0000000000000005
220
1.0
230
-0.0000000000000002
  0
LINE
  5
1290
  8
EXTENSÃO_-_DIAGONAIS_VERTI
 10
2281.338220634308982
 20
1392.8905052578279538
 30
9.0000000000000373
 11
2280.790143711231849
 21
1392.9741591039810373
 31
9.7499999999998082
  0
LINE
  5
1291
  8
EXTENSÃO_-_DIAGONAIS_VERTI
 10
2280.790143711231849
 20
1392.9741591039810373
 30
9.7499999999998082
 11
2280.2420667881551708
 21
1393.0578129501350304
 31
10.5000000000000302
  0
LINE
  5
1292
  8
EXTENSÃO_-_DIAGONAIS_VERTI
 10
2280.2420667881551708
 20
1393.0578129501350304
 30
10.5000000000000302
 11
2279.6382206343091639
 21
1392.8905052578279538
 31
9.0
  0
LINE
  5
1293
  8
EXTENSÃO_-_DIAGONAIS_VERTI
 10
2279.6382206343091639
 20
1392.8905052578279538
 30
9.0
 11
2278.3420667881550798
 21
1393.0578129501350304
 31
10.5000000000000195
  0
LINE
  5
1294
  8
EXTENSÃO_-_DIAGONAIS_VERTI
 10
2278.3420667881550798
 20
1393.0578129501350304
 30
10.5000000000000195
 11
2277.0459129420019053
 21
1392.8905052578279538
 31
8.9999999999999893
  0
LINE
  5
1295
  8
EXTENSÃO_-_DIAGONAIS_VERTI
 10
2277.0459129420019053
 20
1392.8905052578279538
 30
8.9999999999999893
 11
2276.4420667881558984
 21
1393.0578129501350304
 31
10.5000000000000195
  0
LINE
  5
1296
  8
EXTENSÃO_-_DIAGONAIS_VERTI
 10
2276.4420667881558984
 20
1393.0578129501350304
 30
10.5000000000000195
 11
2275.8939898650778559
 21
1392.9741591039810373
 31
9.7499999999997868
  0
LINE
  5
1297
  8
EXTENSÃO_-_DIAGONAIS_VERTI
 10
2275.8939898650778559
 20
1392.9741591039810373
 30
9.7499999999997868
 11
2275.3459129420020872
 21
1392.8905052578279538
 31
8.9999999999999964
  0
LINE
  5
1298
  8
EXTENSÃO_-_DIAGONAIS_VERTI
 10
2275.5132206343091639
 20
1393.0578129501350304
 30
10.5000000000000302
 11
2275.8939898650778559
 21
1392.9741591039819468
 31
9.7500000000000266
  0
LINE
  5
1299
  8
EXTENSÃO_-_DIAGONAIS_VERTI
 10
2281.1709129420019053
 20
1393.0578129501350304
 30
10.5000000000000302
 11
2280.790143711231849
 21
1392.9741591039819468
 31
9.7500000000000391
  0
LINE
  5
129A
  8
EXTENSÃO_-_DIAGONAIS_VERTI
 10
2280.9693927041362258
 20
1393.2593331880029837
 30
12.3067331670822195
 11
2279.6557297461458802
 21
1393.4374192229149685
 31
13.9033665835412297
  0
LINE
  5
129B
  8
EXTENSÃO_-_DIAGONAIS_VERTI
 10
2279.6557297461458802
 20
1393.4374192229149685
 30
13.9033665835412297
 11
2278.3420667881559893
 21
1393.6155052578269533
 31
15.5
  0
LINE
  5
129C
  8
EXTENSÃO_-_DIAGONAIS_VERTI
 10
2278.3420667881559893
 20
1393.6155052578269533
 30
15.5000000000000302
 11
2277.0284038301660985
 21
1393.437419222914059
 31
13.9033665835410094
  0
LINE
  5
129D
  8
EXTENSÃO_-_DIAGONAIS_VERTI
 10
2277.0284038301660985
 20
1393.437419222914059
 30
13.9033665835410094
 11
2275.7147408721771171
 21
1393.2593331880009373
 31
12.3067331670822195
  0
LINE
  5
129E
  8
EXTENSÃO_-_DIAGONAIS_VERTI
 10
2277.028403830167008
 20
1393.437419222914059
 30
13.9033665835411195
 11
2275.8928269070888746
 21
1393.437419222914059
 31
13.9033665835411195
  0
LINE
  5
129F
  8
EXTENSÃO_-_DIAGONAIS_VERTI
 10
2277.028403830167008
 20
1393.437419222914059
 30
13.9033665835411195
 11
2276.0709129420019963
 21
1393.6155052578260438
 31
15.5000000000000302
  0
LINE
  5
12A0
  8
EXTENSÃO_-_DIAGONAIS_VERTI
 10
2275.5132206343100734
 20
1393.0578129501338935
 30
10.5000000000000302
 11
2276.0784038301658256
 21
1393.1585730690669607
 31
11.4033665835411302
  0
LINE
  5
12A1
  8
EXTENSÃO_-_DIAGONAIS_VERTI
 10
2276.0784038301658256
 20
1393.1585730690669607
 30
11.4033665835411302
 11
2275.6139807532431405
 21
1393.1585730690669607
 31
11.4033665835411195
  0
LINE
  5
12A2
  8
EXTENSÃO_-_DIAGONAIS_VERTI
 10
2281.1709129420019053
 20
1393.0578129501359399
 30
10.5000000000000906
 11
2280.605729746146153
 21
1393.158573069069007
 31
11.4033665835411195
  0
LINE
  5
12A3
  8
EXTENSÃO_-_DIAGONAIS_VERTI
 10
2280.605729746146153
 20
1393.158573069069007
 30
11.4033665835411195
 11
2281.0701528230688382
 21
1393.158573069069007
 31
11.4033665835411195
  0
LINE
  5
12A4
  8
EXTENSÃO_-_DIAGONAIS_VERTI
 10
2277.028403830167008
 20
1393.437419222914059
 30
13.9033665835411195
 11
2279.6557297461458802
 21
1393.4374192229149685
 31
13.9033665835411195
  0
LINE
  5
12A5
  8
EXTENSÃO_-_DIAGONAIS_VERTI
 10
2279.6557297461458802
 20
1393.4374192229149685
 30
13.9033665835411195
 11
2280.7913066692231041
 21
1393.4374192229149685
 31
13.9033665835411195
  0
LINE
  5
12A6
  8
EXTENSÃO_-_DIAGONAIS_VERTI
 10
2279.6557297461458802
 20
1393.4374192229149685
 30
13.9033665835411107
 11
2280.6132206343099824
 21
1393.6155052578280902
 31
15.5000000000000409
  0
LINE
  5
12A7
  8
EXTENSÃO_-_DIAGONAIS_VERTI
 10
2276.4420667881558984
 20
1393.0578129501338935
 30
10.5000000000000302
 11
2276.0784038301658256
 21
1393.1585730690669607
 31
11.4033665835411302
  0
LINE
  5
12A8
  8
EXTENSÃO_-_DIAGONAIS_VERTI
 10
2276.0784038301658256
 20
1393.1585730690669607
 30
11.4033665835411302
 11
2275.7147408721771171
 21
1393.2593331880009373
 31
12.3067331670822195
  0
LINE
  5
12A9
  8
EXTENSÃO_-_DIAGONAIS_VERTI
 10
2280.2420667881560803
 20
1393.0578129501350304
 30
10.5000000000000302
 11
2280.605729746146153
 21
1393.158573069069007
 31
11.4033665835411195
  0
LINE
  5
12AA
  8
EXTENSÃO_-_DIAGONAIS_VERTI
 10
2280.605729746146153
 20
1393.158573069069007
 30
11.4033665835411195
 11
2280.9693927041362258
 21
1393.2593331880029837
 31
12.3067331670822107
  0
LINE
  5
12AB
  8
EXTENSÃO_-_DIAGONAIS_VERTI
 10
2280.3420887045658674
 20
1393.8866371875710684
 30
17.9308379908024804
 11
2279.3420777463611557
 21
1394.0578019919300914
 31
19.4654189954012899
  0
LINE
  5
12AC
  8
EXTENSÃO_-_DIAGONAIS_VERTI
 10
2279.3420777463611557
 20
1394.0578019919300914
 30
19.4654189954012899
 11
2278.3420667881550798
 21
1394.2289667962888871
 31
21.0000000000000995
  0
LINE
  5
12AD
  8
EXTENSÃO_-_DIAGONAIS_VERTI
 10
2278.3420667881550798
 20
1394.2289667962888871
 30
21.0000000000000995
 11
2277.3420558299499135
 21
1394.0578019919300914
 31
19.4654189954010413
  0
LINE
  5
12AE
  8
EXTENSÃO_-_DIAGONAIS_VERTI
 10
2277.3420558299499135
 20
1394.0578019919300914
 30
19.4654189954010413
 11
2276.3420448717452018
 21
1393.8866371875710684
 31
17.9308379908021784
  0
LINE
  5
12AF
  8
EXTENSÃO_-_DIAGONAIS_VERTI
 10
2280.3420887045658674
 20
1393.8866371875710684
 30
17.9308379908024698
 11
2279.3420777463597915
 21
1393.7510712226990108
 31
16.7154189954011407
  0
LINE
  5
12B0
  8
EXTENSÃO_-_DIAGONAIS_VERTI
 10
2279.3420777463597915
 20
1393.7510712226990108
 30
16.7154189954011407
 11
2278.3420667881550798
 21
1393.6155052578280902
 31
15.5000000000000195
  0
LINE
  5
12B1
  8
EXTENSÃO_-_DIAGONAIS_VERTI
 10
2278.3420667881550798
 20
1393.6155052578280902
 30
15.5000000000000195
 11
2277.3420558299499135
 21
1393.7510712226990108
 31
16.7154189954011017
  0
LINE
  5
12B2
  8
EXTENSÃO_-_DIAGONAIS_VERTI
 10
2277.3420558299499135
 20
1393.7510712226990108
 30
16.7154189954011017
 11
2276.3420448717452018
 21
1393.8866371875710684
 31
17.9308379908021784
  0
LINE
  5
12B3
  8
EXTENSÃO_-_DIAGONAIS_VERTI
 10
2280.4776546694379249
 20
1393.7510712226990108
 30
16.7154189954012509
 11
2279.3420777463611557
 21
1393.7510712226990108
 31
16.7154189954012402
  0
LINE
  5
12B4
  8
EXTENSÃO_-_DIAGONAIS_VERTI
 10
2279.3420777463611557
 20
1393.7510712226990108
 30
16.7154189954012402
 11
2280.6132206343090729
 21
1393.6155052578280902
 31
15.5000000000000409
  0
LINE
  5
12B5
  8
EXTENSÃO_-_DIAGONAIS_VERTI
 10
2276.2064789068731443
 20
1393.7510712226990108
 30
16.7154189954012509
 11
2277.3420558299499135
 21
1393.7510712226990108
 31
16.7154189954011017
  0
LINE
  5
12B6
  8
EXTENSÃO_-_DIAGONAIS_VERTI
 10
2277.3420558299499135
 20
1393.7510712226990108
 30
16.7154189954011017
 11
2276.0709129420010868
 21
1393.6155052578280902
 31
15.5000000000000195
  0
LINE
  5
12B7
  8
EXTENSÃO_-_DIAGONAIS_VERTI
 10
2280.1709239002070717
 20
1394.0578019919300914
 30
19.4654189954012509
 11
2279.3420777463611557
 21
1394.0578019919300914
 31
19.4654189954012899
  0
LINE
  5
12B8
  8
EXTENSÃO_-_DIAGONAIS_VERTI
 10
2279.3420777463611557
 20
1394.0578019919300914
 30
19.4654189954012899
 11
2279.9997590958469118
 21
1394.2289667962888871
 31
21.0
  0
LINE
  5
12B9
  8
EXTENSÃO_-_DIAGONAIS_VERTI
 10
2276.5132096761039975
 20
1394.0578019919300914
 30
19.4654189954012509
 11
2277.3420558299499135
 21
1394.0578019919300914
 31
19.4654189954011407
  0
LINE
  5
12BA
  8
EXTENSÃO_-_DIAGONAIS_VERTI
 10
2277.3420558299499135
 20
1394.0578019919300914
 30
19.4654189954011407
 11
2276.6843744804627931
 21
1394.2289667962888871
 31
21.0000000000003517
  0
ENDSEC
  0
EOF
