  0
SECTION
  2
HEADER
  9
$ACADVER
  1
AC1009
  9
$INSBASE
 10
0.0
 20
0.0
 30
0.0
  9
$EXTMIN
 10
2273.2003628726160969
 20
1394.7866591039819468
 30
25.9999999999997584
  9
$EXTMAX
 10
2283.4837707036949723
 20
1396.9866591039819923
 30
37.48573135226939
  9
$LIMMIN
 10
0.0
 20
0.0
  9
$LIMMAX
 10
420.0
 20
297.0
  9
$ORTHOMODE
 70
     0
  9
$REGENMODE
 70
     1
  9
$FILLMODE
 70
     1
  9
$QTEXTMODE
 70
     0
  9
$MIRRTEXT
 70
     0
  9
$DRAGMODE
 70
     2
  9
$LTSCALE
 40
1.0
  9
$OSMODE
 70
    37
  9
$ATTMODE
 70
     1
  9
$TEXTSIZE
 40
2.5
  9
$TRACEWID
 40
1.0
  9
$TEXTSTYLE
  7
STANDARD
  9
$CLAYER
  8
0
  9
$CELTYPE
  6
BYLAYER
  9
$CECOLOR
 62
   256
  9
$DIMSCALE
 40
1.0
  9
$DIMASZ
 40
2.5
  9
$DIMEXO
 40
0.625
  9
$DIMDLI
 40
3.75
  9
$DIMRND
 40
0.0
  9
$DIMDLE
 40
0.0
  9
$DIMEXE
 40
1.25
  9
$DIMTP
 40
0.0
  9
$DIMTM
 40
0.0
  9
$DIMTXT
 40
2.5
  9
$DIMCEN
 40
2.5
  9
$DIMTSZ
 40
0.0
  9
$DIMTOL
 70
     0
  9
$DIMLIM
 70
     0
  9
$DIMTIH
 70
     0
  9
$DIMTOH
 70
     0
  9
$DIMSE1
 70
     0
  9
$DIMSE2
 70
     0
  9
$DIMTAD
 70
     1
  9
$DIMZIN
 70
     8
  9
$DIMBLK
  1

  9
$DIMASO
 70
     1
  9
$DIMSHO
 70
     1
  9
$DIMPOST
  1

  9
$DIMAPOST
  1

  9
$DIMALT
 70
     0
  9
$DIMALTD
 70
     3
  9
$DIMALTF
 40
0.03937007874016
  9
$DIMLFAC
 40
1.0
  9
$DIMTOFL
 70
     1
  9
$DIMTVP
 40
0.0
  9
$DIMTIX
 70
     0
  9
$DIMSOXD
 70
     0
  9
$DIMSAH
 70
     0
  9
$DIMBLK1
  1

  9
$DIMBLK2
  1

  9
$DIMSTYLE
  2
ISO-25
  9
$DIMCLRD
 70
     0
  9
$DIMCLRE
 70
     0
  9
$DIMCLRT
 70
     0
  9
$DIMTFAC
 40
1.0
  9
$DIMGAP
 40
0.625
  9
$LUNITS
 70
     2
  9
$LUPREC
 70
     4
  9
$SKETCHINC
 40
1.0
  9
$FILLETRAD
 40
0.0
  9
$AUNITS
 70
     0
  9
$AUPREC
 70
     0
  9
$MENU
  1
.
  9
$ELEVATION
 40
0.0
  9
$PELEVATION
 40
0.0
  9
$THICKNESS
 40
0.0
  9
$LIMCHECK
 70
     0
  9
$BLIPMODE
 70
     0
  9
$CHAMFERA
 40
0.0
  9
$CHAMFERB
 40
0.0
  9
$SKPOLY
 70
     0
  9
$TDCREATE
 40
2460644.5659027779474854
  9
$TDUPDATE
 40
2460734.4992824080400169
  9
$TDINDWG
 40
0.1772800926
  9
$TDUSRTIMER
 40
0.1772800926
  9
$USRTIMER
 70
     1
  9
$ANGBASE
 50
0.0
  9
$ANGDIR
 70
     0
  9
$PDMODE
 70
     0
  9
$PDSIZE
 40
0.0
  9
$PLINEWID
 40
0.0
  9
$COORDS
 70
     1
  9
$SPLFRAME
 70
     0
  9
$SPLINETYPE
 70
     6
  9
$SPLINESEGS
 70
     8
  9
$ATTDIA
 70
     1
  9
$ATTREQ
 70
     1
  9
$HANDLING
 70
     1
  9
$HANDSEED
  5
14E5
  9
$SURFTAB1
 70
     6
  9
$SURFTAB2
 70
     6
  9
$SURFTYPE
 70
     6
  9
$SURFU
 70
     6
  9
$SURFV
 70
     6
  9
$UCSNAME
  2

  9
$UCSORG
 10
2278.3420667881550798
 20
1395.8866591039820833
 30
25.9999999999997584
  9
$UCSXDIR
 10
1.0
 20
0.0
 30
0.0
  9
$UCSYDIR
 10
0.0
 20
1.0
 30
0.0
  9
$PUCSNAME
  2

  9
$PUCSORG
 10
0.0
 20
0.0
 30
0.0
  9
$PUCSXDIR
 10
1.0
 20
0.0
 30
0.0
  9
$PUCSYDIR
 10
0.0
 20
1.0
 30
0.0
  9
$USERI1
 70
     0
  9
$USERI2
 70
     0
  9
$USERI3
 70
     0
  9
$USERI4
 70
     0
  9
$USERI5
 70
     0
  9
$USERR1
 40
0.0
  9
$USERR2
 40
0.0
  9
$USERR3
 40
0.0
  9
$USERR4
 40
0.0
  9
$USERR5
 40
0.0
  9
$WORLDVIEW
 70
     1
  9
$SHADEDGE
 70
     3
  9
$SHADEDIF
 70
    70
  9
$TILEMODE
 70
     1
  9
$MAXACTVP
 70
    64
  9
$PLIMCHECK
 70
     0
  9
$PEXTMIN
 10
0.0
 20
0.0
 30
0.0
  9
$PEXTMAX
 10
0.0
 20
0.0
 30
0.0
  9
$PLIMMIN
 10
0.0
 20
0.0
  9
$PLIMMAX
 10
12.0
 20
9.0
  9
$UNITMODE
 70
     0
  9
$VISRETAIN
 70
     1
  9
$PLINEGEN
 70
     0
  9
$PSLTSCALE
 70
     1
  0
ENDSEC
  0
SECTION
  2
TABLES
  0
TABLE
  2
VPORT
 70
     1
  0
VPORT
  2
*ACTIVE
 70
     0
 10
0.0
 20
0.0
 11
1.0
 21
1.0
 12
0.0000000000000036
 22
0.4031908221525944
 13
0.0
 23
0.0
 14
10.0
 24
10.0
 15
10.0
 25
10.0
 16
-2.6735173496567759
 26
-41.5642441958968902
 36
24.3580930378659311
 17
2278.8649262284870929
 27
1395.7996448281649009
 37
31.6517744392287597
 40
14.7715684569821608
 41
2.555259653794939
 42
50.0
 43
0.0
 44
0.0
 50
0.0
 51
0.0000000000000064
 71
     0
 72
  1000
 73
     1
 74
     3
 75
     0
 76
     1
 77
     0
 78
     0
  0
ENDTAB
  0
TABLE
  2
LTYPE
 70
     1
  0
LTYPE
  2
CONTINUOUS
 70
     0
  3
Solid line
 72
    65
 73
     0
 40
0.0
  0
ENDTAB
  0
TABLE
  2
LAYER
 70
    18
  0
LAYER
  2
0
 70
     0
 62
     7
  6
CONTINUOUS
  0
LAYER
  2
P텝_-_MONTANTES
 70
     0
 62
   110
  6
CONTINUOUS
  0
LAYER
  2
P텝_-_DIAGONAIS_VERTICAIS
 70
     0
 62
    94
  6
CONTINUOUS
  0
LAYER
  2
P텝_-_DIAGONAIS_HORIZONTAI
 70
     0
 62
    64
  6
CONTINUOUS
  0
LAYER
  2
EXTENS츒_-_DIAGONAIS_HORIZ
 70
     0
 62
    42
  6
CONTINUOUS
  0
LAYER
  2
EXTENS츒_-_DIAGONAIS_VERTI
 70
     0
 62
    30
  6
CONTINUOUS
  0
LAYER
  2
EXTENS츒_-_MONTANTES
 70
     0
 62
    41
  6
CONTINUOUS
  0
LAYER
  2
TRONCO_-_DIAGONAIS_HORIZON
 70
     0
 62
   190
  6
CONTINUOUS
  0
LAYER
  2
TRONCO_-_DIAGONAIS_VERTICA
 70
     0
 62
   222
  6
CONTINUOUS
  0
LAYER
  2
TRONCO_-_MONTANTES
 70
     0
 62
   191
  6
CONTINUOUS
  0
LAYER
  2
CABE큐_-_MONTANTES
 70
     0
 62
    11
  6
CONTINUOUS
  0
LAYER
  2
CABE큐_-_DIAGONAIS_HORIZON
 70
     0
 62
    12
  6
CONTINUOUS
  0
LAYER
  2
CABE큐_-_DIAGONAIS_VERTICA
 70
     0
 62
    10
  6
CONTINUOUS
  0
LAYER
  2
BRA큞_-_MONTANTES
 70
     0
 62
   121
  6
CONTINUOUS
  0
LAYER
  2
BRA큞_-_DIAGONAIS_VERTICAI
 70
     0
 62
   135
  6
CONTINUOUS
  0
LAYER
  2
BRA큞_-_DIAGONAIS_HORIZONT
 70
     0
 62
   103
  6
CONTINUOUS
  0
LAYER
  2
PARA_RAIOS_-_MONTANTES
 70
     0
 62
    61
  6
CONTINUOUS
  0
LAYER
  2
PARA_RAIOS_-_DIAGONAIS_VER
 70
     0
 62
    62
  6
CONTINUOUS
  0
ENDTAB
  0
TABLE
  2
STYLE
 70
     2
  0
STYLE
  2
STANDARD
 70
     0
 40
0.0
 41
1.0
 50
0.0
 71
     0
 42
2.5
  3
txt
  4

  0
STYLE
  2
ANNOTATIVE
 70
     0
 40
0.0
 41
1.0
 50
0.0
 71
     0
 42
2.5
  3
txt
  4

  0
ENDTAB
  0
TABLE
  2
VIEW
 70
     0
  0
ENDTAB
  0
TABLE
  2
UCS
 70
     0
  0
ENDTAB
  0
TABLE
  2
APPID
 70
    12
  0
APPID
  2
ACAD
 70
     0
  0
APPID
  2
ACAD_PSEXT
 70
     0
  0
APPID
  2
ACADANNOPO
 70
     0
  0
APPID
  2
ACADANNOTATIVE
 70
     0
  0
APPID
  2
ACAD_DSTYLE_DIMJAG
 70
     0
  0
APPID
  2
ACAD_DSTYLE_DIMTALN
 70
     0
  0
APPID
  2
ACAD_MLEADERVER
 70
     0
  0
APPID
  2
ACAD_NAV_VCDISPLAY
 70
     0
  0
APPID
  2
ACAECLAYERSTANDARD
 70
     0
  0
APPID
  2
ACCMTRANSPARENCY
 70
     0
  0
APPID
  2
ACAD_EXEMPT_FROM_CAD_STANDARDS
 70
     0
  0
APPID
  2
ACAD_TC
 70
     0
  0
ENDTAB
  0
TABLE
  2
DIMSTYLE
 70
     3
  0
DIMSTYLE
  2
STANDARD
 70
     0
  3

  4

  5

  6

  7

 40
1.0
 41
0.18
 42
0.0625
 43
0.38
 44
0.18
 45
0.0
 46
0.0
 47
0.0
 48
0.0
140
0.18
141
0.09
142
0.0
143
25.3999999999999986
144
1.0
145
0.0
146
1.0
147
0.09
 71
     0
 72
     0
 73
     1
 74
     1
 75
     0
 76
     0
 77
     0
 78
     0
170
     0
171
     2
172
     0
173
     0
174
     0
175
     0
176
     0
177
     0
178
     0
  0
DIMSTYLE
  2
ANNOTATIVE
 70
     0
  3

  4

  5

  6

  7

 40
0.0
 41
2.5
 42
0.625
 43
3.75
 44
1.25
 45
0.0
 46
0.0
 47
0.0
 48
0.0
140
2.5
141
2.5
142
0.0
143
0.03937007874016
144
1.0
145
0.0
146
1.0
147
0.625
 71
     0
 72
     0
 73
     0
 74
     0
 75
     0
 76
     0
 77
     1
 78
     8
170
     0
171
     3
172
     1
173
     0
174
     0
175
     0
176
     0
177
     0
178
     0
  0
DIMSTYLE
  2
ISO-25
 70
     0
  3

  4

  5

  6

  7

 40
1.0
 41
2.5
 42
0.625
 43
3.75
 44
1.25
 45
0.0
 46
0.0
 47
0.0
 48
0.0
140
2.5
141
2.5
142
0.0
143
0.03937007874016
144
1.0
145
0.0
146
1.0
147
0.625
 71
     0
 72
     0
 73
     0
 74
     0
 75
     0
 76
     0
 77
     1
 78
     8
170
     0
171
     3
172
     1
173
     0
174
     0
175
     0
176
     0
177
     0
178
     0
  0
ENDTAB
  0
ENDSEC
  0
SECTION
  2
BLOCKS
  0
BLOCK
  8
0
  2
$MODEL_SPACE
 70
     0
 10
0.0
 20
0.0
 30
0.0
  3
$MODEL_SPACE
  1

  0
ENDBLK
  5
21
  8
0
  0
BLOCK
 67
     1
  8
0
  2
$PAPER_SPACE
 70
     0
 10
0.0
 20
0.0
 30
0.0
  3
$PAPER_SPACE
  1

  0
ENDBLK
  5
D5
 67
     1
  8
0
  0
ENDSEC
  0
SECTION
  2
ENTITIES
  0
LINE
  5
D01
  8
CABE큐_-_DIAGONAIS_HORIZON
 10
2275.3420667881559893
 20
1395.2866591039819468
 30
35.9999999999999218
 11
2275.3420667881559893
 21
1395.8866591039809464
 31
36.0000000000000711
210
1.0
220
0.0000000000000008
230
-0.0000000000000008
  0
LINE
  5
D02
  8
CABE큐_-_DIAGONAIS_HORIZON
 10
2273.6420667881561712
 20
1395.2866591039819468
 30
35.9999999999999218
 11
2273.6420667881561712
 21
1396.4866591039819923
 31
35.9999999999999218
210
1.0
220
0.0000000000000008
230
-0.0000000000000008
  0
LINE
  5
D05
  8
CABE큐_-_DIAGONAIS_HORIZON
 10
2276.8420667881559893
 20
1395.8866591039820833
 30
35.9999999999996803
 11
2277.5920667881559893
 21
1396.4866591039819923
 31
35.9999999999997371
  0
LINE
  5
D06
  8
CABE큐_-_DIAGONAIS_HORIZON
 10
2277.5920667881559893
 20
1396.4866591039819923
 30
35.9999999999997371
 11
2278.3420667881550798
 21
1395.8866591039820833
 31
35.999999999999801
  0
LINE
  5
D07
  8
CABE큐_-_DIAGONAIS_HORIZON
 10
2278.3420667881550798
 20
1395.8866591039820833
 30
35.999999999999801
 11
2277.5920667881559893
 21
1395.2866591039819468
 31
35.9999999999996803
  0
LINE
  5
D08
  8
CABE큐_-_DIAGONAIS_HORIZON
 10
2277.5920667881559893
 20
1395.2866591039819468
 30
35.9999999999996803
 11
2276.8420667881559893
 21
1395.8866591039820833
 31
35.9999999999996803
  0
LINE
  5
D09
  8
CABE큐_-_DIAGONAIS_HORIZON
 10
2276.0920667881559893
 20
1396.4866591039819923
 30
35.9999999999996234
 11
2276.0920667881559893
 21
1395.2866591039819468
 31
35.9999999999995666
  0
LINE
  5
D0A
  8
CABE큐_-_DIAGONAIS_HORIZON
 10
2275.3420667881559893
 20
1395.8866591039820833
 30
35.9999999999995666
 11
2276.0920667881559893
 21
1396.4866591039819923
 31
35.9999999999996234
  0
LINE
  5
D0B
  8
CABE큐_-_DIAGONAIS_HORIZON
 10
2276.0920667881559893
 20
1396.4866591039819923
 30
35.9999999999996234
 11
2276.8420667881559893
 21
1395.8866591039820833
 31
35.9999999999996803
  0
LINE
  5
D0C
  8
CABE큐_-_DIAGONAIS_HORIZON
 10
2276.8420667881559893
 20
1395.8866591039820833
 30
35.9999999999996803
 11
2276.0920667881559893
 21
1395.2866591039819468
 31
35.9999999999995666
  0
LINE
  5
D0D
  8
CABE큐_-_DIAGONAIS_HORIZON
 10
2276.0920667881559893
 20
1395.2866591039819468
 30
35.9999999999995666
 11
2275.3420667881559893
 21
1395.8866591039820833
 31
35.9999999999995666
  0
LINE
  5
D0E
  8
CABE큐_-_DIAGONAIS_HORIZON
 10
2275.3420667881559893
 20
1396.4866591039819923
 30
36.0000000000000213
 11
2274.4920667881569898
 21
1395.8866591039820833
 31
36.0000000000001776
  0
LINE
  5
D0F
  8
CABE큐_-_DIAGONAIS_HORIZON
 10
2275.3420667881559893
 20
1395.2866591039819468
 30
36.0000000000000213
 11
2274.4920667881569898
 21
1395.8866591039809464
 31
36.0000000000001776
  0
LINE
  5
D12
  8
CABE큐_-_DIAGONAIS_HORIZON
 10
2274.4920667881551708
 20
1395.2866591039819468
 30
35.9999999999999076
 11
2274.4920667881569898
 21
1395.8866591039820833
 31
36.0000000000001421
  0
LINE
  5
D13
  8
CABE큐_-_MONTANTES
 10
2274.5605274492259014
 20
1395.2866591039819468
 30
37.2572589365393227
 11
2276.0920667881559893
 21
1395.2866591039819468
 31
36.9999999999999218
210
0.0000000000000005
220
-1.0
230
-0.0000000000000002
  0
LINE
  5
D14
  8
CABE큐_-_DIAGONAIS_VERTICA
 10
2273.2003628726279203
 20
1395.2866591039819468
 30
37.4857313522325626
 11
2274.5605274492259014
 21
1395.2866591039819468
 31
37.2572589365394293
210
0.0000000000000005
220
-1.0
230
-0.0000000000000002
  0
LINE
  5
D16
  8
CABE큐_-_MONTANTES
 10
2276.0920667881559893
 20
1396.4866591039819923
 30
36.9999999999999218
 11
2276.8420667881568988
 21
1396.4866591039810828
 31
37.0000000000001918
210
0.0000000000000005
220
1.0
230
-0.0000000000000002
  0
LINE
  5
D17
  8
CABE큐_-_MONTANTES
 10
2274.5605274492259014
 20
1396.4866591039819923
 30
37.2572589365393227
 11
2276.0920667881559893
 21
1396.4866591039819923
 31
36.9999999999999218
210
0.0000000000000005
220
1.0
230
-0.0000000000000002
  0
LINE
  5
D18
  8
CABE큐_-_DIAGONAIS_VERTICA
 10
2273.2003628726279203
 20
1396.4866591039819923
 30
37.4857313522325626
 11
2274.5605274492259014
 21
1396.4866591039819923
 31
37.2572589365394293
210
0.0000000000000005
220
1.0
230
-0.0000000000000002
  0
LINE
  5
D1A
  8
CABE큐_-_DIAGONAIS_HORIZON
 10
2273.2003628726279203
 20
1396.4866591039819923
 30
37.4857313522325626
 11
2273.2003628726279203
 21
1395.2866591039819468
 31
37.4857313522325626
  0
LINE
  5
D1B
  8
CABE큐_-_DIAGONAIS_VERTICA
 10
2278.3420667881550798
 20
1395.2866591039819468
 30
35.9999999999999218
 11
2277.5920667881559893
 21
1395.2866591039819468
 31
36.9999999999999218
210
0.0000000000000005
220
-1.0
230
-0.0000000000000002
  0
LINE
  5
D1C
  8
CABE큐_-_DIAGONAIS_VERTICA
 10
2276.8420667881559893
 20
1395.2866591039819468
 30
35.9999999999999218
 11
2277.5920667881559893
 21
1395.2866591039819468
 31
36.9999999999999218
210
0.0000000000000005
220
-1.0
230
-0.0000000000000002
  0
LINE
  5
D1D
  8
CABE큐_-_DIAGONAIS_VERTICA
 10
2275.3420667881559893
 20
1395.2866591039819468
 30
35.9999999999999218
 11
2276.0920667881559893
 21
1395.2866591039819468
 31
36.9999999999999218
210
0.0000000000000005
220
-1.0
230
-0.0000000000000002
  0
LINE
  5
D1E
  8
CABE큐_-_DIAGONAIS_VERTICA
 10
2276.8420667881559893
 20
1395.2866591039819468
 30
35.9999999999999218
 11
2276.0920667881559893
 21
1395.2866591039819468
 31
36.9999999999999218
210
0.0000000000000005
220
-1.0
230
-0.0000000000000002
  0
LINE
  5
D1F
  8
CABE큐_-_DIAGONAIS_VERTICA
 10
2273.6420667881561712
 20
1395.2866591039819468
 30
35.9999999999999218
 11
2274.5605274492259014
 21
1395.2866591039819468
 31
37.2572589365393299
210
0.0000000000000005
220
-1.0
230
-0.0000000000000002
  0
LINE
  5
D20
  8
CABE큐_-_DIAGONAIS_VERTICA
 10
2274.5605274492259014
 20
1395.2866591039819468
 30
37.2572589365393299
 11
2275.3420667881559893
 21
1395.2866591039819468
 31
35.9999999999999218
210
0.0000000000000005
220
-1.0
230
-0.0000000000000002
  0
LINE
  5
D21
  8
CABE큐_-_DIAGONAIS_VERTICA
 10
2278.3420667881550798
 20
1396.4866591039819923
 30
35.9999999999999218
 11
2277.5920667881559893
 21
1396.4866591039819923
 31
36.9999999999999218
210
0.0000000000000005
220
1.0
230
-0.0000000000000002
  0
LINE
  5
D22
  8
CABE큐_-_DIAGONAIS_VERTICA
 10
2276.8420667881559893
 20
1396.4866591039819923
 30
35.9999999999999218
 11
2277.5920667881559893
 21
1396.4866591039819923
 31
36.9999999999999218
210
0.0000000000000005
220
1.0
230
-0.0000000000000002
  0
LINE
  5
D23
  8
CABE큐_-_DIAGONAIS_VERTICA
 10
2275.3420667881559893
 20
1396.4866591039819923
 30
35.9999999999999218
 11
2276.0920667881559893
 21
1396.4866591039819923
 31
36.9999999999999218
210
0.0000000000000005
220
1.0
230
-0.0000000000000002
  0
LINE
  5
D24
  8
CABE큐_-_DIAGONAIS_VERTICA
 10
2276.8420667881559893
 20
1396.4866591039819923
 30
35.9999999999999218
 11
2276.0920667881559893
 21
1396.4866591039819923
 31
36.9999999999999218
210
0.0000000000000005
220
1.0
230
-0.0000000000000002
  0
LINE
  5
D25
  8
CABE큐_-_DIAGONAIS_VERTICA
 10
2273.6420667881561712
 20
1396.4866591039819923
 30
35.9999999999999218
 11
2274.5605274492259014
 21
1396.4866591039819923
 31
37.2572589365393299
210
0.0000000000000005
220
1.0
230
-0.0000000000000002
  0
LINE
  5
D26
  8
CABE큐_-_DIAGONAIS_VERTICA
 10
2274.5605274492259014
 20
1396.4866591039819923
 30
37.2572589365393299
 11
2275.3420667881559893
 21
1396.4866591039819923
 31
35.9999999999999218
210
0.0000000000000005
220
1.0
230
-0.0000000000000002
  0
LINE
  5
D34
  8
CABE큐_-_MONTANTES
 10
2278.3420667881550798
 20
1394.8447538541749964
 30
27.1618950038621882
 11
2277.7920667881571717
 21
1394.8157064790789263
 31
26.5809475019312984
  0
LINE
  5
D37
  8
CABE큐_-_MONTANTES
 10
2278.3420667881550798
 20
1394.8447538541749964
 30
27.1618950038621207
 11
2277.8104269872510486
 21
1394.8841194204130716
 31
27.9492063286210808
  0
LINE
  5
D38
  8
CABE큐_-_MONTANTES
 10
2277.2420667881560803
 20
1394.7866591039819468
 30
25.9999999999997584
 11
2276.950319977242998
 21
1394.8239043653688896
 31
26.7449052277454093
  0
LINE
  5
D3B
  8
CABE큐_-_MONTANTES
 10
2278.3420667881550798
 20
1396.9285643537889428
 30
27.1618950038621207
 11
2277.8104269872510486
 21
1396.8891987875499581
 31
27.9492063286204093
  0
LINE
  5
D3C
  8
CABE큐_-_MONTANTES
 10
2277.2420667881560803
 20
1396.9866591039819923
 30
25.9999999999997584
 11
2276.950319977242998
 21
1396.9494138425950496
 31
26.7449052277456083
  0
LINE
  5
D3E
  8
CABE큐_-_MONTANTES
 10
2278.3420667881550798
 20
1396.9285643537889428
 30
27.1618950038621207
 11
2277.2420667881560803
 21
1396.9866591039819923
 31
25.9999999999999005
  0
LINE
  5
D43
  8
CABE큐_-_MONTANTES
 10
2274.6394627264457995
 20
1395.1189152416329762
 30
32.6451227530232373
 11
2274.9321054502429433
 21
1395.1887825018059175
 31
34.0424679564777435
  0
LINE
  5
D44
  8
CABE큐_-_MONTANTES
 10
2274.6394627264457995
 20
1395.1189152416329762
 30
32.6451227530232373
 11
2274.2240357740679428
 21
1395.188782501805008
 31
34.0424679564779211
  0
LINE
  5
D45
  8
CABE큐_-_MONTANTES
 10
2274.6394627264457995
 20
1396.654402966330963
 30
32.6451227530232373
 11
2274.9321054502429433
 21
1396.5845357061580216
 31
34.0424679564775303
  0
LINE
  5
D46
  8
CABE큐_-_MONTANTES
 10
2274.6394627264457995
 20
1396.654402966330963
 30
32.6451227530232373
 11
2274.2240357740679428
 21
1396.5845357061580216
 31
34.0424679564777222
  0
LINE
  5
D4E
  8
CABE큐_-_DIAGONAIS_VERTICA
 10
2277.7920667881548979
 20
1394.8157064790789263
 30
26.5809475019310106
 11
2276.950319977242998
 21
1394.8239043653688896
 31
26.7449052277451216
  0
LINE
  5
D4F
  8
CABE큐_-_DIAGONAIS_VERTICA
 10
2276.950319977242998
 20
1394.8239043653688896
 30
26.7449052277451216
 11
2277.8104269872501391
 21
1394.8841194204130716
 31
27.9492063286209316
  0
LINE
  5
D50
  8
CABE큐_-_DIAGONAIS_VERTICA
 10
2277.8104269872501391
 20
1394.8841194204130716
 30
27.9492063286209316
 11
2276.4397630581452177
 21
1394.8890835727970625
 31
28.0484893762993188
  0
LINE
  5
D51
  8
CABE큐_-_DIAGONAIS_VERTICA
 10
2276.4397630581452177
 20
1394.8890835727970625
 30
28.0484893762993188
 11
2276.8310905118978553
 21
1394.9566349371671095
 31
29.3995166637029115
  0
LINE
  5
D52
  8
CABE큐_-_DIAGONAIS_VERTICA
 10
2276.8310905118978553
 20
1394.9566349371671095
 30
29.3995166637029115
 11
2275.9109719633661371
 21
1394.9565906090610952
 31
29.3986301015877807
  0
LINE
  5
D53
  8
CABE큐_-_DIAGONAIS_VERTICA
 10
2277.7920667881548979
 20
1394.8157064790789263
 30
26.580947501931
 11
2277.8104269872501391
 21
1394.8841194204130716
 31
27.9492063286209209
  0
LINE
  5
D5C
  8
CABE큐_-_DIAGONAIS_VERTICA
 10
2277.7920667881548979
 20
1396.9576117288850128
 30
26.5809475019310106
 11
2276.950319977242998
 21
1396.9494138425950496
 31
26.7449052277451216
  0
LINE
  5
D5D
  8
CABE큐_-_DIAGONAIS_VERTICA
 10
2276.950319977242998
 20
1396.9494138425950496
 30
26.7449052277451216
 11
2277.8104269872501391
 21
1396.8891987875510949
 31
27.9492063286209316
  0
LINE
  5
D5E
  8
CABE큐_-_DIAGONAIS_VERTICA
 10
2277.8104269872501391
 20
1396.8891987875510949
 30
27.9492063286209316
 11
2276.4397630581452177
 21
1396.884234635167104
 31
28.0484893762993188
  0
LINE
  5
D5F
  8
CABE큐_-_DIAGONAIS_VERTICA
 10
2276.4397630581452177
 20
1396.884234635167104
 30
28.0484893762993188
 11
2276.8310905118978553
 21
1396.816683270797057
 31
29.3995166637029115
  0
LINE
  5
D60
  8
CABE큐_-_DIAGONAIS_VERTICA
 10
2276.8310905118978553
 20
1396.816683270797057
 30
29.3995166637029115
 11
2275.9109719633661371
 21
1396.8167275989019345
 31
29.3986301015877807
  0
LINE
  5
D61
  8
CABE큐_-_DIAGONAIS_VERTICA
 10
2277.7920667881548979
 20
1396.9576117288850128
 30
26.580947501931
 11
2277.8104269872501391
 21
1396.8891987875510949
 31
27.9492063286209209
  0
LINE
  5
D64
  8
CABE큐_-_DIAGONAIS_VERTICA
 10
2274.9321054502420338
 20
1395.1887825018059175
 30
34.042467956477509
 11
2274.0980192170882219
 21
1395.209976195480067
 31
34.4663418299532083
  0
LINE
  5
D65
  8
CABE큐_-_DIAGONAIS_VERTICA
 10
2274.0980192170882219
 20
1395.209976195480067
 30
34.4663418299532083
 11
2275.3420667881541704
 21
1395.2866591039819468
 31
35.9999999999945928
  0
LINE
  5
D68
  8
CABE큐_-_DIAGONAIS_VERTICA
 10
2274.9321054502420338
 20
1396.5845357061580216
 30
34.042467956477509
 11
2274.0980192170882219
 21
1396.5633420124840995
 31
34.4663418299532083
  0
LINE
  5
D69
  8
CABE큐_-_DIAGONAIS_VERTICA
 10
2274.0980192170882219
 20
1396.5633420124840995
 30
34.4663418299532083
 11
2275.3420667881541704
 21
1396.4866591039819923
 31
35.9999999999945928
  0
LINE
  5
D6E
  8
CABE큐_-_DIAGONAIS_VERTICA
 10
2275.9109719633661371
 20
1394.9565906090610952
 30
29.3986301015877807
 11
2275.9356971630058979
 21
1395.0229348381990349
 31
30.7255146843494416
  0
LINE
  5
D6F
  8
CABE큐_-_DIAGONAIS_VERTICA
 10
2275.9356971630058979
 20
1395.0229348381990349
 30
30.7255146843494416
 11
2275.400415044267902
 21
1395.0217698164890407
 31
30.7022142501417683
  0
LINE
  5
D70
  8
CABE큐_-_DIAGONAIS_VERTICA
 10
2275.400415044267902
 20
1395.0217698164890407
 30
30.7022142501417683
 11
2275.0123227719600436
 21
1395.091306611139089
 31
32.0929501431412589
  0
LINE
  5
D71
  8
CABE큐_-_DIAGONAIS_VERTICA
 10
2275.0123227719600436
 20
1395.091306611139089
 30
32.0929501431412589
 11
2274.8898581251710311
 21
1395.0869490239169863
 31
32.0057983986959727
  0
LINE
  5
D76
  8
CABE큐_-_DIAGONAIS_VERTICA
 10
2275.9109719633661371
 20
1396.8167275989030713
 30
29.3986301015877807
 11
2275.9356971630058979
 21
1396.7503833697649043
 31
30.7255146843494416
  0
LINE
  5
D77
  8
CABE큐_-_DIAGONAIS_VERTICA
 10
2275.9356971630058979
 20
1396.7503833697649043
 30
30.7255146843494416
 11
2275.400415044267902
 21
1396.7515483914748984
 31
30.7022142501417683
  0
LINE
  5
D78
  8
CABE큐_-_DIAGONAIS_VERTICA
 10
2275.400415044267902
 20
1396.7515483914748984
 30
30.7022142501417683
 11
2275.0123227719600436
 21
1396.6820115968250775
 31
32.0929501431412589
  0
LINE
  5
D79
  8
CABE큐_-_DIAGONAIS_VERTICA
 10
2275.0123227719600436
 20
1396.6820115968250775
 30
32.0929501431412589
 11
2274.8898581251710311
 21
1396.6863691840480897
 31
32.0057983986959727
  0
LINE
  5
D92
  8
CABE큐_-_DIAGONAIS_VERTICA
 10
2277.2420667881560803
 20
1396.9866591039819923
 30
25.9999999999997584
 11
2276.950319977242998
 21
1395.8866591039800369
 31
26.7449052277460915
  0
LINE
  5
D93
  8
CABE큐_-_DIAGONAIS_VERTICA
 10
2276.6776828282481802
 20
1394.8587100307559012
 30
27.4410185354743312
 11
2276.4397630581470366
 21
1395.8866591039820833
 31
28.04848937629923
  0
LINE
  5
D94
  8
CABE큐_-_DIAGONAIS_VERTICA
 10
2276.2154997403108609
 20
1396.8556045162420105
 30
28.6210917547927011
 11
2275.9109719633670466
 21
1395.8866591039820833
 31
29.3986301015881217
  0
LINE
  5
D95
  8
CABE큐_-_DIAGONAIS_VERTICA
 10
2275.6299386077380404
 20
1394.9924681590368891
 30
30.1161811011110885
 11
2275.400415044267902
 21
1395.8866591039820833
 31
30.7022142501419886
  0
LINE
  5
D96
  8
CABE큐_-_DIAGONAIS_VERTICA
 10
2275.1854566669549058
 20
1396.7241061687980164
 30
31.2510587036842011
 11
2274.9006051797277905
 21
1395.8866591039820833
 31
31.9783583828231883
  0
LINE
  5
D97
  8
CABE큐_-_DIAGONAIS_VERTICA
 10
2274.6394627264457995
 20
1395.1189152416329762
 30
32.6451227530232586
 11
2274.421847388326114
 21
1395.8866591039820833
 31
33.3771016176078916
  0
LINE
  5
D98
  8
CABE큐_-_DIAGONAIS_VERTICA
 10
2274.2240357740679428
 20
1396.5845357061580216
 30
34.0424679564776227
 11
2274.0980192170882219
 21
1395.8866591039820833
 31
34.4663418299532722
  0
LINE
  5
D99
  8
CABE큐_-_DIAGONAIS_VERTICA
 10
2273.9794310195388789
 20
1395.2299205741580863
 30
34.8652294035285379
 11
2273.8031333378198724
 21
1395.8866591039820833
 31
35.4582306965808272
  0
LINE
  5
D9A
  8
CABE큐_-_DIAGONAIS_VERTICA
 10
2277.2420667881560803
 20
1394.7866591039819468
 30
25.9999999999997691
 11
2276.9503199772439075
 21
1395.8866591039820833
 31
26.7449052277452601
  0
LINE
  5
D9B
  8
CABE큐_-_DIAGONAIS_VERTICA
 10
2276.6776828282481802
 20
1396.9146081772080379
 30
27.4410185354743597
 11
2276.4397630581470366
 21
1395.8866591039820833
 31
28.0484893762993188
  0
LINE
  5
D9C
  8
CABE큐_-_DIAGONAIS_VERTICA
 10
2276.2154997403108609
 20
1394.9177136917219286
 30
28.6210917547926691
 11
2275.9109719633670466
 21
1395.8866591039820833
 31
29.3986301015877416
  0
LINE
  5
D9D
  8
CABE큐_-_DIAGONAIS_VERTICA
 10
2275.6299386077380404
 20
1396.7808500489259131
 30
30.1161811011111702
 11
2275.400415044267902
 21
1395.8866591039820833
 31
30.70221425014131
  0
LINE
  5
D9E
  8
CABE큐_-_DIAGONAIS_VERTICA
 10
2275.1854566669549058
 20
1395.0492120391659228
 30
31.2510587036841088
 11
2274.9006051797277905
 21
1395.8866591039820833
 31
31.9783583828231883
  0
LINE
  5
D9F
  8
CABE큐_-_DIAGONAIS_VERTICA
 10
2274.6394627264457995
 20
1396.654402966330963
 30
32.6451227530232373
 11
2274.421847388326114
 21
1395.8866591039820833
 31
33.3771016176079129
  0
LINE
  5
DA0
  8
CABE큐_-_DIAGONAIS_VERTICA
 10
2274.2240357740679428
 20
1395.1887825018059175
 30
34.0424679564776014
 11
2274.0980192170882219
 21
1395.8866591039820833
 31
34.4663418299533504
  0
LINE
  5
DA1
  8
CABE큐_-_DIAGONAIS_VERTICA
 10
2273.9794310195388789
 20
1396.5433976338049433
 30
34.8652294035285806
 11
2273.8031333378198724
 21
1395.8866591039820833
 31
35.4582306965807277
  0
LINE
  5
DA2
  8
CABE큐_-_DIAGONAIS_VERTICA
 10
2277.8104269872501391
 20
1394.8841194204130716
 30
27.9492063286210488
 11
2277.302384947702194
 21
1395.8866591039820833
 31
28.7015714647696996
  0
LINE
  5
DA3
  8
CABE큐_-_DIAGONAIS_VERTICA
 10
2277.8104269872501391
 20
1396.8891987875510949
 30
27.9492063286210488
 11
2277.302384947702194
 21
1395.8866591039820833
 31
28.7015714647696392
  0
LINE
  5
DA4
  8
CABE큐_-_DIAGONAIS_VERTICA
 10
2276.8310905118992196
 20
1394.9566349371671095
 30
29.3995166637030287
 11
2276.3668462298451232
 21
1395.8866591039820833
 31
30.0870212111296311
  0
LINE
  5
DA5
  8
CABE큐_-_DIAGONAIS_VERTICA
 10
2276.8310905118978553
 20
1396.816683270797057
 30
29.3995166637030216
 11
2276.3668462298451232
 21
1395.8866591039820833
 31
30.0870212111298301
  0
LINE
  5
DA6
  8
CABE큐_-_DIAGONAIS_VERTICA
 10
2275.9356971630058979
 20
1395.0229348381990349
 30
30.7255146843495304
 11
2275.4549834987328722
 21
1395.8866591039820833
 31
31.4374089240283112
  0
LINE
  5
DA9
  8
CABE큐_-_DIAGONAIS_VERTICA
 10
2275.0123227719600436
 20
1395.091306611139089
 30
32.0929501431413797
 11
2275.4549834987328722
 21
1395.8866591039820833
 31
31.4374089240281904
  0
LINE
  5
DAA
  8
CABE큐_-_DIAGONAIS_VERTICA
 10
2277.8104269872510486
 20
1396.8891987875510949
 30
27.9492063286209103
 11
2278.0711285542479345
 21
1395.8866591039820833
 31
27.5631304634762699
  0
LINE
  5
DAB
  8
CABE큐_-_DIAGONAIS_VERTICA
 10
2277.8104269872510486
 20
1394.8841194204130716
 30
27.9492063286209103
 11
2278.0711285542479345
 21
1395.8866591039820833
 31
27.5631304634759999
  0
LINE
  5
DAE
  8
CABE큐_-_DIAGONAIS_VERTICA
 10
2273.6420667881561712
 20
1395.2866591039819468
 30
35.9999999999999005
 11
2273.4212148303881804
 21
1395.8866591039720788
 31
36.7428656761287371
  0
LINE
  5
DAF
  8
CABE큐_-_DIAGONAIS_VERTICA
 10
2273.6420667881561712
 20
1396.4866591039819923
 30
35.9999999999998366
 11
2273.4212148303881804
 21
1395.8866591039720788
 31
36.7428656761289716
  0
LINE
  5
DB0
  8
CABE큐_-_DIAGONAIS_HORIZON
 10
2274.5605274492259014
 20
1396.4866591039819923
 30
37.2572589365396212
 11
2274.5605274492259014
 21
1395.2866591039819468
 31
37.2572589365394293
  0
LINE
  5
DB1
  8
CABE큐_-_DIAGONAIS_VERTICA
 10
2275.3420667881559893
 20
1395.8866591039820833
 30
36.0000000000000213
 11
2274.5605274492259014
 21
1395.2866591039819468
 31
37.2572589365393299
  0
LINE
  5
DB2
  8
CABE큐_-_DIAGONAIS_VERTICA
 10
2275.3420667881559893
 20
1395.8866591039820833
 30
36.0000000000000213
 11
2274.5605274492259014
 21
1396.4866591039819923
 31
37.2572589365395714
  0
LINE
  5
DB9
  8
CABE큐_-_DIAGONAIS_HORIZON
 10
2274.5605274492259014
 20
1396.4866591039819923
 30
37.2572589365393227
 11
2275.3262971186918548
 21
1395.8866591039809464
 31
37.1286294682697999
  0
LINE
  5
DBA
  8
CABE큐_-_DIAGONAIS_HORIZON
 10
2276.0920667881559893
 20
1396.4866591039819923
 30
36.9999999999999218
 11
2275.3262971186909454
 21
1395.8866591039820833
 31
37.1286294682698994
  0
LINE
  5
DBB
  8
CABE큐_-_DIAGONAIS_HORIZON
 10
2276.8420667881550798
 20
1395.2866591039819468
 30
36.9999999999999076
 11
2276.4670667881559893
 21
1395.8866591039820833
 31
37.0000000000001634
  0
LINE
  5
DBC
  8
CABE큐_-_DIAGONAIS_HORIZON
 10
2276.8420667881559893
 20
1396.4866591039819923
 30
36.9999999999999076
 11
2276.4670667881559893
 21
1395.8866591039820833
 31
37.0000000000001634
  0
LINE
  5
DBD
  8
CABE큐_-_DIAGONAIS_HORIZON
 10
2278.3420667881550798
 20
1395.2866591039819468
 30
36.9999999999999076
 11
2277.5920667881559893
 21
1395.8866591039820833
 31
37.0000000000001208
  0
LINE
  5
DBE
  8
CABE큐_-_DIAGONAIS_HORIZON
 10
2276.8420667881550798
 20
1395.2866591039819468
 30
36.9999999999999076
 11
2277.5920667881559893
 21
1395.8866591039820833
 31
37.0000000000001208
  0
LINE
  5
1051
  8
CABE큐_-_DIAGONAIS_VERTICA
 10
2277.2420667881551708
 20
1394.7866591039819468
 30
25.9999999999997797
 11
2277.2420667881551708
 21
1394.7866591039819468
 31
25.9999999999997691
  0
LINE
  5
105F
  8
CABE큐_-_DIAGONAIS_VERTICA
 10
2277.2420667881551708
 20
1396.9866591039819923
 30
25.9999999999997797
 11
2277.2420667881551708
 21
1396.9866591039819923
 31
25.9999999999997691
  0
LINE
  5
11CA
  8
CABE큐_-_MONTANTES
 10
2277.7920667881571717
 20
1394.8157064790789263
 30
26.5809475019312984
 11
2277.2420667881551708
 21
1394.7866591039819468
 31
25.9999999999999112
  0
LINE
  5
11CC
  8
CABE큐_-_MONTANTES
 10
2276.950319977242998
 20
1394.8239043653688896
 30
26.7449052277454093
 11
2276.6776828282481802
 21
1394.8587100307559012
 31
27.4410185354741287
  0
LINE
  5
11CD
  8
CABE큐_-_MONTANTES
 10
2276.6776828282481802
 20
1394.8587100307559012
 30
27.4410185354741287
 11
2276.4397630581452177
 21
1394.8890835727970625
 31
28.0484893762994503
  0
LINE
  5
11CE
  8
CABE큐_-_MONTANTES
 10
2276.4397630581452177
 20
1394.8890835727970625
 30
28.0484893762994503
 11
2276.2154997403108609
 21
1394.9177136917210191
 31
28.621091754792289
  0
LINE
  5
11CF
  8
CABE큐_-_MONTANTES
 10
2276.2154997403108609
 20
1394.9177136917210191
 30
28.621091754792289
 11
2275.9109719633661371
 21
1394.9565906090610952
 31
29.3986301015882283
  0
LINE
  5
11D0
  8
CABE큐_-_MONTANTES
 10
2275.9109719633661371
 20
1394.9565906090610952
 30
29.3986301015882283
 11
2275.6299386077380404
 21
1394.9924681590368891
 31
30.1161811011110814
  0
LINE
  5
11D1
  8
CABE큐_-_MONTANTES
 10
2275.6299386077380404
 20
1394.9924681590368891
 30
30.1161811011110814
 11
2275.400415044267902
 21
1395.0217698164890407
 31
30.7022142501419388
  0
LINE
  5
11D2
  8
CABE큐_-_MONTANTES
 10
2275.400415044267902
 20
1395.0217698164890407
 30
30.7022142501419388
 11
2275.1854566669558153
 21
1395.0492120391659228
 31
31.2510587036844889
  0
LINE
  5
11D3
  8
CABE큐_-_MONTANTES
 10
2275.1854566669558153
 20
1395.0492120391659228
 30
31.2510587036844889
 11
2274.8898581251719406
 21
1395.0869490239169863
 31
32.0057983986967827
  0
LINE
  5
11D4
  8
CABE큐_-_MONTANTES
 10
2274.8898581251719406
 20
1395.0869490239169863
 30
32.0057983986967827
 11
2274.6394627264457995
 21
1395.1189152416329762
 31
32.6451227530232515
  0
LINE
  5
11D5
  8
CABE큐_-_MONTANTES
 10
2277.8104269872510486
 20
1394.8841194204130716
 30
27.9492063286210808
 11
2276.8310905118992196
 21
1394.9566349371671095
 31
29.3995166637039311
  0
LINE
  5
11D6
  8
CABE큐_-_MONTANTES
 10
2276.8310905118992196
 20
1394.9566349371671095
 30
29.3995166637039311
 11
2275.9356971630058979
 21
1395.0229348381990349
 31
30.7255146843499993
  0
LINE
  5
11D7
  8
CABE큐_-_MONTANTES
 10
2275.9356971630058979
 20
1395.0229348381990349
 30
30.7255146843499993
 11
2275.0123227719618626
 21
1395.091306611139089
 31
32.0929501431414366
  0
LINE
  5
11D8
  8
CABE큐_-_MONTANTES
 10
2275.0123227719618626
 20
1395.091306611139089
 30
32.0929501431414366
 11
2274.6394627264457995
 21
1395.1189152416329762
 31
32.6451227530233012
  0
LINE
  5
11D9
  8
CABE큐_-_DIAGONAIS_VERTICA
 10
2276.9503199772439075
 20
1395.8866591039820833
 30
26.7449052277452601
 11
2276.6776828282481802
 21
1396.9146081772080379
 31
27.4410185354743597
  0
LINE
  5
11DA
  8
CABE큐_-_DIAGONAIS_VERTICA
 10
2276.950319977242998
 20
1395.8866591039800369
 30
26.7449052277460915
 11
2276.6776828282481802
 21
1394.8587100307559012
 31
27.4410185354743312
  0
LINE
  5
11DB
  8
CABE큐_-_DIAGONAIS_VERTICA
 10
2276.4397630581470366
 20
1395.8866591039820833
 30
28.04848937629923
 11
2276.2154997403108609
 21
1396.8556045162420105
 31
28.6210917547927011
  0
LINE
  5
11DC
  8
CABE큐_-_DIAGONAIS_VERTICA
 10
2276.4397630581470366
 20
1395.8866591039820833
 30
28.0484893762993188
 11
2276.2154997403108609
 21
1394.9177136917219286
 31
28.6210917547926691
  0
LINE
  5
11DD
  8
CABE큐_-_DIAGONAIS_VERTICA
 10
2275.9109719633670466
 20
1395.8866591039820833
 30
29.3986301015877416
 11
2275.6299386077380404
 21
1396.7808500489259131
 31
30.1161811011111702
  0
LINE
  5
11DE
  8
CABE큐_-_DIAGONAIS_VERTICA
 10
2275.9109719633670466
 20
1395.8866591039820833
 30
29.3986301015881217
 11
2275.6299386077380404
 21
1394.9924681590368891
 31
30.1161811011110885
  0
LINE
  5
11DF
  8
CABE큐_-_DIAGONAIS_VERTICA
 10
2275.400415044267902
 20
1395.8866591039820833
 30
30.7022142501419886
 11
2275.1854566669549058
 21
1396.7241061687980164
 31
31.2510587036842011
  0
LINE
  5
11E0
  8
CABE큐_-_DIAGONAIS_VERTICA
 10
2275.400415044267902
 20
1395.8866591039820833
 30
30.70221425014131
 11
2275.1854566669549058
 21
1395.0492120391659228
 31
31.2510587036841088
  0
LINE
  5
11E1
  8
CABE큐_-_DIAGONAIS_VERTICA
 10
2274.9006051797277905
 20
1395.8866591039820833
 30
31.9783583828231883
 11
2274.6394627264457995
 21
1395.1189152416329762
 31
32.6451227530232586
  0
LINE
  5
11E2
  8
CABE큐_-_DIAGONAIS_VERTICA
 10
2274.9006051797277905
 20
1395.8866591039820833
 30
31.9783583828231883
 11
2274.6394627264457995
 21
1396.654402966330963
 31
32.6451227530232373
  0
LINE
  5
11E3
  8
CABE큐_-_DIAGONAIS_VERTICA
 10
2278.0711285542479345
 20
1395.8866591039820833
 30
27.5631304634759999
 11
2278.3420667881550798
 21
1396.9285643537889428
 31
27.1618950038621207
  0
LINE
  5
11E4
  8
CABE큐_-_DIAGONAIS_VERTICA
 10
2278.0711285542479345
 20
1395.8866591039820833
 30
27.5631304634762699
 11
2278.3420667881550798
 21
1394.8447538541749964
 31
27.1618950038625506
  0
LINE
  5
11E5
  8
CABE큐_-_DIAGONAIS_VERTICA
 10
2277.302384947702194
 20
1395.8866591039820833
 30
28.7015714647696996
 11
2276.8310905118978553
 21
1396.816683270797057
 31
29.3995166637030216
  0
LINE
  5
11E6
  8
CABE큐_-_DIAGONAIS_VERTICA
 10
2277.302384947702194
 20
1395.8866591039820833
 30
28.7015714647696392
 11
2276.8310905118992196
 21
1394.9566349371671095
 31
29.3995166637030287
  0
LINE
  5
11E7
  8
CABE큐_-_DIAGONAIS_VERTICA
 10
2276.3668462298451232
 20
1395.8866591039820833
 30
30.0870212111298301
 11
2275.9356971630058979
 21
1395.0229348381990349
 31
30.7255146843495304
  0
LINE
  5
11E8
  8
CABE큐_-_DIAGONAIS_VERTICA
 10
2276.3668462298451232
 20
1395.8866591039820833
 30
30.0870212111296311
 11
2275.9356971630058979
 21
1396.7503833697639948
 31
30.7255146843495517
  0
LINE
  5
11E9
  8
CABE큐_-_DIAGONAIS_VERTICA
 10
2275.4549834987328722
 20
1395.8866591039820833
 30
31.4374089240281904
 11
2275.9356971630058979
 21
1396.7503833697639948
 31
30.7255146843497009
  0
LINE
  5
11EA
  8
CABE큐_-_DIAGONAIS_VERTICA
 10
2275.4549834987328722
 20
1395.8866591039820833
 30
31.4374089240283112
 11
2275.0123227719600436
 21
1396.6820115968250775
 31
32.0929501431421897
  0
LINE
  5
11F4
  8
CABE큐_-_DIAGONAIS_VERTICA
 10
2275.0123227719600436
 20
1395.091306611139089
 30
32.0929501431411168
 11
2274.8225998763127791
 21
1395.8866591039829927
 31
32.3739129003574533
  0
LINE
  5
11F5
  8
CABE큐_-_DIAGONAIS_VERTICA
 10
2275.0123227719591341
 20
1396.6820115968250775
 30
32.0929501431425734
 11
2274.8225998763127791
 21
1395.8866591039829927
 31
32.3739129003575528
  0
LINE
  5
11F6
  8
CABE큐_-_DIAGONAIS_VERTICA
 10
2274.8225998763127791
 20
1395.8866591039829927
 30
32.3739129003575528
 11
2274.6394627264457995
 21
1395.1189152416329762
 31
32.6451227530231591
  0
LINE
  5
11F7
  8
CABE큐_-_DIAGONAIS_VERTICA
 10
2274.8225998763127791
 20
1395.8866591039829927
 30
32.3739129003574533
 11
2274.6394627264457995
 21
1396.654402966330963
 31
32.6451227530229389
  0
LINE
  5
1206
  8
CABE큐_-_MONTANTES
 10
2274.9321054502429433
 20
1395.1887825018059175
 30
34.0424679564777435
 11
2275.3420667881559893
 21
1395.2866591039819468
 31
36.0000000000000213
  0
LINE
  5
1207
  8
CABE큐_-_MONTANTES
 10
2274.2240357740679428
 20
1395.188782501805008
 30
34.0424679564779211
 11
2274.0980192170891314
 21
1395.2099761954789301
 31
34.4663418299534996
  0
LINE
  5
1208
  8
CABE큐_-_MONTANTES
 10
2274.0980192170891314
 20
1395.2099761954789301
 30
34.4663418299534996
 11
2273.9794310195388789
 21
1395.2299205741580863
 31
34.8652294035292627
  0
LINE
  5
1209
  8
CABE큐_-_MONTANTES
 10
2273.9794310195388789
 20
1395.2299205741580863
 30
34.8652294035292627
 11
2273.6420667881561712
 21
1395.2866591039819468
 31
35.9999999999999005
  0
LINE
  5
120A
  8
CABE큐_-_DIAGONAIS_VERTICA
 10
2274.421847388326114
 20
1395.8866591039820833
 30
33.3771016176078916
 11
2274.2240357740679428
 21
1396.5845357061580216
 31
34.0424679564776227
  0
LINE
  5
120B
  8
CABE큐_-_DIAGONAIS_VERTICA
 10
2274.421847388326114
 20
1395.8866591039820833
 30
33.3771016176079982
 11
2274.2240357740679428
 21
1395.1887825018059175
 31
34.0424679564776014
  0
LINE
  5
120C
  8
CABE큐_-_DIAGONAIS_VERTICA
 10
2274.0980192170882219
 20
1395.8866591039820833
 30
34.4663418299533504
 11
2273.9794310195388789
 21
1396.5433976338049433
 31
34.8652294035285806
  0
LINE
  5
120D
  8
CABE큐_-_DIAGONAIS_VERTICA
 10
2274.0980192170882219
 20
1395.8866591039820833
 30
34.4663418299532722
 11
2273.9794310195388789
 21
1395.2299205741580863
 31
34.8652294035285379
  0
LINE
  5
120E
  8
CABE큐_-_DIAGONAIS_VERTICA
 10
2273.8031333378198724
 20
1395.8866591039820833
 30
35.4582306965808272
 11
2273.6420667881561712
 21
1396.4866591039819923
 31
35.9999999999999005
  0
LINE
  5
120F
  8
CABE큐_-_DIAGONAIS_VERTICA
 10
2273.8031333378198724
 20
1395.8866591039820833
 30
35.4582306965807277
 11
2273.6420667881561712
 21
1395.2866591039819468
 31
35.9999999999999005
  0
LINE
  5
1210
  8
CABE큐_-_MONTANTES
 10
2274.2240357740679428
 20
1396.5845357061580216
 30
34.0424679564777222
 11
2274.0980192170882219
 21
1396.5633420124829627
 31
34.466341829953457
  0
LINE
  5
1211
  8
CABE큐_-_MONTANTES
 10
2274.0980192170882219
 20
1396.5633420124829627
 30
34.466341829953457
 11
2273.9794310195388789
 21
1396.5433976338049433
 31
34.8652294035291632
  0
LINE
  5
1212
  8
CABE큐_-_MONTANTES
 10
2273.9794310195388789
 20
1396.5433976338049433
 30
34.8652294035291632
 11
2273.6420667881561712
 21
1396.4866591039819923
 31
35.9999999999999005
  0
LINE
  5
1213
  8
CABE큐_-_MONTANTES
 10
2274.9321054502429433
 20
1396.5845357061580216
 30
34.0424679564775303
 11
2275.3420667881559893
 21
1396.4866591039819923
 31
36.0000000000000213
  0
LINE
  5
121E
  8
CABE큐_-_DIAGONAIS_VERTICA
 10
2273.4212148303881804
 20
1395.8866591039720788
 30
36.7428656761287371
 11
2273.2003628726160969
 21
1396.4866591039719879
 31
37.48573135226939
  0
LINE
  5
121F
  8
CABE큐_-_DIAGONAIS_VERTICA
 10
2273.4212148303881804
 20
1395.8866591039720788
 30
36.7428656761289716
 11
2273.2003628726270108
 21
1395.2866591039819468
 31
37.4857313522324418
  0
LINE
  5
1220
  8
CABE큐_-_MONTANTES
 10
2276.8420667881559893
 20
1395.2866591039819468
 30
37.000000000000199
 11
2276.0920667881559893
 21
1395.2866591039819468
 31
36.9999999999999218
210
-0.0000000000001506
220
-1.0
230
-0.0000000000000002
  0
LINE
  5
1221
  8
CABE큐_-_MONTANTES
 10
2278.3420667881568988
 20
1395.2866591039810373
 30
37.0000000000003979
 11
2277.5920667881568988
 21
1395.2866591039819468
 31
37.0000000000003624
210
-0.0000000000001506
220
-1.0
230
-0.0000000000000002
  0
LINE
  5
1222
  8
CABE큐_-_MONTANTES
 10
2276.8420667881568988
 20
1396.4866591039810828
 30
37.0000000000001918
 11
2277.5920667881568988
 21
1396.4866591039810828
 31
37.0000000000003126
210
0.0000000000000005
220
1.0
230
-0.0000000000000002
  0
LINE
  5
1224
  8
CABE큐_-_DIAGONAIS_HORIZON
 10
2275.3262971186909454
 20
1395.8866591039820833
 30
37.1286294682698994
 11
2274.5605274492259014
 21
1395.2866591039819468
 31
37.2572589365393227
  0
LINE
  5
1225
  8
CABE큐_-_DIAGONAIS_HORIZON
 10
2275.3262971186918548
 20
1395.8866591039809464
 30
37.1286294682697999
 11
2276.0920667881559893
 21
1395.2866591039819468
 31
36.9999999999999218
  0
LINE
  5
1226
  8
CABE큐_-_DIAGONAIS_HORIZON
 10
2276.4670667881559893
 20
1395.8866591039820833
 30
37.0000000000001634
 11
2276.0920667881559893
 21
1396.4866591039819923
 31
36.9999999999999218
  0
LINE
  5
1227
  8
CABE큐_-_DIAGONAIS_HORIZON
 10
2276.4670667881559893
 20
1395.8866591039820833
 30
37.0000000000001634
 11
2276.0920667881550798
 21
1395.2866591039819468
 31
36.9999999999999076
  0
LINE
  5
1228
  8
CABE큐_-_DIAGONAIS_HORIZON
 10
2277.5920667881559893
 20
1395.8866591039820833
 30
37.0000000000001208
 11
2276.8420667881559893
 21
1396.4866591039819923
 31
36.9999999999999076
  0
LINE
  5
1229
  8
CABE큐_-_DIAGONAIS_HORIZON
 10
2277.5920667881559893
 20
1395.8866591039820833
 30
37.0000000000001208
 11
2278.3420667881550798
 21
1396.4866591039819923
 31
36.9999999999999218
  0
LINE
  5
122A
  8
CABE큐_-_DIAGONAIS_HORIZON
 10
2275.3420667881559893
 20
1395.8866591039809464
 30
36.0000000000000711
 11
2275.3420667881559893
 21
1396.4866591039819923
 31
35.9999999999999218
210
1.0
220
0.0000000000000008
230
-0.0000000000000008
  0
LINE
  5
122B
  8
CABE큐_-_DIAGONAIS_HORIZON
 10
2274.4920667881569898
 20
1395.8866591039820833
 30
36.0000000000001776
 11
2273.6420667881561712
 21
1395.2866591039819468
 31
35.9999999999999076
  0
LINE
  5
122C
  8
CABE큐_-_DIAGONAIS_HORIZON
 10
2274.4920667881569898
 20
1395.8866591039809464
 30
36.0000000000001776
 11
2273.6420667881561712
 21
1396.4866591039819923
 31
35.9999999999999005
  0
LINE
  5
122D
  8
CABE큐_-_DIAGONAIS_HORIZON
 10
2274.4920667881569898
 20
1395.8866591039820833
 30
36.0000000000001421
 11
2274.4920667881551708
 21
1396.4866591039819923
 31
35.9999999999999005
  0
LINE
  5
1233
  8
CABE큐_-_MONTANTES
 10
2277.5920667881568988
 20
1396.4866591039810828
 30
37.0000000000003126
 11
2278.3420667881568988
 21
1396.4866591039810828
 31
37.0000000000003979
210
0.0000000000000005
220
1.0
230
-0.0000000000000002
  0
LINE
  5
1234
  8
CABE큐_-_MONTANTES
 10
2277.5920667881568988
 20
1395.2866591039819468
 30
37.0000000000003624
 11
2276.8420667881559893
 21
1395.2866591039819468
 31
37.000000000000199
210
-0.0000000000001506
220
-1.0
230
-0.0000000000000002
  0
LINE
  5
12EE
  8
CABE큐_-_MONTANTES
 10
2277.8104269872510486
 20
1396.8891987875499581
 30
27.9492063286204093
 11
2276.8310905118992196
 21
1396.8166832707959202
 31
29.399516663702471
  0
LINE
  5
12EF
  8
CABE큐_-_MONTANTES
 10
2276.8310905118992196
 20
1396.8166832707959202
 30
29.399516663702471
 11
2275.9356971630058979
 21
1396.7503833697639948
 31
30.7255146843489584
  0
LINE
  5
12F0
  8
CABE큐_-_MONTANTES
 10
2275.9356971630058979
 20
1396.7503833697639948
 30
30.7255146843489584
 11
2275.0123227719591341
 21
1396.6820115968250775
 31
32.0929501431427866
  0
LINE
  5
12F1
  8
CABE큐_-_MONTANTES
 10
2275.0123227719591341
 20
1396.6820115968250775
 30
32.0929501431427866
 11
2274.6394627264457995
 21
1396.654402966330963
 31
32.6451227530233012
  0
LINE
  5
12F2
  8
CABE큐_-_MONTANTES
 10
2276.950319977242998
 20
1396.9494138425950496
 30
26.7449052277456083
 11
2276.6776828282481802
 21
1396.9146081772089474
 31
27.4410185354744307
  0
LINE
  5
12F3
  8
CABE큐_-_MONTANTES
 10
2276.6776828282481802
 20
1396.9146081772089474
 30
27.4410185354744307
 11
2276.4397630581461272
 21
1396.884234635167104
 31
28.0484893762993188
  0
LINE
  5
12F4
  8
CABE큐_-_MONTANTES
 10
2276.4397630581461272
 20
1396.884234635167104
 30
28.0484893762993188
 11
2276.2154997403108609
 21
1396.85560451624292
 31
28.6210917547920616
  0
LINE
  5
12F5
  8
CABE큐_-_MONTANTES
 10
2276.2154997403108609
 20
1396.85560451624292
 30
28.6210917547920616
 11
2275.9109719633661371
 21
1396.8167275989030713
 31
29.3986301015857094
  0
LINE
  5
12F6
  8
CABE큐_-_MONTANTES
 10
2275.9109719633661371
 20
1396.8167275989030713
 30
29.3986301015857094
 11
2275.629938607737131
 21
1396.7808500489259131
 31
30.1161811011102891
  0
LINE
  5
12F7
  8
CABE큐_-_MONTANTES
 10
2275.629938607737131
 20
1396.7808500489259131
 30
30.1161811011102891
 11
2275.4004150442701757
 21
1396.7515483914748984
 31
30.7022142501348689
  0
LINE
  5
12F8
  8
CABE큐_-_MONTANTES
 10
2275.4004150442701757
 20
1396.7515483914748984
 30
30.7022142501348689
 11
2275.1854566669549058
 21
1396.7241061687980164
 31
31.2510587036835012
  0
LINE
  5
12F9
  8
CABE큐_-_MONTANTES
 10
2275.1854566669549058
 20
1396.7241061687980164
 30
31.2510587036835012
 11
2274.8898581251701216
 21
1396.6863691840469528
 31
32.0057983986951768
  0
LINE
  5
12FA
  8
CABE큐_-_MONTANTES
 10
2274.8898581251701216
 20
1396.6863691840469528
 30
32.0057983986951768
 11
2274.6394627264457995
 21
1396.654402966330963
 31
32.6451227530232515
  0
LINE
  5
12FC
  8
CABE큐_-_DIAGONAIS_HORIZON
 10
2281.3420667881550798
 20
1395.2866591039819468
 30
35.9999999999999218
 11
2281.3420667881550798
 21
1395.8866591039809464
 31
36.0000000000000711
210
-1.0
220
0.0000000000000008
230
-0.0000000000000008
  0
LINE
  5
12FD
  8
CABE큐_-_DIAGONAIS_HORIZON
 10
2281.3420667881550798
 20
1395.8866591039809464
 30
36.0000000000000711
 11
2281.3420667881550798
 21
1396.4866591039819923
 31
35.9999999999999218
210
-1.0
220
0.0000000000000008
230
-0.0000000000000008
  0
LINE
  5
12FE
  8
CABE큐_-_DIAGONAIS_HORIZON
 10
2283.0420667881558074
 20
1395.2866591039819468
 30
35.9999999999999218
 11
2283.0420667881558074
 21
1396.4866591039819923
 31
35.9999999999999218
210
-1.0
220
0.0000000000000008
230
-0.0000000000000008
  0
LINE
  5
12FF
  8
CABE큐_-_DIAGONAIS_HORIZON
 10
2279.8420667881550798
 20
1395.8866591039820833
 30
35.9999999999996803
 11
2279.0920667881550798
 21
1396.4866591039819923
 31
35.9999999999997371
  0
LINE
  5
1300
  8
CABE큐_-_DIAGONAIS_HORIZON
 10
2279.0920667881550798
 20
1396.4866591039819923
 30
35.9999999999997371
 11
2278.3420667881550798
 21
1395.8866591039820833
 31
35.999999999999801
  0
LINE
  5
1301
  8
CABE큐_-_DIAGONAIS_HORIZON
 10
2278.3420667881550798
 20
1395.8866591039820833
 30
35.999999999999801
 11
2279.0920667881550798
 21
1395.2866591039819468
 31
35.9999999999996803
  0
LINE
  5
1302
  8
CABE큐_-_DIAGONAIS_HORIZON
 10
2279.0920667881550798
 20
1395.2866591039819468
 30
35.9999999999996803
 11
2279.8420667881550798
 21
1395.8866591039820833
 31
35.9999999999996803
  0
LINE
  5
1303
  8
CABE큐_-_DIAGONAIS_HORIZON
 10
2280.5920667881550798
 20
1396.4866591039819923
 30
35.9999999999996234
 11
2280.5920667881550798
 21
1395.2866591039819468
 31
35.9999999999995666
  0
LINE
  5
1304
  8
CABE큐_-_DIAGONAIS_HORIZON
 10
2281.3420667881550798
 20
1395.8866591039820833
 30
35.9999999999995666
 11
2280.5920667881550798
 21
1396.4866591039819923
 31
35.9999999999996234
  0
LINE
  5
1305
  8
CABE큐_-_DIAGONAIS_HORIZON
 10
2280.5920667881550798
 20
1396.4866591039819923
 30
35.9999999999996234
 11
2279.8420667881550798
 21
1395.8866591039820833
 31
35.9999999999996803
  0
LINE
  5
1306
  8
CABE큐_-_DIAGONAIS_HORIZON
 10
2279.8420667881550798
 20
1395.8866591039820833
 30
35.9999999999996803
 11
2280.5920667881550798
 21
1395.2866591039819468
 31
35.9999999999995666
  0
LINE
  5
1307
  8
CABE큐_-_DIAGONAIS_HORIZON
 10
2280.5920667881550798
 20
1395.2866591039819468
 30
35.9999999999995666
 11
2281.3420667881550798
 21
1395.8866591039820833
 31
35.9999999999995666
  0
LINE
  5
1308
  8
CABE큐_-_DIAGONAIS_HORIZON
 10
2281.3420667881550798
 20
1396.4866591039819923
 30
36.0000000000000213
 11
2282.1920667881549889
 21
1395.8866591039820833
 31
36.0000000000001776
  0
LINE
  5
1309
  8
CABE큐_-_DIAGONAIS_HORIZON
 10
2282.1920667881549889
 20
1395.8866591039820833
 30
36.0000000000001776
 11
2283.0420667881558074
 21
1395.2866591039819468
 31
35.9999999999999076
  0
LINE
  5
130A
  8
CABE큐_-_DIAGONAIS_HORIZON
 10
2281.3420667881550798
 20
1395.2866591039819468
 30
36.0000000000000213
 11
2282.1920667881549889
 21
1395.8866591039809464
 31
36.0000000000001776
  0
LINE
  5
130B
  8
CABE큐_-_DIAGONAIS_HORIZON
 10
2282.1920667881549889
 20
1395.8866591039809464
 30
36.0000000000001776
 11
2283.0420667881558074
 21
1396.4866591039819923
 31
35.9999999999999005
  0
LINE
  5
130C
  8
CABE큐_-_DIAGONAIS_HORIZON
 10
2282.1920667881549889
 20
1395.2866591039819468
 30
35.9999999999999076
 11
2282.1920667881549889
 21
1395.8866591039820833
 31
36.0000000000001421
  0
LINE
  5
130D
  8
CABE큐_-_DIAGONAIS_HORIZON
 10
2282.1920667881549889
 20
1395.8866591039820833
 30
36.0000000000001421
 11
2282.1920667881549889
 21
1396.4866591039819923
 31
35.9999999999999005
  0
LINE
  5
130E
  8
CABE큐_-_MONTANTES
 10
2282.1236061270860773
 20
1395.2866591039819468
 30
37.2572589365393227
 11
2280.5920667881550798
 21
1395.2866591039819468
 31
36.9999999999999218
210
-0.0000000000000005
220
-1.0
230
-0.0000000000000002
  0
LINE
  5
130F
  8
CABE큐_-_DIAGONAIS_VERTICA
 10
2283.4837707036840584
 20
1395.2866591039819468
 30
37.4857313522325626
 11
2282.1236061270851678
 21
1395.2866591039819468
 31
37.2572589365394293
210
-0.0000000000000005
220
-1.0
230
-0.0000000000000002
  0
LINE
  5
1310
  8
CABE큐_-_MONTANTES
 10
2280.5920667881550798
 20
1396.4866591039819923
 30
36.9999999999999218
 11
2279.8420667881550798
 21
1396.4866591039810828
 31
37.0000000000001918
210
-0.0000000000000005
220
1.0
230
-0.0000000000000002
  0
LINE
  5
1311
  8
CABE큐_-_MONTANTES
 10
2279.8420667881550798
 20
1396.4866591039810828
 30
37.0000000000001918
 11
2279.0920667881550798
 21
1396.4866591039810828
 31
37.0000000000003126
210
-0.0000000000000005
220
1.0
230
-0.0000000000000002
  0
LINE
  5
1312
  8
CABE큐_-_MONTANTES
 10
2279.0920667881550798
 20
1396.4866591039810828
 30
37.0000000000003126
 11
2278.3420667881550798
 21
1396.4866591039810828
 31
37.0000000000003979
210
-0.0000000000000005
220
1.0
230
-0.0000000000000002
  0
LINE
  5
1313
  8
CABE큐_-_MONTANTES
 10
2282.1236061270860773
 20
1396.4866591039819923
 30
37.2572589365393227
 11
2280.5920667881550798
 21
1396.4866591039819923
 31
36.9999999999999218
210
-0.0000000000000005
220
1.0
230
-0.0000000000000002
  0
LINE
  5
1314
  8
CABE큐_-_DIAGONAIS_VERTICA
 10
2283.4837707036840584
 20
1396.4866591039819923
 30
37.4857313522325626
 11
2282.1236061270851678
 21
1396.4866591039819923
 31
37.2572589365394293
210
-0.0000000000000005
220
1.0
230
-0.0000000000000002
  0
LINE
  5
1315
  8
CABE큐_-_DIAGONAIS_HORIZON
 10
2283.4837707036840584
 20
1396.4866591039819923
 30
37.4857313522325626
 11
2283.4837707036840584
 21
1395.2866591039819468
 31
37.4857313522325626
  0
LINE
  5
1316
  8
CABE큐_-_DIAGONAIS_VERTICA
 10
2278.3420667881550798
 20
1395.2866591039819468
 30
35.9999999999999218
 11
2279.0920667881550798
 21
1395.2866591039819468
 31
36.9999999999999218
210
-0.0000000000000005
220
-1.0
230
-0.0000000000000002
  0
LINE
  5
1317
  8
CABE큐_-_DIAGONAIS_VERTICA
 10
2279.8420667881550798
 20
1395.2866591039819468
 30
35.9999999999999218
 11
2279.0920667881550798
 21
1395.2866591039819468
 31
36.9999999999999218
210
-0.0000000000000005
220
-1.0
230
-0.0000000000000002
  0
LINE
  5
1318
  8
CABE큐_-_DIAGONAIS_VERTICA
 10
2281.3420667881550798
 20
1395.2866591039819468
 30
35.9999999999999218
 11
2280.5920667881550798
 21
1395.2866591039819468
 31
36.9999999999999218
210
-0.0000000000000005
220
-1.0
230
-0.0000000000000002
  0
LINE
  5
1319
  8
CABE큐_-_DIAGONAIS_VERTICA
 10
2279.8420667881550798
 20
1395.2866591039819468
 30
35.9999999999999218
 11
2280.5920667881550798
 21
1395.2866591039819468
 31
36.9999999999999218
210
-0.0000000000000005
220
-1.0
230
-0.0000000000000002
  0
LINE
  5
131A
  8
CABE큐_-_DIAGONAIS_VERTICA
 10
2283.0420667881548979
 20
1395.2866591039819468
 30
35.9999999999999218
 11
2282.1236061270860773
 21
1395.2866591039819468
 31
37.2572589365393299
210
-0.0000000000000005
220
-1.0
230
-0.0000000000000002
  0
LINE
  5
131B
  8
CABE큐_-_DIAGONAIS_VERTICA
 10
2282.1236061270860773
 20
1395.2866591039819468
 30
37.2572589365393299
 11
2281.3420667881550798
 21
1395.2866591039819468
 31
35.9999999999999218
210
-0.0000000000000005
220
-1.0
230
-0.0000000000000002
  0
LINE
  5
131C
  8
CABE큐_-_DIAGONAIS_VERTICA
 10
2278.3420667881550798
 20
1396.4866591039819923
 30
35.9999999999999218
 11
2279.0920667881550798
 21
1396.4866591039819923
 31
36.9999999999999218
210
-0.0000000000000005
220
1.0
230
-0.0000000000000002
  0
LINE
  5
131D
  8
CABE큐_-_DIAGONAIS_VERTICA
 10
2279.8420667881550798
 20
1396.4866591039819923
 30
35.9999999999999218
 11
2279.0920667881550798
 21
1396.4866591039819923
 31
36.9999999999999218
210
-0.0000000000000005
220
1.0
230
-0.0000000000000002
  0
LINE
  5
131E
  8
CABE큐_-_DIAGONAIS_VERTICA
 10
2281.3420667881550798
 20
1396.4866591039819923
 30
35.9999999999999218
 11
2280.5920667881550798
 21
1396.4866591039819923
 31
36.9999999999999218
210
-0.0000000000000005
220
1.0
230
-0.0000000000000002
  0
LINE
  5
131F
  8
CABE큐_-_DIAGONAIS_VERTICA
 10
2279.8420667881550798
 20
1396.4866591039819923
 30
35.9999999999999218
 11
2280.5920667881550798
 21
1396.4866591039819923
 31
36.9999999999999218
210
-0.0000000000000005
220
1.0
230
-0.0000000000000002
  0
LINE
  5
1320
  8
CABE큐_-_DIAGONAIS_VERTICA
 10
2283.0420667881548979
 20
1396.4866591039819923
 30
35.9999999999999218
 11
2282.1236061270860773
 21
1396.4866591039819923
 31
37.2572589365393299
210
-0.0000000000000005
220
1.0
230
-0.0000000000000002
  0
LINE
  5
1321
  8
CABE큐_-_DIAGONAIS_VERTICA
 10
2282.1236061270860773
 20
1396.4866591039819923
 30
37.2572589365393299
 11
2281.3420667881550798
 21
1396.4866591039819923
 31
35.9999999999999218
210
-0.0000000000000005
220
1.0
230
-0.0000000000000002
  0
LINE
  5
1322
  8
CABE큐_-_MONTANTES
 10
2278.3420667881550798
 20
1394.8447538541749964
 30
27.1618950038621882
 11
2278.892066788154807
 21
1394.8157064790789263
 31
26.5809475019312984
  0
LINE
  5
1323
  8
CABE큐_-_MONTANTES
 10
2278.892066788154807
 20
1394.8157064790789263
 30
26.5809475019312984
 11
2279.4420667881558984
 21
1394.7866591039819468
 31
25.9999999999999112
  0
LINE
  5
1324
  8
CABE큐_-_MONTANTES
 10
2278.3420667881550798
 20
1394.8447538541749964
 30
27.1618950038621207
 11
2278.8737065890600206
 21
1394.8841194204130716
 31
27.9492063286210808
  0
LINE
  5
1325
  8
CABE큐_-_MONTANTES
 10
2278.8737065890600206
 20
1394.8841194204130716
 30
27.9492063286210808
 11
2279.8530430644118496
 21
1394.9566349371671095
 31
29.3995166637039311
  0
LINE
  5
1326
  8
CABE큐_-_MONTANTES
 10
2279.8530430644118496
 20
1394.9566349371671095
 30
29.3995166637039311
 11
2280.7484364133051713
 21
1395.0229348381990349
 31
30.7255146843499993
  0
LINE
  5
1327
  8
CABE큐_-_MONTANTES
 10
2280.7484364133051713
 20
1395.0229348381990349
 30
30.7255146843499993
 11
2281.6718108043501161
 21
1395.091306611139089
 31
32.0929501431414366
  0
LINE
  5
1328
  8
CABE큐_-_MONTANTES
 10
2281.6718108043501161
 20
1395.091306611139089
 30
32.0929501431414366
 11
2282.044670849864815
 21
1395.1189152416329762
 31
32.6451227530233012
  0
LINE
  5
1329
  8
CABE큐_-_MONTANTES
 10
2279.4420667881549889
 20
1394.7866591039819468
 30
25.9999999999997584
 11
2279.7338135990689807
 21
1394.8239043653688896
 31
26.7449052277454093
  0
LINE
  5
132A
  8
CABE큐_-_MONTANTES
 10
2279.7338135990689807
 20
1394.8239043653688896
 30
26.7449052277454093
 11
2280.006450748062889
 21
1394.8587100307559012
 31
27.4410185354741287
  0
LINE
  5
132B
  8
CABE큐_-_MONTANTES
 10
2280.006450748062889
 20
1394.8587100307559012
 30
27.4410185354741287
 11
2280.2443705181658515
 21
1394.8890835727970625
 31
28.0484893762994503
  0
LINE
  5
132C
  8
CABE큐_-_MONTANTES
 10
2280.2443705181658515
 20
1394.8890835727970625
 30
28.0484893762994503
 11
2280.4686338360002082
 21
1394.9177136917210191
 31
28.621091754792289
  0
LINE
  5
132D
  8
CABE큐_-_MONTANTES
 10
2280.4686338360002082
 20
1394.9177136917210191
 30
28.621091754792289
 11
2280.7731616129458416
 21
1394.9565906090610952
 31
29.3986301015882283
  0
LINE
  5
132E
  8
CABE큐_-_MONTANTES
 10
2280.7731616129458416
 20
1394.9565906090610952
 30
29.3986301015882283
 11
2281.0541949685730287
 21
1394.9924681590368891
 31
30.1161811011110814
  0
LINE
  5
132F
  8
CABE큐_-_MONTANTES
 10
2281.0541949685730287
 20
1394.9924681590368891
 30
30.1161811011110814
 11
2281.2837185320431672
 21
1395.0217698164890407
 31
30.7022142501419388
  0
LINE
  5
1330
  8
CABE큐_-_MONTANTES
 10
2281.2837185320431672
 20
1395.0217698164890407
 30
30.7022142501419388
 11
2281.4986769093561634
 21
1395.0492120391659228
 31
31.2510587036844889
  0
LINE
  5
1331
  8
CABE큐_-_MONTANTES
 10
2281.4986769093561634
 20
1395.0492120391659228
 30
31.2510587036844889
 11
2281.7942754511391286
 21
1395.0869490239169863
 31
32.0057983986967827
  0
LINE
  5
1332
  8
CABE큐_-_MONTANTES
 10
2281.7942754511391286
 20
1395.0869490239169863
 30
32.0057983986967827
 11
2282.044670849864815
 21
1395.1189152416329762
 31
32.6451227530232515
  0
LINE
  5
1333
  8
CABE큐_-_MONTANTES
 10
2278.3420667881550798
 20
1396.9285643537889428
 30
27.1618950038621207
 11
2278.8737065890600206
 21
1396.8891987875499581
 31
27.9492063286204093
  0
LINE
  5
1334
  8
CABE큐_-_MONTANTES
 10
2278.8737065890600206
 20
1396.8891987875499581
 30
27.9492063286204093
 11
2279.8530430644132139
 21
1396.8166832707959202
 31
29.399516663702471
  0
LINE
  5
1335
  8
CABE큐_-_MONTANTES
 10
2279.8530430644132139
 20
1396.8166832707959202
 30
29.399516663702471
 11
2280.7484364133051713
 21
1396.7503833697639948
 31
30.7255146843489584
  0
LINE
  5
1336
  8
CABE큐_-_MONTANTES
 10
2280.7484364133051713
 20
1396.7503833697639948
 30
30.7255146843489584
 11
2281.6718108043519351
 21
1396.6820115968250775
 31
32.0929501431427866
  0
LINE
  5
1337
  8
CABE큐_-_MONTANTES
 10
2281.6718108043519351
 20
1396.6820115968250775
 30
32.0929501431427866
 11
2282.044670849864815
 21
1396.654402966330963
 31
32.6451227530233012
  0
LINE
  5
1338
  8
CABE큐_-_MONTANTES
 10
2279.4420667881549889
 20
1396.9866591039819923
 30
25.9999999999997584
 11
2279.7338135990689807
 21
1396.9494138425950496
 31
26.7449052277456083
  0
LINE
  5
1339
  8
CABE큐_-_MONTANTES
 10
2279.7338135990689807
 20
1396.9494138425950496
 30
26.7449052277456083
 11
2280.006450748062889
 21
1396.9146081772089474
 31
27.4410185354744307
  0
LINE
  5
133A
  8
CABE큐_-_MONTANTES
 10
2280.006450748062889
 20
1396.9146081772089474
 30
27.4410185354744307
 11
2280.2443705181658515
 21
1396.884234635167104
 31
28.0484893762993188
  0
LINE
  5
133B
  8
CABE큐_-_MONTANTES
 10
2280.2443705181658515
 20
1396.884234635167104
 30
28.0484893762993188
 11
2280.4686338360011177
 21
1396.85560451624292
 31
28.6210917547920616
  0
LINE
  5
133C
  8
CABE큐_-_MONTANTES
 10
2280.4686338360011177
 20
1396.85560451624292
 30
28.6210917547920616
 11
2280.7731616129458416
 21
1396.8167275989030713
 31
29.3986301015857094
  0
LINE
  5
133D
  8
CABE큐_-_MONTANTES
 10
2280.7731616129458416
 20
1396.8167275989030713
 30
29.3986301015857094
 11
2281.0541949685748477
 21
1396.7808500489259131
 31
30.1161811011102891
  0
LINE
  5
133E
  8
CABE큐_-_MONTANTES
 10
2281.0541949685748477
 20
1396.7808500489259131
 30
30.1161811011102891
 11
2281.283718532041803
 21
1396.7515483914748984
 31
30.7022142501348689
  0
LINE
  5
133F
  8
CABE큐_-_MONTANTES
 10
2281.283718532041803
 20
1396.7515483914748984
 30
30.7022142501348689
 11
2281.4986769093570729
 21
1396.7241061687980164
 31
31.2510587036835012
  0
LINE
  5
1340
  8
CABE큐_-_MONTANTES
 10
2281.4986769093570729
 20
1396.7241061687980164
 30
31.2510587036835012
 11
2281.7942754511409476
 21
1396.6863691840469528
 31
32.0057983986951768
  0
LINE
  5
1341
  8
CABE큐_-_MONTANTES
 10
2281.7942754511409476
 20
1396.6863691840469528
 30
32.0057983986951768
 11
2282.044670849864815
 21
1396.654402966330963
 31
32.6451227530232515
  0
LINE
  5
1342
  8
CABE큐_-_MONTANTES
 10
2278.3420667881550798
 20
1396.9285643537889428
 30
27.1618950038621207
 11
2279.4420667881549889
 21
1396.9866591039819923
 31
25.9999999999999005
  0
LINE
  5
1343
  8
CABE큐_-_MONTANTES
 10
2282.044670849864815
 20
1395.1189152416329762
 30
32.6451227530232373
 11
2281.7520281260681259
 21
1395.1887825018059175
 31
34.0424679564777435
  0
LINE
  5
1344
  8
CABE큐_-_MONTANTES
 10
2281.7520281260681259
 20
1395.1887825018059175
 30
34.0424679564777435
 11
2281.3420667881550798
 21
1395.2866591039819468
 31
36.0000000000000213
  0
LINE
  5
1345
  8
CABE큐_-_MONTANTES
 10
2282.044670849864815
 20
1395.1189152416329762
 30
32.6451227530232373
 11
2282.4600978022431264
 21
1395.188782501805008
 31
34.0424679564779211
  0
LINE
  5
1346
  8
CABE큐_-_MONTANTES
 10
2282.4600978022431264
 20
1395.188782501805008
 30
34.0424679564779211
 11
2282.5861143592219378
 21
1395.2099761954789301
 31
34.4663418299534996
  0
LINE
  5
1347
  8
CABE큐_-_MONTANTES
 10
2282.5861143592219378
 20
1395.2099761954789301
 30
34.4663418299534996
 11
2282.7047025567721903
 21
1395.2299205741580863
 31
34.8652294035292627
  0
LINE
  5
1348
  8
CABE큐_-_MONTANTES
 10
2282.7047025567721903
 20
1395.2299205741580863
 30
34.8652294035292627
 11
2283.0420667881548979
 21
1395.2866591039819468
 31
35.9999999999999005
  0
LINE
  5
1349
  8
CABE큐_-_MONTANTES
 10
2282.044670849864815
 20
1396.654402966330963
 30
32.6451227530232373
 11
2281.7520281260681259
 21
1396.5845357061580216
 31
34.0424679564775303
  0
LINE
  5
134A
  8
CABE큐_-_MONTANTES
 10
2281.7520281260681259
 20
1396.5845357061580216
 30
34.0424679564775303
 11
2281.3420667881550798
 21
1396.4866591039819923
 31
36.0000000000000213
  0
LINE
  5
134B
  8
CABE큐_-_MONTANTES
 10
2282.044670849864815
 20
1396.654402966330963
 30
32.6451227530232373
 11
2282.4600978022431264
 21
1396.5845357061580216
 31
34.0424679564777222
  0
LINE
  5
134C
  8
CABE큐_-_MONTANTES
 10
2282.4600978022431264
 20
1396.5845357061580216
 30
34.0424679564777222
 11
2282.5861143592228473
 21
1396.5633420124829627
 31
34.466341829953457
  0
LINE
  5
134D
  8
CABE큐_-_MONTANTES
 10
2282.5861143592228473
 20
1396.5633420124829627
 30
34.466341829953457
 11
2282.7047025567721903
 21
1396.5433976338049433
 31
34.8652294035291632
  0
LINE
  5
134E
  8
CABE큐_-_MONTANTES
 10
2282.7047025567721903
 20
1396.5433976338049433
 30
34.8652294035291632
 11
2283.0420667881548979
 21
1396.4866591039819923
 31
35.9999999999999005
  0
LINE
  5
134F
  8
CABE큐_-_DIAGONAIS_VERTICA
 10
2278.8920667881561712
 20
1394.8157064790789263
 30
26.5809475019310106
 11
2279.7338135990689807
 21
1394.8239043653688896
 31
26.7449052277451216
  0
LINE
  5
1350
  8
CABE큐_-_DIAGONAIS_VERTICA
 10
2279.7338135990689807
 20
1394.8239043653688896
 30
26.7449052277451216
 11
2278.8737065890609301
 21
1394.8841194204130716
 31
27.9492063286209316
  0
LINE
  5
1351
  8
CABE큐_-_DIAGONAIS_VERTICA
 10
2278.8737065890609301
 20
1394.8841194204130716
 30
27.9492063286209316
 11
2280.2443705181658515
 21
1394.8890835727970625
 31
28.0484893762993188
  0
LINE
  5
1352
  8
CABE큐_-_DIAGONAIS_VERTICA
 10
2280.2443705181658515
 20
1394.8890835727970625
 30
28.0484893762993188
 11
2279.8530430644132139
 21
1394.9566349371671095
 31
29.3995166637029115
  0
LINE
  5
1353
  8
CABE큐_-_DIAGONAIS_VERTICA
 10
2279.8530430644132139
 20
1394.9566349371671095
 30
29.3995166637029115
 11
2280.7731616129458416
 21
1394.9565906090610952
 31
29.3986301015877807
  0
LINE
  5
1354
  8
CABE큐_-_DIAGONAIS_VERTICA
 10
2278.8920667881561712
 20
1394.8157064790789263
 30
26.580947501931
 11
2278.8737065890609301
 21
1394.8841194204130716
 31
27.9492063286209209
  0
LINE
  5
1355
  8
CABE큐_-_DIAGONAIS_VERTICA
 10
2278.8920667881561712
 20
1396.9576117288850128
 30
26.5809475019310106
 11
2279.7338135990689807
 21
1396.9494138425950496
 31
26.7449052277451216
  0
LINE
  5
1356
  8
CABE큐_-_DIAGONAIS_VERTICA
 10
2279.7338135990689807
 20
1396.9494138425950496
 30
26.7449052277451216
 11
2278.8737065890609301
 21
1396.8891987875510949
 31
27.9492063286209316
  0
LINE
  5
1357
  8
CABE큐_-_DIAGONAIS_VERTICA
 10
2278.8737065890609301
 20
1396.8891987875510949
 30
27.9492063286209316
 11
2280.2443705181658515
 21
1396.884234635167104
 31
28.0484893762993188
  0
LINE
  5
1358
  8
CABE큐_-_DIAGONAIS_VERTICA
 10
2280.2443705181658515
 20
1396.884234635167104
 30
28.0484893762993188
 11
2279.8530430644132139
 21
1396.816683270797057
 31
29.3995166637029115
  0
LINE
  5
1359
  8
CABE큐_-_DIAGONAIS_VERTICA
 10
2279.8530430644132139
 20
1396.816683270797057
 30
29.3995166637029115
 11
2280.7731616129458416
 21
1396.8167275989019345
 31
29.3986301015877807
  0
LINE
  5
135A
  8
CABE큐_-_DIAGONAIS_VERTICA
 10
2278.8920667881561712
 20
1396.9576117288850128
 30
26.580947501931
 11
2278.8737065890609301
 21
1396.8891987875510949
 31
27.9492063286209209
  0
LINE
  5
135B
  8
CABE큐_-_DIAGONAIS_VERTICA
 10
2281.7520281260690354
 20
1395.1887825018059175
 30
34.042467956477509
 11
2282.5861143592228473
 21
1395.209976195480067
 31
34.4663418299532083
  0
LINE
  5
135C
  8
CABE큐_-_DIAGONAIS_VERTICA
 10
2282.5861143592228473
 20
1395.209976195480067
 30
34.4663418299532083
 11
2281.3420667881568988
 21
1395.2866591039819468
 31
35.9999999999945928
  0
LINE
  5
135D
  8
CABE큐_-_DIAGONAIS_VERTICA
 10
2281.7520281260690354
 20
1396.5845357061580216
 30
34.042467956477509
 11
2282.5861143592228473
 21
1396.5633420124840995
 31
34.4663418299532083
  0
LINE
  5
135E
  8
CABE큐_-_DIAGONAIS_VERTICA
 10
2282.5861143592228473
 20
1396.5633420124840995
 30
34.4663418299532083
 11
2281.3420667881568988
 21
1396.4866591039819923
 31
35.9999999999945928
  0
LINE
  5
135F
  8
CABE큐_-_DIAGONAIS_VERTICA
 10
2280.7731616129458416
 20
1394.9565906090610952
 30
29.3986301015877807
 11
2280.7484364133060808
 21
1395.0229348381990349
 31
30.7255146843494416
  0
LINE
  5
1360
  8
CABE큐_-_DIAGONAIS_VERTICA
 10
2280.7484364133060808
 20
1395.0229348381990349
 30
30.7255146843494416
 11
2281.2837185320431672
 21
1395.0217698164890407
 31
30.7022142501417683
  0
LINE
  5
1361
  8
CABE큐_-_DIAGONAIS_VERTICA
 10
2281.2837185320431672
 20
1395.0217698164890407
 30
30.7022142501417683
 11
2281.6718108043510256
 21
1395.091306611139089
 31
32.0929501431412589
  0
LINE
  5
1362
  8
CABE큐_-_DIAGONAIS_VERTICA
 10
2281.6718108043510256
 20
1395.091306611139089
 30
32.0929501431412589
 11
2281.7942754511400381
 21
1395.0869490239169863
 31
32.0057983986959727
  0
LINE
  5
1363
  8
CABE큐_-_DIAGONAIS_VERTICA
 10
2280.7731616129449321
 20
1396.8167275989030713
 30
29.3986301015877807
 11
2280.7484364133060808
 21
1396.7503833697649043
 31
30.7255146843494416
  0
LINE
  5
1364
  8
CABE큐_-_DIAGONAIS_VERTICA
 10
2280.7484364133060808
 20
1396.7503833697649043
 30
30.7255146843494416
 11
2281.2837185320431672
 21
1396.7515483914748984
 31
30.7022142501417683
  0
LINE
  5
1365
  8
CABE큐_-_DIAGONAIS_VERTICA
 10
2281.2837185320431672
 20
1396.7515483914748984
 30
30.7022142501417683
 11
2281.6718108043510256
 21
1396.6820115968250775
 31
32.0929501431412589
  0
LINE
  5
1366
  8
CABE큐_-_DIAGONAIS_VERTICA
 10
2281.6718108043510256
 20
1396.6820115968250775
 30
32.0929501431412589
 11
2281.7942754511400381
 21
1396.6863691840480897
 31
32.0057983986959727
  0
LINE
  5
1367
  8
CABE큐_-_DIAGONAIS_VERTICA
 10
2279.4420667881549889
 20
1396.9866591039819923
 30
25.9999999999997584
 11
2279.7338135990680712
 21
1395.8866591039800369
 31
26.7449052277460915
  0
LINE
  5
1368
  8
CABE큐_-_DIAGONAIS_VERTICA
 10
2279.7338135990680712
 20
1395.8866591039800369
 30
26.7449052277460915
 11
2280.006450748062889
 21
1394.8587100307559012
 31
27.4410185354743312
  0
LINE
  5
1369
  8
CABE큐_-_DIAGONAIS_VERTICA
 10
2280.006450748062889
 20
1394.8587100307559012
 30
27.4410185354743312
 11
2280.244370518164942
 21
1395.8866591039820833
 31
28.04848937629923
  0
LINE
  5
136A
  8
CABE큐_-_DIAGONAIS_VERTICA
 10
2280.244370518164942
 20
1395.8866591039820833
 30
28.04848937629923
 11
2280.4686338360002082
 21
1396.8556045162420105
 31
28.6210917547927011
  0
LINE
  5
136B
  8
CABE큐_-_DIAGONAIS_VERTICA
 10
2280.4686338360002082
 20
1396.8556045162420105
 30
28.6210917547927011
 11
2280.7731616129440226
 21
1395.8866591039820833
 31
29.3986301015881217
  0
LINE
  5
136C
  8
CABE큐_-_DIAGONAIS_VERTICA
 10
2280.7731616129440226
 20
1395.8866591039820833
 30
29.3986301015881217
 11
2281.0541949685730287
 21
1394.9924681590368891
 31
30.1161811011110885
  0
LINE
  5
136D
  8
CABE큐_-_DIAGONAIS_VERTICA
 10
2281.0541949685730287
 20
1394.9924681590368891
 30
30.1161811011110885
 11
2281.2837185320431672
 21
1395.8866591039820833
 31
30.7022142501419886
  0
LINE
  5
136E
  8
CABE큐_-_DIAGONAIS_VERTICA
 10
2281.2837185320431672
 20
1395.8866591039820833
 30
30.7022142501419886
 11
2281.4986769093561634
 21
1396.7241061687980164
 31
31.2510587036842011
  0
LINE
  5
136F
  8
CABE큐_-_DIAGONAIS_VERTICA
 10
2281.4986769093561634
 20
1396.7241061687980164
 30
31.2510587036842011
 11
2281.7835283965841882
 21
1395.8866591039820833
 31
31.9783583828231883
  0
LINE
  5
1370
  8
CABE큐_-_DIAGONAIS_VERTICA
 10
2281.7835283965841882
 20
1395.8866591039820833
 30
31.9783583828231883
 11
2282.044670849864815
 21
1395.1189152416329762
 31
32.6451227530232586
  0
LINE
  5
1371
  8
CABE큐_-_DIAGONAIS_VERTICA
 10
2282.044670849864815
 20
1395.1189152416329762
 30
32.6451227530232586
 11
2282.2622861879849552
 21
1395.8866591039820833
 31
33.3771016176078916
  0
LINE
  5
1372
  8
CABE큐_-_DIAGONAIS_VERTICA
 10
2282.2622861879849552
 20
1395.8866591039820833
 30
33.3771016176078916
 11
2282.4600978022440358
 21
1396.5845357061580216
 31
34.0424679564776227
  0
LINE
  5
1373
  8
CABE큐_-_DIAGONAIS_VERTICA
 10
2282.4600978022440358
 20
1396.5845357061580216
 30
34.0424679564776227
 11
2282.5861143592242115
 21
1395.8866591039820833
 31
34.4663418299532722
  0
LINE
  5
1374
  8
CABE큐_-_DIAGONAIS_VERTICA
 10
2282.5861143592242115
 20
1395.8866591039820833
 30
34.4663418299532722
 11
2282.7047025567721903
 21
1395.2299205741580863
 31
34.8652294035285379
  0
LINE
  5
1375
  8
CABE큐_-_DIAGONAIS_VERTICA
 10
2282.7047025567721903
 20
1395.2299205741580863
 30
34.8652294035285379
 11
2282.8810002384911968
 21
1395.8866591039820833
 31
35.4582306965808272
  0
LINE
  5
1376
  8
CABE큐_-_DIAGONAIS_VERTICA
 10
2282.8810002384911968
 20
1395.8866591039820833
 30
35.4582306965808272
 11
2283.0420667881548979
 21
1396.4866591039819923
 31
35.9999999999999005
  0
LINE
  5
1377
  8
CABE큐_-_DIAGONAIS_VERTICA
 10
2279.4420667881549889
 20
1394.7866591039819468
 30
25.9999999999997691
 11
2279.7338135990680712
 21
1395.8866591039820833
 31
26.7449052277452601
  0
LINE
  5
1378
  8
CABE큐_-_DIAGONAIS_VERTICA
 10
2279.7338135990680712
 20
1395.8866591039820833
 30
26.7449052277452601
 11
2280.006450748062889
 21
1396.9146081772080379
 31
27.4410185354743597
  0
LINE
  5
1379
  8
CABE큐_-_DIAGONAIS_VERTICA
 10
2280.006450748062889
 20
1396.9146081772080379
 30
27.4410185354743597
 11
2280.244370518164942
 21
1395.8866591039820833
 31
28.0484893762993188
  0
LINE
  5
137A
  8
CABE큐_-_DIAGONAIS_VERTICA
 10
2280.244370518164942
 20
1395.8866591039820833
 30
28.0484893762993188
 11
2280.4686338360002082
 21
1394.9177136917219286
 31
28.6210917547926691
  0
LINE
  5
137B
  8
CABE큐_-_DIAGONAIS_VERTICA
 10
2280.4686338360002082
 20
1394.9177136917219286
 30
28.6210917547926691
 11
2280.7731616129440226
 21
1395.8866591039820833
 31
29.3986301015877416
  0
LINE
  5
137C
  8
CABE큐_-_DIAGONAIS_VERTICA
 10
2280.7731616129440226
 20
1395.8866591039820833
 30
29.3986301015877416
 11
2281.0541949685730287
 21
1396.7808500489259131
 31
30.1161811011111702
  0
LINE
  5
137D
  8
CABE큐_-_DIAGONAIS_VERTICA
 10
2281.0541949685730287
 20
1396.7808500489259131
 30
30.1161811011111702
 11
2281.2837185320431672
 21
1395.8866591039820833
 31
30.70221425014131
  0
LINE
  5
137E
  8
CABE큐_-_DIAGONAIS_VERTICA
 10
2281.2837185320431672
 20
1395.8866591039820833
 30
30.70221425014131
 11
2281.4986769093561634
 21
1395.0492120391659228
 31
31.2510587036841088
  0
LINE
  5
137F
  8
CABE큐_-_DIAGONAIS_VERTICA
 10
2281.4986769093561634
 20
1395.0492120391659228
 30
31.2510587036841088
 11
2281.7835283965841882
 21
1395.8866591039820833
 31
31.9783583828231883
  0
LINE
  5
1380
  8
CABE큐_-_DIAGONAIS_VERTICA
 10
2281.7835283965841882
 20
1395.8866591039820833
 30
31.9783583828231883
 11
2282.044670849864815
 21
1396.654402966330963
 31
32.6451227530232373
  0
LINE
  5
1381
  8
CABE큐_-_DIAGONAIS_VERTICA
 10
2282.044670849864815
 20
1396.654402966330963
 30
32.6451227530232373
 11
2282.2622861879849552
 21
1395.8866591039820833
 31
33.3771016176079129
  0
LINE
  5
1382
  8
CABE큐_-_DIAGONAIS_VERTICA
 10
2282.2622861879849552
 20
1395.8866591039820833
 30
33.3771016176079982
 11
2282.4600978022440358
 21
1395.1887825018059175
 31
34.0424679564776014
  0
LINE
  5
1383
  8
CABE큐_-_DIAGONAIS_VERTICA
 10
2282.4600978022440358
 20
1395.1887825018059175
 30
34.0424679564776014
 11
2282.5861143592242115
 21
1395.8866591039820833
 31
34.4663418299533504
  0
LINE
  5
1384
  8
CABE큐_-_DIAGONAIS_VERTICA
 10
2282.5861143592242115
 20
1395.8866591039820833
 30
34.4663418299533504
 11
2282.7047025567721903
 21
1396.5433976338049433
 31
34.8652294035285806
  0
LINE
  5
1385
  8
CABE큐_-_DIAGONAIS_VERTICA
 10
2282.7047025567721903
 20
1396.5433976338049433
 30
34.8652294035285806
 11
2282.8810002384911968
 21
1395.8866591039820833
 31
35.4582306965807277
  0
LINE
  5
1386
  8
CABE큐_-_DIAGONAIS_VERTICA
 10
2282.8810002384911968
 20
1395.8866591039820833
 30
35.4582306965807277
 11
2283.0420667881558074
 21
1395.2866591039819468
 31
35.9999999999999005
  0
LINE
  5
1387
  8
CABE큐_-_DIAGONAIS_VERTICA
 10
2278.8737065890609301
 20
1394.8841194204130716
 30
27.9492063286210488
 11
2279.3817486286097846
 21
1395.8866591039820833
 31
28.7015714647696996
  0
LINE
  5
1388
  8
CABE큐_-_DIAGONAIS_VERTICA
 10
2279.3817486286097846
 20
1395.8866591039820833
 30
28.7015714647696996
 11
2279.8530430644132139
 21
1396.816683270797057
 31
29.3995166637030216
  0
LINE
  5
1389
  8
CABE큐_-_DIAGONAIS_VERTICA
 10
2278.8737065890609301
 20
1396.8891987875510949
 30
27.9492063286210488
 11
2279.3817486286097846
 21
1395.8866591039820833
 31
28.7015714647696392
  0
LINE
  5
138A
  8
CABE큐_-_DIAGONAIS_VERTICA
 10
2279.3817486286097846
 20
1395.8866591039820833
 30
28.7015714647696392
 11
2279.8530430644132139
 21
1394.9566349371671095
 31
29.3995166637030287
  0
LINE
  5
138B
  8
CABE큐_-_DIAGONAIS_VERTICA
 10
2279.8530430644132139
 20
1394.9566349371671095
 30
29.3995166637030287
 11
2280.317287346465946
 21
1395.8866591039820833
 31
30.0870212111296311
  0
LINE
  5
138C
  8
CABE큐_-_DIAGONAIS_VERTICA
 10
2280.317287346465946
 20
1395.8866591039820833
 30
30.0870212111296311
 11
2280.7484364133060808
 21
1396.7503833697639948
 31
30.7255146843495517
  0
LINE
  5
138D
  8
CABE큐_-_DIAGONAIS_VERTICA
 10
2279.8530430644132139
 20
1396.816683270797057
 30
29.3995166637030216
 11
2280.317287346465946
 21
1395.8866591039820833
 31
30.0870212111298301
  0
LINE
  5
138E
  8
CABE큐_-_DIAGONAIS_VERTICA
 10
2280.317287346465946
 20
1395.8866591039820833
 30
30.0870212111298301
 11
2280.7484364133060808
 21
1395.0229348381990349
 31
30.7255146843495304
  0
LINE
  5
138F
  8
CABE큐_-_DIAGONAIS_VERTICA
 10
2280.7484364133060808
 20
1395.0229348381990349
 30
30.7255146843495304
 11
2281.2291500775781969
 21
1395.8866591039820833
 31
31.4374089240283112
  0
LINE
  5
1390
  8
CABE큐_-_DIAGONAIS_VERTICA
 10
2281.2291500775781969
 20
1395.8866591039820833
 30
31.4374089240283112
 11
2281.6718108043510256
 21
1396.6820115968250775
 31
32.0929501431421897
  0
LINE
  5
1391
  8
CABE큐_-_DIAGONAIS_VERTICA
 10
2281.6718108043510256
 20
1395.091306611139089
 30
32.0929501431413797
 11
2281.2291500775781969
 21
1395.8866591039820833
 31
31.4374089240281904
  0
LINE
  5
1392
  8
CABE큐_-_DIAGONAIS_VERTICA
 10
2281.2291500775781969
 20
1395.8866591039820833
 30
31.4374089240281904
 11
2280.7484364133060808
 21
1396.7503833697639948
 31
30.7255146843497009
  0
LINE
  5
1393
  8
CABE큐_-_DIAGONAIS_VERTICA
 10
2278.8737065890600206
 20
1396.8891987875510949
 30
27.9492063286209103
 11
2278.6130050220631347
 21
1395.8866591039820833
 31
27.5631304634762699
  0
LINE
  5
1394
  8
CABE큐_-_DIAGONAIS_VERTICA
 10
2278.6130050220631347
 20
1395.8866591039820833
 30
27.5631304634762699
 11
2278.3420667881550798
 21
1394.8447538541749964
 31
27.1618950038625506
  0
LINE
  5
1395
  8
CABE큐_-_DIAGONAIS_VERTICA
 10
2278.8737065890600206
 20
1394.8841194204130716
 30
27.9492063286209103
 11
2278.6130050220631347
 21
1395.8866591039820833
 31
27.5631304634759999
  0
LINE
  5
1396
  8
CABE큐_-_DIAGONAIS_VERTICA
 10
2278.6130050220631347
 20
1395.8866591039820833
 30
27.5631304634759999
 11
2278.3420667881550798
 21
1396.9285643537889428
 31
27.1618950038621207
  0
LINE
  5
1397
  8
CABE큐_-_DIAGONAIS_VERTICA
 10
2283.0420667881558074
 20
1395.2866591039819468
 30
35.9999999999999005
 11
2283.2629187459228888
 21
1395.8866591039720788
 31
36.7428656761287371
  0
LINE
  5
1398
  8
CABE큐_-_DIAGONAIS_VERTICA
 10
2283.2629187459228888
 20
1395.8866591039720788
 30
36.7428656761287371
 11
2283.4837707036949723
 21
1396.4866591039719879
 31
37.48573135226939
  0
LINE
  5
1399
  8
CABE큐_-_DIAGONAIS_VERTICA
 10
2283.0420667881548979
 20
1396.4866591039819923
 30
35.9999999999998366
 11
2283.2629187459228888
 21
1395.8866591039720788
 31
36.7428656761289716
  0
LINE
  5
139A
  8
CABE큐_-_DIAGONAIS_VERTICA
 10
2283.2629187459228888
 20
1395.8866591039720788
 30
36.7428656761289716
 11
2283.4837707036840584
 21
1395.2866591039819468
 31
37.4857313522324418
  0
LINE
  5
139B
  8
CABE큐_-_DIAGONAIS_HORIZON
 10
2282.1236061270860773
 20
1396.4866591039819923
 30
37.2572589365396212
 11
2282.1236061270851678
 21
1395.2866591039819468
 31
37.2572589365394293
  0
LINE
  5
139C
  8
CABE큐_-_DIAGONAIS_VERTICA
 10
2281.3420667881550798
 20
1395.8866591039820833
 30
36.0000000000000213
 11
2282.1236061270860773
 21
1395.2866591039819468
 31
37.2572589365393299
  0
LINE
  5
139D
  8
CABE큐_-_DIAGONAIS_VERTICA
 10
2281.3420667881550798
 20
1395.8866591039820833
 30
36.0000000000000213
 11
2282.1236061270860773
 21
1396.4866591039819923
 31
37.2572589365395714
  0
LINE
  5
139E
  8
CABE큐_-_DIAGONAIS_HORIZON
 10
2282.1236061270860773
 20
1396.4866591039819923
 30
37.2572589365393227
 11
2281.3578364576201238
 21
1395.8866591039809464
 31
37.1286294682697999
  0
LINE
  5
139F
  8
CABE큐_-_DIAGONAIS_HORIZON
 10
2281.3578364576201238
 20
1395.8866591039809464
 30
37.1286294682697999
 11
2280.5920667881550798
 21
1395.2866591039819468
 31
36.9999999999999218
  0
LINE
  5
13A0
  8
CABE큐_-_DIAGONAIS_HORIZON
 10
2280.5920667881550798
 20
1396.4866591039819923
 30
36.9999999999999218
 11
2281.3578364576201238
 21
1395.8866591039820833
 31
37.1286294682698994
  0
LINE
  5
13A1
  8
CABE큐_-_DIAGONAIS_HORIZON
 10
2281.3578364576201238
 20
1395.8866591039820833
 30
37.1286294682698994
 11
2282.1236061270860773
 21
1395.2866591039819468
 31
37.2572589365393227
  0
LINE
  5
13A2
  8
CABE큐_-_DIAGONAIS_HORIZON
 10
2279.8420667881559893
 20
1395.2866591039819468
 30
36.9999999999999076
 11
2280.2170667881550798
 21
1395.8866591039820833
 31
37.0000000000001634
  0
LINE
  5
13A3
  8
CABE큐_-_DIAGONAIS_HORIZON
 10
2280.2170667881550798
 20
1395.8866591039820833
 30
37.0000000000001634
 11
2280.5920667881550798
 21
1396.4866591039819923
 31
36.9999999999999218
  0
LINE
  5
13A4
  8
CABE큐_-_DIAGONAIS_HORIZON
 10
2279.8420667881550798
 20
1396.4866591039819923
 30
36.9999999999999076
 11
2280.2170667881550798
 21
1395.8866591039820833
 31
37.0000000000001634
  0
LINE
  5
13A5
  8
CABE큐_-_DIAGONAIS_HORIZON
 10
2280.2170667881550798
 20
1395.8866591039820833
 30
37.0000000000001634
 11
2280.5920667881559893
 21
1395.2866591039819468
 31
36.9999999999999076
  0
LINE
  5
13A6
  8
CABE큐_-_DIAGONAIS_HORIZON
 10
2278.3420667881550798
 20
1395.2866591039819468
 30
36.9999999999999076
 11
2279.0920667881550798
 21
1395.8866591039820833
 31
37.0000000000001208
  0
LINE
  5
13A7
  8
CABE큐_-_DIAGONAIS_HORIZON
 10
2279.0920667881550798
 20
1395.8866591039820833
 30
37.0000000000001208
 11
2279.8420667881550798
 21
1396.4866591039819923
 31
36.9999999999999076
  0
LINE
  5
13A8
  8
CABE큐_-_DIAGONAIS_HORIZON
 10
2279.8420667881559893
 20
1395.2866591039819468
 30
36.9999999999999076
 11
2279.0920667881550798
 21
1395.8866591039820833
 31
37.0000000000001208
  0
LINE
  5
13A9
  8
CABE큐_-_DIAGONAIS_HORIZON
 10
2279.0920667881550798
 20
1395.8866591039820833
 30
37.0000000000001208
 11
2278.3420667881550798
 21
1396.4866591039819923
 31
36.9999999999999218
  0
LINE
  5
13AA
  8
CABE큐_-_MONTANTES
 10
2278.3420667881550798
 20
1395.2866591039810373
 30
37.0000000000003979
 11
2279.0920667881541704
 21
1395.2866591039819468
 31
37.0000000000003624
210
0.0000000000001506
220
-1.0
230
-0.0000000000000002
  0
LINE
  5
13AB
  8
CABE큐_-_MONTANTES
 10
2279.0920667881541704
 20
1395.2866591039819468
 30
37.0000000000003624
 11
2279.8420667881550798
 21
1395.2866591039819468
 31
37.000000000000199
210
0.0000000000001506
220
-1.0
230
-0.0000000000000002
  0
LINE
  5
13AC
  8
CABE큐_-_MONTANTES
 10
2279.8420667881550798
 20
1395.2866591039819468
 30
37.000000000000199
 11
2280.5920667881550798
 21
1395.2866591039819468
 31
36.9999999999999218
210
0.0000000000001506
220
-1.0
230
-0.0000000000000002
  0
LINE
  5
13B9
  8
CABE큐_-_DIAGONAIS_VERTICA
 10
2281.6718108043510256
 20
1395.091306611139089
 30
32.0929501431411168
 11
2281.8615336999978354
 21
1395.8866591039829927
 31
32.3739129003574533
  0
LINE
  5
13BA
  8
CABE큐_-_DIAGONAIS_VERTICA
 10
2281.8615336999978354
 20
1395.8866591039829927
 30
32.3739129003574533
 11
2282.0446708498661792
 21
1396.654402966330963
 31
32.6451227530229389
  0
LINE
  5
13BB
  8
CABE큐_-_DIAGONAIS_VERTICA
 10
2281.6718108043519351
 20
1396.6820115968250775
 30
32.0929501431425734
 11
2281.8615336999991996
 21
1395.8866591039829927
 31
32.3739129003575528
  0
LINE
  5
13BC
  8
CABE큐_-_DIAGONAIS_VERTICA
 10
2281.8615336999991996
 20
1395.8866591039829927
 30
32.3739129003575528
 11
2282.0446708498661792
 21
1395.1189152416329762
 31
32.6451227530231591
  0
LINE
  5
13ED
  8
CABE큐_-_DIAGONAIS_VERTICA
 10
2283.0420667881558074
 20
1395.2866591039819468
 30
35.9999999999994671
 11
2283.4837707036840584
 21
1395.2866591039810373
 31
37.4857313522326479
  0
LINE
  5
13EE
  8
CABE큐_-_DIAGONAIS_VERTICA
 10
2283.0420667881558074
 20
1396.4866591039819923
 30
35.9999999999999005
 11
2283.4837707036949723
 21
1396.4866591039719879
 31
37.48573135226939
  0
LINE
  5
13EF
  8
CABE큐_-_DIAGONAIS_VERTICA
 10
2273.6420667881561712
 20
1395.2866591039819468
 30
35.9999999999999005
 11
2273.2003628726279203
 21
1395.2866591039810373
 31
37.4857313522325697
  0
LINE
  5
13F0
  8
CABE큐_-_DIAGONAIS_VERTICA
 10
2273.6420667881538975
 20
1396.4866591039829018
 30
35.9999999999999218
 11
2273.2003628726160969
 21
1396.4866591039719879
 31
37.4857313522692408
  0
LINE
  5
1405
  8
CABE큐_-_MONTANTES
 10
2273.6420667881561712
 20
1395.2866591039819468
 30
35.9999999999999005
 11
2274.4920667881551708
 21
1395.2866591039819468
 31
35.9999999999999076
  0
LINE
  5
1406
  8
CABE큐_-_MONTANTES
 10
2274.4920667881551708
 20
1395.2866591039819468
 30
35.9999999999999076
 11
2275.3420667881191548
 21
1395.2866591039799005
 31
35.999999999951541
  0
LINE
  5
1407
  8
CABE큐_-_MONTANTES
 10
2275.3420667881191548
 20
1395.2866591039799005
 30
35.999999999951541
 11
2276.0920667881559893
 21
1395.2866591039799005
 31
35.9999999999995666
  0
LINE
  5
1408
  8
CABE큐_-_MONTANTES
 10
2276.0920667881559893
 20
1395.2866591039799005
 30
35.9999999999995666
 11
2276.8420667881559893
 21
1395.2866591039819468
 31
35.9999999999999218
  0
LINE
  5
1409
  8
CABE큐_-_MONTANTES
 10
2276.8420667881559893
 20
1395.2866591039819468
 30
35.9999999999999218
 11
2277.5920667881559893
 21
1395.2866591039819468
 31
35.9999999999996803
  0
LINE
  5
140A
  8
CABE큐_-_MONTANTES
 10
2277.5920667881559893
 20
1395.2866591039819468
 30
35.9999999999996803
 11
2278.3420667881550798
 21
1395.2866591039819468
 31
35.9999999999999218
  0
LINE
  5
140B
  8
CABE큐_-_MONTANTES
 10
2278.3420667881550798
 20
1395.2866591039819468
 30
35.9999999999999218
 11
2279.0920667881550798
 21
1395.2866591039819468
 31
35.9999999999996803
  0
LINE
  5
140C
  8
CABE큐_-_MONTANTES
 10
2279.0920667881550798
 20
1395.2866591039819468
 30
35.9999999999996803
 11
2279.8420667881550798
 21
1395.2866591039819468
 31
35.9999999999999218
  0
LINE
  5
140D
  8
CABE큐_-_MONTANTES
 10
2279.8420667881550798
 20
1395.2866591039819468
 30
35.9999999999999218
 11
2280.5920667881550798
 21
1395.2866591039819468
 31
35.9999999999995666
  0
LINE
  5
140E
  8
CABE큐_-_MONTANTES
 10
2280.5920667881550798
 20
1395.2866591039819468
 30
35.9999999999995666
 11
2281.3420667881518966
 21
1395.2866591039819468
 31
36.0000000000000213
  0
LINE
  5
140F
  8
CABE큐_-_MONTANTES
 10
2281.3420667881518966
 20
1395.2866591039819468
 30
36.0000000000000213
 11
2282.1920667881549889
 21
1395.2866591039819468
 31
35.9999999999999076
  0
LINE
  5
1410
  8
CABE큐_-_MONTANTES
 10
2282.1920667881549889
 20
1395.2866591039819468
 30
35.9999999999999076
 11
2283.0420667881558074
 21
1395.2866591039819468
 31
36.0000000000003197
  0
LINE
  5
1411
  8
CABE큐_-_MONTANTES
 10
2273.6420667881561712
 20
1396.4866591039819923
 30
35.9999999999999005
 11
2274.4920667881551708
 21
1396.4866591039819923
 31
35.9999999999999076
  0
LINE
  5
1412
  8
CABE큐_-_MONTANTES
 10
2274.4920667881551708
 20
1396.4866591039819923
 30
35.9999999999999076
 11
2275.3420667881191548
 21
1396.4866591039799459
 31
35.999999999951541
  0
LINE
  5
1413
  8
CABE큐_-_MONTANTES
 10
2275.3420667881191548
 20
1396.4866591039799459
 30
35.999999999951541
 11
2276.0920667881559893
 21
1396.4866591039799459
 31
35.9999999999995666
  0
LINE
  5
1414
  8
CABE큐_-_MONTANTES
 10
2276.0920667881559893
 20
1396.4866591039799459
 30
35.9999999999995666
 11
2276.8420667881559893
 21
1396.4866591039819923
 31
35.9999999999999218
  0
LINE
  5
1415
  8
CABE큐_-_MONTANTES
 10
2276.8420667881559893
 20
1396.4866591039819923
 30
35.9999999999999218
 11
2277.5920667881559893
 21
1396.4866591039819923
 31
35.9999999999996803
  0
LINE
  5
1416
  8
CABE큐_-_MONTANTES
 10
2277.5920667881559893
 20
1396.4866591039819923
 30
35.9999999999996803
 11
2278.3420667881550798
 21
1396.4866591039819923
 31
35.9999999999999218
  0
LINE
  5
1417
  8
CABE큐_-_MONTANTES
 10
2278.3420667881550798
 20
1396.4866591039819923
 30
35.9999999999999218
 11
2279.0920667881550798
 21
1396.4866591039819923
 31
35.9999999999996803
  0
LINE
  5
1418
  8
CABE큐_-_MONTANTES
 10
2279.0920667881550798
 20
1396.4866591039819923
 30
35.9999999999996803
 11
2279.8420667881550798
 21
1396.4866591039819923
 31
35.9999999999999218
  0
LINE
  5
1419
  8
CABE큐_-_MONTANTES
 10
2279.8420667881550798
 20
1396.4866591039819923
 30
35.9999999999999218
 11
2280.5920667881550798
 21
1396.4866591039819923
 31
35.9999999999995666
  0
LINE
  5
141A
  8
CABE큐_-_MONTANTES
 10
2280.5920667881550798
 20
1396.4866591039819923
 30
35.9999999999995666
 11
2281.3420667881518966
 21
1396.4866591039819923
 31
36.0000000000000213
  0
LINE
  5
141B
  8
CABE큐_-_MONTANTES
 10
2281.3420667881518966
 20
1396.4866591039819923
 30
36.0000000000000213
 11
2282.1920667881549889
 21
1396.4866591039819923
 31
35.9999999999999076
  0
LINE
  5
141C
  8
CABE큐_-_MONTANTES
 10
2282.1920667881549889
 20
1396.4866591039819923
 30
35.9999999999999076
 11
2283.0420667881558074
 21
1396.4866591039819923
 31
36.0000000000003197
  0
ENDSEC
  0
EOF
