  0
SECTION
  2
HEADER
  9
$ACADVER
  1
AC1009
  9
$INSBASE
 10
0.0
 20
0.0
 30
0.0
  9
$EXTMIN
 10
25.7861501859280189
 20
0.7566547284156205
 30
3.1165532729865468
  9
$EXTMAX
 10
27.9457655705434895
 20
2.9162701130311119
 30
7.6165532729866481
  9
$LIMMIN
 10
0.0
 20
0.0
  9
$LIMMAX
 10
420.0
 20
297.0
  9
$ORTHOMODE
 70
     0
  9
$REGENMODE
 70
     1
  9
$FILLMODE
 70
     1
  9
$QTEXTMODE
 70
     0
  9
$MIRRTEXT
 70
     0
  9
$DRAGMODE
 70
     2
  9
$LTSCALE
 40
1.0
  9
$OSMODE
 70
    37
  9
$ATTMODE
 70
     1
  9
$TEXTSIZE
 40
2.5
  9
$TRACEWID
 40
1.0
  9
$TEXTSTYLE
  7
STANDARD
  9
$CLAYER
  8
0
  9
$CELTYPE
  6
BYLAYER
  9
$CECOLOR
 62
   256
  9
$DIMSCALE
 40
1.0
  9
$DIMASZ
 40
2.5
  9
$DIMEXO
 40
0.625
  9
$DIMDLI
 40
3.75
  9
$DIMRND
 40
0.0
  9
$DIMDLE
 40
0.0
  9
$DIMEXE
 40
1.25
  9
$DIMTP
 40
0.0
  9
$DIMTM
 40
0.0
  9
$DIMTXT
 40
2.5
  9
$DIMCEN
 40
2.5
  9
$DIMTSZ
 40
0.0
  9
$DIMTOL
 70
     0
  9
$DIMLIM
 70
     0
  9
$DIMTIH
 70
     0
  9
$DIMTOH
 70
     0
  9
$DIMSE1
 70
     0
  9
$DIMSE2
 70
     0
  9
$DIMTAD
 70
     1
  9
$DIMZIN
 70
     8
  9
$DIMBLK
  1

  9
$DIMASO
 70
     1
  9
$DIMSHO
 70
     1
  9
$DIMPOST
  1

  9
$DIMAPOST
  1

  9
$DIMALT
 70
     0
  9
$DIMALTD
 70
     3
  9
$DIMALTF
 40
0.03937007874016
  9
$DIMLFAC
 40
1.0
  9
$DIMTOFL
 70
     1
  9
$DIMTVP
 40
0.0
  9
$DIMTIX
 70
     0
  9
$DIMSOXD
 70
     0
  9
$DIMSAH
 70
     0
  9
$DIMBLK1
  1

  9
$DIMBLK2
  1

  9
$DIMSTYLE
  2
ISO-25
  9
$DIMCLRD
 70
     0
  9
$DIMCLRE
 70
     0
  9
$DIMCLRT
 70
     0
  9
$DIMTFAC
 40
1.0
  9
$DIMGAP
 40
0.625
  9
$LUNITS
 70
     2
  9
$LUPREC
 70
     4
  9
$SKETCHINC
 40
1.0
  9
$FILLETRAD
 40
0.0
  9
$AUNITS
 70
     0
  9
$AUPREC
 70
     0
  9
$MENU
  1
.
  9
$ELEVATION
 40
0.0
  9
$PELEVATION
 40
0.0
  9
$THICKNESS
 40
0.0
  9
$LIMCHECK
 70
     0
  9
$BLIPMODE
 70
     0
  9
$CHAMFERA
 40
0.0
  9
$CHAMFERB
 40
0.0
  9
$SKPOLY
 70
     0
  9
$TDCREATE
 40
2460649.4614930548705161
  9
$TDUPDATE
 40
2460734.5027083340100944
  9
$TDINDWG
 40
0.1079976852
  9
$TDUSRTIMER
 40
0.1079976852
  9
$USRTIMER
 70
     1
  9
$ANGBASE
 50
0.0
  9
$ANGDIR
 70
     0
  9
$PDMODE
 70
     0
  9
$PDSIZE
 40
0.0
  9
$PLINEWID
 40
0.0
  9
$COORDS
 70
     1
  9
$SPLFRAME
 70
     0
  9
$SPLINETYPE
 70
     6
  9
$SPLINESEGS
 70
     8
  9
$ATTDIA
 70
     1
  9
$ATTREQ
 70
     1
  9
$HANDLING
 70
     1
  9
$HANDSEED
  5
1289
  9
$SURFTAB1
 70
     6
  9
$SURFTAB2
 70
     6
  9
$SURFTYPE
 70
     6
  9
$SURFU
 70
     6
  9
$SURFV
 70
     6
  9
$UCSNAME
  2

  9
$UCSORG
 10
25.7861501859280011
 20
0.7566547284156222
 30
3.1165532729865459
  9
$UCSXDIR
 10
1.0
 20
0.0
 30
0.0
  9
$UCSYDIR
 10
0.0
 20
1.0
 30
0.0
  9
$PUCSNAME
  2

  9
$PUCSORG
 10
0.0
 20
0.0
 30
0.0
  9
$PUCSXDIR
 10
1.0
 20
0.0
 30
0.0
  9
$PUCSYDIR
 10
0.0
 20
1.0
 30
0.0
  9
$USERI1
 70
     0
  9
$USERI2
 70
     0
  9
$USERI3
 70
     0
  9
$USERI4
 70
     0
  9
$USERI5
 70
     0
  9
$USERR1
 40
0.0
  9
$USERR2
 40
0.0
  9
$USERR3
 40
0.0
  9
$USERR4
 40
0.0
  9
$USERR5
 40
0.0
  9
$WORLDVIEW
 70
     1
  9
$SHADEDGE
 70
     3
  9
$SHADEDIF
 70
    70
  9
$TILEMODE
 70
     1
  9
$MAXACTVP
 70
    64
  9
$PLIMCHECK
 70
     0
  9
$PEXTMIN
 10
0.0
 20
0.0
 30
0.0
  9
$PEXTMAX
 10
0.0
 20
0.0
 30
0.0
  9
$PLIMMIN
 10
0.0
 20
0.0
  9
$PLIMMAX
 10
12.0
 20
9.0
  9
$UNITMODE
 70
     0
  9
$VISRETAIN
 70
     1
  9
$PLINEGEN
 70
     0
  9
$PSLTSCALE
 70
     1
  0
ENDSEC
  0
SECTION
  2
TABLES
  0
TABLE
  2
VPORT
 70
     1
  0
VPORT
  2
*ACTIVE
 70
     0
 10
0.0
 20
0.0
 11
1.0
 21
1.0
 12
0.5474940946332048
 22
0.0
 13
0.0
 23
0.0
 14
10.0
 24
10.0
 15
10.0
 25
10.0
 16
-0.0000000000000036
 26
0.0
 36
16.7804305026293292
 17
26.8659578782357613
 27
1.836462420723366
 37
5.3665532729865966
 40
5.4385546994524772
 41
2.555259653794939
 42
50.0
 43
0.0
 44
0.0
 50
0.0
 51
0.0
 71
     0
 72
  1000
 73
     1
 74
     3
 75
     0
 76
     1
 77
     0
 78
     0
  0
ENDTAB
  0
TABLE
  2
LTYPE
 70
     1
  0
LTYPE
  2
CONTINUOUS
 70
     0
  3
Solid line
 72
    65
 73
     0
 40
0.0
  0
ENDTAB
  0
TABLE
  2
LAYER
 70
    15
  0
LAYER
  2
0
 70
     0
 62
     7
  6
CONTINUOUS
  0
LAYER
  2
PÉS_-_MONTANTES
 70
     0
 62
   110
  6
CONTINUOUS
  0
LAYER
  2
PÉS_-_DIAGONAIS_VERTICAIS
 70
     0
 62
    94
  6
CONTINUOUS
  0
LAYER
  2
PÉS_-_DIAGONAIS_HORIZONTAI
 70
     0
 62
    64
  6
CONTINUOUS
  0
LAYER
  2
TRONCO_-_DIAGONAIS_HORIZON
 70
     0
 62
   190
  6
CONTINUOUS
  0
LAYER
  2
TRONCO_-_DIAGONAIS_VERTICA
 70
     0
 62
   222
  6
CONTINUOUS
  0
LAYER
  2
TRONCO_-_MONTANTES
 70
     0
 62
   191
  6
CONTINUOUS
  0
LAYER
  2
CABEÇA_-_MONTANTES
 70
     0
 62
    11
  6
CONTINUOUS
  0
LAYER
  2
CABEÇA_-_DIAGONAIS_HORIZON
 70
     0
 62
    12
  6
CONTINUOUS
  0
LAYER
  2
CABEÇA_-_DIAGONAIS_VERTICA
 70
     0
 62
    10
  6
CONTINUOUS
  0
LAYER
  2
BRAÇO_-_MONTANTES
 70
     0
 62
   121
  6
CONTINUOUS
  0
LAYER
  2
BRAÇO_-_DIAGONAIS_VERTICAI
 70
     0
 62
   135
  6
CONTINUOUS
  0
LAYER
  2
BRAÇO_-_DIAGONAIS_HORIZONT
 70
     0
 62
   103
  6
CONTINUOUS
  0
LAYER
  2
PARA_RAIOS_-_MONTANTES
 70
     0
 62
    61
  6
CONTINUOUS
  0
LAYER
  2
PARA_RAIOS_-_DIAGONAIS_VER
 70
     0
 62
    62
  6
CONTINUOUS
  0
ENDTAB
  0
TABLE
  2
STYLE
 70
     2
  0
STYLE
  2
STANDARD
 70
     0
 40
0.0
 41
1.0
 50
0.0
 71
     0
 42
2.5
  3
txt
  4

  0
STYLE
  2
ANNOTATIVE
 70
     0
 40
0.0
 41
1.0
 50
0.0
 71
     0
 42
2.5
  3
txt
  4

  0
ENDTAB
  0
TABLE
  2
VIEW
 70
     0
  0
ENDTAB
  0
TABLE
  2
UCS
 70
     0
  0
ENDTAB
  0
TABLE
  2
APPID
 70
    12
  0
APPID
  2
ACAD
 70
     0
  0
APPID
  2
ACAD_PSEXT
 70
     0
  0
APPID
  2
ACADANNOPO
 70
     0
  0
APPID
  2
ACADANNOTATIVE
 70
     0
  0
APPID
  2
ACAD_DSTYLE_DIMJAG
 70
     0
  0
APPID
  2
ACAD_DSTYLE_DIMTALN
 70
     0
  0
APPID
  2
ACAD_MLEADERVER
 70
     0
  0
APPID
  2
ACAD_NAV_VCDISPLAY
 70
     0
  0
APPID
  2
ACAECLAYERSTANDARD
 70
     0
  0
APPID
  2
ACCMTRANSPARENCY
 70
     0
  0
APPID
  2
ACAD_EXEMPT_FROM_CAD_STANDARDS
 70
     0
  0
APPID
  2
ACAD_TC
 70
     0
  0
ENDTAB
  0
TABLE
  2
DIMSTYLE
 70
     3
  0
DIMSTYLE
  2
STANDARD
 70
     0
  3

  4

  5

  6

  7

 40
1.0
 41
0.18
 42
0.0625
 43
0.38
 44
0.18
 45
0.0
 46
0.0
 47
0.0
 48
0.0
140
0.18
141
0.09
142
0.0
143
25.3999999999999986
144
1.0
145
0.0
146
1.0
147
0.09
 71
     0
 72
     0
 73
     1
 74
     1
 75
     0
 76
     0
 77
     0
 78
     0
170
     0
171
     2
172
     0
173
     0
174
     0
175
     0
176
     0
177
     0
178
     0
  0
DIMSTYLE
  2
ANNOTATIVE
 70
     0
  3

  4

  5

  6

  7

 40
0.0
 41
2.5
 42
0.625
 43
3.75
 44
1.25
 45
0.0
 46
0.0
 47
0.0
 48
0.0
140
2.5
141
2.5
142
0.0
143
0.03937007874016
144
1.0
145
0.0
146
1.0
147
0.625
 71
     0
 72
     0
 73
     0
 74
     0
 75
     0
 76
     0
 77
     1
 78
     8
170
     0
171
     3
172
     1
173
     0
174
     0
175
     0
176
     0
177
     0
178
     0
  0
DIMSTYLE
  2
ISO-25
 70
     0
  3

  4

  5

  6

  7

 40
1.0
 41
2.5
 42
0.625
 43
3.75
 44
1.25
 45
0.0
 46
0.0
 47
0.0
 48
0.0
140
2.5
141
2.5
142
0.0
143
0.03937007874016
144
1.0
145
0.0
146
1.0
147
0.625
 71
     0
 72
     0
 73
     0
 74
     0
 75
     0
 76
     0
 77
     1
 78
     8
170
     0
171
     3
172
     1
173
     0
174
     0
175
     0
176
     0
177
     0
178
     0
  0
ENDTAB
  0
ENDSEC
  0
SECTION
  2
BLOCKS
  0
BLOCK
  8
0
  2
$MODEL_SPACE
 70
     0
 10
0.0
 20
0.0
 30
0.0
  3
$MODEL_SPACE
  1

  0
ENDBLK
  5
21
  8
0
  0
BLOCK
 67
     1
  8
0
  2
$PAPER_SPACE
 70
     0
 10
0.0
 20
0.0
 30
0.0
  3
$PAPER_SPACE
  1

  0
ENDBLK
  5
D5
 67
     1
  8
0
  0
ENDSEC
  0
SECTION
  2
ENTITIES
  0
LINE
  5
CD4
  8
PÉS_-_MONTANTES
 10
26.2880732628510891
 20
1.258577805338811
 30
7.616553272986633
 11
26.1207655705434085
 21
1.0912701130310689
 31
6.1165532729865371
  0
LINE
  5
CD6
  8
PÉS_-_MONTANTES
 10
25.7861501859280615
 20
0.7566547284156347
 30
3.1165532729866361
 11
26.5060219807998898
 21
0.9239624207233385
 31
4.6165532729866516
  0
LINE
  5
CD8
  8
PÉS_-_MONTANTES
 10
25.7861501859280189
 20
0.7566547284156205
 30
3.1165532729865468
 11
25.9534578782357492
 21
1.47652652328748
 31
4.6165532729866223
  0
LINE
  5
CDB
  8
PÉS_-_DIAGONAIS_VERTICAIS
 10
26.1207655705434405
 20
1.0912701130310101
 30
6.1165532729865451
 11
26.1207655705434405
 21
2.1963983181592481
 31
6.1165532729865451
  0
LINE
  5
CDC
  8
PÉS_-_DIAGONAIS_VERTICAIS
 10
25.9534578782357706
 20
0.9239624207233507
 30
4.6165532729865459
 11
25.9534578782357386
 21
1.476526523287484
 31
4.6165532729866303
  0
LINE
  5
CDD
  8
PÉS_-_DIAGONAIS_VERTICAIS
 10
25.9534578782357706
 20
0.9239624207233649
 30
4.6165532729865459
 11
26.5060219807998685
 21
0.9239624207233649
 31
4.6165532729866374
  0
LINE
  5
CDE
  8
PÉS_-_DIAGONAIS_VERTICAIS
 10
26.1207655705434085
 20
1.0912701130310101
 30
6.1165532729866303
 11
27.225893775671679
 21
1.0912701130310101
 31
6.1165532729865522
  0
LINE
  5
CE5
  8
PÉS_-_DIAGONAIS_VERTICAIS
 10
26.5060219807998685
 20
0.9239624207233649
 30
4.6165532729866374
 11
26.1207655705434405
 21
1.0912701130310101
 31
6.1165532729865451
  0
LINE
  5
CE6
  8
PÉS_-_DIAGONAIS_VERTICAIS
 10
27.2258937756716399
 20
1.0912701130310101
 30
6.1165532729865522
 11
26.2880732628510891
 21
1.258577805338754
 31
7.6165532729865726
  0
LINE
  5
CE7
  8
PÉS_-_DIAGONAIS_VERTICAIS
 10
25.9534578782357386
 20
1.476526523287484
 30
4.6165532729866303
 11
26.1207655705433694
 21
1.091270113031038
 31
6.1165532729868151
  0
LINE
  5
CE8
  8
PÉS_-_DIAGONAIS_VERTICAIS
 10
26.1207655705434405
 20
2.1963983181592619
 30
6.1165532729865451
 11
26.2880732628511709
 21
1.25857780533874
 31
7.6165532729864269
  0
LINE
  5
CF1
  8
PÉS_-_DIAGONAIS_VERTICAIS
 10
26.0371117243896215
 20
1.83646242072333
 30
5.3665532729865451
 11
26.4515348013126896
 21
1.4220393438002601
 31
5.3665532729865859
  0
LINE
  5
CF2
  8
PÉS_-_DIAGONAIS_VERTICAIS
 10
26.451534801312679
 20
1.422039343800259
 30
5.366553272986585
 11
26.3698040320819196
 21
2.1691547284156458
 31
6.4915532729865522
  0
LINE
  5
CF3
  8
PÉS_-_DIAGONAIS_VERTICAIS
 10
26.451534801312679
 20
1.422039343800259
 30
5.366553272986585
 11
27.1986501859273488
 21
1.3403085745695831
 31
6.4915532729855521
  0
LINE
  5
CF4
  8
PÉS_-_DIAGONAIS_VERTICAIS
 10
26.0371117243896215
 20
1.83646242072333
 30
5.3665532729865451
 11
26.3698040320818983
 21
2.1691547284156849
 31
6.4915532729865619
  0
LINE
  5
CF5
  8
PÉS_-_DIAGONAIS_VERTICAIS
 10
26.3698040320818983
 20
2.1691547284156849
 30
6.4915532729865619
 11
26.1721836208637804
 21
2.4176338373536419
 31
6.577542689651608
  0
LINE
  5
CF6
  8
PÉS_-_DIAGONAIS_VERTICAIS
 10
26.8659578782355588
 20
1.007616266878004
 30
5.3665532729865451
 11
27.1986501859276615
 21
1.340308574570537
 31
6.4915532729865619
  0
LINE
  5
CF7
  8
PÉS_-_DIAGONAIS_VERTICAIS
 10
27.1986501859276615
 20
1.340308574570537
 30
6.4915532729865619
 11
27.4471292948657783
 21
1.1426881633526109
 31
6.577542689651608
  0
LINE
  5
11C8
  8
PÉS_-_MONTANTES
 10
26.5060219807998898
 20
0.9239624207233385
 30
4.6165532729866516
 11
26.8659578782354806
 21
1.0076162668771149
 31
5.3665532729859926
  0
LINE
  5
11C9
  8
PÉS_-_MONTANTES
 10
26.8659578782354806
 20
1.0076162668771149
 30
5.3665532729859926
 11
27.2258937756716399
 21
1.0912701130310261
 31
6.1165532729865291
  0
LINE
  5
11CA
  8
PÉS_-_MONTANTES
 10
27.2258937756716399
 20
1.0912701130310261
 30
6.1165532729865291
 11
27.4471292948663717
 21
1.142688163351443
 31
6.5775426896523017
  0
LINE
  5
11CB
  8
PÉS_-_MONTANTES
 10
27.4471292948663717
 20
1.142688163351443
 30
6.5775426896523017
 11
27.9457655705434895
 21
1.258577805338754
 31
7.6165532729866481
  0
LINE
  5
11CC
  8
PÉS_-_MONTANTES
 10
25.9534578782357386
 20
0.9239624207233489
 30
4.6165532729865699
 11
25.7861501859280615
 21
0.7566547284156347
 31
3.1165532729866361
  0
LINE
  5
11CD
  8
PÉS_-_MONTANTES
 10
26.1207655705434085
 20
1.0912701130310689
 30
6.1165532729865371
 11
25.9534578782357386
 21
0.9239624207233489
 31
4.6165532729865699
  0
LINE
  5
11CE
  8
PÉS_-_MONTANTES
 10
25.9534578782357492
 20
1.47652652328748
 30
4.6165532729866223
 11
26.0371117243895789
 21
1.8364624207232949
 31
5.3665532729864251
  0
LINE
  5
11CF
  8
PÉS_-_MONTANTES
 10
26.1207655705434512
 20
2.196398318159257
 30
6.1165532729865326
 11
26.172183620863791
 21
2.4176338373536561
 31
6.577542689651608
  0
LINE
  5
11D0
  8
PÉS_-_MONTANTES
 10
26.0371117243895789
 20
1.8364624207232949
 30
5.3665532729864251
 11
26.1207655705434512
 21
2.196398318159257
 31
6.1165532729865326
  0
LINE
  5
11D1
  8
PÉS_-_MONTANTES
 10
26.172183620863791
 20
2.4176338373536561
 30
6.577542689651608
 11
26.2880732628511709
 21
2.9162701130311119
 31
7.6165532729866046
  0
LINE
  5
11D2
  8
PÉS_-_DIAGONAIS_VERTICAIS
 10
26.3698040320819196
 20
2.1691547284156458
 30
6.4915532729865522
 11
26.2880732628511495
 21
2.9162701130310551
 31
7.6165532729865477
  0
LINE
  5
11D3
  8
PÉS_-_DIAGONAIS_VERTICAIS
 10
27.1986501859273488
 20
1.3403085745695831
 30
6.4915532729855521
 11
27.9457655705434291
 21
1.258577805338754
 31
7.6165532729866481
  0
LINE
  5
11D4
  8
PÉS_-_DIAGONAIS_VERTICAIS
 10
26.4515348013126896
 20
1.4220393438002601
 30
5.3665532729865859
 11
26.8659578782357293
 21
1.0076162668772011
 31
5.3665532729866259
  0
ENDSEC
  0
EOF
