  0
SECTION
  2
HEADER
  9
$ACADVER
  1
AC1009
  9
$INSBASE
 10
0.0
 20
0.0
 30
0.0
  9
$EXTMIN
 10
2274.3420667881550798
 20
1391.8866591039820833
 30
0.0000000000000014
  9
$EXTMAX
 10
2277.0459129420019053
 20
1394.5905052578279992
 30
9.0000000000000444
  9
$LIMMIN
 10
0.0
 20
0.0
  9
$LIMMAX
 10
420.0
 20
297.0
  9
$ORTHOMODE
 70
     0
  9
$REGENMODE
 70
     1
  9
$FILLMODE
 70
     1
  9
$QTEXTMODE
 70
     0
  9
$MIRRTEXT
 70
     0
  9
$DRAGMODE
 70
     2
  9
$LTSCALE
 40
1.0
  9
$OSMODE
 70
    37
  9
$ATTMODE
 70
     1
  9
$TEXTSIZE
 40
2.5
  9
$TRACEWID
 40
1.0
  9
$TEXTSTYLE
  7
STANDARD
  9
$CLAYER
  8
0
  9
$CELTYPE
  6
BYLAYER
  9
$CECOLOR
 62
   256
  9
$DIMSCALE
 40
1.0
  9
$DIMASZ
 40
2.5
  9
$DIMEXO
 40
0.625
  9
$DIMDLI
 40
3.75
  9
$DIMRND
 40
0.0
  9
$DIMDLE
 40
0.0
  9
$DIMEXE
 40
1.25
  9
$DIMTP
 40
0.0
  9
$DIMTM
 40
0.0
  9
$DIMTXT
 40
2.5
  9
$DIMCEN
 40
2.5
  9
$DIMTSZ
 40
0.0
  9
$DIMTOL
 70
     0
  9
$DIMLIM
 70
     0
  9
$DIMTIH
 70
     0
  9
$DIMTOH
 70
     0
  9
$DIMSE1
 70
     0
  9
$DIMSE2
 70
     0
  9
$DIMTAD
 70
     1
  9
$DIMZIN
 70
     8
  9
$DIMBLK
  1

  9
$DIMASO
 70
     1
  9
$DIMSHO
 70
     1
  9
$DIMPOST
  1

  9
$DIMAPOST
  1

  9
$DIMALT
 70
     0
  9
$DIMALTD
 70
     3
  9
$DIMALTF
 40
0.03937007874016
  9
$DIMLFAC
 40
1.0
  9
$DIMTOFL
 70
     1
  9
$DIMTVP
 40
0.0
  9
$DIMTIX
 70
     0
  9
$DIMSOXD
 70
     0
  9
$DIMSAH
 70
     0
  9
$DIMBLK1
  1

  9
$DIMBLK2
  1

  9
$DIMSTYLE
  2
ISO-25
  9
$DIMCLRD
 70
     0
  9
$DIMCLRE
 70
     0
  9
$DIMCLRT
 70
     0
  9
$DIMTFAC
 40
1.0
  9
$DIMGAP
 40
0.625
  9
$LUNITS
 70
     2
  9
$LUPREC
 70
     4
  9
$SKETCHINC
 40
1.0
  9
$FILLETRAD
 40
0.0
  9
$AUNITS
 70
     0
  9
$AUPREC
 70
     0
  9
$MENU
  1
.
  9
$ELEVATION
 40
0.0
  9
$PELEVATION
 40
0.0
  9
$THICKNESS
 40
0.0
  9
$LIMCHECK
 70
     0
  9
$BLIPMODE
 70
     0
  9
$CHAMFERA
 40
0.0
  9
$CHAMFERB
 40
0.0
  9
$SKPOLY
 70
     0
  9
$TDCREATE
 40
2460644.5659027779474854
  9
$TDUPDATE
 40
2460734.5034722220152617
  9
$TDINDWG
 40
0.1457291667
  9
$TDUSRTIMER
 40
0.1457291667
  9
$USRTIMER
 70
     1
  9
$ANGBASE
 50
0.0
  9
$ANGDIR
 70
     0
  9
$PDMODE
 70
     0
  9
$PDSIZE
 40
0.0
  9
$PLINEWID
 40
0.0
  9
$COORDS
 70
     1
  9
$SPLFRAME
 70
     0
  9
$SPLINETYPE
 70
     6
  9
$SPLINESEGS
 70
     8
  9
$ATTDIA
 70
     1
  9
$ATTREQ
 70
     1
  9
$HANDLING
 70
     1
  9
$HANDSEED
  5
12B7
  9
$SURFTAB1
 70
     6
  9
$SURFTAB2
 70
     6
  9
$SURFTYPE
 70
     6
  9
$SURFU
 70
     6
  9
$SURFV
 70
     6
  9
$UCSNAME
  2

  9
$UCSORG
 10
2274.3420667881550798
 20
1391.8866591039820833
 30
0.0000000000000002
  9
$UCSXDIR
 10
1.0
 20
0.0
 30
0.0
  9
$UCSYDIR
 10
0.0
 20
1.0
 30
0.0
  9
$PUCSNAME
  2

  9
$PUCSORG
 10
0.0
 20
0.0
 30
0.0
  9
$PUCSXDIR
 10
1.0
 20
0.0
 30
0.0
  9
$PUCSYDIR
 10
0.0
 20
1.0
 30
0.0
  9
$USERI1
 70
     0
  9
$USERI2
 70
     0
  9
$USERI3
 70
     0
  9
$USERI4
 70
     0
  9
$USERI5
 70
     0
  9
$USERR1
 40
0.0
  9
$USERR2
 40
0.0
  9
$USERR3
 40
0.0
  9
$USERR4
 40
0.0
  9
$USERR5
 40
0.0
  9
$WORLDVIEW
 70
     1
  9
$SHADEDGE
 70
     3
  9
$SHADEDIF
 70
    70
  9
$TILEMODE
 70
     1
  9
$MAXACTVP
 70
    64
  9
$PLIMCHECK
 70
     0
  9
$PEXTMIN
 10
0.0
 20
0.0
 30
0.0
  9
$PEXTMAX
 10
0.0
 20
0.0
 30
0.0
  9
$PLIMMIN
 10
0.0
 20
0.0
  9
$PLIMMAX
 10
12.0
 20
9.0
  9
$UNITMODE
 70
     0
  9
$VISRETAIN
 70
     1
  9
$PLINEGEN
 70
     0
  9
$PSLTSCALE
 70
     1
  0
ENDSEC
  0
SECTION
  2
TABLES
  0
TABLE
  2
VPORT
 70
     1
  0
VPORT
  2
*ACTIVE
 70
     0
 10
0.0
 20
0.0
 11
1.0
 21
1.0
 12
1.2195961555913011
 22
-0.1985320696010877
 13
0.0
 23
0.0
 14
10.0
 24
10.0
 15
10.0
 25
10.0
 16
0.0
 26
0.0
 36
30.1715435010179007
 17
2275.6939898650780378
 27
1393.2385821809050412
 37
4.5000000000000231
 40
6.1260341715110762
 41
2.555259653794939
 42
50.0
 43
0.0
 44
0.0
 50
0.0
 51
0.0
 71
     0
 72
  1000
 73
     1
 74
     3
 75
     0
 76
     1
 77
     0
 78
     0
  0
ENDTAB
  0
TABLE
  2
LTYPE
 70
     1
  0
LTYPE
  2
CONTINUOUS
 70
     0
  3
Solid line
 72
    65
 73
     0
 40
0.0
  0
ENDTAB
  0
TABLE
  2
LAYER
 70
    18
  0
LAYER
  2
0
 70
     0
 62
     7
  6
CONTINUOUS
  0
LAYER
  2
PÉS_-_MONTANTES
 70
     0
 62
   110
  6
CONTINUOUS
  0
LAYER
  2
PÉS_-_DIAGONAIS_VERTICAIS
 70
     0
 62
    94
  6
CONTINUOUS
  0
LAYER
  2
PÉS_-_DIAGONAIS_HORIZONTAI
 70
     0
 62
    64
  6
CONTINUOUS
  0
LAYER
  2
EXTENSÃO_-_DIAGONAIS_HORIZ
 70
     0
 62
    42
  6
CONTINUOUS
  0
LAYER
  2
EXTENSÃO_-_DIAGONAIS_VERTI
 70
     0
 62
    30
  6
CONTINUOUS
  0
LAYER
  2
EXTENSÃO_-_MONTANTES
 70
     0
 62
    41
  6
CONTINUOUS
  0
LAYER
  2
TRONCO_-_DIAGONAIS_HORIZON
 70
     0
 62
   190
  6
CONTINUOUS
  0
LAYER
  2
TRONCO_-_DIAGONAIS_VERTICA
 70
     0
 62
   222
  6
CONTINUOUS
  0
LAYER
  2
TRONCO_-_MONTANTES
 70
     0
 62
   191
  6
CONTINUOUS
  0
LAYER
  2
CABEÇA_-_MONTANTES
 70
     0
 62
    11
  6
CONTINUOUS
  0
LAYER
  2
CABEÇA_-_DIAGONAIS_HORIZON
 70
     0
 62
    12
  6
CONTINUOUS
  0
LAYER
  2
CABEÇA_-_DIAGONAIS_VERTICA
 70
     0
 62
    10
  6
CONTINUOUS
  0
LAYER
  2
BRAÇO_-_MONTANTES
 70
     0
 62
   121
  6
CONTINUOUS
  0
LAYER
  2
BRAÇO_-_DIAGONAIS_VERTICAI
 70
     0
 62
   135
  6
CONTINUOUS
  0
LAYER
  2
BRAÇO_-_DIAGONAIS_HORIZONT
 70
     0
 62
   103
  6
CONTINUOUS
  0
LAYER
  2
PARA_RAIOS_-_MONTANTES
 70
     0
 62
    61
  6
CONTINUOUS
  0
LAYER
  2
PARA_RAIOS_-_DIAGONAIS_VER
 70
     0
 62
    62
  6
CONTINUOUS
  0
ENDTAB
  0
TABLE
  2
STYLE
 70
     2
  0
STYLE
  2
STANDARD
 70
     0
 40
0.0
 41
1.0
 50
0.0
 71
     0
 42
2.5
  3
txt
  4

  0
STYLE
  2
ANNOTATIVE
 70
     0
 40
0.0
 41
1.0
 50
0.0
 71
     0
 42
2.5
  3
txt
  4

  0
ENDTAB
  0
TABLE
  2
VIEW
 70
     0
  0
ENDTAB
  0
TABLE
  2
UCS
 70
     0
  0
ENDTAB
  0
TABLE
  2
APPID
 70
    12
  0
APPID
  2
ACAD
 70
     0
  0
APPID
  2
ACAD_PSEXT
 70
     0
  0
APPID
  2
ACADANNOPO
 70
     0
  0
APPID
  2
ACADANNOTATIVE
 70
     0
  0
APPID
  2
ACAD_DSTYLE_DIMJAG
 70
     0
  0
APPID
  2
ACAD_DSTYLE_DIMTALN
 70
     0
  0
APPID
  2
ACAD_MLEADERVER
 70
     0
  0
APPID
  2
ACAD_NAV_VCDISPLAY
 70
     0
  0
APPID
  2
ACAECLAYERSTANDARD
 70
     0
  0
APPID
  2
ACCMTRANSPARENCY
 70
     0
  0
APPID
  2
ACAD_EXEMPT_FROM_CAD_STANDARDS
 70
     0
  0
APPID
  2
ACAD_TC
 70
     0
  0
ENDTAB
  0
TABLE
  2
DIMSTYLE
 70
     3
  0
DIMSTYLE
  2
STANDARD
 70
     0
  3

  4

  5

  6

  7

 40
1.0
 41
0.18
 42
0.0625
 43
0.38
 44
0.18
 45
0.0
 46
0.0
 47
0.0
 48
0.0
140
0.18
141
0.09
142
0.0
143
25.3999999999999986
144
1.0
145
0.0
146
1.0
147
0.09
 71
     0
 72
     0
 73
     1
 74
     1
 75
     0
 76
     0
 77
     0
 78
     0
170
     0
171
     2
172
     0
173
     0
174
     0
175
     0
176
     0
177
     0
178
     0
  0
DIMSTYLE
  2
ANNOTATIVE
 70
     0
  3

  4

  5

  6

  7

 40
0.0
 41
2.5
 42
0.625
 43
3.75
 44
1.25
 45
0.0
 46
0.0
 47
0.0
 48
0.0
140
2.5
141
2.5
142
0.0
143
0.03937007874016
144
1.0
145
0.0
146
1.0
147
0.625
 71
     0
 72
     0
 73
     0
 74
     0
 75
     0
 76
     0
 77
     1
 78
     8
170
     0
171
     3
172
     1
173
     0
174
     0
175
     0
176
     0
177
     0
178
     0
  0
DIMSTYLE
  2
ISO-25
 70
     0
  3

  4

  5

  6

  7

 40
1.0
 41
2.5
 42
0.625
 43
3.75
 44
1.25
 45
0.0
 46
0.0
 47
0.0
 48
0.0
140
2.5
141
2.5
142
0.0
143
0.03937007874016
144
1.0
145
0.0
146
1.0
147
0.625
 71
     0
 72
     0
 73
     0
 74
     0
 75
     0
 76
     0
 77
     1
 78
     8
170
     0
171
     3
172
     1
173
     0
174
     0
175
     0
176
     0
177
     0
178
     0
  0
ENDTAB
  0
ENDSEC
  0
SECTION
  2
BLOCKS
  0
BLOCK
  8
0
  2
$MODEL_SPACE
 70
     0
 10
0.0
 20
0.0
 30
0.0
  3
$MODEL_SPACE
  1

  0
ENDBLK
  5
21
  8
0
  0
BLOCK
 67
     1
  8
0
  2
$PAPER_SPACE
 70
     0
 10
0.0
 20
0.0
 30
0.0
  3
$PAPER_SPACE
  1

  0
ENDBLK
  5
D5
 67
     1
  8
0
  0
ENDSEC
  0
SECTION
  2
ENTITIES
  0
LINE
  5
B6E
  8
PÉS_-_MONTANTES
 10
2275.3459129420020872
 20
1392.8905052578279538
 30
8.9999999999999964
 11
2275.2025063485962164
 21
1392.7470986644209461
 31
7.7142857142857952
  0
LINE
  5
B77
  8
PÉS_-_MONTANTES
 10
2274.3420667881550798
 20
1391.8866591039820833
 30
0.0000000000000143
 11
2274.5351986562877755
 21
1391.9583624006850187
 31
0.6428571428577788
  0
LINE
  5
B78
  8
PÉS_-_MONTANTES
 10
2274.3420667881550798
 20
1391.8866591039820833
 30
0.0000000000000014
 11
2274.4137700848591521
 21
1392.0797909721140968
 31
0.6428571428567667
  0
LINE
  5
BC3
  8
PÉS_-_DIAGONAIS_VERTICAIS
 10
2274.728330524419107
 20
1392.0300656973879541
 30
1.2857142857143249
 11
2274.4854733815618602
 21
1392.0300656973879541
 31
1.2857142857143249
210
-0.0000000000000031
220
-1.0
230
-0.0000000000000002
  0
LINE
  5
BC4
  8
PÉS_-_DIAGONAIS_VERTICAIS
 10
2275.1145942606831341
 20
1392.1734722907949617
 30
2.5714285714286111
 11
2274.6288799749690952
 21
1392.1734722907949617
 31
2.5714285714286098
210
-0.0000000000000031
220
-1.0
230
-0.0000000000000002
  0
LINE
  5
BC5
  8
PÉS_-_DIAGONAIS_VERTICAIS
 10
2275.5008579969471612
 20
1392.3168788842019694
 30
3.857142857142891
 11
2274.772286568374966
 21
1392.3168788842019694
 31
3.857142857142891
210
-0.0000000000000031
220
-1.0
230
-0.0000000000000002
  0
LINE
  5
BC6
  8
PÉS_-_DIAGONAIS_VERTICAIS
 10
2275.8871217332111883
 20
1392.4602854776080676
 30
5.1428571428571814
 11
2274.9156931617822011
 21
1392.4602854776080676
 31
5.1428571428571814
210
-0.0000000000000031
220
-1.0
230
-0.0000000000000002
  0
LINE
  5
BC7
  8
PÉS_-_DIAGONAIS_VERTICAIS
 10
2276.2733854694738511
 20
1392.6036920710150753
 30
6.4285714285714723
 11
2275.0590997551880719
 21
1392.6036920710150753
 31
6.4285714285714706
210
-0.0000000000000031
220
-1.0
230
-0.0000000000000002
  0
LINE
  5
BC8
  8
PÉS_-_DIAGONAIS_VERTICAIS
 10
2276.6596492057378782
 20
1392.7470986644209461
 30
7.714285714285757
 11
2275.802506348595216
 21
1392.7470986644220829
 31
7.7142857142861532
210
-0.0000000000000031
220
-1.0
230
-0.0000000000000002
  0
LINE
  5
BC9
  8
PÉS_-_DIAGONAIS_VERTICAIS
 10
2274.4854733815618602
 20
1392.0300656973879541
 30
1.2857142857142889
 11
2274.4854733815618602
 21
1392.2729228402461104
 31
1.2857142857142889
210
-1.0
220
0.0000000000000033
230
-0.0000000000000008
  0
LINE
  5
BCA
  8
PÉS_-_DIAGONAIS_VERTICAIS
 10
2274.6288799749690952
 20
1392.1734722907949617
 30
2.5714285714285738
 11
2274.6288799749690952
 21
1392.6591865765090006
 31
2.5714285714285738
210
-1.0
220
0.0000000000000033
230
-0.0000000000000008
  0
LINE
  5
BCB
  8
PÉS_-_DIAGONAIS_VERTICAIS
 10
2274.772286568374966
 20
1392.3168788842019694
 30
3.8571428571428732
 11
2274.772286568374966
 21
1393.0454503127730277
 31
3.8571428571428732
210
-1.0
220
0.0000000000000033
230
-0.0000000000000008
  0
LINE
  5
BCC
  8
PÉS_-_DIAGONAIS_VERTICAIS
 10
2274.9156931617822011
 20
1392.4602854776080676
 30
5.1428571428571432
 11
2274.9156931617822011
 21
1393.4317140490370548
 31
5.1428571428571432
210
-1.0
220
0.0000000000000033
230
-0.0000000000000008
  0
LINE
  5
BCD
  8
PÉS_-_DIAGONAIS_VERTICAIS
 10
2275.0590997551880719
 20
1392.6036920710150753
 30
6.428571428571435
 11
2275.0590997551880719
 21
1393.8179777853010819
 31
6.428571428571435
210
-1.0
220
0.0000000000000033
230
-0.0000000000000008
  0
LINE
  5
BCE
  8
PÉS_-_DIAGONAIS_VERTICAIS
 10
2275.2025063485948522
 20
1392.7470986644209461
 30
7.714285714285718
 11
2275.2025063485948522
 21
1393.347098664421992
 31
7.7142857142861141
210
-1.0
220
0.0000000000000033
230
-0.0000000000000008
  0
LINE
  5
BCF
  8
PÉS_-_DIAGONAIS_VERTICAIS
 10
2274.728330524419107
 20
1392.0300656973879541
 30
1.2857142857143249
 11
2274.6288799749690952
 21
1392.1734722907949617
 31
2.5714285714285738
  0
LINE
  5
BD0
  8
PÉS_-_DIAGONAIS_VERTICAIS
 10
2275.1145942606831341
 20
1392.1734722907949617
 30
2.5714285714286111
 11
2274.772286568374966
 21
1392.3168788842019694
 31
3.857142857142891
  0
LINE
  5
BD1
  8
PÉS_-_DIAGONAIS_VERTICAIS
 10
2275.5008579969471612
 20
1392.3168788842019694
 30
3.857142857142891
 11
2274.9156931617822011
 21
1392.4602854776080676
 31
5.1428571428571432
  0
LINE
  5
BD2
  8
PÉS_-_DIAGONAIS_VERTICAIS
 10
2275.8871217332111883
 20
1392.4602854776080676
 30
5.1428571428571814
 11
2275.0590997551880719
 21
1392.6036920710150753
 31
6.428571428571435
  0
LINE
  5
BD3
  8
PÉS_-_DIAGONAIS_VERTICAIS
 10
2274.4854733815618602
 20
1392.2729228402461104
 30
1.2857142857142889
 11
2274.6288799749690952
 21
1392.1734722907949617
 31
2.5714285714284721
  0
LINE
  5
BD4
  8
PÉS_-_DIAGONAIS_VERTICAIS
 10
2274.6288799749690952
 20
1392.6591865765090006
 30
2.5714285714285738
 11
2274.772286568374966
 21
1392.3168788842019694
 31
3.8571428571428732
  0
LINE
  5
BD5
  8
PÉS_-_DIAGONAIS_VERTICAIS
 10
2274.772286568374966
 20
1393.0454503127730277
 30
3.8571428571428732
 11
2274.9156931617822011
 21
1392.4602854776080676
 31
5.1428571428571432
  0
LINE
  5
BD6
  8
PÉS_-_DIAGONAIS_VERTICAIS
 10
2274.9156931617822011
 20
1393.4317140490370548
 30
5.1428571428571432
 11
2275.0590997551880719
 21
1392.6036920710150753
 31
6.4285714285714324
  0
LINE
  5
BD7
  8
PÉS_-_DIAGONAIS_VERTICAIS
 10
2275.0590997551880719
 20
1392.6036920710150753
 30
6.428571428571435
 11
2275.802506348595216
 21
1392.7470986644209461
 31
7.7142857142857606
  0
LINE
  5
BD8
  8
PÉS_-_DIAGONAIS_VERTICAIS
 10
2275.802506348595216
 20
1392.7470986644209461
 30
7.7142857142857606
 11
2276.2733854694738511
 21
1392.6036920710150753
 31
6.4285714285714723
  0
LINE
  5
BD9
  8
PÉS_-_DIAGONAIS_VERTICAIS
 10
2275.0590997551880719
 20
1392.6036920710150753
 30
6.428571428571435
 11
2275.2025063485948522
 21
1393.3470986644210825
 31
7.7142857142857597
  0
LINE
  5
BDA
  8
PÉS_-_DIAGONAIS_VERTICAIS
 10
2275.802506348595216
 20
1392.7470986644209461
 30
7.714285714285757
 11
2275.3459129420020872
 21
1392.8905052578279538
 31
9.0000000000000373
  0
LINE
  5
BDB
  8
PÉS_-_DIAGONAIS_VERTICAIS
 10
2275.2025063485948522
 20
1393.3470986644210825
 30
7.714285714285718
 11
2275.3459129420020872
 21
1392.8905052578279538
 31
9.0000000000000373
  0
LINE
  5
BDC
  8
PÉS_-_DIAGONAIS_VERTICAIS
 10
2274.5351986562877755
 20
1391.9583624006850187
 30
0.6428571428571971
 11
2274.4137700848591521
 21
1392.0797909721140968
 31
0.6428571428571389
  0
LINE
  5
BDD
  8
PÉS_-_DIAGONAIS_VERTICAIS
 10
2274.5571766782650229
 20
1392.4660547083778965
 30
1.928571428571429
 11
2274.9214623925508931
 21
1392.1017689940920263
 31
1.9285714285714961
  0
LINE
  5
BDE
  8
PÉS_-_DIAGONAIS_VERTICAIS
 10
2275.3077261288149202
 20
1392.2451755874978971
 30
3.2142857142857539
 11
2274.7005832716718032
 21
1392.8523184446410141
 31
3.2142857142857522
  0
LINE
  5
BDF
  8
PÉS_-_DIAGONAIS_VERTICAIS
 10
2274.8439898650790383
 20
1393.2385821809050412
 30
4.5000000000000213
 11
2275.2689898650778559
 21
1392.8135821809050867
 31
4.5000000000000133
  0
LINE
  5
BE0
  8
PÉS_-_DIAGONAIS_VERTICAIS
 10
2275.1308030518921441
 20
1394.0111096534330954
 30
7.0714285714285721
 11
2275.7986601947491181
 21
1393.3432525105749846
 31
7.0714285714283358
  0
LINE
  5
BE1
  8
PÉS_-_DIAGONAIS_VERTICAIS
 10
2275.7986601947491181
 20
1393.3432525105749846
 30
7.0714285714285898
 11
2275.3459129420020872
 21
1394.5905052578279992
 31
9.0000000000000355
  0
LINE
  5
BE2
  8
PÉS_-_DIAGONAIS_VERTICAIS
 10
2275.7986601947491181
 20
1393.3432525105749846
 30
7.0714285714285898
 11
2277.0459129420019053
 21
1392.8905052578279538
 31
9.0000000000000036
  0
LINE
  5
BE3
  8
PÉS_-_DIAGONAIS_VERTICAIS
 10
2276.422286568375057
 20
1393.1168788842019239
 30
8.0357142857142971
 11
2276.466517337606092
 21
1392.6753953677180107
 31
7.0714285714286103
  0
LINE
  5
BE4
  8
PÉS_-_DIAGONAIS_VERTICAIS
 10
2275.7986601947491181
 20
1393.3432525105749846
 30
7.0714285714285898
 11
2274.9873964584849091
 21
1393.6248459171690683
 31
5.7857142857142767
  0
LINE
  5
BE5
  8
PÉS_-_DIAGONAIS_VERTICAIS
 10
2274.9873964584849091
 20
1393.6248459171690683
 30
5.7857142857142767
 11
2275.2689898650778559
 21
1392.8135821809050867
 31
4.4999999999999938
  0
LINE
  5
BE6
  8
PÉS_-_DIAGONAIS_VERTICAIS
 10
2275.2689898650778559
 20
1392.8135821809050867
 30
4.4999999999999938
 11
2276.0802536013420649
 21
1392.531988774311003
 31
5.7857142857143087
  0
LINE
  5
BE7
  8
PÉS_-_DIAGONAIS_VERTICAIS
 10
2276.0802536013420649
 20
1392.531988774311003
 30
5.7857142857143087
 11
2275.7986601947491181
 21
1393.3432525105749846
 31
7.0714285714285774
  0
LINE
  5
BE8
  8
PÉS_-_DIAGONAIS_VERTICAIS
 10
2275.6939898650789473
 20
1392.3885821809049048
 30
4.5000000000000044
 11
2274.7005832716718032
 21
1392.8523184446410141
 31
3.2142857142857522
  0
LINE
  5
BE9
  8
PÉS_-_DIAGONAIS_VERTICAIS
 10
2275.3077261288149202
 20
1392.2451755874978971
 30
3.2142857142857539
 11
2274.5571766782650229
 21
1392.4660547083778965
 31
1.9285714285714071
  0
LINE
  5
BEA
  8
PÉS_-_DIAGONAIS_VERTICAIS
 10
2274.9214623925508931
 20
1392.1017689940920263
 30
1.9285714285714961
 11
2274.4137700848591521
 21
1392.0797909721140968
 31
0.6428571428571247
  0
LINE
  5
11D1
  8
PÉS_-_MONTANTES
 10
2274.4854733815618602
 20
1392.0300656973879541
 30
1.285714285714453
 11
2274.3420667881550798
 21
1391.8866591039820833
 31
0.0000000000000365
  0
LINE
  5
11D3
  8
PÉS_-_MONTANTES
 10
2274.6288799749690952
 20
1392.1734722907949617
 30
2.5714285714294851
 11
2274.4854733815618602
 21
1392.0300656973879541
 31
1.285714285714453
  0
LINE
  5
11D4
  8
PÉS_-_MONTANTES
 10
2274.7722865683758755
 20
1392.3168788842019694
 30
3.8571428571430268
 11
2274.6288799749690952
 21
1392.1734722907949617
 31
2.5714285714294851
  0
LINE
  5
11D5
  8
PÉS_-_MONTANTES
 10
2274.9156931617831106
 20
1392.4602854776080676
 30
5.142857142857272
 11
2274.7722865683758755
 21
1392.3168788842019694
 31
3.8571428571430268
  0
LINE
  5
11D6
  8
PÉS_-_MONTANTES
 10
2275.0590997551889814
 20
1392.6036920710139384
 30
6.4285714285702502
 11
2274.9156931617831106
 21
1392.4602854776080676
 31
5.142857142857272
  0
LINE
  5
11D7
  8
PÉS_-_MONTANTES
 10
2275.2025063485962164
 20
1392.7470986644209461
 30
7.7142857142857952
 11
2275.0590997551889814
 21
1392.6036920710139384
 31
6.4285714285702502
  0
LINE
  5
11D8
  8
PÉS_-_MONTANTES
 10
2274.5351986562877755
 20
1391.9583624006850187
 30
0.6428571428577788
 11
2274.728330524419107
 21
1392.0300656973890909
 31
1.2857142857146291
  0
LINE
  5
11D9
  8
PÉS_-_MONTANTES
 10
2274.728330524419107
 20
1392.0300656973890909
 30
1.2857142857146291
 11
2274.9214623925508931
 21
1392.1017689940920263
 31
1.9285714285714619
  0
LINE
  5
11DA
  8
PÉS_-_MONTANTES
 10
2274.9214623925508931
 20
1392.1017689940920263
 30
1.9285714285714619
 11
2275.1145942606831341
 21
1392.1734722907949617
 31
2.5714285714277851
  0
LINE
  5
11DB
  8
PÉS_-_MONTANTES
 10
2275.1145942606831341
 20
1392.1734722907949617
 30
2.5714285714277851
 11
2275.3077261288158297
 21
1392.245175587499034
 31
3.214285714285487
  0
LINE
  5
11DC
  8
PÉS_-_MONTANTES
 10
2275.3077261288158297
 20
1392.245175587499034
 30
3.214285714285487
 11
2275.5008579969480706
 21
1392.3168788842019694
 31
3.8571428571417661
  0
LINE
  5
11DD
  8
PÉS_-_MONTANTES
 10
2275.5008579969480706
 20
1392.3168788842019694
 30
3.8571428571417661
 11
2275.6939898650798568
 21
1392.3885821809049048
 31
4.4999999999995817
  0
LINE
  5
11DE
  8
PÉS_-_MONTANTES
 10
2275.6939898650798568
 20
1392.3885821809049048
 30
4.4999999999995817
 11
2275.8871217332120978
 21
1392.4602854776080676
 31
5.1428571428552958
  0
LINE
  5
11DF
  8
PÉS_-_MONTANTES
 10
2275.8871217332120978
 20
1392.4602854776080676
 30
5.1428571428552958
 11
2276.0802536013420649
 21
1392.531988774311003
 31
5.785714285708746
  0
LINE
  5
11E0
  8
PÉS_-_MONTANTES
 10
2276.0802536013420649
 20
1392.531988774311003
 30
5.785714285708746
 11
2276.2733854694752154
 21
1392.6036920710139384
 31
6.4285714285692173
  0
LINE
  5
11E1
  8
PÉS_-_MONTANTES
 10
2276.2733854694752154
 20
1392.6036920710139384
 30
6.4285714285692173
 11
2276.466517337606092
 21
1392.6753953677171012
 31
7.0714285714228646
  0
LINE
  5
11E2
  8
PÉS_-_MONTANTES
 10
2276.466517337606092
 20
1392.6753953677171012
 30
7.0714285714228646
 11
2276.659649205740152
 21
1392.7470986644209461
 31
7.714285714285924
  0
LINE
  5
11E3
  8
PÉS_-_MONTANTES
 10
2276.659649205740152
 20
1392.7470986644209461
 30
7.714285714285924
 11
2277.0459129420019053
 21
1392.8905052578279538
 31
8.9999999999999911
  0
LINE
  5
11E4
  8
PÉS_-_MONTANTES
 10
2274.4137700848591521
 20
1392.0797909721140968
 30
0.6428571428567667
 11
2274.4854733815618602
 21
1392.2729228402461104
 31
1.285714285712912
  0
LINE
  5
11E5
  8
PÉS_-_MONTANTES
 10
2274.4854733815618602
 20
1392.2729228402461104
 30
1.285714285712912
 11
2274.5571766782659324
 21
1392.4660547083778965
 31
1.9285714285692681
  0
LINE
  5
11E6
  8
PÉS_-_MONTANTES
 10
2274.5571766782659324
 20
1392.4660547083778965
 30
1.9285714285692681
 11
2274.6288799749690952
 21
1392.6591865765099101
 31
2.57142857142665
  0
LINE
  5
11E7
  8
PÉS_-_MONTANTES
 10
2274.6288799749690952
 20
1392.6591865765099101
 30
2.57142857142665
 11
2274.7005832716731675
 21
1392.8523184446419236
 31
3.214285714283009
  0
LINE
  5
11E8
  8
PÉS_-_MONTANTES
 10
2274.7005832716731675
 20
1392.8523184446419236
 30
3.214285714283009
 11
2274.7722865683758755
 21
1393.0454503127739372
 31
3.8571428571404711
  0
LINE
  5
11E9
  8
PÉS_-_MONTANTES
 10
2274.7722865683758755
 20
1393.0454503127739372
 30
3.8571428571404711
 11
2274.8439898650799478
 21
1393.2385821809059507
 31
4.499999999998443
  0
LINE
  5
11EA
  8
PÉS_-_MONTANTES
 10
2274.8439898650799478
 20
1393.2385821809059507
 30
4.499999999998443
 11
2274.9156931617831106
 21
1393.4317140490379643
 31
5.142857142854834
  0
LINE
  5
11EB
  8
PÉS_-_MONTANTES
 10
2274.9156931617831106
 20
1393.4317140490379643
 30
5.142857142854834
 11
2274.9873964584858186
 21
1393.6248459171690683
 31
5.7857142857093784
  0
LINE
  5
11EC
  8
PÉS_-_MONTANTES
 10
2274.9873964584858186
 20
1393.6248459171690683
 30
5.7857142857093784
 11
2275.0590997551898909
 21
1393.8179777853019914
 31
6.428571428570133
  0
LINE
  5
11ED
  8
PÉS_-_MONTANTES
 10
2275.0590997551898909
 20
1393.8179777853019914
 30
6.428571428570133
 11
2275.1308030518930536
 21
1394.0111096534340049
 31
7.0714285714274601
  0
LINE
  5
11EE
  8
PÉS_-_MONTANTES
 10
2275.1308030518930536
 20
1394.0111096534340049
 30
7.0714285714274601
 11
2275.2025063485962164
 21
1394.2042415215660185
 31
7.7142857142848911
  0
LINE
  5
11EF
  8
PÉS_-_MONTANTES
 10
2275.2025063485962164
 20
1394.2042415215660185
 30
7.7142857142848911
 11
2275.3459129420020872
 21
1394.5905052578279992
 31
9.0000000000000444
  0
LINE
  5
11F0
  8
PÉS_-_DIAGONAIS_VERTICAIS
 10
2275.2689898650778559
 20
1392.8135821809050867
 30
4.5000000000000133
 11
2275.6939898650789473
 21
1392.3885821809049048
 31
4.5000000000000044
  0
LINE
  5
11F1
  8
PÉS_-_DIAGONAIS_VERTICAIS
 10
2275.7986601947491181
 20
1393.3432525105749846
 30
7.0714285714283358
 11
2276.466517337606092
 21
1392.6753953677180107
 31
7.0714285714286076
  0
LINE
  5
11F2
  8
PÉS_-_DIAGONAIS_VERTICAIS
 10
2275.2025063485948522
 20
1393.347098664421992
 30
7.7142857142861141
 11
2275.2025063485948522
 21
1394.2042415215639721
 31
7.7142857142857189
210
-1.0
220
0.0000000000000033
230
-0.0000000000000008
  0
LINE
  5
11F3
  8
PÉS_-_DIAGONAIS_VERTICAIS
 10
2275.802506348595216
 20
1392.7470986644220829
 30
7.7142857142861532
 11
2275.2025063485948522
 21
1392.7470986644209461
 31
7.714285714285757
210
-0.0000000000000031
220
-1.0
230
-0.0000000000000002
  0
LINE
  5
11F4
  8
PÉS_-_DIAGONAIS_VERTICAIS
 10
2275.2025063485948522
 20
1393.3470986644210825
 30
7.7142857142857437
 11
2275.0590997551880719
 21
1393.8179777853029009
 31
6.428571428571435
  0
ENDSEC
  0
EOF
