  0
SECTION
  2
HEADER
  9
$ACADVER
  1
AC1009
  9
$INSBASE
 10
0.0
 20
0.0
 30
0.0
  9
$EXTMIN
 10
2277.1709720187859602
 20
1395.2826372751330837
 30
0.0000000000000613
  9
$EXTMAX
 10
2279.5402027880159039
 20
1397.6518680443630274
 30
6.0000000000002478
  9
$LIMMIN
 10
0.0
 20
0.0
  9
$LIMMAX
 10
420.0
 20
297.0
  9
$ORTHOMODE
 70
     0
  9
$REGENMODE
 70
     1
  9
$FILLMODE
 70
     1
  9
$QTEXTMODE
 70
     0
  9
$MIRRTEXT
 70
     0
  9
$DRAGMODE
 70
     2
  9
$LTSCALE
 40
1.0
  9
$OSMODE
 70
    37
  9
$ATTMODE
 70
     1
  9
$TEXTSIZE
 40
2.5
  9
$TRACEWID
 40
1.0
  9
$TEXTSTYLE
  7
STANDARD
  9
$CLAYER
  8
0
  9
$CELTYPE
  6
BYLAYER
  9
$CECOLOR
 62
   256
  9
$DIMSCALE
 40
1.0
  9
$DIMASZ
 40
2.5
  9
$DIMEXO
 40
0.625
  9
$DIMDLI
 40
3.75
  9
$DIMRND
 40
0.0
  9
$DIMDLE
 40
0.0
  9
$DIMEXE
 40
1.25
  9
$DIMTP
 40
0.0
  9
$DIMTM
 40
0.0
  9
$DIMTXT
 40
2.5
  9
$DIMCEN
 40
2.5
  9
$DIMTSZ
 40
0.0
  9
$DIMTOL
 70
     0
  9
$DIMLIM
 70
     0
  9
$DIMTIH
 70
     0
  9
$DIMTOH
 70
     0
  9
$DIMSE1
 70
     0
  9
$DIMSE2
 70
     0
  9
$DIMTAD
 70
     1
  9
$DIMZIN
 70
     8
  9
$DIMBLK
  1

  9
$DIMASO
 70
     1
  9
$DIMSHO
 70
     1
  9
$DIMPOST
  1

  9
$DIMAPOST
  1

  9
$DIMALT
 70
     0
  9
$DIMALTD
 70
     3
  9
$DIMALTF
 40
0.03937007874016
  9
$DIMLFAC
 40
1.0
  9
$DIMTOFL
 70
     1
  9
$DIMTVP
 40
0.0
  9
$DIMTIX
 70
     0
  9
$DIMSOXD
 70
     0
  9
$DIMSAH
 70
     0
  9
$DIMBLK1
  1

  9
$DIMBLK2
  1

  9
$DIMSTYLE
  2
ISO-25
  9
$DIMCLRD
 70
     0
  9
$DIMCLRE
 70
     0
  9
$DIMCLRT
 70
     0
  9
$DIMTFAC
 40
1.0
  9
$DIMGAP
 40
0.625
  9
$LUNITS
 70
     2
  9
$LUPREC
 70
     4
  9
$SKETCHINC
 40
1.0
  9
$FILLETRAD
 40
0.0
  9
$AUNITS
 70
     0
  9
$AUPREC
 70
     0
  9
$MENU
  1
.
  9
$ELEVATION
 40
0.0
  9
$PELEVATION
 40
0.0
  9
$THICKNESS
 40
0.0
  9
$LIMCHECK
 70
     0
  9
$BLIPMODE
 70
     0
  9
$CHAMFERA
 40
0.0
  9
$CHAMFERB
 40
0.0
  9
$SKPOLY
 70
     0
  9
$TDCREATE
 40
2460644.5659027779474854
  9
$TDUPDATE
 40
2460734.5029398151673377
  9
$TDINDWG
 40
0.1722222222
  9
$TDUSRTIMER
 40
0.1722222222
  9
$USRTIMER
 70
     1
  9
$ANGBASE
 50
0.0
  9
$ANGDIR
 70
     0
  9
$PDMODE
 70
     0
  9
$PDSIZE
 40
0.0
  9
$PLINEWID
 40
0.0
  9
$COORDS
 70
     1
  9
$SPLFRAME
 70
     0
  9
$SPLINETYPE
 70
     6
  9
$SPLINESEGS
 70
     8
  9
$ATTDIA
 70
     1
  9
$ATTREQ
 70
     1
  9
$HANDLING
 70
     1
  9
$HANDSEED
  5
1307
  9
$SURFTAB1
 70
     6
  9
$SURFTAB2
 70
     6
  9
$SURFTYPE
 70
     6
  9
$SURFU
 70
     6
  9
$SURFV
 70
     6
  9
$UCSNAME
  2

  9
$UCSORG
 10
2277.1709720187868697
 20
1395.2826372751330837
 30
0.0000000000000053
  9
$UCSXDIR
 10
1.0
 20
0.0
 30
0.0
  9
$UCSYDIR
 10
0.0
 20
1.0
 30
0.0
  9
$PUCSNAME
  2

  9
$PUCSORG
 10
0.0
 20
0.0
 30
0.0
  9
$PUCSXDIR
 10
1.0
 20
0.0
 30
0.0
  9
$PUCSYDIR
 10
0.0
 20
1.0
 30
0.0
  9
$USERI1
 70
     0
  9
$USERI2
 70
     0
  9
$USERI3
 70
     0
  9
$USERI4
 70
     0
  9
$USERI5
 70
     0
  9
$USERR1
 40
0.0
  9
$USERR2
 40
0.0
  9
$USERR3
 40
0.0
  9
$USERR4
 40
0.0
  9
$USERR5
 40
0.0
  9
$WORLDVIEW
 70
     1
  9
$SHADEDGE
 70
     3
  9
$SHADEDIF
 70
    70
  9
$TILEMODE
 70
     1
  9
$MAXACTVP
 70
    64
  9
$PLIMCHECK
 70
     0
  9
$PEXTMIN
 10
0.0
 20
0.0
 30
0.0
  9
$PEXTMAX
 10
0.0
 20
0.0
 30
0.0
  9
$PLIMMIN
 10
0.0
 20
0.0
  9
$PLIMMAX
 10
12.0
 20
9.0
  9
$UNITMODE
 70
     0
  9
$VISRETAIN
 70
     1
  9
$PLINEGEN
 70
     0
  9
$PSLTSCALE
 70
     1
  0
ENDSEC
  0
SECTION
  2
TABLES
  0
TABLE
  2
VPORT
 70
     1
  0
VPORT
  2
*ACTIVE
 70
     0
 10
0.0
 20
0.0
 11
1.0
 21
1.0
 12
0.6918132242851023
 22
0.0
 13
0.0
 23
0.0
 14
10.0
 24
10.0
 15
10.0
 25
10.0
 16
0.0
 26
0.0
 36
21.20374236857025
 17
2278.3555874034009321
 27
1396.4672526597480555
 37
3.0000000000001541
 40
6.872154602141932
 41
2.555259653794939
 42
50.0
 43
0.0
 44
0.0
 50
0.0
 51
0.0
 71
     0
 72
  1000
 73
     1
 74
     3
 75
     0
 76
     1
 77
     0
 78
     0
  0
ENDTAB
  0
TABLE
  2
LTYPE
 70
     1
  0
LTYPE
  2
CONTINUOUS
 70
     0
  3
Solid line
 72
    65
 73
     0
 40
0.0
  0
ENDTAB
  0
TABLE
  2
LAYER
 70
    18
  0
LAYER
  2
0
 70
     0
 62
     7
  6
CONTINUOUS
  0
LAYER
  2
PÉS_-_MONTANTES
 70
     0
 62
   110
  6
CONTINUOUS
  0
LAYER
  2
PÉS_-_DIAGONAIS_VERTICAIS
 70
     0
 62
    94
  6
CONTINUOUS
  0
LAYER
  2
PÉS_-_DIAGONAIS_HORIZONTAI
 70
     0
 62
    64
  6
CONTINUOUS
  0
LAYER
  2
EXTENSÃO_-_DIAGONAIS_HORIZ
 70
     0
 62
    42
  6
CONTINUOUS
  0
LAYER
  2
EXTENSÃO_-_DIAGONAIS_VERTI
 70
     0
 62
    30
  6
CONTINUOUS
  0
LAYER
  2
EXTENSÃO_-_MONTANTES
 70
     0
 62
    41
  6
CONTINUOUS
  0
LAYER
  2
TRONCO_-_DIAGONAIS_HORIZON
 70
     0
 62
   190
  6
CONTINUOUS
  0
LAYER
  2
TRONCO_-_DIAGONAIS_VERTICA
 70
     0
 62
   222
  6
CONTINUOUS
  0
LAYER
  2
TRONCO_-_MONTANTES
 70
     0
 62
   191
  6
CONTINUOUS
  0
LAYER
  2
CABEÇA_-_MONTANTES
 70
     0
 62
    11
  6
CONTINUOUS
  0
LAYER
  2
CABEÇA_-_DIAGONAIS_HORIZON
 70
     0
 62
    12
  6
CONTINUOUS
  0
LAYER
  2
CABEÇA_-_DIAGONAIS_VERTICA
 70
     0
 62
    10
  6
CONTINUOUS
  0
LAYER
  2
BRAÇO_-_MONTANTES
 70
     0
 62
   121
  6
CONTINUOUS
  0
LAYER
  2
BRAÇO_-_DIAGONAIS_VERTICAI
 70
     0
 62
   135
  6
CONTINUOUS
  0
LAYER
  2
BRAÇO_-_DIAGONAIS_HORIZONT
 70
     0
 62
   103
  6
CONTINUOUS
  0
LAYER
  2
PARA_RAIOS_-_MONTANTES
 70
     0
 62
    61
  6
CONTINUOUS
  0
LAYER
  2
PARA_RAIOS_-_DIAGONAIS_VER
 70
     0
 62
    62
  6
CONTINUOUS
  0
ENDTAB
  0
TABLE
  2
STYLE
 70
     2
  0
STYLE
  2
STANDARD
 70
     0
 40
0.0
 41
1.0
 50
0.0
 71
     0
 42
2.5
  3
txt
  4

  0
STYLE
  2
ANNOTATIVE
 70
     0
 40
0.0
 41
1.0
 50
0.0
 71
     0
 42
2.5
  3
txt
  4

  0
ENDTAB
  0
TABLE
  2
VIEW
 70
     0
  0
ENDTAB
  0
TABLE
  2
UCS
 70
     0
  0
ENDTAB
  0
TABLE
  2
APPID
 70
    12
  0
APPID
  2
ACAD
 70
     0
  0
APPID
  2
ACAD_PSEXT
 70
     0
  0
APPID
  2
ACADANNOPO
 70
     0
  0
APPID
  2
ACADANNOTATIVE
 70
     0
  0
APPID
  2
ACAD_DSTYLE_DIMJAG
 70
     0
  0
APPID
  2
ACAD_DSTYLE_DIMTALN
 70
     0
  0
APPID
  2
ACAD_MLEADERVER
 70
     0
  0
APPID
  2
ACAD_NAV_VCDISPLAY
 70
     0
  0
APPID
  2
ACAECLAYERSTANDARD
 70
     0
  0
APPID
  2
ACCMTRANSPARENCY
 70
     0
  0
APPID
  2
ACAD_EXEMPT_FROM_CAD_STANDARDS
 70
     0
  0
APPID
  2
ACAD_TC
 70
     0
  0
ENDTAB
  0
TABLE
  2
DIMSTYLE
 70
     3
  0
DIMSTYLE
  2
STANDARD
 70
     0
  3

  4

  5

  6

  7

 40
1.0
 41
0.18
 42
0.0625
 43
0.38
 44
0.18
 45
0.0
 46
0.0
 47
0.0
 48
0.0
140
0.18
141
0.09
142
0.0
143
25.3999999999999986
144
1.0
145
0.0
146
1.0
147
0.09
 71
     0
 72
     0
 73
     1
 74
     1
 75
     0
 76
     0
 77
     0
 78
     0
170
     0
171
     2
172
     0
173
     0
174
     0
175
     0
176
     0
177
     0
178
     0
  0
DIMSTYLE
  2
ANNOTATIVE
 70
     0
  3

  4

  5

  6

  7

 40
0.0
 41
2.5
 42
0.625
 43
3.75
 44
1.25
 45
0.0
 46
0.0
 47
0.0
 48
0.0
140
2.5
141
2.5
142
0.0
143
0.03937007874016
144
1.0
145
0.0
146
1.0
147
0.625
 71
     0
 72
     0
 73
     0
 74
     0
 75
     0
 76
     0
 77
     1
 78
     8
170
     0
171
     3
172
     1
173
     0
174
     0
175
     0
176
     0
177
     0
178
     0
  0
DIMSTYLE
  2
ISO-25
 70
     0
  3

  4

  5

  6

  7

 40
1.0
 41
2.5
 42
0.625
 43
3.75
 44
1.25
 45
0.0
 46
0.0
 47
0.0
 48
0.0
140
2.5
141
2.5
142
0.0
143
0.03937007874016
144
1.0
145
0.0
146
1.0
147
0.625
 71
     0
 72
     0
 73
     0
 74
     0
 75
     0
 76
     0
 77
     1
 78
     8
170
     0
171
     3
172
     1
173
     0
174
     0
175
     0
176
     0
177
     0
178
     0
  0
ENDTAB
  0
ENDSEC
  0
SECTION
  2
BLOCKS
  0
BLOCK
  8
0
  2
$MODEL_SPACE
 70
     0
 10
0.0
 20
0.0
 30
0.0
  3
$MODEL_SPACE
  1

  0
ENDBLK
  5
21
  8
0
  0
BLOCK
 67
     1
  8
0
  2
$PAPER_SPACE
 70
     0
 10
0.0
 20
0.0
 30
0.0
  3
$PAPER_SPACE
  1

  0
ENDBLK
  5
D5
 67
     1
  8
0
  0
ENDSEC
  0
SECTION
  2
ENTITIES
  0
LINE
  5
11C4
  8
PÉS_-_MONTANTES
 10
2277.8402027880160858
 20
1395.9518680443629819
 30
6.0000000000000027
 11
2277.6728950957090092
 21
1395.7845603520559052
 31
4.5000000000002851
  0
LINE
  5
11C5
  8
PÉS_-_MONTANTES
 10
2277.8402027880160858
 20
1397.6518680443630274
 30
6.0000000000002478
 11
2277.7565489418639118
 21
1397.3557141982109897
 31
5.2499999999985638
  0
LINE
  5
11C6
  8
PÉS_-_MONTANTES
 10
2277.1709720187859602
 20
1395.2826372751330837
 30
0.0000000000002194
 11
2277.4671258649400443
 21
1395.3662911212859399
 31
0.7500000000001706
  0
LINE
  5
11C7
  8
PÉS_-_DIAGONAIS_VERTICAIS
 10
2277.3382797110939464
 20
1395.449944967439933
 30
1.500000000000228
 11
2277.7632797110941283
 21
1395.449944967439933
 31
1.5000000000002269
  0
LINE
  5
11C8
  8
PÉS_-_DIAGONAIS_VERTICAIS
 10
2277.3382797110939464
 20
1395.449944967439933
 30
1.500000000000228
 11
2277.3382797110939464
 21
1395.8749449674398875
 31
1.500000000000228
  0
LINE
  5
11C9
  8
PÉS_-_DIAGONAIS_VERTICAIS
 10
2277.505587403401023
 20
1395.6172526597479191
 30
3.000000000000111
 11
2278.3555874034009321
 21
1395.6172526597479191
 31
3.0000000000002269
  0
LINE
  5
11CA
  8
PÉS_-_DIAGONAIS_VERTICAIS
 10
2277.505587403401023
 20
1395.6172526597479191
 30
3.000000000000111
 11
2277.505587403401023
 21
1396.4672526597480555
 31
3.000000000000111
  0
LINE
  5
11CB
  8
PÉS_-_DIAGONAIS_VERTICAIS
 10
2277.6728950957090092
 20
1395.7845603520559052
 30
4.500000000000175
 11
2278.9465592941960494
 21
1395.7841830314980598
 31
4.4966171260374006
  0
LINE
  5
11CC
  8
PÉS_-_DIAGONAIS_VERTICAIS
 10
2277.6728950957090092
 20
1395.7845603520559052
 30
4.500000000000175
 11
2277.6728950957090092
 21
1397.0595603520559962
 31
4.500000000000175
  0
LINE
  5
11CD
  8
PÉS_-_DIAGONAIS_VERTICAIS
 10
2277.7632797110941283
 20
1395.449944967439933
 30
1.5000000000002269
 11
2277.505587403401023
 21
1395.6172526597479191
 31
3.000000000000111
  0
LINE
  5
11CE
  8
PÉS_-_DIAGONAIS_VERTICAIS
 10
2277.3382797110939464
 20
1395.8749449674398875
 30
1.500000000000228
 11
2277.505587403401023
 21
1395.6172526597479191
 31
3.0000000000001101
  0
LINE
  5
11CF
  8
PÉS_-_DIAGONAIS_VERTICAIS
 10
2278.3555874034009321
 20
1395.6172526597479191
 30
3.0000000000002269
 11
2277.6728950957090092
 21
1395.7845603520559052
 31
4.500000000000175
  0
LINE
  5
11D0
  8
PÉS_-_DIAGONAIS_VERTICAIS
 10
2277.6728950957090092
 20
1395.7845603520559052
 30
4.500000000000175
 11
2277.505587403401023
 21
1396.4672526597480555
 31
3.0000000000001541
  0
LINE
  5
11D1
  8
PÉS_-_DIAGONAIS_VERTICAIS
 10
2278.9465592941960494
 20
1395.7841830314980598
 30
4.4966171260374006
 11
2277.8402027880160858
 21
1395.9518680443629819
 31
6.0000000000002407
  0
LINE
  5
11D2
  8
PÉS_-_DIAGONAIS_VERTICAIS
 10
2277.8402027880160858
 20
1395.9518680443629819
 30
6.0000000000002407
 11
2277.6728950957090092
 21
1397.0595603520559962
 31
4.5000000000001741
  0
LINE
  5
11D3
  8
PÉS_-_DIAGONAIS_VERTICAIS
 10
2277.4671258649391348
 20
1395.3662911212859399
 30
0.7500000000002274
 11
2277.2546258649399533
 21
1395.5787911212869403
 31
0.7500000000002265
  0
LINE
  5
11D6
  8
PÉS_-_DIAGONAIS_VERTICAIS
 10
2277.42193355724703
 20
1396.1710988135939715
 30
2.250000000000191
 11
2277.7406835572478485
 21
1395.8523488135940624
 31
2.2500000000004681
  0
LINE
  5
11D7
  8
PÉS_-_DIAGONAIS_VERTICAIS
 10
2277.2546258649399533
 20
1395.5787911212869403
 30
0.7500000000002265
 11
2278.0594335572468481
 21
1395.533598813593926
 31
2.25000000000023
  0
LINE
  5
11D8
  8
PÉS_-_DIAGONAIS_VERTICAIS
 10
2277.7565489418630023
 20
1397.3557141982100802
 30
5.2500000000001608
 11
2278.499964991483921
 21
1396.6118698680709258
 31
5.24915428150958
  0
LINE
  5
11D9
  8
PÉS_-_DIAGONAIS_VERTICAIS
 10
2278.499964991483921
 20
1396.6118698680700163
 30
5.249154281509484
 11
2277.8402027880160858
 21
1397.6518680443630274
 31
6.0000000000002478
  0
LINE
  5
11DA
  8
PÉS_-_DIAGONAIS_VERTICAIS
 10
2278.499964991483921
 20
1396.6118698680700163
 30
5.249154281509492
 11
2279.5402027880159039
 21
1395.9518680443629819
 31
6.0000000000002087
  0
LINE
  5
11DB
  8
PÉS_-_DIAGONAIS_VERTICAIS
 10
2278.499964991483921
 20
1396.6118698680700163
 30
5.249154281509484
 11
2277.5892412495550161
 21
1396.7634065059019122
 31
3.7500000000001461
  0
LINE
  5
11DC
  8
PÉS_-_DIAGONAIS_VERTICAIS
 10
2277.5892412495550161
 20
1396.7634065059019122
 30
3.7500000000001328
 11
2277.740683557246939
 21
1395.8523488135940624
 31
2.2500000000002109
  0
LINE
  5
11DD
  8
PÉS_-_DIAGONAIS_VERTICAIS
 10
2277.740683557246939
 20
1395.8523488135940624
 30
2.2500000000002109
 11
2278.6510733487989455
 21
1395.7007178456231031
 31
3.748308563018818
  0
LINE
  5
11DE
  8
PÉS_-_DIAGONAIS_VERTICAIS
 10
2278.6510733487989455
 20
1395.7007178456231031
 30
3.748308563018818
 11
2278.499964991483921
 21
1396.6118698680700163
 31
5.2491542815094929
  0
LINE
  5
120E
  8
PÉS_-_MONTANTES
 10
2277.4671258649400443
 20
1395.3662911212859399
 30
0.7500000000001706
 11
2277.7632797110941283
 21
1395.449944967439933
 31
1.499999999999895
  0
LINE
  5
1210
  8
PÉS_-_MONTANTES
 10
2277.7632797110941283
 20
1395.449944967439933
 30
1.499999999999895
 11
2278.0594335572468481
 21
1395.533598813593926
 31
2.249999999999893
  0
LINE
  5
1211
  8
PÉS_-_MONTANTES
 10
2278.0594335572468481
 20
1395.533598813593926
 30
2.249999999999893
 11
2278.3555874034009321
 21
1395.6172526597479191
 31
3.0000000000004068
  0
LINE
  5
1212
  8
PÉS_-_MONTANTES
 10
2278.3555874034009321
 20
1395.6172526597479191
 30
3.0000000000004068
 11
2278.6510733487971265
 21
1395.7007178456219663
 31
3.748308563016693
  0
LINE
  5
1213
  8
PÉS_-_MONTANTES
 10
2278.6510733487971265
 20
1395.7007178456219663
 30
3.748308563016693
 11
2278.94655929419514
 21
1395.7841830314980598
 31
4.496617126037318
  0
LINE
  5
1214
  8
PÉS_-_MONTANTES
 10
2278.94655929419514
 20
1395.7841830314980598
 30
4.496617126037318
 11
2279.2433810411062041
 21
1395.8680255379299524
 31
5.2483085630190001
  0
LINE
  5
1215
  8
PÉS_-_MONTANTES
 10
2279.2433810411062041
 20
1395.8680255379299524
 30
5.2483085630190001
 11
2279.5402027880159039
 21
1395.9518680443629819
 31
6.0000000000002141
  0
LINE
  5
1216
  8
PÉS_-_MONTANTES
 10
2277.2546258649408628
 20
1395.5787911212880772
 30
0.750000000000302
 11
2277.1709720187859602
 21
1395.2826372751330837
 31
0.0000000000000613
  0
LINE
  5
1217
  8
PÉS_-_MONTANTES
 10
2277.3382797110948559
 20
1395.8749449674410243
 30
1.499999999997865
 11
2277.2546258649408628
 21
1395.5787911212880772
 31
0.750000000000302
  0
LINE
  5
1218
  8
PÉS_-_MONTANTES
 10
2277.421933557248849
 20
1396.1710988135960179
 30
2.2499999999984071
 11
2277.3382797110948559
 21
1395.8749449674410243
 31
1.499999999997865
  0
LINE
  5
1219
  8
PÉS_-_MONTANTES
 10
2277.5055874034019325
 20
1396.4672526597501019
 30
2.9999999999992419
 11
2277.421933557248849
 21
1396.1710988135960179
 31
2.2499999999984071
  0
LINE
  5
121A
  8
PÉS_-_MONTANTES
 10
2277.5892412495559256
 20
1396.7634065059019122
 30
3.7499999999942308
 11
2277.5055874034019325
 21
1396.4672526597501019
 31
2.9999999999992419
  0
LINE
  5
121B
  8
PÉS_-_MONTANTES
 10
2277.6728950957099187
 20
1397.0595603520580426
 30
4.49999999999803
 11
2277.5892412495559256
 21
1396.7634065059019122
 31
3.7499999999942308
  0
LINE
  5
121C
  8
PÉS_-_MONTANTES
 10
2277.7565489418639118
 20
1397.3557141982109897
 30
5.2499999999985638
 11
2277.6728950957099187
 21
1397.0595603520580426
 31
4.49999999999803
  0
LINE
  5
121D
  8
PÉS_-_DIAGONAIS_VERTICAIS
 10
2278.499964991483921
 20
1396.6118698680709258
 30
5.24915428150958
 11
2279.2433810411062041
 21
1395.8680255379310893
 31
5.2483085630188082
  0
LINE
  5
121E
  8
PÉS_-_DIAGONAIS_VERTICAIS
 10
2277.7406835572478485
 20
1395.8523488135940624
 30
2.2500000000004681
 11
2278.0594335572468481
 21
1395.533598813593926
 31
2.2500000000002252
  0
LINE
  5
1226
  8
PÉS_-_MONTANTES
 10
2277.3382797110939464
 20
1395.449944967439933
 30
1.500000000000115
 11
2277.1709720187859602
 21
1395.2826372751330837
 31
0.0000000000002185
  0
LINE
  5
1227
  8
PÉS_-_MONTANTES
 10
2277.5055874034019325
 20
1395.6172526597479191
 30
3.0000000000000622
 11
2277.3382797110939464
 21
1395.449944967439933
 31
1.500000000000115
  0
LINE
  5
1228
  8
PÉS_-_MONTANTES
 10
2277.6728950957090092
 20
1395.7845603520559052
 30
4.5000000000002851
 11
2277.5055874034019325
 21
1395.6172526597479191
 31
3.0000000000000622
  0
ENDSEC
  0
EOF
