  0
SECTION
  2
HEADER
  9
$ACADVER
  1
AC1009
  9
$INSBASE
 10
0.0
 20
0.0
 30
0.0
  9
$EXTMIN
 10
25.4515348013122811
 20
0.4220393438009929
 30
0.1165532729865548
  9
$EXTMAX
 10
27.94576557054312
 20
2.916270113031433
 30
7.616553272986704
  9
$LIMMIN
 10
0.0
 20
0.0
  9
$LIMMAX
 10
420.0
 20
297.0
  9
$ORTHOMODE
 70
     0
  9
$REGENMODE
 70
     1
  9
$FILLMODE
 70
     1
  9
$QTEXTMODE
 70
     0
  9
$MIRRTEXT
 70
     0
  9
$DRAGMODE
 70
     2
  9
$LTSCALE
 40
1.0
  9
$OSMODE
 70
    37
  9
$ATTMODE
 70
     1
  9
$TEXTSIZE
 40
2.5
  9
$TRACEWID
 40
1.0
  9
$TEXTSTYLE
  7
STANDARD
  9
$CLAYER
  8
0
  9
$CELTYPE
  6
BYLAYER
  9
$CECOLOR
 62
   256
  9
$DIMSCALE
 40
1.0
  9
$DIMASZ
 40
2.5
  9
$DIMEXO
 40
0.625
  9
$DIMDLI
 40
3.75
  9
$DIMRND
 40
0.0
  9
$DIMDLE
 40
0.0
  9
$DIMEXE
 40
1.25
  9
$DIMTP
 40
0.0
  9
$DIMTM
 40
0.0
  9
$DIMTXT
 40
2.5
  9
$DIMCEN
 40
2.5
  9
$DIMTSZ
 40
0.0
  9
$DIMTOL
 70
     0
  9
$DIMLIM
 70
     0
  9
$DIMTIH
 70
     0
  9
$DIMTOH
 70
     0
  9
$DIMSE1
 70
     0
  9
$DIMSE2
 70
     0
  9
$DIMTAD
 70
     1
  9
$DIMZIN
 70
     8
  9
$DIMBLK
  1

  9
$DIMASO
 70
     1
  9
$DIMSHO
 70
     1
  9
$DIMPOST
  1

  9
$DIMAPOST
  1

  9
$DIMALT
 70
     0
  9
$DIMALTD
 70
     3
  9
$DIMALTF
 40
0.03937007874016
  9
$DIMLFAC
 40
1.0
  9
$DIMTOFL
 70
     1
  9
$DIMTVP
 40
0.0
  9
$DIMTIX
 70
     0
  9
$DIMSOXD
 70
     0
  9
$DIMSAH
 70
     0
  9
$DIMBLK1
  1

  9
$DIMBLK2
  1

  9
$DIMSTYLE
  2
ISO-25
  9
$DIMCLRD
 70
     0
  9
$DIMCLRE
 70
     0
  9
$DIMCLRT
 70
     0
  9
$DIMTFAC
 40
1.0
  9
$DIMGAP
 40
0.625
  9
$LUNITS
 70
     2
  9
$LUPREC
 70
     4
  9
$SKETCHINC
 40
1.0
  9
$FILLETRAD
 40
0.0
  9
$AUNITS
 70
     0
  9
$AUPREC
 70
     0
  9
$MENU
  1
.
  9
$ELEVATION
 40
0.0
  9
$PELEVATION
 40
0.0
  9
$THICKNESS
 40
0.0
  9
$LIMCHECK
 70
     0
  9
$BLIPMODE
 70
     0
  9
$CHAMFERA
 40
0.0
  9
$CHAMFERB
 40
0.0
  9
$SKPOLY
 70
     0
  9
$TDCREATE
 40
2460649.4614930548705161
  9
$TDUPDATE
 40
2460734.5031712967902422
  9
$TDINDWG
 40
0.1081134259
  9
$TDUSRTIMER
 40
0.1081134259
  9
$USRTIMER
 70
     1
  9
$ANGBASE
 50
0.0
  9
$ANGDIR
 70
     0
  9
$PDMODE
 70
     0
  9
$PDSIZE
 40
0.0
  9
$PLINEWID
 40
0.0
  9
$COORDS
 70
     1
  9
$SPLFRAME
 70
     0
  9
$SPLINETYPE
 70
     6
  9
$SPLINESEGS
 70
     8
  9
$ATTDIA
 70
     1
  9
$ATTREQ
 70
     1
  9
$HANDLING
 70
     1
  9
$HANDSEED
  5
12DB
  9
$SURFTAB1
 70
     6
  9
$SURFTAB2
 70
     6
  9
$SURFTYPE
 70
     6
  9
$SURFU
 70
     6
  9
$SURFV
 70
     6
  9
$UCSNAME
  2

  9
$UCSORG
 10
25.4515348013122811
 20
0.4220393438010071
 30
0.1165532729865832
  9
$UCSXDIR
 10
1.0
 20
0.0
 30
0.0
  9
$UCSYDIR
 10
0.0
 20
1.0
 30
0.0
  9
$PUCSNAME
  2

  9
$PUCSORG
 10
0.0
 20
0.0
 30
0.0
  9
$PUCSXDIR
 10
1.0
 20
0.0
 30
0.0
  9
$PUCSYDIR
 10
0.0
 20
1.0
 30
0.0
  9
$USERI1
 70
     0
  9
$USERI2
 70
     0
  9
$USERI3
 70
     0
  9
$USERI4
 70
     0
  9
$USERI5
 70
     0
  9
$USERR1
 40
0.0
  9
$USERR2
 40
0.0
  9
$USERR3
 40
0.0
  9
$USERR4
 40
0.0
  9
$USERR5
 40
0.0
  9
$WORLDVIEW
 70
     1
  9
$SHADEDGE
 70
     3
  9
$SHADEDIF
 70
    70
  9
$TILEMODE
 70
     1
  9
$MAXACTVP
 70
    64
  9
$PLIMCHECK
 70
     0
  9
$PEXTMIN
 10
0.0
 20
0.0
 30
0.0
  9
$PEXTMAX
 10
0.0
 20
0.0
 30
0.0
  9
$PLIMMIN
 10
0.0
 20
0.0
  9
$PLIMMAX
 10
12.0
 20
9.0
  9
$UNITMODE
 70
     0
  9
$VISRETAIN
 70
     1
  9
$PLINEGEN
 70
     0
  9
$PSLTSCALE
 70
     1
  0
ENDSEC
  0
SECTION
  2
TABLES
  0
TABLE
  2
VPORT
 70
     1
  0
VPORT
  2
*ACTIVE
 70
     0
 10
0.0
 20
0.0
 11
1.0
 21
1.0
 12
1.162336166240763
 22
0.0
 13
0.0
 23
0.0
 14
10.0
 24
10.0
 15
10.0
 25
10.0
 16
-10.7912958474982403
 26
-25.4954439671919886
 36
21.6643913880414907
 17
30.6422997766377385
 27
0.3852125783416101
 37
4.3825751454218942
 40
11.5461132480110908
 41
2.555259653794939
 42
50.0
 43
0.0
 44
0.0
 50
0.0
 51
0.0000000000000036
 71
     0
 72
  1000
 73
     1
 74
     3
 75
     0
 76
     1
 77
     0
 78
     0
  0
ENDTAB
  0
TABLE
  2
LTYPE
 70
     1
  0
LTYPE
  2
CONTINUOUS
 70
     0
  3
Solid line
 72
    65
 73
     0
 40
0.0
  0
ENDTAB
  0
TABLE
  2
LAYER
 70
    15
  0
LAYER
  2
0
 70
     0
 62
     7
  6
CONTINUOUS
  0
LAYER
  2
PÉS_-_MONTANTES
 70
     0
 62
   110
  6
CONTINUOUS
  0
LAYER
  2
PÉS_-_DIAGONAIS_VERTICAIS
 70
     0
 62
    94
  6
CONTINUOUS
  0
LAYER
  2
PÉS_-_DIAGONAIS_HORIZONTAI
 70
     0
 62
    64
  6
CONTINUOUS
  0
LAYER
  2
TRONCO_-_DIAGONAIS_HORIZON
 70
     0
 62
   190
  6
CONTINUOUS
  0
LAYER
  2
TRONCO_-_DIAGONAIS_VERTICA
 70
     0
 62
   222
  6
CONTINUOUS
  0
LAYER
  2
TRONCO_-_MONTANTES
 70
     0
 62
   191
  6
CONTINUOUS
  0
LAYER
  2
CABEÇA_-_MONTANTES
 70
     0
 62
    11
  6
CONTINUOUS
  0
LAYER
  2
CABEÇA_-_DIAGONAIS_HORIZON
 70
     0
 62
    12
  6
CONTINUOUS
  0
LAYER
  2
CABEÇA_-_DIAGONAIS_VERTICA
 70
     0
 62
    10
  6
CONTINUOUS
  0
LAYER
  2
BRAÇO_-_MONTANTES
 70
     0
 62
   121
  6
CONTINUOUS
  0
LAYER
  2
BRAÇO_-_DIAGONAIS_VERTICAI
 70
     0
 62
   135
  6
CONTINUOUS
  0
LAYER
  2
BRAÇO_-_DIAGONAIS_HORIZONT
 70
     0
 62
   103
  6
CONTINUOUS
  0
LAYER
  2
PARA_RAIOS_-_MONTANTES
 70
     0
 62
    61
  6
CONTINUOUS
  0
LAYER
  2
PARA_RAIOS_-_DIAGONAIS_VER
 70
     0
 62
    62
  6
CONTINUOUS
  0
ENDTAB
  0
TABLE
  2
STYLE
 70
     2
  0
STYLE
  2
STANDARD
 70
     0
 40
0.0
 41
1.0
 50
0.0
 71
     0
 42
2.5
  3
txt
  4

  0
STYLE
  2
ANNOTATIVE
 70
     0
 40
0.0
 41
1.0
 50
0.0
 71
     0
 42
2.5
  3
txt
  4

  0
ENDTAB
  0
TABLE
  2
VIEW
 70
     0
  0
ENDTAB
  0
TABLE
  2
UCS
 70
     0
  0
ENDTAB
  0
TABLE
  2
APPID
 70
    12
  0
APPID
  2
ACAD
 70
     0
  0
APPID
  2
ACAD_PSEXT
 70
     0
  0
APPID
  2
ACADANNOPO
 70
     0
  0
APPID
  2
ACADANNOTATIVE
 70
     0
  0
APPID
  2
ACAD_DSTYLE_DIMJAG
 70
     0
  0
APPID
  2
ACAD_DSTYLE_DIMTALN
 70
     0
  0
APPID
  2
ACAD_MLEADERVER
 70
     0
  0
APPID
  2
ACAD_NAV_VCDISPLAY
 70
     0
  0
APPID
  2
ACAECLAYERSTANDARD
 70
     0
  0
APPID
  2
ACCMTRANSPARENCY
 70
     0
  0
APPID
  2
ACAD_EXEMPT_FROM_CAD_STANDARDS
 70
     0
  0
APPID
  2
ACAD_TC
 70
     0
  0
ENDTAB
  0
TABLE
  2
DIMSTYLE
 70
     3
  0
DIMSTYLE
  2
STANDARD
 70
     0
  3

  4

  5

  6

  7

 40
1.0
 41
0.18
 42
0.0625
 43
0.38
 44
0.18
 45
0.0
 46
0.0
 47
0.0
 48
0.0
140
0.18
141
0.09
142
0.0
143
25.3999999999999986
144
1.0
145
0.0
146
1.0
147
0.09
 71
     0
 72
     0
 73
     1
 74
     1
 75
     0
 76
     0
 77
     0
 78
     0
170
     0
171
     2
172
     0
173
     0
174
     0
175
     0
176
     0
177
     0
178
     0
  0
DIMSTYLE
  2
ANNOTATIVE
 70
     0
  3

  4

  5

  6

  7

 40
0.0
 41
2.5
 42
0.625
 43
3.75
 44
1.25
 45
0.0
 46
0.0
 47
0.0
 48
0.0
140
2.5
141
2.5
142
0.0
143
0.03937007874016
144
1.0
145
0.0
146
1.0
147
0.625
 71
     0
 72
     0
 73
     0
 74
     0
 75
     0
 76
     0
 77
     1
 78
     8
170
     0
171
     3
172
     1
173
     0
174
     0
175
     0
176
     0
177
     0
178
     0
  0
DIMSTYLE
  2
ISO-25
 70
     0
  3

  4

  5

  6

  7

 40
1.0
 41
2.5
 42
0.625
 43
3.75
 44
1.25
 45
0.0
 46
0.0
 47
0.0
 48
0.0
140
2.5
141
2.5
142
0.0
143
0.03937007874016
144
1.0
145
0.0
146
1.0
147
0.625
 71
     0
 72
     0
 73
     0
 74
     0
 75
     0
 76
     0
 77
     1
 78
     8
170
     0
171
     3
172
     1
173
     0
174
     0
175
     0
176
     0
177
     0
178
     0
  0
ENDTAB
  0
ENDSEC
  0
SECTION
  2
BLOCKS
  0
BLOCK
  8
0
  2
$MODEL_SPACE
 70
     0
 10
0.0
 20
0.0
 30
0.0
  3
$MODEL_SPACE
  1

  0
ENDBLK
  5
21
  8
0
  0
BLOCK
 67
     1
  8
0
  2
$PAPER_SPACE
 70
     0
 10
0.0
 20
0.0
 30
0.0
  3
$PAPER_SPACE
  1

  0
ENDBLK
  5
D5
 67
     1
  8
0
  0
ENDSEC
  0
SECTION
  2
ENTITIES
  0
LINE
  5
11A6
  8
PÉS_-_MONTANTES
 10
25.4515348013122811
 20
0.4220393438010071
 30
0.1165532729865832
 11
25.5909578782353684
 21
0.5614624207240331
 31
1.366553272986532
  0
LINE
  5
11A7
  8
PÉS_-_MONTANTES
 10
25.4515348013122811
 20
0.4220393438010071
 30
0.1165532729865832
 11
25.5212463397738496
 21
0.6298919079035253
 31
0.7415532729865469
  0
LINE
  5
11A8
  8
PÉS_-_MONTANTES
 10
25.4515348013122811
 20
0.4220393438009929
 30
0.1165532729865548
 11
25.659387365414851
 21
0.4917508822624857
 31
0.7415532729865442
  0
LINE
  5
11A9
  8
PÉS_-_DIAGONAIS_VERTICAIS
 10
25.5909578782353613
 20
0.5614624207241042
 30
1.3665532729865479
 11
25.5909578782354217
 21
0.8377444720060713
 31
1.366553272986583
  0
LINE
  5
11AA
  8
PÉS_-_DIAGONAIS_VERTICAIS
 10
25.5909578782353684
 20
0.5614624207241042
 30
1.3665532729865479
 11
25.8672399295174102
 21
0.5614624207239807
 31
1.3665532729865479
  0
LINE
  5
11AB
  8
PÉS_-_DIAGONAIS_VERTICAIS
 10
25.7303809551584486
 20
0.7008854976470582
 30
2.616553272986581
 11
25.7303809551585694
 21
1.2534496002111339
 31
2.6165532729865828
  0
LINE
  5
11AC
  8
PÉS_-_DIAGONAIS_VERTICAIS
 10
25.7303809551584486
 20
0.7008854976470582
 30
2.616553272986581
 11
26.2829450577225003
 21
0.7008854976470404
 31
2.6165532729863781
  0
LINE
  5
11AD
  8
PÉS_-_DIAGONAIS_VERTICAIS
 10
25.8698040320815785
 20
0.8403085745700984
 30
3.8665532729865961
 11
25.86980403208171
 21
1.669154728416312
 31
3.866553272986573
  0
LINE
  5
11AE
  8
PÉS_-_DIAGONAIS_VERTICAIS
 10
25.8698040320815714
 20
0.8403085745701837
 30
3.866553272986561
 11
26.6986501859277006
 21
0.8403085745700282
 31
3.8665532729865602
  0
LINE
  5
11AF
  8
PÉS_-_DIAGONAIS_VERTICAIS
 10
26.00922710900468
 20
0.9797316514931377
 30
5.1165532729865957
 11
26.009227109004879
 21
2.0848598566212631
 31
5.116553272986601
  0
LINE
  5
11B0
  8
PÉS_-_DIAGONAIS_VERTICAIS
 10
26.00922710900468
 20
0.9797316514932231
 30
5.1165532729865957
 11
27.1143553141328901
 21
0.9797316514929308
 31
5.1165532729866046
  0
LINE
  5
11B1
  8
PÉS_-_DIAGONAIS_VERTICAIS
 10
26.1486501859277389
 20
1.1191547284161629
 30
6.3665532729866143
 11
26.1486501859278491
 21
1.6691547284162429
 31
6.3665532729866001
  0
LINE
  5
11B2
  8
PÉS_-_DIAGONAIS_VERTICAIS
 10
26.1486501859277709
 20
1.1191547284162631
 30
6.366553272986577
 11
26.6986501859278
 21
1.1191547284161569
 31
6.366553272986577
  0
LINE
  5
11B3
  8
PÉS_-_DIAGONAIS_VERTICAIS
 10
25.5909578782354217
 20
0.8377444720060713
 30
1.366553272986583
 11
25.7303809551584592
 21
0.7008854976470582
 31
2.616553272986581
  0
LINE
  5
11B4
  8
PÉS_-_DIAGONAIS_VERTICAIS
 10
25.8672399295174102
 20
0.5614624207239807
 30
1.3665532729865479
 11
25.7303809551584592
 21
0.7008854976470582
 31
2.6165532729865482
  0
LINE
  5
11B5
  8
PÉS_-_DIAGONAIS_VERTICAIS
 10
25.7303809551585694
 20
1.2534496002111339
 30
2.6165532729865828
 11
25.8698040320815714
 21
0.8403085745700984
 31
3.866553272986597
  0
LINE
  5
11B6
  8
PÉS_-_DIAGONAIS_VERTICAIS
 10
25.86980403208171
 20
1.6691547284161989
 30
3.866553272986573
 11
26.00922710900468
 21
0.9797316514932231
 31
5.1165532729865957
  0
LINE
  5
11B7
  8
PÉS_-_DIAGONAIS_VERTICAIS
 10
26.00922710900468
 20
0.9797316514932231
 30
5.1165532729865957
 11
26.6986501859277006
 21
0.8403085745700282
 31
3.8665532729865659
  0
LINE
  5
11B8
  8
PÉS_-_DIAGONAIS_VERTICAIS
 10
25.8698040320815785
 20
0.8403085745701837
 30
3.866553272986561
 11
26.282945057722479
 21
0.7008854976470263
 31
2.6165532729863838
  0
LINE
  5
11B9
  8
PÉS_-_DIAGONAIS_VERTICAIS
 10
26.009227109004879
 20
2.0848598566212631
 30
5.116553272986601
 11
26.1486501859278597
 21
1.669154728416246
 31
6.366553272986577
  0
LINE
  5
11BA
  8
PÉS_-_DIAGONAIS_VERTICAIS
 10
26.1486501859278597
 20
1.669154728416246
 30
6.366553272986577
 11
26.0092271090046907
 21
0.9797316514931093
 31
5.1165532729866046
  0
LINE
  5
11BB
  8
PÉS_-_DIAGONAIS_VERTICAIS
 10
26.0092271090046907
 20
0.9797316514931093
 30
5.1165532729866046
 11
26.6986501859277894
 21
1.11915472841616
 31
6.366553272986577
  0
LINE
  5
11BC
  8
PÉS_-_DIAGONAIS_VERTICAIS
 10
26.6986501859277894
 20
1.11915472841616
 30
6.366553272986577
 11
27.1143553141328688
 21
0.9797316514929166
 31
5.1165532729866117
  0
LINE
  5
11BD
  8
PÉS_-_DIAGONAIS_VERTICAIS
 10
26.1486501859278597
 20
1.669154728416246
 30
6.3665532729865983
 11
26.2880732628508298
 21
1.253449600211229
 31
7.616553272986569
  0
LINE
  5
11BE
  8
PÉS_-_DIAGONAIS_VERTICAIS
 10
26.2880732628508298
 20
1.253449600211229
 30
7.616553272986569
 11
26.6986501859277894
 21
1.11915472841616
 31
6.366553272986577
  0
LINE
  5
11D5
  8
PÉS_-_DIAGONAIS_VERTICAIS
 10
25.5212463397738283
 20
0.6298919079035326
 30
0.7415532729865624
 11
25.659387365414851
 21
0.4917508822624868
 31
0.7415532729865438
  0
LINE
  5
11D6
  8
PÉS_-_DIAGONAIS_VERTICAIS
 10
25.659387365414851
 20
0.4917508822624868
 30
0.7415532729865438
 11
25.6606694166970009
 21
1.045597036108596
 31
1.991553272986583
  0
LINE
  5
11D7
  8
PÉS_-_DIAGONAIS_VERTICAIS
 10
25.6606694166970009
 20
1.045597036108596
 30
1.991553272986583
 11
26.0750924936199411
 21
0.6311739591855039
 31
1.9915532729864649
  0
LINE
  5
11D8
  8
PÉS_-_DIAGONAIS_VERTICAIS
 10
26.0750924936199411
 20
0.6311739591855039
 30
1.9915532729864649
 11
25.8000924936201415
 21
1.4613021643137309
 31
3.2415532729865779
  0
LINE
  5
11D9
  8
PÉS_-_DIAGONAIS_VERTICAIS
 10
25.8000924936201415
 20
1.4613021643137309
 30
3.2415532729865779
 11
26.1454450577226183
 21
1.1159496002111251
 31
3.2415532729865282
  0
LINE
  5
11DA
  8
PÉS_-_DIAGONAIS_VERTICAIS
 10
26.0789386474664404
 20
2.2927124207238019
 30
5.7415532729865797
 11
26.7005732628509413
 21
1.671077805339132
 31
5.7415532729865868
  0
LINE
  5
11DB
  8
PÉS_-_DIAGONAIS_VERTICAIS
 10
26.1454450577226183
 20
1.1159496002111251
 30
3.241553272986526
 11
26.9065027500302598
 21
0.9100201130314937
 31
4.4915532729865317
  0
LINE
  5
11DC
  8
PÉS_-_DIAGONAIS_VERTICAIS
 10
26.9065027500302598
 20
0.9100201130314937
 30
4.4915532729865317
 11
26.7005732628509307
 21
1.6710778053391351
 31
5.741553272986585
  0
LINE
  5
11DD
  8
PÉS_-_DIAGONAIS_VERTICAIS
 10
26.7005732628509307
 20
1.6710778053391351
 30
5.741553272986585
 11
25.9395155705433105
 21
1.8770072925186949
 31
4.491553272986482
  0
LINE
  5
11DE
  8
PÉS_-_DIAGONAIS_VERTICAIS
 10
25.9395155705433105
 20
1.8770072925186949
 30
4.491553272986482
 11
26.1454450577226183
 21
1.1159496002111251
 31
3.241553272986526
  0
LINE
  5
11DF
  8
PÉS_-_DIAGONAIS_VERTICAIS
 10
26.7005732628509307
 20
1.6710778053391351
 30
5.741553272986585
 11
26.4943232628510295
 21
2.2936739591852122
 31
6.679053272986434
  0
LINE
  5
11E0
  8
PÉS_-_DIAGONAIS_VERTICAIS
 10
26.7005732628509307
 20
1.6710778053391351
 30
5.741553272986585
 11
27.3231694166969703
 21
1.464827805339056
 31
6.6790532729864873
  0
LINE
  5
11E1
  8
PÉS_-_DIAGONAIS_VERTICAIS
 10
26.2157652192096613
 20
2.7006757852085341
 30
6.9682742610288058
 11
26.4943232628510117
 21
2.293673959185206
 31
6.6790532729864491
  0
LINE
  5
11E2
  8
PÉS_-_DIAGONAIS_VERTICAIS
 10
26.4943232628510117
 20
2.293673959185206
 30
6.6790532729864491
 11
26.0789386474664404
 21
2.2927124207237881
 31
5.7415532729865868
  0
LINE
  5
11E3
  8
PÉS_-_DIAGONAIS_VERTICAIS
 10
27.7301712427201217
 20
1.1862697616974549
 30
6.9682742610288058
 11
27.3231694166969099
 21
1.4648278053389781
 31
6.6790532729864491
  0
LINE
  5
11E4
  8
PÉS_-_DIAGONAIS_VERTICAIS
 10
27.3231694166969099
 20
1.4648278053389781
 30
6.6790532729864491
 11
27.3222078782353215
 21
1.0494431899544101
 31
5.7415532729865868
  0
LINE
  5
120D
  8
PÉS_-_MONTANTES
 10
25.5212463397738496
 20
0.6298919079035253
 30
0.7415532729865469
 11
25.5909578782354288
 21
0.8377444720060694
 31
1.366553272986587
  0
LINE
  5
120E
  8
PÉS_-_MONTANTES
 10
25.5909578782354288
 20
0.8377444720060694
 30
1.366553272986587
 11
25.6606694166970115
 21
1.0455970361086071
 31
1.991553272986609
  0
LINE
  5
120F
  8
PÉS_-_MONTANTES
 10
25.6606694166970115
 20
1.0455970361086071
 30
1.991553272986609
 11
25.73038095515858
 21
1.2534496002111239
 31
2.6165532729865708
  0
LINE
  5
1210
  8
PÉS_-_MONTANTES
 10
25.73038095515858
 20
1.2534496002111239
 30
2.6165532729865708
 11
25.8000924936201415
 21
1.461302164313617
 31
3.241553272986454
  0
LINE
  5
1211
  8
PÉS_-_MONTANTES
 10
25.8000924936201415
 20
1.461302164313617
 30
3.241553272986454
 11
25.8698040320817206
 21
1.669154728416183
 31
3.866553272986553
  0
LINE
  5
1212
  8
PÉS_-_MONTANTES
 10
25.8698040320817206
 20
1.669154728416183
 30
3.866553272986553
 11
25.9395155705432892
 21
1.877007292518712
 31
4.4915532729865397
  0
LINE
  5
1213
  8
PÉS_-_MONTANTES
 10
25.9395155705432892
 20
1.877007292518712
 30
4.4915532729865397
 11
26.0092271090048683
 21
2.084859856621275
 31
5.1165532729866312
  0
LINE
  5
1214
  8
PÉS_-_MONTANTES
 10
26.0092271090048683
 20
2.084859856621275
 30
5.1165532729866312
 11
26.0789386474664404
 21
2.2927124207237828
 31
5.7415532729865664
  0
LINE
  5
1215
  8
PÉS_-_MONTANTES
 10
26.0789386474664404
 20
2.2927124207237828
 30
5.7415532729865664
 11
26.1486501859280089
 21
2.5005649848263181
 31
6.3665532729865717
  0
LINE
  5
1216
  8
PÉS_-_MONTANTES
 10
26.1486501859280089
 20
2.5005649848263181
 30
6.3665532729865717
 11
26.2157652192096684
 21
2.7006757852085381
 31
6.9682742610288031
  0
LINE
  5
1217
  8
PÉS_-_MONTANTES
 10
26.2157652192096684
 20
2.7006757852085381
 30
6.9682742610288031
 11
26.2880732628511495
 21
2.916270113031433
 31
7.616553272986704
  0
LINE
  5
1218
  8
PÉS_-_MONTANTES
 10
25.5909578782353684
 20
0.5614624207240331
 30
1.366553272986532
 11
25.7303809551584699
 21
0.7008854976470614
 31
2.6165532729865011
  0
LINE
  5
1219
  8
PÉS_-_MONTANTES
 10
25.7303809551584699
 20
0.7008854976470614
 30
2.6165532729865011
 11
25.8698040320815785
 21
0.8403085745701037
 31
3.8665532729866001
  0
LINE
  5
121A
  8
PÉS_-_MONTANTES
 10
25.8698040320815785
 20
0.8403085745701037
 30
3.8665532729866001
 11
26.00922710900468
 21
0.9797316514931321
 31
5.1165532729865939
  0
LINE
  5
121B
  8
PÉS_-_MONTANTES
 10
26.00922710900468
 20
0.9797316514931321
 30
5.1165532729865939
 11
26.1486501859277816
 21
1.119154728416162
 31
6.3665532729865957
  0
LINE
  5
121C
  8
PÉS_-_MONTANTES
 10
26.1486501859277816
 20
1.119154728416162
 30
6.3665532729865957
 11
26.2880732628508795
 21
1.2585778053391889
 31
7.6165532729865841
  0
LINE
  5
121D
  8
PÉS_-_MONTANTES
 10
25.659387365414851
 20
0.4917508822624857
 30
0.7415532729865442
 11
25.8672399295174209
 21
0.561462420723978
 31
1.366553272986526
  0
LINE
  5
121E
  8
PÉS_-_MONTANTES
 10
25.8672399295174209
 20
0.561462420723978
 30
1.366553272986526
 11
26.0750924936199588
 21
0.6311739591854629
 31
1.9915532729864329
  0
LINE
  5
121F
  8
PÉS_-_MONTANTES
 10
26.0750924936199588
 20
0.6311739591854629
 30
1.9915532729864329
 11
26.282945057722511
 21
0.7008854976469503
 31
2.6165532729863661
  0
LINE
  5
1220
  8
PÉS_-_MONTANTES
 10
26.282945057722511
 20
0.7008854976469503
 30
2.6165532729863661
 11
26.4907976218251306
 21
0.7705970361084589
 31
3.24155327298649
  0
LINE
  5
1221
  8
PÉS_-_MONTANTES
 10
26.4907976218251306
 20
0.7705970361084589
 30
3.24155327298649
 11
26.698650185927729
 21
0.8403085745699639
 31
3.8665532729865828
  0
LINE
  5
1222
  8
PÉS_-_MONTANTES
 10
26.698650185927729
 20
0.8403085745699639
 30
3.8665532729865828
 11
26.9065027500302811
 21
0.9100201130314522
 31
4.4915532729865202
  0
LINE
  5
1223
  8
PÉS_-_MONTANTES
 10
26.9065027500302811
 20
0.9100201130314522
 30
4.4915532729865202
 11
27.1143553141328688
 21
0.9797316514929566
 31
5.1165532729865957
  0
LINE
  5
1224
  8
PÉS_-_MONTANTES
 10
27.1143553141328688
 20
0.9797316514929566
 30
5.1165532729865957
 11
27.3222078782353215
 21
1.049443189954409
 31
5.7415532729862182
  0
LINE
  5
1225
  8
PÉS_-_MONTANTES
 10
27.3222078782353215
 20
1.049443189954409
 30
5.7415532729862182
 11
27.5300604423380086
 21
1.119154728415946
 31
6.3665532729865939
  0
LINE
  5
1226
  8
PÉS_-_MONTANTES
 10
27.5300604423380086
 20
1.119154728415946
 30
6.3665532729865939
 11
27.7301712427202709
 21
1.1862697616975411
 31
6.9682742610288573
  0
LINE
  5
1227
  8
PÉS_-_MONTANTES
 10
27.7301712427202709
 20
1.1862697616975411
 30
6.9682742610288573
 11
27.94576557054312
 21
1.2585778053389349
 31
7.6165532729865841
  0
LINE
  5
1228
  8
PÉS_-_DIAGONAIS_VERTICAIS
 10
26.1454450577226183
 20
1.1159496002111251
 30
3.2415532729865282
 11
26.4907976218250916
 21
0.7705970361085202
 31
3.2415532729864749
  0
LINE
  5
1229
  8
PÉS_-_DIAGONAIS_VERTICAIS
 10
26.7005732628509413
 20
1.671077805339132
 30
5.7415532729865868
 11
27.3222078782354316
 21
1.0494431899544669
 31
5.7415532729865912
  0
LINE
  5
122A
  8
PÉS_-_DIAGONAIS_VERTICAIS
 10
26.4943232628510295
 20
2.2936739591852122
 30
6.679053272986434
 11
26.2880732628510998
 21
2.9162701130313051
 31
7.6165532729863026
  0
LINE
  5
122B
  8
PÉS_-_DIAGONAIS_VERTICAIS
 10
27.3231694166969703
 20
1.464827805339056
 30
6.6790532729864873
 11
27.94576557054312
 21
1.2585778053389349
 31
7.6165532729865841
  0
LINE
  5
122C
  8
PÉS_-_DIAGONAIS_VERTICAIS
 10
26.1486501859278491
 20
1.6691547284162429
 30
6.3665532729866001
 11
26.1486501859279983
 21
2.500564984826525
 31
6.3665532729865726
  0
LINE
  5
122D
  8
PÉS_-_DIAGONAIS_VERTICAIS
 10
26.6986501859278
 20
1.1191547284161569
 30
6.366553272986577
 11
27.5300604423379909
 21
1.1191547284160031
 31
6.3665532729865753
  0
ENDSEC
  0
EOF
